  0
SECTION
  2
HEADER
  9
$ACADVER
  1
AC1027
  9
$ACADMAINTVER
 70
105
  9
$DWGCODEPAGE
  3
ANSI_1252
  9
$LASTSAVEDBY
  1
ezdxf
  9
$REQUIREDVERSIONS
160
0
  9
$INSBASE
 10
0.0
 20
0.0
 30
0.0
  9
$EXTMIN
 10
-100
 20
-100
 30
-100
  9
$EXTMAX
 10
100
 20
100
 30
100
  9
$LIMMIN
 10
0.0
 20
0.0
  9
$LIMMAX
 10
420.0
 20
297.0
  9
$ORTHOMODE
 70
0
  9
$REGENMODE
 70
1
  9
$FILLMODE
 70
1
  9
$QTEXTMODE
 70
0
  9
$MIRRTEXT
 70
1
  9
$LTSCALE
 40
1.0
  9
$ATTMODE
 70
1
  9
$TEXTSIZE
 40
2.5
  9
$TRACEWID
 40
1.0
  9
$TEXTSTYLE
  7
Standard
  9
$CLAYER
  8
0
  9
$CELTYPE
  6
ByLayer
  9
$CECOLOR
 62
256
  9
$CELTSCALE
 40
1.0
  9
$DISPSILH
 70
0
  9
$DIMSCALE
 40
1.0
  9
$DIMASZ
 40
2.5
  9
$DIMEXO
 40
0.625
  9
$DIMDLI
 40
3.75
  9
$DIMRND
 40
0.0
  9
$DIMDLE
 40
0.0
  9
$DIMEXE
 40
1.25
  9
$DIMTP
 40
0.0
  9
$DIMTM
 40
0.0
  9
$DIMTXT
 40
2.5
  9
$DIMCEN
 40
2.5
  9
$DIMTSZ
 40
0.0
  9
$DIMTOL
 70
0
  9
$DIMLIM
 70
0
  9
$DIMTIH
 70
0
  9
$DIMTOH
 70
0
  9
$DIMSE1
 70
0
  9
$DIMSE2
 70
0
  9
$DIMTAD
 70
1
  9
$DIMZIN
 70
8
  9
$DIMBLK
  1

  9
$DIMASO
 70
1
  9
$DIMSHO
 70
1
  9
$DIMPOST
  1

  9
$DIMAPOST
  1

  9
$DIMALT
 70
0
  9
$DIMALTD
 70
3
  9
$DIMALTF
 40
0.03937007874
  9
$DIMLFAC
 40
1.0
  9
$DIMTOFL
 70
1
  9
$DIMTVP
 40
0.0
  9
$DIMTIX
 70
0
  9
$DIMSOXD
 70
0
  9
$DIMSAH
 70
0
  9
$DIMBLK1
  1

  9
$DIMBLK2
  1

  9
$DIMSTYLE
  2
ISO-25
  9
$DIMCLRD
 70
0
  9
$DIMCLRE
 70
0
  9
$DIMCLRT
 70
0
  9
$DIMTFAC
 40
1.0
  9
$DIMGAP
 40
0.625
  9
$DIMJUST
 70
0
  9
$DIMSD1
 70
0
  9
$DIMSD2
 70
0
  9
$DIMTOLJ
 70
0
  9
$DIMTZIN
 70
8
  9
$DIMALTZ
 70
0
  9
$DIMALTTZ
 70
0
  9
$DIMUPT
 70
0
  9
$DIMDEC
 70
2
  9
$DIMTDEC
 70
2
  9
$DIMALTU
 70
2
  9
$DIMALTTD
 70
3
  9
$DIMTXSTY
  7
Standard
  9
$DIMAUNIT
 70
0
  9
$DIMADEC
 70
0
  9
$DIMALTRND
 40
0.0
  9
$DIMAZIN
 70
0
  9
$DIMDSEP
 70
44
  9
$DIMATFIT
 70
3
  9
$DIMFRAC
 70
0
  9
$DIMLDRBLK
  1

  9
$DIMLUNIT
 70
2
  9
$DIMLWD
 70
-2
  9
$DIMLWE
 70
-2
  9
$DIMTMOVE
 70
0
  9
$DIMFXL
 40
1.0
  9
$DIMFXLON
 70
0
  9
$DIMJOGANG
 40
0.785398163397
  9
$DIMTFILL
 70
0
  9
$DIMTFILLCLR
 70
0
  9
$DIMARCSYM
 70
0
  9
$DIMLTYPE
  6

  9
$DIMLTEX1
  6

  9
$DIMLTEX2
  6

  9
$DIMTXTDIRECTION
 70
0
  9
$LUNITS
 70
2
  9
$LUPREC
 70
4
  9
$SKETCHINC
 40
1.0
  9
$FILLETRAD
 40
10.0
  9
$AUNITS
 70
0
  9
$AUPREC
 70
2
  9
$MENU
  1
.
  9
$ELEVATION
 40
0.0
  9
$PELEVATION
 40
0.0
  9
$THICKNESS
 40
0.0
  9
$LIMCHECK
 70
0
  9
$CHAMFERA
 40
0.0
  9
$CHAMFERB
 40
0.0
  9
$CHAMFERC
 40
0.0
  9
$CHAMFERD
 40
0.0
  9
$SKPOLY
 70
0
  9
$TDCREATE
 40
2459556.350821759
  9
$TDUCREATE
 40
2458532.153996898
  9
$TDUPDATE
 40
2459556.350821759
  9
$TDUUPDATE
 40
2458532.1544311
  9
$TDINDWG
 40
0.0
  9
$TDUSRTIMER
 40
0.0
  9
$USRTIMER
 70
1
  9
$ANGBASE
 50
0.0
  9
$ANGDIR
 70
0
  9
$PDMODE
 70
0
  9
$PDSIZE
 40
0.0
  9
$PLINEWID
 40
0.0
  9
$SPLFRAME
 70
0
  9
$SPLINETYPE
 70
6
  9
$SPLINESEGS
 70
8
  9
$HANDSEED
  5
80
  9
$SURFTAB1
 70
6
  9
$SURFTAB2
 70
6
  9
$SURFTYPE
 70
6
  9
$SURFU
 70
6
  9
$SURFV
 70
6
  9
$UCSBASE
  2

  9
$UCSNAME
  2

  9
$UCSORG
 10
0.0
 20
0.0
 30
0.0
  9
$UCSXDIR
 10
1.0
 20
0.0
 30
0.0
  9
$UCSYDIR
 10
0.0
 20
1.0
 30
0.0
  9
$UCSORTHOREF
  2

  9
$UCSORTHOVIEW
 70
0
  9
$UCSORGTOP
 10
0.0
 20
0.0
 30
0.0
  9
$UCSORGBOTTOM
 10
0.0
 20
0.0
 30
0.0
  9
$UCSORGLEFT
 10
0.0
 20
0.0
 30
0.0
  9
$UCSORGRIGHT
 10
0.0
 20
0.0
 30
0.0
  9
$UCSORGFRONT
 10
0.0
 20
0.0
 30
0.0
  9
$UCSORGBACK
 10
0.0
 20
0.0
 30
0.0
  9
$PUCSBASE
  2

  9
$PUCSNAME
  2

  9
$PUCSORG
 10
0.0
 20
0.0
 30
0.0
  9
$PUCSXDIR
 10
1.0
 20
0.0
 30
0.0
  9
$PUCSYDIR
 10
0.0
 20
1.0
 30
0.0
  9
$PUCSORTHOREF
  2

  9
$PUCSORTHOVIEW
 70
0
  9
$PUCSORGTOP
 10
0.0
 20
0.0
 30
0.0
  9
$PUCSORGBOTTOM
 10
0.0
 20
0.0
 30
0.0
  9
$PUCSORGLEFT
 10
0.0
 20
0.0
 30
0.0
  9
$PUCSORGRIGHT
 10
0.0
 20
0.0
 30
0.0
  9
$PUCSORGFRONT
 10
0.0
 20
0.0
 30
0.0
  9
$PUCSORGBACK
 10
0.0
 20
0.0
 30
0.0
  9
$USERI1
 70
0
  9
$USERI2
 70
0
  9
$USERI3
 70
0
  9
$USERI4
 70
0
  9
$USERI5
 70
0
  9
$USERR1
 40
0.0
  9
$USERR2
 40
0.0
  9
$USERR3
 40
0.0
  9
$USERR4
 40
0.0
  9
$USERR5
 40
0.0
  9
$WORLDVIEW
 70
1
  9
$SHADEDGE
 70
3
  9
$SHADEDIF
 70
70
  9
$TILEMODE
 70
1
  9
$MAXACTVP
 70
64
  9
$PINSBASE
 10
0.0
 20
0.0
 30
0.0
  9
$PLIMCHECK
 70
0
  9
$PEXTMIN
 10
1e+20
 20
1e+20
 30
1e+20
  9
$PEXTMAX
 10
-1e+20
 20
-1e+20
 30
-1e+20
  9
$PLIMMIN
 10
0.0
 20
0.0
  9
$PLIMMAX
 10
420.0
 20
297.0
  9
$UNITMODE
 70
0
  9
$VISRETAIN
 70
1
  9
$PLINEGEN
 70
0
  9
$PSLTSCALE
 70
1
  9
$TREEDEPTH
 70
3020
  9
$CMLSTYLE
  2
Standard
  9
$CMLJUST
 70
0
  9
$CMLSCALE
 40
20.0
  9
$PROXYGRAPHICS
 70
1
  9
$MEASUREMENT
 70
1
  9
$CELWEIGHT
370
-1
  9
$ENDCAPS
280
0
  9
$JOINSTYLE
280
0
  9
$LWDISPLAY
290
0
  9
$INSUNITS
 70
6
  9
$HYPERLINKBASE
  1

  9
$STYLESHEET
  1

  9
$XEDIT
290
1
  9
$CEPSNTYPE
380
0
  9
$PSTYLEMODE
290
1
  9
$FINGERPRINTGUID
  2
31B3DFA0-5737-11EC-8BBB-4CEBBD4FBFC7
  9
$VERSIONGUID
  2
31BF8FDA-5737-11EC-8BBB-4CEBBD4FBFC7
  9
$EXTNAMES
290
1
  9
$PSVPSCALE
 40
0.0
  9
$OLESTARTUP
290
0
  9
$SORTENTS
280
127
  9
$INDEXCTL
280
0
  9
$HIDETEXT
280
1
  9
$XCLIPFRAME
280
2
  9
$HALOGAP
280
0
  9
$OBSCOLOR
 70
257
  9
$OBSLTYPE
280
0
  9
$INTERSECTIONDISPLAY
280
0
  9
$INTERSECTIONCOLOR
 70
257
  9
$DIMASSOC
280
2
  9
$PROJECTNAME
  1

  9
$CAMERADISPLAY
290
0
  9
$LENSLENGTH
 40
50.0
  9
$CAMERAHEIGHT
 40
0.0
  9
$STEPSPERSEC
 40
24.0
  9
$STEPSIZE
 40
100.0
  9
$3DDWFPREC
 40
2.0
  9
$PSOLWIDTH
 40
0.005
  9
$PSOLHEIGHT
 40
0.08
  9
$LOFTANG1
 40
1.570796326795
  9
$LOFTANG2
 40
1.570796326795
  9
$LOFTMAG1
 40
0.0
  9
$LOFTMAG2
 40
0.0
  9
$LOFTPARAM
 70
7
  9
$LOFTNORMALS
280
1
  9
$LATITUDE
 40
37.795
  9
$LONGITUDE
 40
-122.394
  9
$NORTHDIRECTION
 40
0.0
  9
$TIMEZONE
 70
-8000
  9
$LIGHTGLYPHDISPLAY
280
1
  9
$TILEMODELIGHTSYNCH
280
1
  9
$CMATERIAL
347
20
  9
$SOLIDHIST
280
0
  9
$SHOWHIST
280
1
  9
$DWFFRAME
280
2
  9
$DGNFRAME
280
2
  9
$REALWORLDSCALE
290
1
  9
$INTERFERECOLOR
 62
256
  9
$CSHADOW
280
0
  9
$SHADOWPLANELOCATION
 40
0.0
  0
ENDSEC
  0
SECTION
  2
CLASSES
  0
CLASS
  1
ACDBDICTIONARYWDFLT
  2
AcDbDictionaryWithDefault
  3
ObjectDBX Classes
 90
0
 91
0
280
0
281
0
  0
CLASS
  1
SUN
  2
AcDbSun
  3
SCENEOE
 90
1153
 91
0
280
0
281
0
  0
CLASS
  1
VISUALSTYLE
  2
AcDbVisualStyle
  3
ObjectDBX Classes
 90
4095
 91
0
280
0
281
0
  0
CLASS
  1
MATERIAL
  2
AcDbMaterial
  3
ObjectDBX Classes
 90
1153
 91
0
280
0
281
0
  0
CLASS
  1
SCALE
  2
AcDbScale
  3
ObjectDBX Classes
 90
1153
 91
0
280
0
281
0
  0
CLASS
  1
TABLESTYLE
  2
AcDbTableStyle
  3
ObjectDBX Classes
 90
4095
 91
0
280
0
281
0
  0
CLASS
  1
MLEADERSTYLE
  2
AcDbMLeaderStyle
  3
ACDB_MLEADERSTYLE_CLASS
 90
4095
 91
0
280
0
281
0
  0
CLASS
  1
DICTIONARYVAR
  2
AcDbDictionaryVar
  3
ObjectDBX Classes
 90
0
 91
0
280
0
281
0
  0
CLASS
  1
CELLSTYLEMAP
  2
AcDbCellStyleMap
  3
ObjectDBX Classes
 90
1152
 91
0
280
0
281
0
  0
CLASS
  1
MENTALRAYRENDERSETTINGS
  2
AcDbMentalRayRenderSettings
  3
SCENEOE
 90
1024
 91
0
280
0
281
0
  0
CLASS
  1
ACDBDETAILVIEWSTYLE
  2
AcDbDetailViewStyle
  3
ObjectDBX Classes
 90
1025
 91
0
280
0
281
0
  0
CLASS
  1
ACDBSECTIONVIEWSTYLE
  2
AcDbSectionViewStyle
  3
ObjectDBX Classes
 90
1025
 91
0
280
0
281
0
  0
CLASS
  1
RASTERVARIABLES
  2
AcDbRasterVariables
  3
ISM
 90
0
 91
0
280
0
281
0
  0
CLASS
  1
LAYOUT
  2
AcDbLayout
  3
ObjectDBX Classes
 90
0
 91
0
280
0
281
0
  0
CLASS
  1
ACDBPLACEHOLDER
  2
AcDbPlaceHolder
  3
ObjectDBX Classes
 90
0
 91
0
280
0
281
0
  0
ENDSEC
  0
SECTION
  2
TABLES
  0
TABLE
  2
VPORT
  5
8
330
0
100
AcDbSymbolTable
 70
1
  0
VPORT
  5
23
330
8
100
AcDbSymbolTableRecord
100
AcDbViewportTableRecord
  2
*Active
 70
0
 10
0.0
 20
0.0
 11
1.0
 21
1.0
 12
70.0
 22
50.0
 13
0.0
 23
0.0
 14
0.5
 24
0.5
 15
0.5
 25
0.5
 16
0.0
 26
0.0
 36
1.0
 17
0.0
 27
0.0
 37
0.0
 40
1.0
 41
1.34
 42
50.0
 43
0.0
 44
0.0
 50
0.0
 51
0.0
 71
0
 72
1000
 73
1
 74
3
 75
0
 76
0
 77
0
 78
0
281
0
 65
0
146
0.0
  0
ENDTAB
  0
TABLE
  2
LTYPE
  5
2
330
0
100
AcDbSymbolTable
 70
3
  0
LTYPE
  5
24
330
2
100
AcDbSymbolTableRecord
100
AcDbLinetypeTableRecord
  2
ByBlock
 70
0
  3

 72
65
 73
0
 40
0.0
  0
LTYPE
  5
25
330
2
100
AcDbSymbolTableRecord
100
AcDbLinetypeTableRecord
  2
ByLayer
 70
0
  3

 72
65
 73
0
 40
0.0
  0
LTYPE
  5
26
330
2
100
AcDbSymbolTableRecord
100
AcDbLinetypeTableRecord
  2
Continuous
 70
0
  3

 72
65
 73
0
 40
0.0
  0
ENDTAB
  0
TABLE
  2
LAYER
  5
1
330
0
100
AcDbSymbolTable
 70
2
  0
LAYER
  5
27
330
1
100
AcDbSymbolTableRecord
100
AcDbLayerTableRecord
  2
0
 70
0
 62
7
  6
Continuous
370
-3
390
13
347
21
  0
LAYER
  5
28
330
1
100
AcDbSymbolTableRecord
100
AcDbLayerTableRecord
  2
Defpoints
 70
0
 62
7
  6
Continuous
290
0
370
-3
390
13
347
21
  0
ENDTAB
  0
TABLE
  2
STYLE
  5
5
330
0
100
AcDbSymbolTable
 70
1
  0
STYLE
  5
29
330
5
100
AcDbSymbolTableRecord
100
AcDbTextStyleTableRecord
  2
Standard
 70
0
 40
0.0
 41
1.0
 50
0.0
 71
0
 42
2.5
  3
txt
  4

  0
ENDTAB
  0
TABLE
  2
VIEW
  5
7
330
0
100
AcDbSymbolTable
 70
0
  0
ENDTAB
  0
TABLE
  2
UCS
  5
6
330
0
100
AcDbSymbolTable
 70
0
  0
ENDTAB
  0
TABLE
  2
APPID
  5
3
330
0
100
AcDbSymbolTable
 70
2
  0
APPID
  5
2A
330
3
100
AcDbSymbolTableRecord
100
AcDbRegAppTableRecord
  2
ACAD
 70
0
  0
APPID
  5
7F
330
3
100
AcDbSymbolTableRecord
100
AcDbRegAppTableRecord
  2
HATCHBACKGROUNDCOLOR
 70
0
  0
ENDTAB
  0
TABLE
  2
DIMSTYLE
  5
4
330
0
100
AcDbSymbolTable
 70
1
100
AcDbDimStyleTable
  0
DIMSTYLE
105
2B
330
4
100
AcDbSymbolTableRecord
100
AcDbDimStyleTableRecord
  2
Standard
 70
0
 40
1.0
 41
2.5
 42
0.625
 43
3.75
 44
1.25
 45
0.0
 46
0.0
 47
0.0
 48
0.0
 49
2.5
140
2.5
141
2.5
142
0.0
143
0.03937007874
144
1.0
145
0.0
146
1.0
147
0.625
148
0.0
 69
0
 70
0
 71
0
 72
0
 73
0
 74
0
 75
0
 76
0
 77
1
 78
8
 79
0
170
0
171
3
172
1
173
0
174
0
175
0
176
0
177
0
178
0
179
0
271
0
272
2
273
2
274
3
275
0
276
0
277
2
278
44
279
0
280
0
281
0
282
0
283
0
284
8
285
0
286
0
288
0
289
3
290
0
371
-2
372
-2
  0
ENDTAB
  0
TABLE
  2
BLOCK_RECORD
  5
9
330
0
100
AcDbSymbolTable
 70
2
  0
BLOCK_RECORD
  5
17
330
9
100
AcDbSymbolTableRecord
100
AcDbBlockTableRecord
  2
*Model_Space
340
1A
 70
0
280
1
281
0
  0
BLOCK_RECORD
  5
1B
330
9
100
AcDbSymbolTableRecord
100
AcDbBlockTableRecord
  2
*Paper_Space
340
1E
 70
0
280
1
281
0
  0
ENDTAB
  0
ENDSEC
  0
SECTION
  2
BLOCKS
  0
BLOCK
  5
18
330
17
100
AcDbEntity
  8
0
100
AcDbBlockBegin
  2
*Model_Space
 70
0
 10
0.0
 20
0.0
 30
0.0
  3
*Model_Space
  1

  0
ENDBLK
  5
19
330
17
100
AcDbEntity
  8
0
100
AcDbBlockEnd
  0
BLOCK
  5
1C
330
1B
100
AcDbEntity
  8
0
100
AcDbBlockBegin
  2
*Paper_Space
 70
0
 10
0.0
 20
0.0
 30
0.0
  3
*Paper_Space
  1

  0
ENDBLK
  5
1D
330
1B
100
AcDbEntity
  8
0
100
AcDbBlockEnd
  0
ENDSEC
  0
SECTION
  2
ENTITIES
  0
LINE
  5
2D
330
17
100
AcDbEntity
  8
0
100
AcDbLine
 10
-52.00000000000001
 20
-27.500000000000004
 30
2.0
 11
52.00000000000001
 21
-27.500000000000004
 31
2.0
  0
ARC
  5
2E
330
17
100
AcDbEntity
  8
0
100
AcDbCircle
 10
-52.00000000000001
 20
-24.500000000000004
 30
2.0
 40
3.0
100
AcDbArc
 50
180.0
 51
270.0
  0
ARC
  5
2F
330
17
100
AcDbEntity
  8
0
100
AcDbCircle
 10
52.00000000000001
 20
-24.500000000000004
 30
2.0
 40
3.0
100
AcDbArc
 50
-90.0
 51
0.0
  0
LINE
  5
30
330
17
100
AcDbEntity
  8
0
100
AcDbLine
 10
-55.00000000000001
 20
24.500000000000004
 30
2.0
 11
-55.00000000000001
 21
-24.500000000000004
 31
2.0
  0
LINE
  5
31
330
17
100
AcDbEntity
  8
0
100
AcDbLine
 10
55.00000000000001
 20
-24.500000000000004
 30
2.0
 11
55.00000000000001
 21
24.500000000000004
 31
2.0
  0
ARC
  5
32
330
17
100
AcDbEntity
  8
0
100
AcDbCircle
 10
-52.00000000000001
 20
24.500000000000004
 30
2.0
 40
3.0
100
AcDbArc
 50
90.0
 51
180.0
  0
ARC
  5
33
330
17
100
AcDbEntity
  8
0
100
AcDbCircle
 10
52.00000000000001
 20
24.500000000000004
 30
2.0
 40
3.0
100
AcDbArc
 50
0.0
 51
90.0
  0
LINE
  5
34
330
17
100
AcDbEntity
  8
0
100
AcDbLine
 10
52.00000000000001
 20
27.500000000000004
 30
2.0
 11
-52.00000000000001
 21
27.500000000000004
 31
2.0
  0
LINE
  5
35
330
17
100
AcDbEntity
  8
0
100
AcDbLine
 10
-13.849934995833323
 20
-13.100018919173179
 30
2.0
 11
-13.849934995833323
 21
-18.300051471256513
 31
2.0
  0
LINE
  5
36
330
17
100
AcDbEntity
  8
0
100
AcDbLine
 10
-13.84993499583333
 20
-18.300051471256513
 30
2.0
 11
-8.649902443749987
 21
-18.300051471256513
 31
2.0
  0
LINE
  5
37
330
17
100
AcDbEntity
  8
0
100
AcDbLine
 10
-8.649902443749987
 20
-18.300051471256513
 30
2.0
 11
-8.649902443749987
 21
-13.100018919173179
 31
2.0
  0
LINE
  5
38
330
17
100
AcDbEntity
  8
0
100
AcDbLine
 10
-8.64990244374999
 20
-13.100018919173179
 30
2.0
 11
-13.84993499583333
 21
-13.100018919173179
 31
2.0
  0
SPLINE
  5
39
330
17
100
AcDbEntity
  8
0
100
AcDbSpline
 70
0
 71
7
 72
58
 73
50
 74
0
 40
0.0
 40
0.0
 40
0.0
 40
0.0
 40
0.0
 40
0.0
 40
0.0
 40
0.0
 40
0.23340518825522907
 40
0.23340518825522907
 40
0.23340518825522907
 40
0.23340518825522907
 40
0.23340518825522907
 40
0.23340518825522907
 40
0.4272305952631856
 40
0.4272305952631856
 40
0.4272305952631856
 40
0.4272305952631856
 40
0.4272305952631856
 40
0.4272305952631856
 40
0.546389883655416
 40
0.546389883655416
 40
0.546389883655416
 40
0.546389883655416
 40
0.546389883655416
 40
0.546389883655416
 40
0.6049362877431018
 40
0.6049362877431018
 40
0.6049362877431018
 40
0.6049362877431018
 40
0.6049362877431018
 40
0.6049362877431018
 40
0.7165849047730436
 40
0.7165849047730436
 40
0.7165849047730436
 40
0.7165849047730436
 40
0.7165849047730436
 40
0.7165849047730436
 40
0.8273902657747707
 40
0.8273902657747707
 40
0.8273902657747707
 40
0.8273902657747707
 40
0.8273902657747707
 40
0.8273902657747707
 40
0.8841237096361593
 40
0.8841237096361593
 40
0.8841237096361593
 40
0.8841237096361593
 40
0.8841237096361593
 40
0.8841237096361593
 40
1.0
 40
1.0
 40
1.0
 40
1.0
 40
1.0
 40
1.0
 40
1.0
 40
1.0
 10
-43.49983733958333
 20
-2.1499863670898485
 30
2.0
 10
-43.499837284834626
 20
-2.9459253396779133
 30
2.0
 10
-43.48514420966523
 20
-3.741753059323253
 30
2.0
 10
-43.45434453147701
 20
-4.537284403495882
 30
2.0
 10
-43.405765750594604
 20
-5.332080337604371
 30
2.0
 10
-43.33741136658184
 20
-6.1254432249312
 30
2.0
 10
-43.246900330195935
 20
-6.916411835464107
 30
2.0
 10
-43.03516712731903
 20
-8.357562828894984
 30
2.0
 10
-42.921784941655005
 20
-9.008673124767046
 30
2.0
 10
-42.78935960275869
 20
-9.656483141414855
 30
2.0
 10
-42.63590911012826
 20
-10.299912874134382
 30
2.0
 10
-42.45918088310521
 20
-10.937391488282426
 30
2.0
 10
-42.256631111250314
 20
-11.566852017748246
 30
2.0
 10
-41.883231389694295
 20
-12.566189798585054
 30
2.0
 10
-41.7302543334683
 20
-12.942583489618842
 30
2.0
 10
-41.56581350683439
 20
-13.31427496425874
 30
2.0
 10
-41.38925809394719
 20
-13.68047512467666
 30
2.0
 10
-41.19995339360291
 20
-14.040244218312784
 30
2.0
 10
-40.99732109351846
 20
-14.392511924764777
 30
2.0
 10
-40.674566136813425
 20
-14.904926531956047
 30
2.0
 10
-40.564906776516246
 20
-15.071646643078013
 30
2.0
 10
-40.451870491792484
 20
-15.236125566542635
 30
2.0
 10
-40.33541406124727
 20
-15.398213270913198
 30
2.0
 10
-40.215505059465144
 20
-15.557754208118851
 30
2.0
 10
-40.09212439459433
 20
-15.714589165698206
 30
2.0
 10
-39.72335396163468
 20
-16.162175648237845
 30
2.0
 10
-39.46876254764383
 20
-16.44541548594655
 30
2.0
 10
-39.20152303254901
 20
-16.717086817226654
 30
2.0
 10
-38.92183329184576
 20
-16.976062969557443
 30
2.0
 10
-38.63010404262515
 20
-17.221327703061508
 30
2.0
 10
-38.3270022382646
 20
-17.45202250072641
 30
2.0
 10
-37.70235453925719
 20
-17.88133781149164
 30
2.0
 10
-37.38088972728921
 20
-18.0802393210733
 30
2.0
 10
-37.05003535676544
 20
-18.26354801933155
 30
2.0
 10
-36.71080842590043
 20
-18.43095565649475
 30
2.0
 10
-36.364280022776484
 20
-18.58244082942225
 30
2.0
 10
-36.01154774654802
 20
-18.718213709967284
 30
2.0
 10
-35.470490695029774
 20
-18.90033086444682
 30
2.0
 10
-35.2859195160241
 20
-18.95798825467677
 30
2.0
 10
-35.100130610746575
 20
-19.011687572930988
 30
2.0
 10
-34.913253548928886
 20
-19.061496049160528
 30
2.0
 10
-34.72541073515841
 20
-19.107490903153973
 30
2.0
 10
-34.536716693119914
 20
-19.149756733325237
 30
2.0
 10
-33.96035339714728
 20
-19.267275657960575
 30
2.0
 10
-33.570341408094286
 20
-19.330980705174905
 30
2.0
 10
-33.1781095356681
 20
-19.380271207205542
 30
2.0
 10
-32.784403290699274
 20
-19.41599241018565
 30
2.0
 10
-32.38983919128042
 20
-19.438999488731014
 30
2.0
 10
-31.9949004924064
 20
-19.450116518002915
 30
2.0
 10
-31.599934995833333
 20
-19.45011657542318
 30
2.0
  0
SPLINE
  5
3A
330
17
100
AcDbEntity
  8
0
100
AcDbSpline
 70
0
 71
6
 72
29
 73
22
 74
0
 40
0.0
 40
0.0
 40
0.0
 40
0.0
 40
0.0
 40
0.0
 40
0.0
 40
0.2267631639385277
 40
0.2267631639385277
 40
0.2267631639385277
 40
0.2267631639385277
 40
0.2267631639385277
 40
0.35462555387333883
 40
0.35462555387333883
 40
0.35462555387333883
 40
0.35462555387333883
 40
0.35462555387333883
 40
0.6220762161532429
 40
0.6220762161532429
 40
0.6220762161532429
 40
0.6220762161532429
 40
0.6220762161532429
 40
1.0
 40
1.0
 40
1.0
 40
1.0
 40
1.0
 40
1.0
 40
1.0
 10
-31.599934995833333
 20
-19.45011657542318
 30
2.0
 10
-31.25025641665411
 20
-19.45011655205342
 30
2.0
 10
-30.900627862534446
 20
-19.44040702392279
 30
2.0
 10
-30.551383348179915
 20
-19.420462908082843
 30
2.0
 10
-30.20293824507833
 20
-19.389752891680722
 30
2.0
 10
-29.855785833428502
 20
-19.347777505986944
 30
2.0
 10
-29.315797956642758
 20
-19.263844730016945
 30
2.0
 10
-29.121694087111965
 20
-19.22986419876437
 30
2.0
 10
-28.928285193706753
 20
-19.192089171563442
 30
2.0
 10
-28.735681084069544
 20
-19.150450706389446
 30
2.0
 10
-28.54399779116547
 20
-19.104890340297185
 30
2.0
 10
-27.954592125366545
 20
-18.951766546387407
 30
2.0
 10
-27.560352189952454
 20
-18.83080457674699
 30
2.0
 10
-27.17181426705049
 20
-18.692076177019782
 30
2.0
 10
-26.790145946590822
 20
-18.535429196113533
 30
2.0
 10
-26.416477222980475
 20
-18.361033237505687
 30
2.0
 10
-25.536664081202787
 20
-17.898737640156675
 30
2.0
 10
-25.03938741381542
 20
-17.593621962652268
 30
2.0
 10
-24.563195363170266
 20
-17.255720473182034
 30
2.0
 10
-24.109919876844444
 20
-16.887740727612876
 30
2.0
 10
-23.680427248476235
 20
-16.49301544502801
 30
2.0
 10
-23.274902443749994
 20
-16.07511657542318
 30
2.0
  0
SPLINE
  5
3B
330
17
100
AcDbEntity
  8
0
100
AcDbSpline
 70
0
 71
6
 72
24
 73
17
 74
0
 40
0.0
 40
0.0
 40
0.0
 40
0.0
 40
0.0
 40
0.0
 40
0.0
 40
0.3170996504158833
 40
0.3170996504158833
 40
0.3170996504158833
 40
0.3170996504158833
 40
0.3170996504158833
 40
0.7453533335244925
 40
0.7453533335244925
 40
0.7453533335244925
 40
0.7453533335244925
 40
0.7453533335244925
 40
1.0
 40
1.0
 40
1.0
 40
1.0
 40
1.0
 40
1.0
 40
1.0
 10
-23.274902443749994
 20
-16.07511657542318
 30
2.0
 10
-22.92807319488321
 20
-15.717704170464108
 30
2.0
 10
-22.598730580778362
 20
-15.343321477284308
 30
2.0
 10
-22.288861033632728
 20
-14.952294930413942
 30
2.0
 10
-22.000247883465665
 20
-14.545306611283015
 30
2.0
 10
-21.734326407187655
 20
-14.12350196416314
 30
2.0
 10
-21.16482146588262
 20
-13.101244504472547
 30
2.0
 10
-20.880566403739532
 20
-12.489739873225211
 30
2.0
 10
-20.64176018986932
 20
-11.858437011157584
 30
2.0
 10
-20.448207035587565
 20
-11.211936145043893
 30
2.0
 10
-20.298040880492046
 20
-10.554738668386813
 30
2.0
 10
-20.123335040325454
 20
-9.496294654601442
 30
2.0
 10
-20.07253054774586
 20
-9.099193721560937
 30
2.0
 10
-20.035474745840904
 20
-8.700430892956154
 30
2.0
 10
-20.011483513479433
 20
-8.30065450118512
 30
2.0
 10
-19.999837364795876
 20
-7.900399891856466
 30
2.0
 10
-19.999837339583333
 20
-7.500084023339845
 30
2.0
  0
SPLINE
  5
3C
330
17
100
AcDbEntity
  8
0
100
AcDbSpline
 70
0
 71
6
 72
29
 73
22
 74
0
 40
0.0
 40
0.0
 40
0.0
 40
0.0
 40
0.0
 40
0.0
 40
0.0
 40
0.2740614157993977
 40
0.2740614157993977
 40
0.2740614157993977
 40
0.2740614157993977
 40
0.2740614157993977
 40
0.5007022526461445
 40
0.5007022526461445
 40
0.5007022526461445
 40
0.5007022526461445
 40
0.5007022526461445
 40
0.7189455350160661
 40
0.7189455350160661
 40
0.7189455350160661
 40
0.7189455350160661
 40
0.7189455350160661
 40
1.0
 40
1.0
 40
1.0
 40
1.0
 40
1.0
 40
1.0
 40
1.0
 10
-19.99983733958333
 20
-7.500084023339846
 30
2.0
 10
-19.99983736461958
 20
-7.093761813046546
 30
2.0
 10
-20.012167822812444
 20
-6.687516688635301
 30
2.0
 10
-20.037648577721427
 20
-6.281806000851203
 30
2.0
 10
-20.077127424870394
 20
-5.877236120701544
 30
2.0
 10
-20.131435590303482
 20
-5.474558088665904
 30
2.0
 10
-20.259057596183606
 20
-4.743953542118548
 30
2.0
 10
-20.327457224026947
 20
-4.415148578097255
 30
2.0
 10
-20.40689011558182
 20
-4.088762342839629
 30
2.0
 10
-20.497704099314266
 20
-3.765373217219222
 30
2.0
 10
-20.600148592312806
 20
-3.4456070480109227
 30
2.0
 10
-20.824279900223754
 20
-2.8263317854592045
 30
2.0
 10
-20.945117983217873
 20
-2.5264968523288895
 30
2.0
 10
-21.076934310509433
 20
-2.231224741753589
 30
2.0
 10
-21.219707706620213
 20
-1.9410977963190852
 30
2.0
 10
-21.373286044624308
 20
-1.6566668911227282
 30
2.0
 10
-21.74867092458994
 20
-1.0201439550778735
 30
2.0
 10
-21.977419128851
 20
-0.6720938299874675
 30
2.0
 10
-22.222959729688142
 20
-0.3354121716531715
 30
2.0
 10
-22.484350084290437
 20
-0.010883110038621524
 30
2.0
 10
-22.76042852956142
 20
0.30099048370030596
 30
2.0
 10
-23.049886167708333
 20
0.5999322527018203
 30
2.0
  0
SPLINE
  5
3D
330
17
100
AcDbEntity
  8
0
100
AcDbSpline
 70
0
 71
6
 72
29
 73
22
 74
0
 40
0.0
 40
0.0
 40
0.0
 40
0.0
 40
0.0
 40
0.0
 40
0.0
 40
0.3632855406653223
 40
0.3632855406653223
 40
0.3632855406653223
 40
0.3632855406653223
 40
0.3632855406653223
 40
0.6353678632209561
 40
0.6353678632209561
 40
0.6353678632209561
 40
0.6353678632209561
 40
0.6353678632209561
 40
0.7663030676132815
 40
0.7663030676132815
 40
0.7663030676132815
 40
0.7663030676132815
 40
0.7663030676132815
 40
1.0
 40
1.0
 40
1.0
 40
1.0
 40
1.0
 40
1.0
 40
1.0
 10
-23.04988616770833
 20
0.5999322527018207
 30
2.0
 10
-23.41453213067143
 20
0.9765257874896043
 30
2.0
 10
-23.800220295263593
 20
1.3327807258229334
 30
2.0
 10
-24.206758481926876
 20
1.6657027532357298
 30
2.0
 10
-24.633386980712395
 20
1.972517761115444
 30
2.0
 10
-25.078554441824952
 20
2.2509722813721487
 30
2.0
 10
-25.884979364539106
 20
2.6859623898465474
 30
2.0
 10
-26.23932369593697
 20
2.855598119588453
 30
2.0
 10
-26.60162492094068
 20
3.00802039212001
 30
2.0
 10
-26.970759784456643
 20
3.143056932234359
 30
2.0
 10
-27.34556564932764
 20
3.2608609773947586
 30
2.0
 10
-27.90740507369348
 20
3.4104268615019255
 30
2.0
 10
-28.0909899984547
 20
3.455123530929056
 30
2.0
 10
-28.27550222100723
 20
3.4959709629994093
 30
2.0
 10
-28.460824361444423
 20
3.5330291248236345
 30
2.0
 10
-28.646845587893306
 20
3.566368643462281
 30
2.0
 10
-29.166541225348407
 20
3.6490752150688337
 30
2.0
 10
-29.501514924936803
 20
3.690484742357434
 30
2.0
 10
-29.837802042307306
 20
3.7207439832909865
 30
2.0
 10
-30.174900011414962
 20
3.740371463217769
 30
2.0
 10
-30.512388858982025
 20
3.749915954275629
 30
2.0
 10
-30.849934995833333
 20
3.749915976660153
 30
2.0
  0
SPLINE
  5
3E
330
17
100
AcDbEntity
  8
0
100
AcDbSpline
 70
0
 71
6
 72
34
 73
27
 74
0
 40
0.0
 40
0.0
 40
0.0
 40
0.0
 40
0.0
 40
0.0
 40
0.0
 40
0.22579714266482082
 40
0.22579714266482082
 40
0.22579714266482082
 40
0.22579714266482082
 40
0.22579714266482082
 40
0.34635316252538745
 40
0.34635316252538745
 40
0.34635316252538745
 40
0.34635316252538745
 40
0.34635316252538745
 40
0.590221141967923
 40
0.590221141967923
 40
0.590221141967923
 40
0.590221141967923
 40
0.590221141967923
 40
0.859859762693252
 40
0.859859762693252
 40
0.859859762693252
 40
0.859859762693252
 40
0.859859762693252
 40
1.0
 40
1.0
 40
1.0
 40
1.0
 40
1.0
 40
1.0
 40
1.0
 10
-30.84993499583333
 20
3.749915976660153
 30
2.0
 10
-31.205165588339113
 20
3.749915949933058
 30
2.0
 10
-31.56033466901767
 20
3.7390654553896603
 30
2.0
 10
-31.9150380034702
 20
3.7166315778129246
 30
2.0
 10
-32.2687362368724
 20
3.681854570771476
 30
2.0
 10
-32.62075884013903
 20
3.633987564906343
 30
2.0
 10
-33.15694327797329
 20
3.539495687144082
 30
2.0
 10
-33.342868551713956
 20
3.502690684185154
 30
2.0
 10
-33.527964704325015
 20
3.461873274492861
 30
2.0
 10
-33.71209814160067
 20
3.416954525028469
 30
2.0
 10
-33.89512611398683
 20
3.367858637960214
 30
2.0
 10
-34.44459661269487
 20
3.206646329333653
 30
2.0
 10
-34.807201946848416
 20
3.0814211316193814
 30
2.0
 10
-35.163380853545604
 20
2.938388781648898
 30
2.0
 10
-35.51180836685614
 20
2.7773723640748593
 30
2.0
 10
-35.85121264664019
 20
2.5985850149416465
 30
2.0
 10
-36.54441638401533
 20
2.186185830108277
 30
2.0
 10
-36.89603842288231
 20
1.9487223276244892
 30
2.0
 10
-37.23366987934306
 20
1.6912904988245188
 30
2.0
 10
-37.556294062962486
 20
1.415313635844085
 30
2.0
 10
-37.863370086540826
 20
1.1225360264158881
 30
2.0
 10
-38.30612765752858
 20
0.6549625880343996
 30
2.0
 10
-38.45330974406601
 20
0.491019754266653
 30
2.0
 10
-38.596240985658284
 20
0.3232924886737317
 30
2.0
 10
-38.734939986587726
 20
0.15203285307682934
 30
2.0
 10
-38.86945111233252
 20
-0.02251412965367292
 30
2.0
 10
-38.99983733958333
 20
-0.20011657542317943
 30
2.0
  0
SPLINE
  5
3F
330
17
100
AcDbEntity
  8
0
100
AcDbSpline
 70
0
 71
6
 72
24
 73
17
 74
0
 40
0.0
 40
0.0
 40
0.0
 40
0.0
 40
0.0
 40
0.0
 40
0.0
 40
0.436123028424233
 40
0.436123028424233
 40
0.436123028424233
 40
0.436123028424233
 40
0.436123028424233
 40
0.7976195044457617
 40
0.7976195044457617
 40
0.7976195044457617
 40
0.7976195044457617
 40
0.7976195044457617
 40
1.0
 40
1.0
 40
1.0
 40
1.0
 40
1.0
 40
1.0
 40
1.0
 10
-38.99983733958333
 20
-0.20011657542317884
 30
2.0
 10
-38.99407250912296
 20
0.5497966120982881
 30
2.0
 10
-38.97235095222622
 20
1.2993484610724884
 30
2.0
 10
-38.93278058181915
 20
2.048265519172637
 30
2.0
 10
-38.87298199222932
 20
2.795824540812833
 30
2.0
 10
-38.790022920807395
 20
3.5408500451271046
 30
2.0
 10
-38.58855425545001
 20
4.895710363856786
 30
2.0
 10
-38.47858758915876
 20
5.506651219381982
 30
2.0
 10
-38.347661092662996
 20
6.113692018168761
 30
2.0
 10
-38.19299376963138
 20
6.715184574215294
 30
2.0
 10
-38.011294988165346
 20
7.308617857974717
 30
2.0
 10
-37.67949009103339
 20
8.216366024792183
 30
2.0
 10
-37.55070311736718
 20
8.538503716813613
 30
2.0
 10
-37.411535812360846
 20
8.856347823656245
 30
2.0
 10
-37.261289221874655
 20
9.169066291461933
 30
2.0
 10
-37.09927297841525
 20
9.475639459550928
 30
2.0
 10
-36.92488616770833
 20
9.774899700618489
 30
2.0
  0
SPLINE
  5
40
330
17
100
AcDbEntity
  8
0
100
AcDbSpline
 70
0
 71
6
 72
34
 73
27
 74
0
 40
0.0
 40
0.0
 40
0.0
 40
0.0
 40
0.0
 40
0.0
 40
0.0
 40
0.22151490669182494
 40
0.22151490669182494
 40
0.22151490669182494
 40
0.22151490669182494
 40
0.22151490669182494
 40
0.33565886006794937
 40
0.33565886006794937
 40
0.33565886006794937
 40
0.33565886006794937
 40
0.33565886006794937
 40
0.5623078037884569
 40
0.5623078037884569
 40
0.5623078037884569
 40
0.5623078037884569
 40
0.5623078037884569
 40
0.8424613417410891
 40
0.8424613417410891
 40
0.8424613417410891
 40
0.8424613417410891
 40
0.8424613417410891
 40
1.0
 40
1.0
 40
1.0
 40
1.0
 40
1.0
 40
1.0
 40
1.0
 10
-36.92488616770833
 20
9.774899700618489
 30
2.0
 10
-36.79191569059439
 20
10.003086465789378
 30
2.0
 10
-36.65165091778469
 20
10.226920292818326
 30
2.0
 10
-36.50369778863237
 20
10.445790700603913
 30
2.0
 10
-36.34769578697497
 20
10.658952566583116
 30
2.0
 10
-36.183346472519275
 20
10.865547158581363
 30
2.0
 10
-35.92141404054641
 20
11.167253570397948
 30
2.0
 10
-35.83008334609584
 20
11.267862013647013
 30
2.0
 10
-35.73647436779901
 20
11.366353087332946
 30
2.0
 10
-35.6405772991826
 20
11.462594220483133
 30
2.0
 10
-35.542395871224414
 20
11.556451134521799
 30
2.0
 10
-35.242502083048386
 20
11.829159199075697
 30
2.0
 10
-35.034096418892666
 20
12.00063147829223
 30
2.0
 10
-34.81694422292127
 20
12.161113153914025
 30
2.0
 10
-34.59144961038383
 20
12.309627655600428
 30
2.0
 10
-34.35826856255049
 20
12.445401206816008
 30
2.0
 10
-33.82183315810177
 20
12.719423085271114
 30
2.0
 10
-33.51491926858078
 20
12.85074676644038
 30
2.0
 10
-33.19948543364799
 20
12.960945435851542
 30
2.0
 10
-32.87746836554276
 20
13.050081279484312
 30
2.0
 10
-32.55077183125812
 20
13.11890381654711
 30
2.0
 10
-32.03583203536986
 20
13.196497709265687
 30
2.0
 10
-31.849538729426545
 20
13.218373306864331
 30
2.0
 10
-31.66257505572572
 20
13.23440376649872
 30
2.0
 10
-31.475186715084963
 20
13.244831496152615
 30
2.0
 10
-31.287582962945677
 20
13.24991595950001
 30
2.0
 10
-31.099934995833333
 20
13.249915976660153
 30
2.0
  0
SPLINE
  5
41
330
17
100
AcDbEntity
  8
0
100
AcDbSpline
 70
0
 71
6
 72
24
 73
17
 74
0
 40
0.0
 40
0.0
 40
0.0
 40
0.0
 40
0.0
 40
0.0
 40
0.0
 40
0.251092795895792
 40
0.251092795895792
 40
0.251092795895792
 40
0.251092795895792
 40
0.251092795895792
 40
0.6910853986825751
 40
0.6910853986825751
 40
0.6910853986825751
 40
0.6910853986825751
 40
0.6910853986825751
 40
1.0
 40
1.0
 40
1.0
 40
1.0
 40
1.0
 40
1.0
 40
1.0
 10
-31.099934995833333
 20
13.249915976660153
 30
2.0
 10
-30.92357972259467
 20
13.249915965925458
 30
2.0
 10
-30.747344028504752
 20
13.244977185356921
 30
2.0
 10
-30.57139997780344
 20
13.234835061731088
 30
2.0
 10
-30.395959824939723
 20
13.219222246093722
 30
2.0
 10
-30.221273964464686
 20
13.19788761947426
 30
2.0
 10
-29.743348736225727
 20
13.122825717849524
 30
2.0
 10
-29.442157558429322
 20
13.056787526116965
 30
2.0
 10
-29.145800968847855
 20
12.971351799325538
 30
2.0
 10
-28.85614919282664
 20
12.8657655818823
 30
2.0
 10
-28.575095708143827
 20
12.739961459186093
 30
2.0
 10
-28.114404070207474
 20
12.49309661410547
 30
2.0
 10
-27.929448324700356
 20
12.381761848404883
 30
2.0
 10
-27.750165366972993
 20
12.26123838093767
 30
2.0
 10
-27.576981404281266
 20
12.13200789849853
 30
2.0
 10
-27.410177724445976
 20
11.994676057395116
 30
2.0
 10
-27.249918719791662
 20
11.849932252701821
 30
2.0
  0
SPLINE
  5
42
330
17
100
AcDbEntity
  8
0
100
AcDbSpline
 70
0
 71
6
 72
24
 73
17
 74
0
 40
0.0
 40
0.0
 40
0.0
 40
0.0
 40
0.0
 40
0.0
 40
0.0
 40
0.27927176957187244
 40
0.27927176957187244
 40
0.27927176957187244
 40
0.27927176957187244
 40
0.27927176957187244
 40
0.5706740462174364
 40
0.5706740462174364
 40
0.5706740462174364
 40
0.5706740462174364
 40
0.5706740462174364
 40
1.0
 40
1.0
 40
1.0
 40
1.0
 40
1.0
 40
1.0
 40
1.0
 10
-27.249918719791662
 20
11.849932252701821
 30
2.0
 10
-27.093455191745477
 20
11.70861643038124
 30
2.0
 10
-26.9432204762104
 20
11.560374033793352
 30
2.0
 10
-26.79957779069161
 20
11.405567541408468
 30
2.0
 10
-26.66275204719688
 20
11.244638049373386
 30
2.0
 10
-26.53285272562188
 20
11.078084595486109
 30
2.0
 10
-26.28160002701556
 20
10.727346931552049
 30
2.0
 10
-26.16085487211834
 20
10.542699249351442
 30
2.0
 10
-26.047667142190182
 20
10.353090582058178
 30
2.0
 10
-25.941910785931015
 20
10.159104182705475
 30
2.0
 10
-25.843371505829463
 20
9.96128969580137
 30
2.0
 10
-25.616863077242044
 20
9.463775294543042
 30
2.0
 10
-25.497049176084193
 20
9.160189812824566
 30
2.0
 10
-25.39147839217273
 20
8.850879615839819
 30
2.0
 10
-25.299108718852104
 20
8.537126353063574
 30
2.0
 10
-25.21890742664244
 20
8.219928053785996
 30
2.0
 10
-25.149902443749994
 20
7.89998108082682
 30
2.0
  0
LINE
  5
43
330
17
100
AcDbEntity
  8
0
100
AcDbLine
 10
-25.149902443749994
 20
7.89998108082682
 30
2.0
 11
-20.74983733958333
 21
7.89998108082682
 31
2.0
  0
SPLINE
  5
44
330
17
100
AcDbEntity
  8
0
100
AcDbSpline
 70
0
 71
6
 72
29
 73
22
 74
0
 40
0.0
 40
0.0
 40
0.0
 40
0.0
 40
0.0
 40
0.0
 40
0.0
 40
0.37051693873813085
 40
0.37051693873813085
 40
0.37051693873813085
 40
0.37051693873813085
 40
0.37051693873813085
 40
0.6444440173633114
 40
0.6444440173633114
 40
0.6444440173633114
 40
0.6444440173633114
 40
0.6444440173633114
 40
0.9070737288269186
 40
0.9070737288269186
 40
0.9070737288269186
 40
0.9070737288269186
 40
0.9070737288269186
 40
1.0
 40
1.0
 40
1.0
 40
1.0
 40
1.0
 40
1.0
 40
1.0
 10
-20.74983733958333
 20
7.89998108082682
 30
2.0
 10
-20.82045751136201
 20
8.37253842699947
 30
2.0
 10
-20.90704523864224
 20
8.842546076636292
 30
2.0
 10
-21.010890554070386
 20
9.309162830388363
 30
2.0
 10
-21.133357039948347
 20
9.77120696403617
 30
2.0
 10
-21.27580932971418
 20
10.227175185312328
 30
2.0
 10
-21.560337807101433
 20
11.006603890753146
 30
2.0
 10
-21.692828065078064
 20
11.333610785749485
 30
2.0
 10
-21.83731541455469
 20
11.655576085708747
 30
2.0
 10
-21.994176757014912
 20
11.971662005503902
 30
2.0
 10
-22.163645873627974
 20
12.280973309475293
 30
2.0
 10
-22.52032764499557
 20
12.871772756169948
 30
2.0
 10
-22.706531492039876
 20
13.153901945609986
 30
2.0
 10
-22.90435506400183
 20
13.428144921132118
 30
2.0
 10
-23.113647197807197
 20
13.693724342438228
 30
2.0
 10
-23.33407123061645
 20
13.949945544313136
 30
2.0
 10
-23.64680755065125
 20
14.28336083512302
 30
2.0
 10
-23.729868531060475
 20
14.369257084480758
 30
2.0
 10
-23.814231945118493
 20
14.453884969474826
 30
2.0
 10
-23.899872199337597
 20
14.537222189750352
 30
2.0
 10
-23.986761507701754
 20
14.619249063755909
 30
2.0
 10
-24.074869891666662
 20
14.699948528743489
 30
2.0
  0
SPLINE
  5
45
330
17
100
AcDbEntity
  8
0
100
AcDbSpline
 70
0
 71
5
 72
24
 73
18
 74
0
 40
0.0
 40
0.0
 40
0.0
 40
0.0
 40
0.0
 40
0.0
 40
0.28591598950470426
 40
0.28591598950470426
 40
0.28591598950470426
 40
0.28591598950470426
 40
0.5068608350864257
 40
0.5068608350864257
 40
0.5068608350864257
 40
0.5068608350864257
 40
0.7336951392539526
 40
0.7336951392539526
 40
0.7336951392539526
 40
0.7336951392539526
 40
1.0
 40
1.0
 40
1.0
 40
1.0
 40
1.0
 40
1.0
 10
-24.074869891666662
 20
14.699948528743489
 30
2.0
 10
-24.384034363066963
 20
14.983115677107072
 30
2.0
 10
-24.70858432653639
 20
15.24940450556689
 30
2.0
 10
-25.048006869053808
 20
15.496780271295838
 30
2.0
 10
-25.4012742943374
 20
15.723573339076186
 30
2.0
 10
-26.04893499535323
 20
16.087385316928945
 30
2.0
 10
-26.3384950449669
 20
16.233110309740866
 30
2.0
 10
-26.6344975740887
 20
16.365520151590434
 30
2.0
 10
-26.936059118798717
 20
16.48449942020503
 30
2.0
 10
-27.55659404059362
 20
16.698693474204827
 30
2.0
 10
-27.875834155714166
 20
16.79319580015022
 30
2.0
 10
-28.198977402813966
 20
16.873851552066714
 30
2.0
 10
-28.525109392098123
 20
16.941129737322065
 30
2.0
 10
-29.23889956038679
 20
17.059606206715305
 30
2.0
 10
-29.627391389606764
 20
17.10596943889218
 30
2.0
 10
-30.017670290949937
 20
17.1356937092113
 30
2.0
 10
-30.40875756649419
 20
17.149981057161472
 30
2.0
 10
-30.799967547916662
 20
17.149981080826816
 30
2.0
  0
SPLINE
  5
46
330
17
100
AcDbEntity
  8
0
100
AcDbSpline
 70
0
 71
5
 72
16
 73
10
 74
0
 40
0.0
 40
0.0
 40
0.0
 40
0.0
 40
0.0
 40
0.0
 40
0.5085865538537765
 40
0.5085865538537765
 40
0.5085865538537765
 40
0.5085865538537765
 40
1.0
 40
1.0
 40
1.0
 40
1.0
 40
1.0
 40
1.0
 10
-30.799967547916662
 20
17.149981080826816
 30
2.0
 10
-31.142614224111256
 20
17.14998107299521
 30
2.0
 10
-31.4849450506406
 20
17.14039718824735
 30
2.0
 10
-31.826609350483146
 20
17.12079588972676
 30
2.0
 10
-32.16718932746063
 20
17.090767970552967
 30
2.0
 10
-32.83377402352842
 20
17.01057941580903
 30
2.0
 10
-33.15988502279437
 20
16.961132562529645
 30
2.0
 10
-33.4841009151042
 20
16.90134942589468
 30
2.0
 10
-33.805946354079616
 20
16.831005417803482
 30
2.0
 10
-34.124918719791665
 20
16.749997356868487
 30
2.0
  0
SPLINE
  5
47
330
17
100
AcDbEntity
  8
0
100
AcDbSpline
 70
0
 71
5
 72
24
 73
18
 74
0
 40
0.0
 40
0.0
 40
0.0
 40
0.0
 40
0.0
 40
0.0
 40
0.22575071850588502
 40
0.22575071850588502
 40
0.22575071850588502
 40
0.22575071850588502
 40
0.4659544442517265
 40
0.4659544442517265
 40
0.4659544442517265
 40
0.4659544442517265
 40
0.7237967495115492
 40
0.7237967495115492
 40
0.7237967495115492
 40
0.7237967495115492
 40
1.0
 40
1.0
 40
1.0
 40
1.0
 40
1.0
 40
1.0
 10
-34.124918719791665
 20
16.749997356868487
 30
2.0
 10
-34.28796890876582
 20
16.708588177725332
 30
2.0
 10
-34.44993028031823
 20
16.66193391299338
 30
2.0
 10
-34.61066560509546
 20
16.610398728255845
 30
2.0
 10
-34.77008645929015
 20
16.554338513498823
 30
2.0
 10
-35.09632577209449
 20
16.429952317673564
 30
2.0
 10
-35.262961784766894
 20
16.361071879722065
 30
2.0
 10
-35.427999677347856
 20
16.28782082180786
 30
2.0
 10
-35.591418688457004
 20
16.210550898282392
 30
2.0
 10
-35.92691959349004
 20
16.042637067110384
 30
2.0
 10
-36.09875346733123
 20
15.951429275437016
 30
2.0
 10
-36.26874106767552
 20
15.856322202654226
 30
2.0
 10
-36.43691194912654
 20
15.757644454747938
 30
2.0
 10
-36.7815654118695
 20
15.546444364549032
 30
2.0
 10
-36.95778440871341
 20
15.433438218601173
 30
2.0
 10
-37.13202884986125
 20
15.317000375005895
 30
2.0
 10
-37.304361473217
 20
15.197422084931752
 30
2.0
 10
-37.474853615624994
 20
15.074948528743489
 30
2.0
  0
SPLINE
  5
48
330
17
100
AcDbEntity
  8
0
100
AcDbSpline
 70
0
 71
5
 72
24
 73
18
 74
0
 40
0.0
 40
0.0
 40
0.0
 40
0.0
 40
0.0
 40
0.0
 40
0.24305806884721684
 40
0.24305806884721684
 40
0.24305806884721684
 40
0.24305806884721684
 40
0.48887080244562986
 40
0.48887080244562986
 40
0.48887080244562986
 40
0.48887080244562986
 40
0.7407963475313953
 40
0.7407963475313953
 40
0.7407963475313953
 40
0.7407963475313953
 40
1.0
 40
1.0
 40
1.0
 40
1.0
 40
1.0
 40
1.0
 10
-37.474853615624994
 20
15.074948528743489
 30
2.0
 10
-37.653824065288745
 20
14.946384535587551
 30
2.0
 10
-37.82939275001255
 20
14.813058574910166
 30
2.0
 10
-38.00141464964537
 20
14.675110992809273
 30
2.0
 10
-38.16977812420293
 20
14.532710147299714
 30
2.0
 10
-38.50088773987519
 20
14.2377201053496
 30
2.0
 10
-38.663549737695426
 20
14.085032710996561
 30
2.0
 10
-38.82230069599954
 20
13.928180114119144
 30
2.0
 10
-38.97709288915849
 20
13.76737393873822
 30
2.0
 10
-39.282471992498266
 20
13.434198335350622
 30
2.0
 10
-39.43285921753178
 20
13.26164011762437
 30
2.0
 10
-39.57904914536128
 20
13.08539108049919
 30
2.0
 10
-39.72105761247374
 20
12.905686838313954
 30
2.0
 10
-40.000774487087696
 20
12.534538368902657
 30
2.0
 10
-40.13824026836286
 20
12.34290477867921
 30
2.0
 10
-40.27136621296764
 20
12.148101523340976
 30
2.0
 10
-40.40022417275048
 20
11.950365645068562
 30
2.0
 10
-40.524902443749994
 20
11.749915976660153
 30
2.0
  0
SPLINE
  5
49
330
17
100
AcDbEntity
  8
0
100
AcDbSpline
 70
0
 71
6
 72
24
 73
17
 74
0
 40
0.0
 40
0.0
 40
0.0
 40
0.0
 40
0.0
 40
0.0
 40
0.0
 40
0.394762851969049
 40
0.394762851969049
 40
0.394762851969049
 40
0.394762851969049
 40
0.394762851969049
 40
0.8682598354426709
 40
0.8682598354426709
 40
0.8682598354426709
 40
0.8682598354426709
 40
0.8682598354426709
 40
1.0
 40
1.0
 40
1.0
 40
1.0
 40
1.0
 40
1.0
 40
1.0
 10
-40.524902443749994
 20
11.749915976660153
 30
2.0
 10
-40.7332016932924
 20
11.415025839994808
 30
2.0
 10
-40.92596759161009
 20
11.069745451477786
 30
2.0
 10
-41.10516314246242
 20
10.716467641776116
 30
2.0
 10
-41.27230672896469
 20
10.35693000143878
 30
2.0
 10
-41.42871367685539
 20
9.992351113911553
 30
2.0
 10
-41.751615100756695
 20
9.180959442842129
 30
2.0
 10
-41.91383968818916
 20
8.732401944952493
 30
2.0
 10
-42.0641214991435
 20
8.279165175500768
 30
2.0
 10
-42.20384128870386
 20
7.822234514675503
 30
2.0
 10
-42.33414436541817
 20
7.362302810877782
 30
2.0
 10
-42.48987664923991
 20
6.771096834876945
 30
2.0
 10
-42.523118003693064
 20
6.642213994878783
 30
2.0
 10
-42.55572291416822
 20
6.513145051216289
 30
2.0
 10
-42.5877102725439
 20
6.383899860829477
 30
2.0
 10
-42.619097879346434
 20
6.254487442461798
 30
2.0
 10
-42.649902443749994
 20
6.124915976660152
 30
2.0
  0
SPLINE
  5
4A
330
17
100
AcDbEntity
  8
0
100
AcDbSpline
 70
0
 71
5
 72
24
 73
18
 74
0
 40
0.0
 40
0.0
 40
0.0
 40
0.0
 40
0.0
 40
0.0
 40
0.22857328343722472
 40
0.22857328343722472
 40
0.22857328343722472
 40
0.22857328343722472
 40
0.4695938675746756
 40
0.4695938675746756
 40
0.4695938675746756
 40
0.4695938675746756
 40
0.7267945053382325
 40
0.7267945053382325
 40
0.7267945053382325
 40
0.7267945053382325
 40
1.0
 40
1.0
 40
1.0
 40
1.0
 40
1.0
 40
1.0
 10
-42.649902443749994
 20
6.124915976660153
 30
2.0
 10
-42.73787931304203
 20
5.754863853327838
 30
2.0
 10
-42.81879916266594
 20
5.383023223061887
 30
2.0
 10
-42.89305809024705
 20
5.009680373971421
 30
2.0
 10
-42.96102128207142
 20
4.63507171273154
 30
2.0
 10
-43.08840114128155
 20
3.863237166195108
 30
2.0
 10
-43.147150809249545
 20
3.465893470498545
 30
2.0
 10
-43.19966287372128
 20
3.0675722792972024
 30
2.0
 10
-43.24629139073284
 20
2.6684528538119547
 30
2.0
 10
-43.33117240590819
 20
1.8420576618299784
 30
2.0
 10
-43.3686525954434
 20
1.4146930733139174
 30
2.0
 10
-43.40018118470368
 20
0.9867504225297954
 30
2.0
 10
-43.42610018200159
 20
0.5583665946669871
 30
2.0
 10
-43.46861552374814
 20
-0.3257522307414351
 30
2.0
 10
-43.48453127218942
 20
-0.7815282297745678
 30
2.0
 10
-43.494831204849824
 20
-1.2375555142537618
 30
2.0
 10
-43.49983733133235
 20
-1.6937334012234349
 30
2.0
 10
-43.49983733958333
 20
-2.149986367089847
 30
2.0
  0
LINE
  5
4B
330
17
100
AcDbEntity
  8
0
100
AcDbLine
 10
-13.849934995833323
 20
7.899981080826821
 30
2.0
 11
-13.849934995833323
 21
2.6999485287434872
 31
2.0
  0
LINE
  5
4C
330
17
100
AcDbEntity
  8
0
100
AcDbLine
 10
-13.84993499583333
 20
2.6999485287434886
 30
2.0
 11
-8.649902443749987
 21
2.6999485287434886
 31
2.0
  0
LINE
  5
4D
330
17
100
AcDbEntity
  8
0
100
AcDbLine
 10
-8.649902443749987
 20
2.6999485287434872
 30
2.0
 11
-8.649902443749987
 21
7.89998108082682
 31
2.0
  0
LINE
  5
4E
330
17
100
AcDbEntity
  8
0
100
AcDbLine
 10
-8.64990244374999
 20
7.89998108082682
 30
2.0
 11
-13.84993499583333
 21
7.89998108082682
 31
2.0
  0
SPLINE
  5
4F
330
17
100
AcDbEntity
  8
0
100
AcDbSpline
 70
0
 71
6
 72
29
 73
22
 74
0
 40
0.0
 40
0.0
 40
0.0
 40
0.0
 40
0.0
 40
0.0
 40
0.0
 40
0.3668637454918408
 40
0.3668637454918408
 40
0.3668637454918408
 40
0.3668637454918408
 40
0.3668637454918408
 40
0.6229130043352764
 40
0.6229130043352764
 40
0.6229130043352764
 40
0.6229130043352764
 40
0.6229130043352764
 40
0.8672920072769512
 40
0.8672920072769512
 40
0.8672920072769512
 40
0.8672920072769512
 40
0.8672920072769512
 40
1.0
 40
1.0
 40
1.0
 40
1.0
 40
1.0
 40
1.0
 40
1.0
 10
8.150065004166677
 20
13.299883424576821
 30
2.0
 10
8.456296195812838
 20
13.299883407417699
 30
2.0
 10
8.762269392746019
 20
13.289012137942256
 30
2.0
 10
9.06753904263371
 20
13.266211703575063
 30
2.0
 10
9.37138100558626
 20
13.230299927168327
 30
2.0
 10
9.672798821142894
 20
13.180021494335847
 30
2.0
 10
10.178360993841538
 20
13.068323174479898
 30
2.0
 10
10.384374781291411
 20
13.014858213436469
 30
2.0
 10
10.58814156520183
 20
12.953464656103584
 30
2.0
 10
10.789135907519016
 20
12.883798342841137
 30
2.0
 10
10.986775844916282
 20
12.805605004061107
 30
2.0
 10
11.36528325198038
 20
12.635906309807007
 30
2.0
 10
11.546519192798252
 20
12.545164085326883
 30
2.0
 10
11.72359059994126
 20
12.446466174828574
 30
2.0
 10
11.895963232187265
 20
12.339838711251247
 30
2.0
 10
12.06314530707678
 20
12.225445740402003
 30
2.0
 10
12.312437004503211
 20
12.037458795566671
 30
2.0
 10
12.398515252301225
 20
11.969105011206985
 30
2.0
 10
12.48287211832985
 20
11.89860636648396
 30
2.0
 10
12.565450958964048
 20
11.826022603355794
 30
2.0
 10
12.646205043918982
 20
11.751422410752681
 30
2.0
 10
12.725097556250008
 20
11.674883424576821
 30
2.0
  0
SPLINE
  5
50
330
17
100
AcDbEntity
  8
0
100
AcDbSpline
 70
0
 71
6
 72
29
 73
22
 74
0
 40
0.0
 40
0.0
 40
0.0
 40
0.0
 40
0.0
 40
0.0
 40
0.0
 40
0.20323728292425844
 40
0.20323728292425844
 40
0.20323728292425844
 40
0.20323728292425844
 40
0.20323728292425844
 40
0.43439237579413165
 40
0.43439237579413165
 40
0.43439237579413165
 40
0.43439237579413165
 40
0.43439237579413165
 40
0.6745018224693706
 40
0.6745018224693706
 40
0.6745018224693706
 40
0.6745018224693706
 40
0.6745018224693706
 40
1.0
 40
1.0
 40
1.0
 40
1.0
 40
1.0
 40
1.0
 40
1.0
 10
12.725097556250008
 20
11.674883424576821
 30
2.0
 10
12.843226833869393
 20
11.560278147055712
 30
2.0
 10
12.957148329516619
 20
11.441399044988858
 30
2.0
 10
13.066559446266284
 20
11.318329686373866
 30
2.0
 10
13.171192393413657
 20
11.191201395067985
 30
2.0
 10
13.270822547729273
 20
11.060200338491642
 30
2.0
 10
13.472705848120006
 20
10.772455949839769
 30
2.0
 10
13.573449180972007
 20
10.614634424777801
 30
2.0
 10
13.66724690067342
 20
10.452477220252078
 30
2.0
 10
13.75396954742086
 20
10.286394628422519
 30
2.0
 10
13.833597860922332
 20
10.116828826217253
 30
2.0
 10
13.981619711350687
 20
9.764970925197082
 30
2.0
 10
14.04946354175903
 20
9.582427569002686
 30
2.0
 10
14.109820112516756
 20
9.397113094920048
 30
2.0
 10
14.162891291740285
 20
9.209499958680615
 30
2.0
 10
14.208952631597393
 20
9.020018544711702
 30
2.0
 10
14.301666812686069
 20
8.570152293288755
 30
2.0
 10
14.342703063628683
 20
8.3085263170739
 30
2.0
 10
14.372200599146343
 20
8.0450528512825
 30
2.0
 10
14.391037587345986
 20
7.780457835791868
 30
2.0
 10
14.400064988291746
 20
7.515290028125065
 30
2.0
 10
14.400065004166677
 20
7.249915976660152
 30
2.0
  0
SPLINE
  5
51
330
17
100
AcDbEntity
  8
0
100
AcDbSpline
 70
0
 71
6
 72
29
 73
22
 74
0
 40
0.0
 40
0.0
 40
0.0
 40
0.0
 40
0.0
 40
0.0
 40
0.0
 40
0.4381775892410585
 40
0.4381775892410585
 40
0.4381775892410585
 40
0.4381775892410585
 40
0.4381775892410585
 40
0.5886156835385741
 40
0.5886156835385741
 40
0.5886156835385741
 40
0.5886156835385741
 40
0.5886156835385741
 40
0.840220025300091
 40
0.840220025300091
 40
0.840220025300091
 40
0.840220025300091
 40
0.840220025300091
 40
1.0
 40
1.0
 40
1.0
 40
1.0
 40
1.0
 40
1.0
 40
1.0
 10
14.400065004166677
 20
7.249915976660153
 30
2.0
 10
14.400064981686247
 20
6.879987932924103
 30
2.0
 10
14.384712929918996
 20
6.510731189177502
 30
2.0
 10
14.351507018569032
 20
6.142422555745471
 30
2.0
 10
14.297110912279702
 20
5.7766815890332275
 30
2.0
 10
14.21730964078263
 20
5.416483926962134
 30
2.0
 10
14.069555216803279
 20
4.945800211795398
 30
2.0
 10
14.028246662850288
 20
4.826701407021569
 30
2.0
 10
13.983213830769715
 20
4.709001127757997
 30
2.0
 10
13.934282245716377
 20
4.5929398397012315
 30
2.0
 10
13.881299031168231
 20
4.478790569936656
 30
2.0
 10
13.728570215635767
 20
4.179635193757455
 30
2.0
 10
13.621297021835018
 20
3.9985188308766513
 30
2.0
 10
13.501863899352456
 20
3.825061811922029
 30
2.0
 10
13.370121979986235
 20
3.6608488760525946
 30
2.0
 10
13.226453607816696
 20
3.5073232456496353
 30
2.0
 10
12.974019813994175
 20
3.275542247160218
 30
2.0
 10
12.871626275477086
 20
3.190241568473164
 30
2.0
 10
12.765171081483556
 20
3.109929256421248
 30
2.0
 10
12.654997115067838
 20
3.0347508017161853
 30
2.0
 10
12.541487188803169
 20
2.9647519457870324
 30
2.0
 10
12.425048728125008
 20
2.8998997006184886
 30
2.0
  0
SPLINE
  5
52
330
17
100
AcDbEntity
  8
0
100
AcDbSpline
 70
0
 71
6
 72
29
 73
22
 74
0
 40
0.0
 40
0.0
 40
0.0
 40
0.0
 40
0.0
 40
0.0
 40
0.0
 40
0.16763944851953672
 40
0.16763944851953672
 40
0.16763944851953672
 40
0.16763944851953672
 40
0.16763944851953672
 40
0.36842296575134614
 40
0.36842296575134614
 40
0.36842296575134614
 40
0.36842296575134614
 40
0.36842296575134614
 40
0.6567998043521392
 40
0.6567998043521392
 40
0.6567998043521392
 40
0.6567998043521392
 40
0.6567998043521392
 40
1.0
 40
1.0
 40
1.0
 40
1.0
 40
1.0
 40
1.0
 40
1.0
 10
12.42504872812501
 20
2.8998997006184886
 30
2.0
 10
12.259074724832582
 20
2.807457899006515
 30
2.0
 10
12.088220402210645
 20
2.7230843229018022
 30
2.0
 10
11.913657238961596
 20
2.6457570627376783
 30
2.0
 10
11.73624167646702
 20
2.574669860629776
 30
2.0
 10
11.556566858767273
 20
2.509128444724308
 30
2.0
 10
11.157465925512026
 20
2.375967123524836
 30
2.0
 10
10.937285108433368
 20
2.3105248237902183
 30
2.0
 10
10.715086467289272
 20
2.251204914980778
 30
2.0
 10
10.491336795917118
 20
2.1972831625900024
 30
2.0
 10
10.266357843158278
 20
2.148161834183293
 30
2.0
 10
9.71569891699368
 20
2.0389906646326894
 30
2.0
 10
9.388981730966353
 20
1.9835360453261788
 30
2.0
 10
9.060787321422566
 20
1.9355401704277766
 30
2.0
 10
8.731526080673307
 20
1.8940364823819476
 30
2.0
 10
8.401465839586704
 20
1.8582474582076876
 30
2.0
 10
7.677128599481655
 20
1.791039024732485
 30
2.0
 10
7.282625194477421
 20
1.7617477900923622
 30
2.0
 10
6.887501613143511
 20
1.73865217266118
 30
2.0
 10
6.49195311591419
 20
1.721025566425816
 30
2.0
 10
6.096108625101989
 20
1.708281554641578
 30
2.0
 10
5.700032452083342
 20
1.6999485287434883
 30
2.0
  0
LINE
  5
53
330
17
100
AcDbEntity
  8
0
100
AcDbLine
 10
5.700032452083342
 20
1.6999485287434888
 30
2.0
 11
5.700032452083342
 21
-2.0500514712565128
 31
2.0
  0
LINE
  5
54
330
17
100
AcDbEntity
  8
0
100
AcDbLine
 10
5.7000324520833345
 20
-2.0500514712565114
 30
2.0
 11
6.249999900000013
 21
-2.0500514712565114
 31
2.0
  0
LINE
  5
55
330
17
100
AcDbEntity
  8
0
100
AcDbLine
 10
6.249999900000006
 20
-2.0500514712565114
 30
2.0
 11
8.100097556250013
 21
-2.000084023339847
 31
2.0
  0
SPLINE
  5
56
330
17
100
AcDbEntity
  8
0
100
AcDbSpline
 70
0
 71
6
 72
44
 73
37
 74
0
 40
0.0
 40
0.0
 40
0.0
 40
0.0
 40
0.0
 40
0.0
 40
0.0
 40
0.31516844310191927
 40
0.31516844310191927
 40
0.31516844310191927
 40
0.31516844310191927
 40
0.31516844310191927
 40
0.4150845650355548
 40
0.4150845650355548
 40
0.4150845650355548
 40
0.4150845650355548
 40
0.4150845650355548
 40
0.46955250660250025
 40
0.46955250660250025
 40
0.46955250660250025
 40
0.46955250660250025
 40
0.46955250660250025
 40
0.5798076300450804
 40
0.5798076300450804
 40
0.5798076300450804
 40
0.5798076300450804
 40
0.5798076300450804
 40
0.7243407502685193
 40
0.7243407502685193
 40
0.7243407502685193
 40
0.7243407502685193
 40
0.7243407502685193
 40
0.8050610728161077
 40
0.8050610728161077
 40
0.8050610728161077
 40
0.8050610728161077
 40
0.8050610728161077
 40
1.0
 40
1.0
 40
1.0
 40
1.0
 40
1.0
 40
1.0
 40
1.0
 10
8.100097556250013
 20
-2.0000840233398467
 30
2.0
 10
8.689978586089302
 20
-2.000084075105642
 30
2.0
 10
9.27906117624635
 20
-2.02501073618141
 30
2.0
 10
9.867335262217205
 20
-2.079242456378708
 30
2.0
 10
10.45209648096926
 20
-2.1688860528222627
 30
2.0
 10
11.027929590446814
 20
-2.3018628644543577
 30
2.0
 10
11.763874105960534
 20
-2.546835838470667
 30
2.0
 10
11.939231341992587
 20
-2.6111066921979456
 30
2.0
 10
12.112485411542792
 20
-2.680960468427895
 30
2.0
 10
12.283259331346338
 20
-2.7566721594639527
 30
2.0
 10
12.451121060807504
 20
-2.8384832099652293
 30
2.0
 10
12.705257642761934
 20
-2.9745942048901566
 30
2.0
 10
12.793911905558288
 20
-3.024480670015649
 30
2.0
 10
12.881481150263285
 20
-3.076260658010573
 30
2.0
 10
12.967883897870609
 20
-3.129956312759164
 30
2.0
 10
13.053036331707863
 20
-3.185581708005556
 30
2.0
 10
13.30651820700273
 20
-3.359652932621241
 30
2.0
 10
13.470733011554374
 20
-3.4841025865763497
 30
2.0
 10
13.628755105439234
 20
-3.6164999782264142
 30
2.0
 10
13.779893179161794
 20
-3.756713722460115
 30
2.0
 10
13.923546020515419
 20
-3.9044273144799653
 30
2.0
 10
14.237123202917829
 20
-4.261849954742542
 30
2.0
 10
14.401393339914517
 20
-4.476627448290758
 30
2.0
 10
14.5509315746649
 20
-4.702175219352887
 30
2.0
 10
14.685398415256023
 20
-4.9369807515408315
 30
2.0
 10
14.804990904219126
 20
-5.179422716915031
 30
2.0
 10
14.969029751455542
 20
-5.566665524646702
 30
2.0
 10
15.023351908364498
 20
-5.70734101032865
 30
2.0
 10
15.073314278494356
 20
-5.8496690641804
 30
2.0
 10
15.11905190806195
 20
-5.9934160292443694
 30
2.0
 10
15.160719996908028
 20
-6.138372305034345
 30
2.0
 10
15.289673279453886
 20
-6.636908501873318
 30
2.0
 10
15.358048827147455
 20
-6.995342866458578
 30
2.0
 10
15.405991082660575
 20
-7.357326087905486
 30
2.0
 10
15.435942902795519
 20
-7.721098737503061
 30
2.0
 10
15.450032410537903
 20
-8.085529118716922
 30
2.0
 10
15.450032452083342
 20
-8.450116575423179
 30
2.0
  0
SPLINE
  5
57
330
17
100
AcDbEntity
  8
0
100
AcDbSpline
 70
0
 71
6
 72
29
 73
22
 74
0
 40
0.0
 40
0.0
 40
0.0
 40
0.0
 40
0.0
 40
0.0
 40
0.0
 40
0.35603908665827194
 40
0.35603908665827194
 40
0.35603908665827194
 40
0.35603908665827194
 40
0.35603908665827194
 40
0.6026527684658676
 40
0.6026527684658676
 40
0.6026527684658676
 40
0.6026527684658676
 40
0.6026527684658676
 40
0.8378977476292007
 40
0.8378977476292007
 40
0.8378977476292007
 40
0.8378977476292007
 40
0.8378977476292007
 40
1.0
 40
1.0
 40
1.0
 40
1.0
 40
1.0
 40
1.0
 40
1.0
 10
15.450032452083342
 20
-8.450116575423179
 30
2.0
 10
15.450032432183978
 20
-8.79197935653526
 30
2.0
 10
15.437848210915217
 20
-9.13361574113039
 30
2.0
 10
15.412276907193984
 20
-9.474531964159848
 30
2.0
 10
15.371969685627688
 20
-9.813912711317798
 30
2.0
 10
15.315488918186583
 20
-10.150627846948426
 30
2.0
 10
15.190295126783283
 20
-10.713661815790976
 30
2.0
 10
15.13067927677561
 20
-10.942090509119575
 30
2.0
 10
15.062255366245784
 20
-11.168046109699597
 30
2.0
 10
14.984636748251113
 20
-11.390940533399766
 30
2.0
 10
14.89753759523226
 20
-11.610121013025646
 30
2.0
 10
14.708594537919476
 20
-12.029763859869291
 30
2.0
 10
14.607608599057372
 20
-12.230639813293175
 30
2.0
 10
14.497785605152517
 20
-12.426891700703422
 30
2.0
 10
14.37915570963519
 20
-12.617919382709852
 30
2.0
 10
14.251904459209575
 20
-12.803170292800052
 30
2.0
 10
14.023034051448207
 20
-13.105494821498269
 30
2.0
 10
13.92574115101727
 20
-13.225865297062475
 30
2.0
 10
13.824643089864693
 20
-13.343114193278444
 30
2.0
 10
13.719884515951923
 20
-13.457118831913023
 30
2.0
 10
13.611634079302855
 20
-13.567786459348262
 30
2.0
 10
13.500081280208343
 20
-13.675051471256511
 30
2.0
  0
SPLINE
  5
58
330
17
100
AcDbEntity
  8
0
100
AcDbSpline
 70
0
 71
6
 72
29
 73
22
 74
0
 40
0.0
 40
0.0
 40
0.0
 40
0.0
 40
0.0
 40
0.0
 40
0.0
 40
0.09408230544089688
 40
0.09408230544089688
 40
0.09408230544089688
 40
0.09408230544089688
 40
0.09408230544089688
 40
0.3422367670451519
 40
0.3422367670451519
 40
0.3422367670451519
 40
0.3422367670451519
 40
0.3422367670451519
 40
0.6033339810382623
 40
0.6033339810382623
 40
0.6033339810382623
 40
0.6033339810382623
 40
0.6033339810382623
 40
1.0
 40
1.0
 40
1.0
 40
1.0
 40
1.0
 40
1.0
 40
1.0
 10
13.500081280208343
 20
-13.675051471256511
 30
2.0
 10
13.433959511898001
 20
-13.738631675435315
 30
2.0
 10
13.366697740061156
 20
-13.801019406107018
 30
2.0
 10
13.2983152436176
 20
-13.862182322648863
 30
2.0
 10
13.228834514728563
 20
-13.922091097104017
 30
2.0
 10
13.158281258796714
 20
-13.980719414181564
 30
2.0
 10
12.897838242820079
 20
-14.18924503431478
 30
2.0
 10
12.701716504553433
 20
-14.331388086062292
 30
2.0
 10
12.49887740530692
 20
-14.464020772588057
 30
2.0
 10
12.28996439990685
 20
-14.586918028717987
 30
2.0
 10
12.075680855477591
 20
-14.70004160526124
 30
2.0
 10
11.626430817114873
 20
-14.912353545686072
 30
2.0
 10
11.390946853278479
 20
-15.010517579300817
 30
2.0
 10
11.151132206314887
 20
-15.098132116556718
 30
2.0
 10
10.907758053663294
 20
-15.175545228201644
 30
2.0
 10
10.661509767762373
 20
-15.243208720399158
 30
2.0
 10
10.03537270753417
 20
-15.39036371781224
 30
2.0
 10
9.652532836474256
 20
-15.457742466753393
 30
2.0
 10
9.266332243088579
 20
-15.505554299673241
 30
2.0
 10
8.87824915364754
 20
-15.53573365621268
 30
2.0
 10
8.489313092829125
 20
-15.550051450103691
 30
2.0
 10
8.100097556250013
 20
-15.550051471256511
 30
2.0
  0
SPLINE
  5
59
330
17
100
AcDbEntity
  8
0
100
AcDbSpline
 70
0
 71
6
 72
24
 73
17
 74
0
 40
0.0
 40
0.0
 40
0.0
 40
0.0
 40
0.0
 40
0.0
 40
0.0
 40
0.47685961318130143
 40
0.47685961318130143
 40
0.47685961318130143
 40
0.47685961318130143
 40
0.47685961318130143
 40
0.7349896590393326
 40
0.7349896590393326
 40
0.7349896590393326
 40
0.7349896590393326
 40
0.7349896590393326
 40
1.0
 40
1.0
 40
1.0
 40
1.0
 40
1.0
 40
1.0
 40
1.0
 10
8.100097556250013
 20
-15.550051471256511
 30
2.0
 10
7.631551715068308
 20
-15.550051447178902
 30
2.0
 10
7.163541694839397
 20
-15.531250482225888
 30
2.0
 10
6.696648805364438
 20
-15.490970016832204
 30
2.0
 10
6.232597430350978
 20
-15.425848019814238
 30
2.0
 10
5.774259239760987
 20
-15.331848236575254
 30
2.0
 10
5.082674564910285
 20
-15.136018011855093
 30
2.0
 10
4.842680664840755
 20
-15.057575935240878
 30
2.0
 10
4.606281521680275
 20
-14.968839713931336
 30
2.0
 10
4.374350068036206
 20
-14.869222992931572
 30
2.0
 10
4.147897442706891
 20
-14.758256710184005
 30
2.0
 10
3.702242953095259
 20
-14.509991685623746
 30
2.0
 10
3.483351731769399
 20
-14.372045710193932
 30
2.0
 10
3.2725925742298307
 20
-14.221764393560358
 30
2.0
 10
3.071145420740923
 20
-14.05926582682982
 30
2.0
 10
2.880030223043788
 20
-13.885037840518626
 30
2.0
 10
2.7000324520833416
 20
-13.700035195214843
 30
2.0
  0
SPLINE
  5
5A
330
17
100
AcDbEntity
  8
0
100
AcDbSpline
 70
0
 71
6
 72
29
 73
22
 74
0
 40
0.0
 40
0.0
 40
0.0
 40
0.0
 40
0.0
 40
0.0
 40
0.0
 40
0.20186762075072995
 40
0.20186762075072995
 40
0.20186762075072995
 40
0.20186762075072995
 40
0.20186762075072995
 40
0.41796586427836063
 40
0.41796586427836063
 40
0.41796586427836063
 40
0.41796586427836063
 40
0.41796586427836063
 40
0.691175040670081
 40
0.691175040670081
 40
0.691175040670081
 40
0.691175040670081
 40
0.691175040670081
 40
1.0
 40
1.0
 40
1.0
 40
1.0
 40
1.0
 40
1.0
 40
1.0
 10
2.7000324520833416
 20
-13.700035195214843
 30
2.0
 10
2.5557099111620083
 20
-13.551699678443114
 30
2.0
 10
2.4182763873133593
 20
-13.396584885869906
 30
2.0
 10
2.2879599516587756
 20
-13.23525513171104
 30
2.0
 10
2.1648127859190414
 20
-13.068321126542592
 30
2.0
 10
2.048759375715917
 20
-12.896401119370012
 30
2.0
 10
1.8228380122383407
 20
-12.53133337720256
 30
2.0
 10
1.7139796493434436
 20
-12.337539144028202
 30
2.0
 10
1.612862211105205
 20
-12.139394175428134
 30
2.0
 10
1.5191693767301522
 20
-11.937539468589444
 30
2.0
 10
1.432539753716505
 20
-11.732529137596048
 30
2.0
 10
1.2515231166447693
 20
-11.262207576576058
 30
2.0
 10
1.161146032420634
 20
-10.995301742983687
 30
2.0
 10
1.0806849346399272
 20
-10.724989955869077
 30
2.0
 10
1.0093768994372763
 20
-10.452005396168195
 30
2.0
 10
0.9465022381911382
 20
-10.176913928709462
 30
2.0
 10
0.8291390180992074
 20
-9.587211518042524
 30
2.0
 10
0.7768188653318077
 20
-9.272161996167526
 30
2.0
 10
0.7335098620608639
 20
-8.955535004493802
 30
2.0
 10
0.698400428103327
 20
-8.637781717134068
 30
2.0
 10
0.6707890873462997
 20
-8.319229292964867
 30
2.0
 10
0.6500650041666773
 20
-8.000084023339845
 30
2.0
  0
LINE
  5
5B
330
17
100
AcDbEntity
  8
0
100
AcDbLine
 10
0.65006500416668
 20
-8.000084023339845
 30
2.0
 11
-3.750000099999994
 21
-8.000084023339845
 31
2.0
  0
SPLINE
  5
5C
330
17
100
AcDbEntity
  8
0
100
AcDbSpline
 70
0
 71
7
 72
52
 73
44
 74
0
 40
0.0
 40
0.0
 40
0.0
 40
0.0
 40
0.0
 40
0.0
 40
0.0
 40
0.0
 40
0.2654441283595195
 40
0.2654441283595195
 40
0.2654441283595195
 40
0.2654441283595195
 40
0.2654441283595195
 40
0.2654441283595195
 40
0.3642467467301449
 40
0.3642467467301449
 40
0.3642467467301449
 40
0.3642467467301449
 40
0.3642467467301449
 40
0.3642467467301449
 40
0.4195585056120624
 40
0.4195585056120624
 40
0.4195585056120624
 40
0.4195585056120624
 40
0.4195585056120624
 40
0.4195585056120624
 40
0.5337683013029048
 40
0.5337683013029048
 40
0.5337683013029048
 40
0.5337683013029048
 40
0.5337683013029048
 40
0.5337683013029048
 40
0.693038130497939
 40
0.693038130497939
 40
0.693038130497939
 40
0.693038130497939
 40
0.693038130497939
 40
0.693038130497939
 40
0.7822045018407071
 40
0.7822045018407071
 40
0.7822045018407071
 40
0.7822045018407071
 40
0.7822045018407071
 40
0.7822045018407071
 40
1.0
 40
1.0
 40
1.0
 40
1.0
 40
1.0
 40
1.0
 40
1.0
 40
1.0
 10
-3.750000099999987
 20
-8.000084023339845
 30
2.0
 10
-3.7010712565278694
 20
-8.700265170690624
 30
2.0
 10
-3.6285046602913558
 20
-9.39846421824523
 30
2.0
 10
-3.5295364110872915
 20
-10.094007366813097
 30
2.0
 10
-3.400867303708069
 20
-10.785227137809937
 30
2.0
 10
-3.238718123257212
 20
-11.469478413193553
 30
2.0
 10
-3.038882281913871
 20
-12.143147228035321
 30
2.0
 10
-2.707031467477773
 20
-13.046856804657498
 30
2.0
 10
-2.6112156106886117
 20
-13.289848709588327
 30
2.0
 10
-2.509392740349685
 20
-13.530439179028225
 30
2.0
 10
-2.401364136980739
 20
-13.768333690285939
 30
2.0
 10
-2.2869485455001874
 20
-14.003208266938229
 30
2.0
 10
-2.165992041826428
 20
-14.234714137773542
 30
2.0
 10
-1.9669368507717444
 20
-14.589991799566446
 30
2.0
 10
-1.8934096180361433
 20
-14.716329421886575
 30
2.0
 10
-1.817776309528325
 20
-14.841429966014326
 30
2.0
 10
-1.7400208146605922
 20
-14.965226408278095
 30
2.0
 10
-1.6601315453492322
 20
-15.087650468223652
 30
2.0
 10
-1.5781021773621748
 20
-15.208633078821318
 30
2.0
 10
-1.3201354591165664
 20
-15.574794667576016
 30
2.0
 10
-1.1371982673915475
 20
-15.815063555868525
 30
2.0
 10
-0.9451357025857654
 20
-16.048270273058357
 30
2.0
 10
-0.7440524235420858
 20
-16.27381020119748
 30
2.0
 10
-0.5341588734881294
 20
-16.491129638279553
 30
2.0
 10
-0.31578729167232894
 20
-16.6997400836373
 30
2.0
 10
0.2262870426778214
 20
-17.17743218743113
 30
2.0
 10
0.5576445268111824
 20
-17.43797857011402
 30
2.0
 10
0.9033550684901154
 20
-17.679698103271598
 30
2.0
 10
1.2619051767010563
 20
-17.902030014040008
 30
2.0
 10
1.6316571073302444
 20
-18.10489799182759
 30
2.0
 10
2.0109214523739416
 20
-18.288594465763815
 30
2.0
 10
2.614739347119238
 20
-18.54609835185644
 30
2.0
 10
2.833944580152982
 20
-18.632698937398867
 30
2.0
 10
3.0553724156615343
 20
-18.713586136265807
 30
2.0
 10
3.278772352398697
 20
-18.788892961898515
 30
2.0
 10
3.5039118119371255
 20
-18.858771707340598
 30
2.0
 10
3.7305785399382008
 20
-18.923387098459497
 30
2.0
 10
4.515500888348801
 20
-19.128297213804135
 30
2.0
 10
5.08023989902586
 20
-19.243257341147864
 30
2.0
 10
5.6502790584053315
 20
-19.330380456897263
 30
2.0
 10
6.22356911882438
 20
-19.392297548745372
 30
2.0
 10
6.798561097549942
 20
-19.43147763611695
 30
2.0
 10
7.3742212453488625
 20
-19.45011651493587
 30
2.0
 10
7.950032452083342
 20
-19.45011657542318
 30
2.0
  0
SPLINE
  5
5D
330
17
100
AcDbEntity
  8
0
100
AcDbSpline
 70
0
 71
6
 72
29
 73
22
 74
0
 40
0.0
 40
0.0
 40
0.0
 40
0.0
 40
0.0
 40
0.0
 40
0.0
 40
0.36473906943986445
 40
0.36473906943986445
 40
0.36473906943986445
 40
0.36473906943986445
 40
0.36473906943986445
 40
0.623944126082844
 40
0.623944126082844
 40
0.623944126082844
 40
0.623944126082844
 40
0.623944126082844
 40
0.8716913650962121
 40
0.8716913650962121
 40
0.8716913650962121
 40
0.8716913650962121
 40
0.8716913650962121
 40
1.0
 40
1.0
 40
1.0
 40
1.0
 40
1.0
 40
1.0
 40
1.0
 10
7.950032452083342
 20
-19.45011657542318
 30
2.0
 10
8.525297673390824
 20
-19.450116543757392
 30
2.0
 10
9.100407685151978
 20
-19.430062424144957
 30
2.0
 10
9.674567029453826
 20
-19.388071870897402
 30
2.0
 10
10.246504364500817
 20
-19.322059485612687
 30
2.0
 10
10.81448257158691
 20
-19.229831271834207
 30
2.0
 10
11.775622590177665
 20
-19.023830828163664
 30
2.0
 10
12.171797753303746
 20
-18.924017357515975
 30
2.0
 10
12.564036957525346
 20
-18.809272578833717
 30
2.0
 10
12.951382027680268
 20
-18.678975130070583
 30
2.0
 10
13.33276586097416
 20
-18.532654092136823
 30
2.0
 10
14.064797101263025
 20
-18.21476381524397
 30
2.0
 10
14.416084810356976
 20
-18.04458493086335
 30
2.0
 10
14.759885629732564
 20
-17.85942423839612
 30
2.0
 10
15.095212157839363
 20
-17.65932746974018
 30
2.0
 10
15.421148825579891
 20
-17.444590750085528
 30
2.0
 10
15.900397147321558
 20
-17.097323491261296
 30
2.0
 10
16.061182950287503
 20
-16.97506590064752
 30
2.0
 10
16.219128247087465
 20
-16.849116278146756
 30
2.0
 10
16.3741385935251
 20
-16.719567872354023
 30
2.0
 10
16.526133959323467
 20
-16.586527705894433
 30
2.0
 10
16.67504872812501
 20
-16.45011657542318
 30
2.0
  0
SPLINE
  5
5E
330
17
100
AcDbEntity
  8
0
100
AcDbSpline
 70
0
 71
6
 72
29
 73
22
 74
0
 40
0.0
 40
0.0
 40
0.0
 40
0.0
 40
0.0
 40
0.0
 40
0.0
 40
0.296121786020593
 40
0.296121786020593
 40
0.296121786020593
 40
0.296121786020593
 40
0.296121786020593
 40
0.5823122124328493
 40
0.5823122124328493
 40
0.5823122124328493
 40
0.5823122124328493
 40
0.5823122124328493
 40
0.7252623715144277
 40
0.7252623715144277
 40
0.7252623715144277
 40
0.7252623715144277
 40
0.7252623715144277
 40
1.0
 40
1.0
 40
1.0
 40
1.0
 40
1.0
 40
1.0
 40
1.0
 10
16.67504872812501
 20
-16.45011657542318
 30
2.0
 10
17.001156875359843
 20
-16.151390020162342
 30
2.0
 10
17.312297838333837
 20
-15.836329667559305
 30
2.0
 10
17.606580677123855
 20
-15.505108813381035
 30
2.0
 10
17.882278615353254
 20
-15.158249331355115
 30
2.0
 10
18.137970521667686
 20
-14.796739292296726
 30
2.0
 10
18.599522472554817
 20
-14.060124864641834
 30
2.0
 10
18.806820618294363
 20
-13.68579630580385
 30
2.0
 10
18.993683712641875
 20
-13.30056793593308
 30
2.0
 10
19.159842454007816
 20
-12.905976452151355
 30
2.0
 10
19.305513552975107
 20
-12.503629205575587
 30
2.0
 10
19.49407238401362
 20
-11.891104218336613
 30
2.0
 10
19.551916900716634
 20
-11.685520081041497
 30
2.0
 10
19.60486882842507
 20
-11.478576370049089
 30
2.0
 10
19.653024055294964
 20
-11.270450110571973
 30
2.0
 10
19.69649475276906
 20
-11.06130617517102
 30
2.0
 10
19.810181574867396
 20
-10.447674045434832
 30
2.0
 10
19.868105775010036
 20
-10.040863676258539
 30
2.0
 10
19.910051523637595
 20
-9.631910102202557
 30
2.0
 10
19.937024506198092
 20
-9.221686083991658
 30
2.0
 10
19.95003242543715
 20
-8.81087917157872
 30
2.0
 10
19.95003245208334
 20
-8.399986367089845
 30
2.0
  0
SPLINE
  5
5F
330
17
100
AcDbEntity
  8
0
100
AcDbSpline
 70
0
 71
5
 72
24
 73
18
 74
0
 40
0.0
 40
0.0
 40
0.0
 40
0.0
 40
0.0
 40
0.0
 40
0.2957934456683735
 40
0.2957934456683735
 40
0.2957934456683735
 40
0.2957934456683735
 40
0.5616917446916488
 40
0.5616917446916488
 40
0.5616917446916488
 40
0.5616917446916488
 40
0.7873859387407337
 40
0.7873859387407337
 40
0.7873859387407337
 40
0.7873859387407337
 40
1.0
 40
1.0
 40
1.0
 40
1.0
 40
1.0
 40
1.0
 10
19.95003245208334
 20
-8.399986367089845
 30
2.0
 10
19.950032438269673
 20
-8.064517307952814
 30
2.0
 10
19.941513788333474
 20
-7.729243112727126
 30
2.0
 10
19.923615198988138
 20
-7.394439479862781
 30
2.0
 10
19.895311416046212
 20
-7.060584331736808
 30
2.0
 10
19.81951009307663
 20
-6.4297117477027745
 30
2.0
 10
19.774243555459545
 20
-6.1324013464284555
 30
2.0
 10
19.718719647309822
 20
-5.836918961936993
 30
2.0
 10
19.651949765127522
 20
-5.544018982708353
 30
2.0
 10
19.50586076248403
 20
-5.0091198288999905
 30
2.0
 10
19.429968363756565
 20
-4.766131350318116
 30
2.0
 10
19.34464983064338
 20
-4.5263496541997625
 30
2.0
 10
19.24931092920936
 20
-4.2905866425033725
 30
2.0
 10
19.04387656450844
 20
-3.842358327912766
 30
2.0
 10
18.93495548427197
 20
-3.6293321611300406
 30
2.0
 10
18.816424695261517
 20
-3.421513484979114
 30
2.0
 10
18.688083349312496
 20
-3.219799061503851
 30
2.0
 10
18.55004872812501
 20
-3.025067747298179
 30
2.0
  0
SPLINE
  5
60
330
17
100
AcDbEntity
  8
0
100
AcDbSpline
 70
0
 71
5
 72
24
 73
18
 74
0
 40
0.0
 40
0.0
 40
0.0
 40
0.0
 40
0.0
 40
0.0
 40
0.21671500788395953
 40
0.21671500788395953
 40
0.21671500788395953
 40
0.21671500788395953
 40
0.4457152774879022
 40
0.4457152774879022
 40
0.4457152774879022
 40
0.4457152774879022
 40
0.7088821546074993
 40
0.7088821546074993
 40
0.7088821546074993
 40
0.7088821546074993
 40
1.0
 40
1.0
 40
1.0
 40
1.0
 40
1.0
 40
1.0
 10
18.55004872812501
 20
-3.0250677472981793
 30
2.0
 10
18.40982120286526
 20
-2.8272428782536316
 30
2.0
 10
18.259441040248745
 20
-2.6365060906445987
 30
2.0
 10
18.099717520061237
 20
-2.4533031424391454
 30
2.0
 10
17.93160039682032
 20
-2.277762161902113
 30
2.0
 10
17.57046311180801
 20
-1.932391439720337
 30
2.0
 10
17.37656822468954
 20
-1.7634466318666797
 30
2.0
 10
17.17538894675296
 20
-1.6029220666277655
 30
2.0
 10
16.967925940880136
 20
-1.4505158224580286
 30
2.0
 10
16.510292368738956
 20
-1.13959425654242
 30
2.0
 10
16.2583799037461
 20
-0.9835678505544858
 30
2.0
 10
16.000482101093173
 20
-0.8371722234769821
 30
2.0
 10
15.737605146568706
 20
-0.6997424608300347
 30
2.0
 10
15.174985833468314
 20
-0.4278099220942182
 30
2.0
 10
14.874314275466345
 20
-0.2951779261694747
 30
2.0
 10
14.569464140030302
 20
-0.17185892613219833
 30
2.0
 10
14.261194748239584
 20
-0.05707121064045051
 30
2.0
 10
13.950032452083342
 20
0.04988342457682071
 30
2.0
  0
SPLINE
  5
61
330
17
100
AcDbEntity
  8
0
100
AcDbSpline
 70
0
 71
6
 72
39
 73
32
 74
0
 40
0.0
 40
0.0
 40
0.0
 40
0.0
 40
0.0
 40
0.0
 40
0.0
 40
0.19509584966972618
 40
0.19509584966972618
 40
0.19509584966972618
 40
0.19509584966972618
 40
0.19509584966972618
 40
0.29381944355663386
 40
0.29381944355663386
 40
0.29381944355663386
 40
0.29381944355663386
 40
0.29381944355663386
 40
0.4865299879816114
 40
0.4865299879816114
 40
0.4865299879816114
 40
0.4865299879816114
 40
0.4865299879816114
 40
0.6860045525237886
 40
0.6860045525237886
 40
0.6860045525237886
 40
0.6860045525237886
 40
0.6860045525237886
 40
0.7890502504533574
 40
0.7890502504533574
 40
0.7890502504533574
 40
0.7890502504533574
 40
0.7890502504533574
 40
1.0
 40
1.0
 40
1.0
 40
1.0
 40
1.0
 40
1.0
 40
1.0
 10
13.950032452083342
 20
0.04988342457682027
 30
2.0
 10
14.237904231341913
 20
0.163288637558046
 30
2.0
 10
14.521975573473386
 20
0.28615452417438225
 30
2.0
 10
14.80157204192285
 20
0.4191075516002387
 30
2.0
 10
15.0758276910767
 20
0.5627644570674948
 30
2.0
 10
15.343705793071504
 20
0.7176926654289291
 30
2.0
 10
15.735800196979968
 20
0.9686072183791666
 30
2.0
 10
15.865613447842193
 20
1.0559031893143571
 30
2.0
 10
15.993343571715199
 20
1.1462377181154695
 30
2.0
 10
16.118829438672037
 20
1.2396490977956875
 30
2.0
 10
16.241904654473704
 20
1.3361590132623486
 30
2.0
 10
16.597612759238192
 20
1.6302060815388046
 30
2.0
 10
16.823038421009276
 20
1.8364852954732218
 30
2.0
 10
17.037351501968242
 20
2.0545545010483006
 30
2.0
 10
17.239326538519027
 20
2.284113364212757
 30
2.0
 10
17.42793543085163
 20
2.5245234787108846
 30
2.0
 10
17.783077041380054
 20
3.033697749524493
 30
2.0
 10
17.94865345835485
 20
3.3032340350836598
 30
2.0
 10
18.098339606312162
 20
3.582152886122337
 30
2.0
 10
18.231882744776044
 20
3.8691346965664253
 30
2.0
 10
18.349469908031427
 20
4.16278746500348
 30
2.0
 10
18.504339383621534
 20
4.616141661067062
 30
2.0
 10
18.552968619073365
 20
4.771988912522468
 30
2.0
 10
18.59754548126484
 20
4.92908263506691
 30
2.0
 10
18.638162798547796
 20
5.087256584829741
 30
2.0
 10
18.674928605509947
 20
5.246357637168548
 30
2.0
 10
18.77557767319099
 20
5.733566384038835
 30
2.0
 10
18.827537883938188
 20
6.064168885701675
 30
2.0
 10
18.864853646662144
 20
6.396917412424892
 30
2.0
 10
18.88866320689457
 20
6.730889100487802
 30
2.0
 10
18.900064973496367
 20
7.065394051400194
 30
2.0
 10
18.900065004166677
 20
7.39998108082682
 30
2.0
  0
SPLINE
  5
62
330
17
100
AcDbEntity
  8
0
100
AcDbSpline
 70
0
 71
6
 72
29
 73
22
 74
0
 40
0.0
 40
0.0
 40
0.0
 40
0.0
 40
0.0
 40
0.0
 40
0.0
 40
0.3017352476029111
 40
0.3017352476029111
 40
0.3017352476029111
 40
0.3017352476029111
 40
0.3017352476029111
 40
0.452446979371939
 40
0.452446979371939
 40
0.452446979371939
 40
0.452446979371939
 40
0.452446979371939
 40
0.7463169660137761
 40
0.7463169660137761
 40
0.7463169660137761
 40
0.7463169660137761
 40
0.7463169660137761
 40
1.0
 40
1.0
 40
1.0
 40
1.0
 40
1.0
 40
1.0
 40
1.0
 10
18.900065004166677
 20
7.39998108082682
 30
2.0
 10
18.90006497885823
 20
7.800511914626111
 30
2.0
 10
18.886697827367026
 20
8.200921060508232
 30
2.0
 10
18.858843197575933
 20
8.60068203822274
 30
2.0
 10
18.815290650339062
 20
8.999016015122757
 30
2.0
 10
18.75479973880772
 20
9.39489825253809
 30
2.0
 10
18.637048895770164
 20
9.982963405421104
 30
2.0
 10
18.593326868755838
 20
10.17792059088349
 30
2.0
 10
18.544971075486657
 20
10.371786667732906
 30
2.0
 10
18.491856492632053
 20
10.564383161093224
 30
2.0
 10
18.433875799132927
 20
10.755516907929435
 30
2.0
 10
18.248243692710176
 20
11.314416992144535
 30
2.0
 10
18.106705789819724
 20
11.677574358556804
 30
2.0
 10
17.945755752502944
 20
12.032807975786694
 30
2.0
 10
17.765169567943584
 20
12.378474479879777
 30
2.0
 10
17.565236403077176
 20
12.713012358817009
 30
2.0
 10
17.158455051554903
 20
13.312994439677842
 30
2.0
 10
16.95625317120497
 20
13.581687744332365
 30
2.0
 10
16.74091095346117
 20
13.840207457482139
 30
2.0
 10
16.513252844285322
 20
14.0879588336375
 30
2.0
 10
16.27427066452247
 20
14.32459475734357
 30
2.0
 10
16.025065004166677
 20
14.549964804785153
 30
2.0
  0
SPLINE
  5
63
330
17
100
AcDbEntity
  8
0
100
AcDbSpline
 70
0
 71
6
 72
29
 73
22
 74
0
 40
0.0
 40
0.0
 40
0.0
 40
0.0
 40
0.0
 40
0.0
 40
0.0
 40
0.03999156897186995
 40
0.03999156897186995
 40
0.03999156897186995
 40
0.03999156897186995
 40
0.03999156897186995
 40
0.29689507692982975
 40
0.29689507692982975
 40
0.29689507692982975
 40
0.29689507692982975
 40
0.29689507692982975
 40
0.5672065087788072
 40
0.5672065087788072
 40
0.5672065087788072
 40
0.5672065087788072
 40
0.5672065087788072
 40
1.0
 40
1.0
 40
1.0
 40
1.0
 40
1.0
 40
1.0
 40
1.0
 10
16.025065004166677
 20
14.549964804785153
 30
2.0
 10
15.982918898842925
 20
14.588079775416661
 30
2.0
 10
15.94048004986882
 20
14.625870634639808
 30
2.0
 10
15.897751197651212
 20
14.663334247005762
 30
2.0
 10
15.854735232035729
 20
14.700467634205308
 30
2.0
 10
15.811435192306769
 20
14.737267975068853
 30
2.0
 10
15.487892944563072
 20
15.007979266351356
 30
2.0
 10
15.196316063942916
 20
15.2283923727219
 30
2.0
 10
14.894021268625314
 20
15.434212522374857
 30
2.0
 10
14.582054181080869
 20
15.62506338761519
 30
2.0
 10
14.261561754002281
 20
15.800879834680652
 30
2.0
 10
13.588820599101055
 20
16.131192637297314
 30
2.0
 10
13.23575174732872
 20
16.284114908873903
 30
2.0
 10
12.875866354376306
 20
16.42083387092734
 30
2.0
 10
12.510408961285144
 20
16.54192046013047
 30
2.0
 10
12.140475137073768
 20
16.648107113206436
 30
2.0
 10
11.168972783156365
 20
16.887636486340867
 30
2.0
 10
10.561952400874521
 20
16.9989055204888
 30
2.0
 10
9.949352493759978
 20
17.077399894079615
 30
2.0
 10
9.333812927498133
 20
17.126694196934412
 30
2.0
 10
8.71709999418505
 20
17.14998104905995
 30
2.0
 10
8.100097556250013
 20
17.149981080826816
 30
2.0
  0
SPLINE
  5
64
330
17
100
AcDbEntity
  8
0
100
AcDbSpline
 70
0
 71
7
 72
52
 73
44
 74
0
 40
0.0
 40
0.0
 40
0.0
 40
0.0
 40
0.0
 40
0.0
 40
0.0
 40
0.0
 40
0.22400404164552776
 40
0.22400404164552776
 40
0.22400404164552776
 40
0.22400404164552776
 40
0.22400404164552776
 40
0.22400404164552776
 40
0.31167256905434276
 40
0.31167256905434276
 40
0.31167256905434276
 40
0.31167256905434276
 40
0.31167256905434276
 40
0.31167256905434276
 40
0.4658633642857688
 40
0.4658633642857688
 40
0.4658633642857688
 40
0.4658633642857688
 40
0.4658633642857688
 40
0.4658633642857688
 40
0.57627912960462
 40
0.57627912960462
 40
0.57627912960462
 40
0.57627912960462
 40
0.57627912960462
 40
0.57627912960462
 40
0.6302108627634607
 40
0.6302108627634607
 40
0.6302108627634607
 40
0.6302108627634607
 40
0.6302108627634607
 40
0.6302108627634607
 40
0.7264947758354801
 40
0.7264947758354801
 40
0.7264947758354801
 40
0.7264947758354801
 40
0.7264947758354801
 40
0.7264947758354801
 40
1.0
 40
1.0
 40
1.0
 40
1.0
 40
1.0
 40
1.0
 40
1.0
 40
1.0
 10
8.100097556250013
 20
17.149981080826816
 30
2.0
 10
7.517127457723907
 20
17.14998101930638
 30
2.0
 10
6.934357027913688
 20
17.130699308062223
 30
2.0
 10
6.352269890506896
 20
17.090033954639438
 30
2.0
 10
5.77198279326964
 20
17.025496896006427
 30
2.0
 10
5.19523547038699
 20
16.934266309035507
 30
2.0
 10
4.624383681709919
 20
16.813252050047655
 30
2.0
 10
3.8424016163374373
 20
16.5991293254592
 30
2.0
 10
3.6238279702606353
 20
16.533872818641274
 30
2.0
 10
3.4068351763134275
 20
16.463412525646852
 30
2.0
 10
3.1916436494213802
 20
16.387576957349147
 30
2.0
 10
2.978496077679039
 20
16.30620717776045
 30
2.0
 10
2.7676546841019856
 20
16.219164256396024
 30
2.0
 10
2.193118942234935
 20
15.963072297464175
 30
2.0
 10
1.8347302148127933
 20
15.781867159656088
 30
2.0
 10
1.4859160827583335
 20
15.582170980309327
 30
2.0
 10
1.1483779399542762
 20
15.363698289268054
 30
2.0
 10
0.8237634060283973
 20
15.126535793777476
 30
2.0
 10
0.5135862351336198
 20
14.871264556192633
 30
2.0
 10
0.008283306187826881
 20
14.404198326825943
 30
2.0
 10
-0.19455142119788676
 20
14.200592654291208
 30
2.0
 10
-0.38890492103541285
 20
13.988700556464506
 30
2.0
 10
-0.5744595592319872
 20
13.769020229494672
 30
2.0
 10
-0.7510243440220584
 20
13.542112750420939
 30
2.0
 10
-0.9185174662655439
 20
13.308587307239707
 30
2.0
 10
-1.1543334282046904
 20
12.952104063085665
 30
2.0
 10
-1.2295595494400307
 20
12.833690879916194
 30
2.0
 10
-1.3026304030709885
 20
12.713917987221617
 30
2.0
 10
-1.373555447971211
 20
12.592855881961338
 30
2.0
 10
-1.442349580169329
 20
12.470573963347992
 30
2.0
 10
-1.5090323107491728
 20
12.34714004589989
 30
2.0
 10
-1.6889472508213816
 20
12.000314953853755
 30
2.0
 10
-1.7976110455223464
 20
11.774549586361088
 30
2.0
 10
-1.8997546479681062
 20
11.545693954159558
 30
2.0
 10
-1.9955508966626536
 20
11.314095313324511
 30
2.0
 10
-2.0851987201571798
 20
11.080073482214877
 30
2.0
 10
-2.1689127087085023
 20
10.84391633182547
 30
2.0
 10
-2.468480345333355
 20
9.929693033243701
 30
2.0
 10
-2.643783647502879
 20
9.238796318960134
 30
2.0
 10
-2.778262120989242
 20
8.538205773787885
 30
2.0
 10
-2.8770121231487344
 20
7.83184206369393
 30
2.0
 10
-2.944484818481752
 20
7.122469245835087
 30
2.0
 10
-2.9844598036337673
 20
6.411693036793155
 30
2.0
 10
-3.000000099999987
 20
5.699948528743488
 30
2.0
  0
LINE
  5
65
330
17
100
AcDbEntity
  8
0
100
AcDbLine
 10
-3.000000099999994
 20
5.699948528743488
 30
2.0
 11
1.4000650041666773
 21
5.699948528743488
 31
2.0
  0
SPLINE
  5
66
330
17
100
AcDbEntity
  8
0
100
AcDbSpline
 70
0
 71
5
 72
24
 73
18
 74
0
 40
0.0
 40
0.0
 40
0.0
 40
0.0
 40
0.0
 40
0.0
 40
0.2929767317560324
 40
0.2929767317560324
 40
0.2929767317560324
 40
0.2929767317560324
 40
0.558528059591414
 40
0.558528059591414
 40
0.558528059591414
 40
0.558528059591414
 40
0.7854709504452911
 40
0.7854709504452911
 40
0.7854709504452911
 40
0.7854709504452911
 40
1.0
 40
1.0
 40
1.0
 40
1.0
 40
1.0
 40
1.0
 10
1.4000650041666773
 20
5.699948528743488
 30
2.0
 10
1.4099657152584242
 20
6.04174834367968
 30
2.0
 10
1.428227722322866
 20
6.383128632969223
 30
2.0
 10
1.4556272167605757
 20
6.7238026859541495
 30
2.0
 10
1.4930734736650941
 20
7.063308734805782
 30
2.0
 10
1.5856008577394185
 20
7.707099133588532
 30
2.0
 10
1.6387013626705265
 20
8.011690381248833
 30
2.0
 10
1.7016843107328476
 20
8.31431203929423
 30
2.0
 10
1.7754077605626915
 20
8.614274222283992
 30
2.0
 10
1.9336499322809397
 20
9.164008153041337
 30
2.0
 10
2.0150384721804024
 20
9.414728190328203
 30
2.0
 10
2.1054272808826378
 20
9.662287517549089
 30
2.0
 10
2.205333267732162
 20
9.905967312308064
 30
2.0
 10
2.418938590321786
 20
10.370840202643782
 30
2.0
 10
2.5315850092472214
 20
10.592535419932656
 30
2.0
 10
2.6533921543312697
 20
10.809312375688172
 30
2.0
 10
2.7845624517931395
 20
11.020376307405042
 30
2.0
 10
2.925048728125013
 20
11.224932252701821
 30
2.0
  0
SPLINE
  5
67
330
17
100
AcDbEntity
  8
0
100
AcDbSpline
 70
0
 71
6
 72
29
 73
22
 74
0
 40
0.0
 40
0.0
 40
0.0
 40
0.0
 40
0.0
 40
0.0
 40
0.0
 40
0.07998023356047619
 40
0.07998023356047619
 40
0.07998023356047619
 40
0.07998023356047619
 40
0.07998023356047619
 40
0.34322264341772135
 40
0.34322264341772135
 40
0.34322264341772135
 40
0.34322264341772135
 40
0.34322264341772135
 40
0.5030673626249159
 40
0.5030673626249159
 40
0.5030673626249159
 40
0.5030673626249159
 40
0.5030673626249159
 40
1.0
 40
1.0
 40
1.0
 40
1.0
 40
1.0
 40
1.0
 40
1.0
 10
2.925048728125013
 20
11.224932252701821
 30
2.0
 10
2.9690335676976525
 20
11.288976633692897
 30
2.0
 10
3.0144900066494653
 20
11.352001262944468
 30
2.0
 10
3.0614039755027114
 20
11.413954325358786
 30
2.0
 10
3.1097546124199984
 20
11.474788069663733
 30
2.0
 10
3.1595142632042754
 20
11.534458808412781
 30
2.0
 10
3.378948749979616
 20
11.785365541610162
 30
2.0
 10
3.56219384346759
 20
11.964839887512214
 30
2.0
 10
3.7590317911969726
 20
12.129771225155661
 30
2.0
 10
3.9676158974036744
 20
12.279653548244816
 30
2.0
 10
4.185915172143403
 20
12.41466105793729
 30
2.0
 10
4.549187115368391
 20
12.608665853292285
 30
2.0
 10
4.6893213338235284
 20
12.676710519234751
 30
2.0
 10
4.831947129045006
 20
12.739653274484786
 30
2.0
 10
4.976702454408744
 20
12.797695159832365
 30
2.0
 10
5.123270456588966
 20
12.851065179431643
 30
2.0
 10
5.731872004877134
 20
13.05211751419272
 30
2.0
 10
6.206721028336458
 20
13.161134649677
 30
2.0
 10
6.689331162181291
 20
13.234757757549712
 30
2.0
 10
7.175248032727812
 20
13.279362719697156
 30
2.0
 10
7.662196657359667
 20
13.29988339793704
 30
2.0
 10
8.150065004166677
 20
13.299883424576821
 30
2.0
  0
SPLINE
  5
68
330
17
100
AcDbEntity
  8
0
100
AcDbSpline
 70
0
 71
7
 72
28
 73
20
 74
0
 40
0.0
 40
0.0
 40
0.0
 40
0.0
 40
0.0
 40
0.0
 40
0.0
 40
0.0
 40
0.42768411803550305
 40
0.42768411803550305
 40
0.42768411803550305
 40
0.42768411803550305
 40
0.42768411803550305
 40
0.42768411803550305
 40
0.7830291934869292
 40
0.7830291934869292
 40
0.7830291934869292
 40
0.7830291934869292
 40
0.7830291934869292
 40
0.7830291934869292
 40
1.0
 40
1.0
 40
1.0
 40
1.0
 40
1.0
 40
1.0
 40
1.0
 40
1.0
 10
24.60009755625
 20
-1.1499863670898467
 30
2.0
 10
24.600097584708355
 20
-2.0134013604170775
 30
2.0
 10
24.616112196698978
 20
-2.8766422616483673
 30
2.0
 10
24.64968048323151
 20
-3.739499867976434
 30
2.0
 10
24.702624083747814
 20
-4.601486160033689
 30
2.0
 10
24.777114629752365
 20
-5.4618287492697135
 30
2.0
 10
24.875741032609334
 20
-6.319465549464461
 30
2.0
 10
25.106474681670726
 20
-7.882211082100407
 30
2.0
 10
25.230065350592692
 20
-8.588365128953678
 30
2.0
 10
25.37440696778069
 20
-9.290828490482623
 30
2.0
 10
25.541650485233138
 20
-9.988409910393282
 30
2.0
 10
25.734237023840517
 20
-10.67938284263539
 30
2.0
 10
25.954915671943564
 20
-11.361480816009934
 30
2.0
 10
26.36055142750923
 20
-12.44123667064832
 30
2.0
 10
26.525927212096484
 20
-12.846150725692697
 30
2.0
 10
26.703579383553468
 20
-13.245957336235037
 30
2.0
 10
26.894190967091323
 20
-13.639814837107977
 30
2.0
 10
27.098425858319583
 20
-14.026725011100954
 30
2.0
 10
27.316886300749314
 20
-14.405554532320522
 30
2.0
 10
27.550048728125002
 20
-14.775067747298179
 30
2.0
  0
SPLINE
  5
69
330
17
100
AcDbEntity
  8
0
100
AcDbSpline
 70
0
 71
6
 72
34
 73
27
 74
0
 40
0.0
 40
0.0
 40
0.0
 40
0.0
 40
0.0
 40
0.0
 40
0.0
 40
0.1679565676430708
 40
0.1679565676430708
 40
0.1679565676430708
 40
0.1679565676430708
 40
0.1679565676430708
 40
0.4641185483184377
 40
0.4641185483184377
 40
0.4641185483184377
 40
0.4641185483184377
 40
0.4641185483184377
 40
0.6857229434253842
 40
0.6857229434253842
 40
0.6857229434253842
 40
0.6857229434253842
 40
0.6857229434253842
 40
0.7956771540281676
 40
0.7956771540281676
 40
0.7956771540281676
 40
0.7956771540281676
 40
0.7956771540281676
 40
1.0
 40
1.0
 40
1.0
 40
1.0
 40
1.0
 40
1.0
 40
1.0
 10
27.550048728125002
 20
-14.775067747298179
 30
2.0
 10
27.704145095097584
 20
-15.019277857452318
 30
2.0
 10
27.864898503141884
 20
-15.259248120493055
 30
2.0
 10
28.03251524674387
 20
-15.494531879205626
 30
2.0
 10
28.207170711892715
 20
-15.724628365617086
 30
2.0
 10
28.388986248622604
 20
-15.949000316048206
 30
2.0
 10
28.911309335230087
 20
-16.551657330942724
 30
2.0
 10
29.267124451183527
 20
-16.916824085631138
 30
2.0
 10
29.645506066953388
 20
-17.259281168089693
 30
2.0
 10
30.045865625933597
 20
-17.575879585717708
 30
2.0
 10
30.46667105373981
 20
-17.863996471468568
 30
2.0
 10
31.23309612161575
 20
-18.315028803474792
 30
2.0
 10
31.571064951865452
 20
-18.49125659863573
 30
2.0
 10
31.917827939857435
 20
-18.64998744394465
 30
2.0
 10
32.272147657128926
 20
-18.79101357013704
 30
2.0
 10
32.6327356959689
 20
-18.914503746383613
 30
2.0
 10
33.17967573072412
 20
-19.073698500172572
 30
2.0
 10
33.36229148710064
 20
-19.12228812961807
 30
2.0
 10
33.545993684428595
 20
-19.166730487099098
 30
2.0
 10
33.73064163172822
 20
-19.20709969231925
 30
2.0
 10
33.91610355413055
 20
-19.243482880871426
 30
2.0
 10
34.44817928595584
 20
-19.336355556910963
 30
2.0
 10
34.79648510381623
 20
-19.38330051124723
 30
2.0
 10
35.14640909063351
 20
-19.417428437332273
 30
2.0
 10
35.49730263732427
 20
-19.439456534132614
 30
2.0
 10
35.848642074601074
 20
-19.450116546602867
 30
2.0
 10
36.200032452083335
 20
-19.45011657542318
 30
2.0
  0
SPLINE
  5
6A
330
17
100
AcDbEntity
  8
0
100
AcDbSpline
 70
0
 71
6
 72
34
 73
27
 74
0
 40
0.0
 40
0.0
 40
0.0
 40
0.0
 40
0.0
 40
0.0
 40
0.0
 40
0.2007940464342957
 40
0.2007940464342957
 40
0.2007940464342957
 40
0.2007940464342957
 40
0.2007940464342957
 40
0.3097626072813048
 40
0.3097626072813048
 40
0.3097626072813048
 40
0.3097626072813048
 40
0.3097626072813048
 40
0.5315684181412217
 40
0.5315684181412217
 40
0.5315684181412217
 40
0.5315684181412217
 40
0.5315684181412217
 40
0.8309134114778189
 40
0.8309134114778189
 40
0.8309134114778189
 40
0.8309134114778189
 40
0.8309134114778189
 40
1.0
 40
1.0
 40
1.0
 40
1.0
 40
1.0
 40
1.0
 40
1.0
 10
36.200032452083335
 20
-19.45011657542318
 30
2.0
 10
36.54343192337176
 20
-19.45011654731337
 30
2.0
 10
36.88678291280363
 20
-19.43986591439003
 30
2.0
 10
37.229710579217716
 20
-19.418705929585716
 30
2.0
 10
37.571723822437185
 20
-19.385959261665807
 30
2.0
 10
37.91221870623689
 20
-19.3409649694478
 30
2.0
 10
38.43405811447375
 20
-19.25178078505422
 30
2.0
 10
38.61697344099045
 20
-19.21663310351962
 30
2.0
 10
38.79911535794505
 20
-19.177620655485338
 30
2.0
 10
38.980359037829736
 20
-19.13466114783324
 30
2.0
 10
39.16057139938751
 20
-19.087684496017847
 30
2.0
 10
39.704049852392366
 20
-18.932729528364714
 30
2.0
 10
40.06367622731545
 20
-18.811942982580515
 30
2.0
 10
40.41722975084072
 20
-18.67383902173265
 30
2.0
 10
40.763456577928366
 20
-18.51824934226789
 30
2.0
 10
41.101150039294986
 20
-18.345369361455194
 30
2.0
 10
41.87190714049072
 20
-17.900082780433408
 30
2.0
 10
42.297203557983416
 20
-17.613917511092506
 30
2.0
 10
42.70219658909626
 20
-17.29897855872249
 30
2.0
 10
43.085322078598104
 20
-16.957879974483145
 30
2.0
 10
43.44595825189259
 20
-16.59377420872537
 30
2.0
 10
43.975145176241
 20
-15.993199576215133
 30
2.0
 10
44.159030193852
 20
-15.770092685700597
 30
2.0
 10
44.33582164679271
 20
-15.541216246971056
 30
2.0
 10
44.50563460886398
 20
-15.307104405494792
 30
2.0
 10
44.66863810684325
 20
-15.068255916177543
 30
2.0
 10
44.82503245208334
 20
-14.825116575423179
 30
2.0
  0
SPLINE
  5
6B
330
17
100
AcDbEntity
  8
0
100
AcDbSpline
 70
0
 71
7
 72
28
 73
20
 74
0
 40
0.0
 40
0.0
 40
0.0
 40
0.0
 40
0.0
 40
0.0
 40
0.0
 40
0.0
 40
0.3452023226568196
 40
0.3452023226568196
 40
0.3452023226568196
 40
0.3452023226568196
 40
0.3452023226568196
 40
0.3452023226568196
 40
0.7609049332517677
 40
0.7609049332517677
 40
0.7609049332517677
 40
0.7609049332517677
 40
0.7609049332517677
 40
0.7609049332517677
 40
1.0
 40
1.0
 40
1.0
 40
1.0
 40
1.0
 40
1.0
 40
1.0
 40
1.0
 10
44.825032452083335
 20
-14.825116575423179
 30
2.0
 10
45.194873232410814
 20
-14.250141326377882
 30
2.0
 10
45.52877174758949
 20
-13.652158249328195
 30
2.0
 10
45.8283689188171
 20
-13.035620897621122
 30
2.0
 10
46.096038898898534
 20
-12.404526472015563
 30
2.0
 10
46.33431490947387
 20
-11.76214985585912
 30
2.0
 10
46.545706907535596
 20
-11.110962507264608
 30
2.0
 10
46.957568894136216
 20
-9.659698079354209
 30
2.0
 10
47.14688814144866
 20
-8.856740937610107
 30
2.0
 10
47.30464945189454
 20
-8.046549480419527
 30
2.0
 10
47.4343130078384
 20
-7.231356197788793
 30
2.0
 10
47.53882990077584
 20
-6.41279933270918
 30
2.0
 10
47.62073342364851
 20
-5.591939677805098
 30
2.0
 10
47.71748524114691
 20
-4.296092300465195
 30
2.0
 10
47.74603393958564
 20
-3.822387959202422
 30
2.0
 10
47.768208660252405
 20
-3.3482917881078156
 30
2.0
 10
47.78437447562777
 20
-2.8739254512408827
 30
2.0
 10
47.7948609765262
 20
-2.3993901509630953
 30
2.0
 10
47.79996733177891
 20
-1.9247668636533068
 30
2.0
 10
47.79996734791666
 20
-1.4501165754231788
 30
2.0
  0
SPLINE
  5
6C
330
17
100
AcDbEntity
  8
0
100
AcDbSpline
 70
0
 71
7
 72
58
 73
50
 74
0
 40
0.0
 40
0.0
 40
0.0
 40
0.0
 40
0.0
 40
0.0
 40
0.0
 40
0.0
 40
0.23531376668343534
 40
0.23531376668343534
 40
0.23531376668343534
 40
0.23531376668343534
 40
0.23531376668343534
 40
0.23531376668343534
 40
0.43086508386076305
 40
0.43086508386076305
 40
0.43086508386076305
 40
0.43086508386076305
 40
0.43086508386076305
 40
0.43086508386076305
 40
0.5821056506811855
 40
0.5821056506811855
 40
0.5821056506811855
 40
0.5821056506811855
 40
0.5821056506811855
 40
0.5821056506811855
 40
0.6465123915792913
 40
0.6465123915792913
 40
0.6465123915792913
 40
0.6465123915792913
 40
0.6465123915792913
 40
0.6465123915792913
 40
0.7637479243440675
 40
0.7637479243440675
 40
0.7637479243440675
 40
0.7637479243440675
 40
0.7637479243440675
 40
0.7637479243440675
 40
0.8594429490865378
 40
0.8594429490865378
 40
0.8594429490865378
 40
0.8594429490865378
 40
0.8594429490865378
 40
0.8594429490865378
 40
0.9071613842366589
 40
0.9071613842366589
 40
0.9071613842366589
 40
0.9071613842366589
 40
0.9071613842366589
 40
0.9071613842366589
 40
1.0
 40
1.0
 40
1.0
 40
1.0
 40
1.0
 40
1.0
 40
1.0
 40
1.0
 10
47.79996734791666
 20
-1.4501165754231806
 30
2.0
 10
47.799967295959824
 20
-0.6170065350675146
 30
2.0
 10
47.7863923519587
 20
0.21601311994795447
 30
2.0
 10
47.75796962079221
 20
1.0487881425337733
 30
2.0
 10
47.7131967010245
 20
1.8809635804933844
 30
2.0
 10
47.65027608137417
 20
2.7119795953045953
 30
2.0
 10
47.56705287534554
 20
3.541066987643606
 30
2.0
 10
47.372453097843
 20
5.053793547607419
 30
2.0
 10
47.26823232063233
 20
5.738159715021766
 30
2.0
 10
47.14653325186407
 20
6.419877844588667
 30
2.0
 10
47.00550852779842
 20
7.098088484838079
 30
2.0
 10
46.84302517238774
 20
7.771522130258006
 30
2.0
 10
46.65658654645644
 20
8.438481453745977
 30
2.0
 10
46.278152370159766
 20
9.605962424936127
 30
2.0
 10
46.09703830693447
 20
10.109800082854822
 30
2.0
 10
45.898468500257515
 20
10.607350338290653
 30
2.0
 10
45.680976710982705
 20
11.097192845666667
 30
2.0
 10
45.4430357420282
 20
11.577467704288704
 30
2.0
 10
45.18314520198607
 20
12.045916790583151
 30
2.0
 10
44.779397495700906
 20
12.693312386578123
 30
2.0
 10
44.65460211507963
 20
12.88403723029522
 30
2.0
 10
44.52550477187864
 20
13.071921016581102
 30
2.0
 10
44.392023998684515
 20
13.256736986706423
 30
2.0
 10
44.2540945140261
 20
13.438245456440509
 30
2.0
 10
44.111672165514285
 20
13.616197467944861
 30
2.0
 10
43.69728545753593
 20
14.107316285068976
 30
2.0
 10
43.4148203491457
 20
14.411745516807356
 30
2.0
 10
43.11732101667207
 20
14.701966317795296
 30
2.0
 10
42.805007050022496
 20
14.976386398281322
 30
2.0
 10
42.47841160058463
 20
15.233564049505462
 30
2.0
 10
42.13846079151988
 20
15.472299335434608
 30
2.0
 10
41.499318407137956
 20
15.870849346981831
 30
2.0
 10
41.20404527742385
 20
16.037148108081617
 30
2.0
 10
40.901480382158695
 20
16.190163206098173
 30
2.0
 10
40.59241369464596
 20
16.329672284609007
 30
2.0
 10
40.2776701769493
 20
16.455661224464457
 30
2.0
 10
39.958093468733736
 20
16.568288235705104
 30
2.0
 10
39.473184065524656
 20
16.71749351630019
 30
2.0
 10
39.310837310104134
 20
16.763892886813096
 30
2.0
 10
39.147587108051006
 20
16.80708412705507
 30
2.0
 10
38.983527106184496
 20
16.847114081948135
 30
2.0
 10
38.818746395912754
 20
16.884036758992018
 30
2.0
 10
38.653329109208265
 20
16.917911711957007
 30
2.0
 10
38.16444111964672
 20
17.008901859743634
 30
2.0
 10
37.83942516579474
 20
17.0577039607973
 30
2.0
 10
37.51287119110696
 20
17.09568073327636
 30
2.0
 10
37.18527331172493
 20
17.123357791217497
 30
2.0
 10
36.85705152826887
 20
17.141278844156158
 30
2.0
 10
36.52854938076497
 20
17.149981028150247
 30
2.0
 10
36.20003245208334
 20
17.149981080826816
 30
2.0
  0
SPLINE
  5
6D
330
17
100
AcDbEntity
  8
0
100
AcDbSpline
 70
0
 71
5
 72
16
 73
10
 74
0
 40
0.0
 40
0.0
 40
0.0
 40
0.0
 40
0.0
 40
0.0
 40
0.5088033947383735
 40
0.5088033947383735
 40
0.5088033947383735
 40
0.5088033947383735
 40
1.0
 40
1.0
 40
1.0
 40
1.0
 40
1.0
 40
1.0
 10
36.200032452083335
 20
17.149981080826816
 30
2.0
 10
35.87726108528834
 20
17.14998107300268
 30
2.0
 10
35.55484102102604
 20
17.14041545195777
 30
2.0
 10
35.23314232695625
 20
17.12082985663638
 30
2.0
 10
34.91260852027039
 20
17.090797392509863
 30
2.0
 10
34.28592516169267
 20
17.01058518658774
 30
2.0
 10
33.979658577718055
 20
16.961138236355573
 30
2.0
 10
33.67541512425792
 20
16.901345917604925
 30
2.0
 10
33.373697328691456
 20
16.830991491954848
 30
2.0
 10
33.075032452083335
 20
16.749997356868487
 30
2.0
  0
SPLINE
  5
6E
330
17
100
AcDbEntity
  8
0
100
AcDbSpline
 70
0
 71
5
 72
24
 73
18
 74
0
 40
0.0
 40
0.0
 40
0.0
 40
0.0
 40
0.0
 40
0.0
 40
0.22840403339052578
 40
0.22840403339052578
 40
0.22840403339052578
 40
0.22840403339052578
 40
0.46946821297500274
 40
0.46946821297500274
 40
0.46946821297500274
 40
0.46946821297500274
 40
0.7264045917440305
 40
0.7264045917440305
 40
0.7264045917440305
 40
0.7264045917440305
 40
1.0
 40
1.0
 40
1.0
 40
1.0
 40
1.0
 40
1.0
 10
33.075032452083335
 20
16.749997356868487
 30
2.0
 10
32.922999708844884
 20
16.708767988288514
 30
2.0
 10
32.772048249754356
 20
16.662744264685813
 30
2.0
 10
32.62230333266546
 20
16.612216307496354
 30
2.0
 10
32.47384903516262
 20
16.55747775319074
 30
2.0
 10
32.17146637841397
 20
16.436873207258248
 30
2.0
 10
32.017692187795205
 20
16.37055922952545
 30
2.0
 10
31.865469201033118
 20
16.300180985430973
 30
2.0
 10
31.714822837408338
 20
16.226039128767532
 30
2.0
 10
31.406866287459586
 20
16.065650198380993
 30
2.0
 10
31.249772569727337
 20
15.97892839939359
 30
2.0
 10
31.094469050258283
 20
15.88855963708256
 30
2.0
 10
30.9409356645371
 20
15.794831244722477
 30
2.0
 10
30.627490388046247
 20
15.594876995708967
 30
2.0
 10
30.467812384717877
 20
15.488236001042855
 30
2.0
 10
30.310055124500536
 20
15.378371758350553
 30
2.0
 10
30.15416528064869
 20
15.265546033615374
 30
2.0
 10
30.000081280208338
 20
15.149981080826816
 30
2.0
  0
SPLINE
  5
6F
330
17
100
AcDbEntity
  8
0
100
AcDbSpline
 70
0
 71
5
 72
24
 73
18
 74
0
 40
0.0
 40
0.0
 40
0.0
 40
0.0
 40
0.0
 40
0.0
 40
0.24176769667408654
 40
0.24176769667408654
 40
0.24176769667408654
 40
0.24176769667408654
 40
0.4871838900070099
 40
0.4871838900070099
 40
0.4871838900070099
 40
0.4871838900070099
 40
0.739561067775151
 40
0.739561067775151
 40
0.739561067775151
 40
0.739561067775151
 40
1.0
 40
1.0
 40
1.0
 40
1.0
 40
1.0
 40
1.0
 10
30.000081280208335
 20
15.149981080826818
 30
2.0
 10
29.83844427766365
 20
15.028751262885194
 30
2.0
 10
29.680037073167625
 20
14.90316702742252
 30
2.0
 10
29.52497890899603
 20
14.773377985434276
 30
2.0
 10
29.373355590545206
 20
14.639557091788866
 30
2.0
 10
29.0748602128641
 20
14.36215166496412
 30
2.0
 10
28.928093462093308
 20
14.218449407287645
 30
2.0
 10
28.784985862020093
 20
14.070983108516545
 30
2.0
 10
28.645562708486352
 20
13.91996016581534
 30
2.0
 10
28.3702343719213
 20
13.606839412700054
 30
2.0
 10
28.23454073393159
 20
13.444548504372692
 30
2.0
 10
28.102741456918984
 20
13.278942354642913
 30
2.0
 10
27.97480402485289
 20
13.110244769035734
 30
2.0
 10
27.722582193688204
 20
12.761610875080708
 30
2.0
 10
27.598545049220984
 20
12.581487717677629
 30
2.0
 10
27.478505475920333
 20
12.398531556874744
 30
2.0
 10
27.362382197132774
 20
12.212962517734283
 30
2.0
 10
27.250081280208335
 20
12.024981080826821
 30
2.0
  0
SPLINE
  5
70
330
17
100
AcDbEntity
  8
0
100
AcDbSpline
 70
0
 71
6
 72
24
 73
17
 74
0
 40
0.0
 40
0.0
 40
0.0
 40
0.0
 40
0.0
 40
0.0
 40
0.0
 40
0.3732770895549417
 40
0.3732770895549417
 40
0.3732770895549417
 40
0.3732770895549417
 40
0.3732770895549417
 40
0.8198814071742131
 40
0.8198814071742131
 40
0.8198814071742131
 40
0.8198814071742131
 40
0.8198814071742131
 40
1.0
 40
1.0
 40
1.0
 40
1.0
 40
1.0
 40
1.0
 40
1.0
 10
27.250081280208335
 20
12.024981080826821
 30
2.0
 10
27.07052742402555
 20
11.724424334147143
 30
2.0
 10
26.904444772646514
 20
11.415048518400784
 30
2.0
 10
26.750076443394917
 20
11.098898585913858
 30
2.0
 10
26.606090257759984
 20
10.777445696827552
 30
2.0
 10
26.471340481116492
 20
10.451719317689978
 30
2.0
 10
26.193494312306754
 20
9.728211205063701
 30
2.0
 10
26.05400740967422
 20
9.328975329795744
 30
2.0
 10
25.92473078361811
 20
8.92578045802247
 30
2.0
 10
25.804483725686254
 20
8.519452054161272
 30
2.0
 10
25.692288899635763
 20
8.110571631993132
 30
2.0
 10
25.545011675246744
 20
7.5336946726950735
 30
2.0
 10
25.503864343938996
 20
7.367549565508779
 30
2.0
 10
25.463845084967314
 20
7.20107954067629
 30
2.0
 10
25.424906118837878
 20
7.034308902118742
 30
2.0
 10
25.38700358788077
 20
6.867259059603364
 30
2.0
 10
25.350097556250002
 20
6.699948528743488
 30
2.0
  0
SPLINE
  5
71
330
17
100
AcDbEntity
  8
0
100
AcDbSpline
 70
0
 71
5
 72
24
 73
18
 74
0
 40
0.0
 40
0.0
 40
0.0
 40
0.0
 40
0.0
 40
0.0
 40
0.228644400542895
 40
0.228644400542895
 40
0.228644400542895
 40
0.228644400542895
 40
0.46976600660614776
 40
0.46976600660614776
 40
0.46976600660614776
 40
0.46976600660614776
 40
0.7269767535888365
 40
0.7269767535888365
 40
0.7269767535888365
 40
0.7269767535888365
 40
1.0
 40
1.0
 40
1.0
 40
1.0
 40
1.0
 40
1.0
 10
25.35009755625
 20
6.699948528743488
 30
2.0
 10
25.27244387189315
 20
6.347911706148041
 30
2.0
 10
25.201036492218083
 20
5.9943786394312735
 30
2.0
 10
25.135515304278815
 20
5.639587919074946
 30
2.0
 10
25.075551646014606
 20
5.2837359799536125
 30
2.0
 10
24.96315978595496
 20
4.550749764974409
 30
2.0
 10
24.911321488945937
 20
4.173516357376087
 30
2.0
 10
24.864983933964183
 20
3.7954590090294733
 30
2.0
 10
24.82383610041213
 20
3.416725869225184
 30
2.0
 10
24.748940949877436
 20
2.6328297949438486
 30
2.0
 10
24.7158708486483
 20
2.227591698265109
 30
2.0
 10
24.68804706055942
 20
1.8218587549976124
 30
2.0
 10
24.66517031408091
 20
1.4157444289994043
 30
2.0
 10
24.627656058091645
 20
0.5779423274682463
 30
2.0
 10
24.613611616870056
 20
0.14621903164622485
 30
2.0
 10
24.60451883487998
 20
-0.28572932332812573
 30
2.0
 10
24.600097563533932
 20
-0.7178188863803376
 30
2.0
 10
24.60009755625
 20
-1.1499863670898474
 30
2.0
  0
SPLINE
  5
72
330
17
100
AcDbEntity
  8
0
100
AcDbSpline
 70
0
 71
5
 72
24
 73
18
 74
0
 40
0.0
 40
0.0
 40
0.0
 40
0.0
 40
0.0
 40
0.0
 40
0.3126709111888884
 40
0.3126709111888884
 40
0.3126709111888884
 40
0.3126709111888884
 40
0.6004727580203795
 40
0.6004727580203795
 40
0.6004727580203795
 40
0.6004727580203795
 40
0.7414994842019252
 40
0.7414994842019252
 40
0.7414994842019252
 40
0.7414994842019252
 40
1.0
 40
1.0
 40
1.0
 40
1.0
 40
1.0
 40
1.0
 10
-36.699869891666665
 20
-2.2250189191731793
 30
2.0
 10
-36.4426870371748
 20
-1.964691512099344
 30
2.0
 10
-36.16939975537098
 20
-1.7204246025609442
 30
2.0
 10
-35.88034867012265
 20
-1.4947253740623405
 30
2.0
 10
-35.576552966576834
 20
-1.289732928453265
 30
2.0
 10
-34.96889034365365
 20
-0.938151020168926
 30
2.0
 10
-34.66687680724892
 20
-0.7881701255842306
 30
2.0
 10
-34.3557293969441
 20
-0.6576758047578968
 30
2.0
 10
-34.03727650527014
 20
-0.5466232165769505
 30
2.0
 10
-33.55465280621132
 20
-0.40916591652603396
 30
2.0
 10
-33.394614196594546
 20
-0.36847198326362385
 30
2.0
 10
-33.23345981635193
 20
-0.3322109971078189
 30
2.0
 10
-33.07137906563212
 20
-0.3002692123016695
 30
2.0
 10
-32.610062571084306
 20
-0.2216417175394012
 30
2.0
 10
-32.30904640289345
 20
-0.1848394065563781
 30
2.0
 10
-32.006520712044896
 20
-0.1612882362683603
 30
2.0
 10
-31.703288406414995
 20
-0.1499863864601787
 30
2.0
 10
-31.399902443749994
 20
-0.14998636708984714
 30
2.0
  0
SPLINE
  5
73
330
17
100
AcDbEntity
  8
0
100
AcDbSpline
 70
0
 71
6
 72
29
 73
22
 74
0
 40
0.0
 40
0.0
 40
0.0
 40
0.0
 40
0.0
 40
0.0
 40
0.0
 40
0.28305475243188
 40
0.28305475243188
 40
0.28305475243188
 40
0.28305475243188
 40
0.28305475243188
 40
0.42794645344672455
 40
0.42794645344672455
 40
0.42794645344672455
 40
0.42794645344672455
 40
0.42794645344672455
 40
0.7154519204900534
 40
0.7154519204900534
 40
0.7154519204900534
 40
0.7154519204900534
 40
0.7154519204900534
 40
1.0
 40
1.0
 40
1.0
 40
1.0
 40
1.0
 40
1.0
 40
1.0
 10
-31.399902443749994
 20
-0.14998636708984714
 30
2.0
 10
-31.133105064426353
 20
-0.14998638439008571
 30
2.0
 10
-30.86644769101145
 20
-0.15864055935875365
 30
2.0
 10
-30.600269937984056
 20
-0.17661723915968164
 30
2.0
 10
-30.335050416438325
 20
-0.20462650776483615
 30
2.0
 10
-30.071402623907545
 20
-0.24338353049158368
 30
2.0
 10
-29.67628937906687
 20
-0.31917551820011
 30
2.0
 10
-29.543121973009722
 20
-0.34781648636221624
 30
2.0
 10
-29.41066426730298
 20
-0.3795202412192437
 30
2.0
 10
-29.279027729637296
 20
-0.414363248464319
 30
2.0
 10
-29.1483322181434
 20
-0.45241096946788245
 30
2.0
 10
-28.761487896668957
 20
-0.5756690215607406
 30
2.0
 10
-28.508435735296455
 20
-0.6704527143541856
 30
2.0
 10
-28.26061513888367
 20
-0.7784386273394475
 30
2.0
 10
-28.019086973885976
 20
-0.8997709396394065
 30
2.0
 10
-27.784860609570927
 20
-1.0342684982249095
 30
2.0
 10
-27.335161005559595
 20
-1.3268776213257623
 30
2.0
 10
-27.119465940463755
 20
-1.4847670012277596
 30
2.0
 10
-26.91265359678884
 20
-1.654425618639049
 30
2.0
 10
-26.715284265769743
 20
-1.8350326265648775
 30
2.0
 10
-26.527652854150862
 20
-2.025594109436041
 30
2.0
 10
-26.349853615624994
 20
-2.2250189191731793
 30
2.0
  0
SPLINE
  5
74
330
17
100
AcDbEntity
  8
0
100
AcDbSpline
 70
0
 71
6
 72
29
 73
22
 74
0
 40
0.0
 40
0.0
 40
0.0
 40
0.0
 40
0.0
 40
0.0
 40
0.0
 40
0.05973399704087356
 40
0.05973399704087356
 40
0.05973399704087356
 40
0.05973399704087356
 40
0.05973399704087356
 40
0.3173867595376244
 40
0.3173867595376244
 40
0.3173867595376244
 40
0.3173867595376244
 40
0.3173867595376244
 40
0.5884260355974147
 40
0.5884260355974147
 40
0.5884260355974147
 40
0.5884260355974147
 40
0.5884260355974147
 40
1.0
 40
1.0
 40
1.0
 40
1.0
 40
1.0
 40
1.0
 40
1.0
 10
-26.349853615624994
 20
-2.22501891917318
 30
2.0
 10
-26.309809267020697
 20
-2.269933843529571
 30
2.0
 10
-26.270261366849592
 20
-2.315289866962063
 30
2.0
 10
-26.231216953987573
 20
-2.361081322016359
 30
2.0
 10
-26.192682586676597
 20
-2.4073020844722817
 30
2.0
 10
-26.15466434252467
 20
-2.453945573343777
 30
2.0
 10
-25.95543273503468
 20
-2.703986766036125
 30
2.0
 10
-25.80339191461761
 20
-2.9147179817293107
 30
2.0
 10
-25.661524671553966
 20
-3.132601720349653
 30
2.0
 10
-25.530068971853822
 20
-3.3569515774365364
 30
2.0
 10
-25.40906438156841
 20
-3.587018166769841
 30
2.0
 10
-25.181975751172384
 20
-4.069223019432147
 30
2.0
 10
-25.076982778397497
 20
-4.321909929663086
 30
2.0
 10
-24.983265937251254
 20
-4.57920446896297
 30
2.0
 10
-24.900454756828296
 20
-4.840286016996985
 30
2.0
 10
-24.828068350486177
 20
-5.104425048568698
 30
2.0
 10
-24.67067998585118
 20
-5.775806753728009
 30
2.0
 10
-24.59861052659266
 20
-6.186182864918696
 30
2.0
 10
-24.54745737949432
 20
-6.600126825729463
 30
2.0
 10
-24.515161906933898
 20
-7.016064971572587
 30
2.0
 10
-24.499837361320903
 20
-7.432900025230926
 30
2.0
 10
-24.49983733958333
 20
-7.85001891917318
 30
2.0
  0
SPLINE
  5
75
330
17
100
AcDbEntity
  8
0
100
AcDbSpline
 70
0
 71
5
 72
24
 73
18
 74
0
 40
0.0
 40
0.0
 40
0.0
 40
0.0
 40
0.0
 40
0.0
 40
0.2800145276871427
 40
0.2800145276871427
 40
0.2800145276871427
 40
0.2800145276871427
 40
0.5145947580065717
 40
0.5145947580065717
 40
0.5145947580065717
 40
0.5145947580065717
 40
0.7406415871551593
 40
0.7406415871551593
 40
0.7406415871551593
 40
0.7406415871551593
 40
1.0
 40
1.0
 40
1.0
 40
1.0
 40
1.0
 40
1.0
 10
-24.49983733958333
 20
-7.85001891917318
 30
2.0
 10
-24.49983735976501
 20
-8.188071891202299
 30
2.0
 10
-24.512566145449505
 20
-8.525958421572243
 30
2.0
 10
-24.539120691254844
 20
-8.86305066952837
 30
2.0
 10
-24.580670024884153
 20
-9.198424072160698
 30
2.0
 10
-24.68635001851212
 20
-9.80940680969933
 30
2.0
 10
-24.7457226078155
 20
-10.085884263642049
 30
2.0
 10
-24.81684971066336
 20
-10.359596954475634
 30
2.0
 10
-24.900175221720424
 20
-10.629700212139799
 30
2.0
 10
-25.088035234519204
 20
-11.151197120315885
 30
2.0
 10
-25.191692970516055
 20
-11.402928690881238
 30
2.0
 10
-25.30694386659519
 20
-11.649635511358792
 30
2.0
 10
-25.433680750562665
 20
-11.890527355524233
 30
2.0
 10
-25.729597619351885
 20
-12.393808848115377
 30
2.0
 10
-25.902297914493783
 20
-12.654165670981813
 30
2.0
 10
-26.088954635189715
 20
-12.904887838153284
 30
2.0
 10
-26.28855055610817
 20
-13.145313049831529
 30
2.0
 10
-26.49983733958333
 20
-13.375084023339845
 30
2.0
  0
SPLINE
  5
76
330
17
100
AcDbEntity
  8
0
100
AcDbSpline
 70
0
 71
6
 72
29
 73
22
 74
0
 40
0.0
 40
0.0
 40
0.0
 40
0.0
 40
0.0
 40
0.0
 40
0.0
 40
0.15004589644985317
 40
0.15004589644985317
 40
0.15004589644985317
 40
0.15004589644985317
 40
0.15004589644985317
 40
0.4482068766632707
 40
0.4482068766632707
 40
0.4482068766632707
 40
0.4482068766632707
 40
0.4482068766632707
 40
0.8049080324888431
 40
0.8049080324888431
 40
0.8049080324888431
 40
0.8049080324888431
 40
0.8049080324888431
 40
1.0
 40
1.0
 40
1.0
 40
1.0
 40
1.0
 40
1.0
 40
1.0
 10
-26.499837339583333
 20
-13.375084023339843
 30
2.0
 10
-26.595932869664512
 20
-13.479586332310994
 30
2.0
 10
-26.694294566692292
 20
-13.58195857259308
 30
2.0
 10
-26.79493756670743
 20
-13.682071747282395
 30
2.0
 10
-26.897866425174993
 20
-13.779792864760962
 30
2.0
 10
-27.003072211452036
 20
-13.87498803759699
 30
2.0
 10
-27.324061609323213
 20
-14.151409882403717
 30
2.0
 10
-27.546515061446353
 20
-14.32482634927125
 30
2.0
 10
-27.777641221203112
 20
-14.486690704373693
 30
2.0
 10
-28.017003599324095
 20
-14.636045302855905
 30
2.0
 10
-28.26392505148314
 20
-14.772140181490578
 30
2.0
 10
-28.820718176523872
 20
-15.040914621781592
 30
2.0
 10
-29.133530697511727
 20
-15.167725709144829
 30
2.0
 10
-29.454185128874443
 20
-15.274114868417609
 30
2.0
 10
-29.780936468156728
 20
-15.360126398154158
 30
2.0
 10
-30.112063592814817
 20
-15.426410656980465
 30
2.0
 10
-30.6285496578042
 20
-15.500020545548296
 30
2.0
 10
-30.812007798066404
 20
-15.520455957551158
 30
2.0
 10
-30.99607641373301
 20
-15.53547069000174
 30
2.0
 10
-31.180543564811945
 20
-15.54526399684857
 30
2.0
 10
-31.365225437143597
 20
-15.550051458083038
 30
2.0
 10
-31.549967547916662
 20
-15.550051471256511
 30
2.0
  0
SPLINE
  5
77
330
17
100
AcDbEntity
  8
0
100
AcDbSpline
 70
0
 71
5
 72
24
 73
18
 74
0
 40
0.0
 40
0.0
 40
0.0
 40
0.0
 40
0.0
 40
0.0
 40
0.1805291789506133
 40
0.1805291789506133
 40
0.1805291789506133
 40
0.1805291789506133
 40
0.519098054430152
 40
0.519098054430152
 40
0.519098054430152
 40
0.519098054430152
 40
0.8364166242976427
 40
0.8364166242976427
 40
0.8364166242976427
 40
0.8364166242976427
 40
1.0
 40
1.0
 40
1.0
 40
1.0
 40
1.0
 40
1.0
 10
-31.549967547916662
 20
-15.550051471256511
 30
2.0
 10
-31.760125189407226
 20
-15.550051455833438
 30
2.0
 10
-31.97020684116152
 20
-15.54351642879058
 30
2.0
 10
-32.17994244659796
 20
-15.530081179759609
 30
2.0
 10
-32.3889930550394
 20
-15.509393051007422
 30
2.0
 10
-32.986975059009744
 20
-15.428251479749276
 30
2.0
 10
-33.37328233192743
 20
-15.348825471044242
 30
2.0
 10
-33.752944859311555
 20
-15.241078236380856
 30
2.0
 10
-34.122789839567446
 20
-15.104200167630848
 30
2.0
 10
-34.8143416235971
 20
-14.785367277438787
 30
2.0
 10
-35.1377402208835
 20
-14.606722461525772
 30
2.0
 10
-35.447457982792244
 20
-14.404816539423056
 30
2.0
 10
-35.74220680852484
 20
-14.181981829812212
 30
2.0
 10
-36.165383647108825
 20
-13.816767615650544
 30
2.0
 10
-36.30522416487637
 20
-13.687698481412696
 30
2.0
 10
-36.44090191690138
 20
-13.554152079564867
 30
2.0
 10
-36.572431496400746
 20
-13.41649449604514
 30
2.0
 10
-36.699869891666665
 20
-13.275067747298179
 30
2.0
  0
SPLINE
  5
78
330
17
100
AcDbEntity
  8
0
100
AcDbSpline
 70
0
 71
5
 72
24
 73
18
 74
0
 40
0.0
 40
0.0
 40
0.0
 40
0.0
 40
0.0
 40
0.0
 40
0.29230898451511284
 40
0.29230898451511284
 40
0.29230898451511284
 40
0.29230898451511284
 40
0.512645985878619
 40
0.512645985878619
 40
0.512645985878619
 40
0.512645985878619
 40
0.7395851156687566
 40
0.7395851156687566
 40
0.7395851156687566
 40
0.7395851156687566
 40
1.0
 40
1.0
 40
1.0
 40
1.0
 40
1.0
 40
1.0
 10
-36.699869891666665
 20
-13.275067747298179
 30
2.0
 10
-36.94161491649197
 20
-13.006787351148825
 30
2.0
 10
-37.168609169044515
 20
-12.725324903254899
 30
2.0
 10
-37.3790905651054
 20
-12.431136007925653
 30
2.0
 10
-37.571618482288656
 20
-12.12512040238884
 30
2.0
 10
-37.87631131265702
 20
-11.570399051121306
 30
2.0
 10
-37.9966048017217
 20
-11.326109889007604
 30
2.0
 10
-38.105877911760146
 20
-11.07659517415486
 30
2.0
 10
-38.204039195932076
 20
-10.82256439550362
 30
2.0
 10
-38.38097282085023
 20
-10.29924537769854
 30
2.0
 10
-38.45908036713486
 20
-10.029714674796724
 30
2.0
 10
-38.525648585526696
 20
-9.75697763323164
 30
2.0
 10
-38.58105457176136
 20
-9.481778500185392
 30
2.0
 10
-38.67710611064307
 20
-8.886890411719865
 30
2.0
 10
-38.71436895255518
 20
-8.566624102493165
 30
2.0
 10
-38.73830873849089
 20
-8.244920073548352
 30
2.0
 10
-38.74983732013806
 20
-7.922537075996876
 30
2.0
 10
-38.74983733958333
 20
-7.60001891917318
 30
2.0
  0
SPLINE
  5
79
330
17
100
AcDbEntity
  8
0
100
AcDbSpline
 70
0
 71
5
 72
24
 73
18
 74
0
 40
0.0
 40
0.0
 40
0.0
 40
0.0
 40
0.0
 40
0.0
 40
0.27314085322439646
 40
0.27314085322439646
 40
0.27314085322439646
 40
0.27314085322439646
 40
0.4997970029062717
 40
0.4997970029062717
 40
0.4997970029062717
 40
0.4997970029062717
 40
0.7179869261291377
 40
0.7179869261291377
 40
0.7179869261291377
 40
0.7179869261291377
 40
1.0
 40
1.0
 40
1.0
 40
1.0
 40
1.0
 40
1.0
 10
-38.74983733958333
 20
-7.600018919173179
 30
2.0
 10
-38.74983731947329
 20
-7.276294491258231
 30
2.0
 10
-38.73750675455313
 20
-6.952739437650882
 30
2.0
 10
-38.71175347099852
 20
-6.629967723796628
 30
2.0
 10
-38.67140442018623
 20
-6.308896185483902
 30
2.0
 10
-38.56909265328394
 20
-5.726679936981593
 30
2.0
 10
-38.51197723400457
 20
-5.4646358911080295
 30
2.0
 10
-38.44359961427821
 20
-5.205282837135023
 30
2.0
 10
-38.363522731761975
 20
-4.949444547761719
 30
2.0
 10
-38.18311570790237
 20
-4.4559754654306625
 30
2.0
 10
-38.083648797537435
 20
-4.218007022846715
 30
2.0
 10
-37.973078974631605
 20
-3.9849257412678534
 30
2.0
 10
-37.85151123359356
 20
-3.7575009125015337
 30
2.0
 10
-37.5485475762229
 20
-3.250662439417522
 30
2.0
 10
-37.36002547457331
 20
-2.9754548046049463
 30
2.0
 10
-37.15468969918612
 20
-2.712312378173804
 30
2.0
 10
-36.934039035400986
 20
-2.4620513041074252
 30
2.0
 10
-36.699869891666665
 20
-2.225018919173179
 30
2.0
  0
SPLINE
  5
7A
330
17
100
AcDbEntity
  8
0
100
AcDbSpline
 70
0
 71
8
 72
60
 73
51
 74
0
 40
0.0
 40
0.0
 40
0.0
 40
0.0
 40
0.0
 40
0.0
 40
0.0
 40
0.0
 40
0.0
 40
0.05274295749967959
 40
0.05274295749967959
 40
0.05274295749967959
 40
0.05274295749967959
 40
0.05274295749967959
 40
0.05274295749967959
 40
0.05274295749967959
 40
0.14756039922299533
 40
0.14756039922299533
 40
0.14756039922299533
 40
0.14756039922299533
 40
0.14756039922299533
 40
0.14756039922299533
 40
0.14756039922299533
 40
0.23189155961755786
 40
0.23189155961755786
 40
0.23189155961755786
 40
0.23189155961755786
 40
0.23189155961755786
 40
0.23189155961755786
 40
0.23189155961755786
 40
0.2753902602037332
 40
0.2753902602037332
 40
0.2753902602037332
 40
0.2753902602037332
 40
0.2753902602037332
 40
0.2753902602037332
 40
0.2753902602037332
 40
0.3655131150646533
 40
0.3655131150646533
 40
0.3655131150646533
 40
0.3655131150646533
 40
0.3655131150646533
 40
0.3655131150646533
 40
0.3655131150646533
 40
0.6842550836752478
 40
0.6842550836752478
 40
0.6842550836752478
 40
0.6842550836752478
 40
0.6842550836752478
 40
0.6842550836752478
 40
0.6842550836752478
 40
1.0
 40
1.0
 40
1.0
 40
1.0
 40
1.0
 40
1.0
 40
1.0
 40
1.0
 40
1.0
 10
36.20003245208334
 20
13.24991597666015
 30
2.0
 10
36.31704259161868
 20
13.249915953093158
 30
2.0
 10
36.434047330118396
 20
13.247696524854696
 30
2.0
 10
36.55099778642887
 20
13.243185009974352
 30
2.0
 10
36.66783881684305
 20
13.236308875846936
 30
2.0
 10
36.78450913800988
 20
13.226997171458125
 30
2.0
 10
36.900941449844
 20
13.215181959610078
 30
2.0
 10
37.01706255843526
 20
13.20079974914704
 30
2.0
 10
37.34084614198079
 20
13.153219303191962
 30
2.0
 10
37.547683204049875
 20
13.114156900544181
 30
2.0
 10
37.752789061031145
 20
13.066274141913203
 30
2.0
 10
37.9556270414405
 20
13.009310656670594
 30
2.0
 10
38.15564690476048
 20
12.943100813267
 30
2.0
 10
38.35229274572183
 20
12.867598964758264
 30
2.0
 10
38.54501132455006
 20
12.782906407474469
 30
2.0
 10
38.900690974997005
 20
12.606046040027742
 30
2.0
 10
39.06462752305395
 20
12.515719994231862
 30
2.0
 10
39.22469228267581
 20
12.418507613479182
 30
2.0
 10
39.38058596493726
 20
12.31466621386749
 30
2.0
 10
39.532079978314606
 20
12.204512818935687
 30
2.0
 10
39.67900823034039
 20
12.088412249041875
 30
2.0
 10
39.82125892925816
 20
11.96676521074148
 30
2.0
 10
40.02969385361596
 20
11.774607992147084
 30
2.0
 10
40.09936468948959
 20
11.707852002125662
 30
2.0
 10
40.16777291815422
 20
11.639783396681077
 30
2.0
 10
40.234916876607485
 20
11.570457206869664
 30
2.0
 10
40.3007987556417
 20
11.499928070749222
 30
2.0
 10
40.36542414149729
 20
11.428249789904152
 30
2.0
 10
40.42880155751603
 20
11.355474885970578
 30
2.0
 10
40.61968779648929
 20
11.128708557901259
 30
2.0
 10
40.74311652025036
 20
10.97128239047356
 30
2.0
 10
40.861337676510516
 20
10.809816883464451
 30
2.0
 10
40.9744977192414
 20
10.64472865935227
 30
2.0
 10
41.08276788111218
 20
10.476401331739371
 30
2.0
 10
41.186334767506594
 20
10.305179038441528
 30
2.0
 10
41.28539372039814
 20
10.131361910434824
 30
2.0
 10
41.71525633045925
 20
9.332175210907241
 30
2.0
 10
41.995643413399954
 20
8.681425573483244
 30
2.0
 10
42.231856484430764
 20
8.012113621474773
 30
2.0
 10
42.43093806458098
 20
7.330744257446127
 30
2.0
 10
42.59875765182316
 20
6.641966019065749
 30
2.0
 10
42.739881947138514
 20
5.9485054455801984
 30
2.0
 10
42.85808609392218
 20
5.251368692724242
 30
2.0
 10
43.05365113603268
 20
3.8548593993388063
 30
2.0
 10
43.13116162177704
 20
3.1571804638924243
 30
2.0
 10
43.19168537826643
 20
2.457651766800527
 30
2.0
 10
43.23730314530665
 20
1.7569475687365137
 30
2.0
 10
43.269679115279374
 20
1.0555686380084006
 30
2.0
 10
43.29018985011496
 20
0.35385150377127994
 30
2.0
 10
43.29996731306122
 20
-0.34802858097244005
 30
2.0
 10
43.29996734791666
 20
-1.0500514712565117
 30
2.0
  0
SPLINE
  5
7B
330
17
100
AcDbEntity
  8
0
100
AcDbSpline
 70
0
 71
7
 72
28
 73
20
 74
0
 40
0.0
 40
0.0
 40
0.0
 40
0.0
 40
0.0
 40
0.0
 40
0.0
 40
0.0
 40
0.3780865307218171
 40
0.3780865307218171
 40
0.3780865307218171
 40
0.3780865307218171
 40
0.3780865307218171
 40
0.3780865307218171
 40
0.6919031241283661
 40
0.6919031241283661
 40
0.6919031241283661
 40
0.6919031241283661
 40
0.6919031241283661
 40
0.6919031241283661
 40
1.0
 40
1.0
 40
1.0
 40
1.0
 40
1.0
 40
1.0
 40
1.0
 40
1.0
 10
43.29996734791666
 20
-1.0500514712565128
 30
2.0
 10
43.29996733365244
 20
-1.6654483825155384
 30
2.0
 10
43.29318471232709
 20
-2.2807537366637263
 30
2.0
 10
43.279017668399014
 20
-2.8959073482712525
 30
2.0
 10
43.25674959285742
 20
-3.51078247445844
 30
2.0
 10
43.22553399487195
 20
-4.125185403891368
 30
2.0
 10
43.184330558995036
 20
-4.738851968989835
 30
2.0
 10
43.088184969487145
 20
-5.859897594836123
 30
2.0
 10
43.036773618387535
 20
-6.36754404574956
 30
2.0
 10
42.97678959600886
 20
-6.874236843352769
 30
2.0
 10
42.90730775701946
 20
-7.379688634145985
 30
2.0
 10
42.827233246436414
 20
-7.883467062689443
 30
2.0
 10
42.73520779858079
 20
-8.38497954161296
 30
2.0
 10
42.52559123384103
 20
-9.372823155082752
 30
2.0
 10
42.40857152898588
 20
-9.85890967454746
 30
2.0
 10
42.276626815974595
 20
-10.341332775208452
 30
2.0
 10
42.127667848245494
 20
-10.818981915316279
 30
2.0
 10
41.95913972916251
 20
-11.289956555931466
 30
2.0
 10
41.76797797802632
 20
-11.7515540630193
 30
2.0
 10
41.54996734791666
 20
-12.200035195214845
 30
2.0
  0
SPLINE
  5
7C
330
17
100
AcDbEntity
  8
0
100
AcDbSpline
 70
0
 71
6
 72
39
 73
32
 74
0
 40
0.0
 40
0.0
 40
0.0
 40
0.0
 40
0.0
 40
0.0
 40
0.0
 40
0.23955255682571203
 40
0.23955255682571203
 40
0.23955255682571203
 40
0.23955255682571203
 40
0.23955255682571203
 40
0.3555230739459521
 40
0.3555230739459521
 40
0.3555230739459521
 40
0.3555230739459521
 40
0.3555230739459521
 40
0.5774398507203824
 40
0.5774398507203824
 40
0.5774398507203824
 40
0.5774398507203824
 40
0.5774398507203824
 40
0.7576068182237665
 40
0.7576068182237665
 40
0.7576068182237665
 40
0.7576068182237665
 40
0.7576068182237665
 40
0.8447601921439847
 40
0.8447601921439847
 40
0.8447601921439847
 40
0.8447601921439847
 40
0.8447601921439847
 40
1.0
 40
1.0
 40
1.0
 40
1.0
 40
1.0
 40
1.0
 40
1.0
 10
41.54996734791666
 20
-12.200035195214845
 30
2.0
 10
41.42861488255459
 20
-12.449675628402007
 30
2.0
 10
41.29868066383789
 20
-12.695010837300096
 30
2.0
 10
41.15954315588013
 20
-12.935311289591775
 30
2.0
 10
41.0105956616664
 20
-13.169614388776594
 30
2.0
 10
40.851284318905904
 20
-13.396748622303827
 30
2.0
 10
40.598910062725345
 20
-13.72127275280431
 30
2.0
 10
40.51407272402355
 20
-13.825142488309943
 30
2.0
 10
40.42668298873806
 20
-13.926871951012417
 30
2.0
 10
40.33671421539697
 20
-14.026300781901336
 30
2.0
 10
40.24415671386053
 20
-14.12326390453255
 30
2.0
 10
39.966977530985965
 20
-14.39810607259915
 30
2.0
 10
39.77546050394399
 20
-14.56901845785137
 30
2.0
 10
39.57461726586331
 20
-14.729102770120617
 30
2.0
 10
39.36481860163122
 20
-14.877239294789476
 30
2.0
 10
39.14674221976621
 20
-15.012529805039179
 30
2.0
 10
38.73855105071444
 20
-15.233357754042563
 30
2.0
 10
38.55085735690066
 20
-15.32348706243082
 30
2.0
 10
38.35892746657702
 20
-15.404494243892072
 30
2.0
 10
38.16335250360152
 20
-15.476288429503617
 30
2.0
 10
37.96474491342668
 20
-15.538949995415441
 30
2.0
 10
37.66648066499702
 20
-15.618686804313851
 30
2.0
 10
37.56866918168952
 20
-15.642596749995052
 30
2.0
 10
37.47035414120639
 20
-15.66444500802823
 30
2.0
 10
37.37159847859166
 20
-15.684263665510434
 30
2.0
 10
37.27246164976187
 20
-15.702090546672936
 30
2.0
 10
36.9958342981816
 20
-15.746247933774088
 30
2.0
 10
36.81763756589796
 20
-15.768341328134227
 30
2.0
 10
36.63871921692294
 20
-15.78448617127274
 30
2.0
 10
36.459347686639916
 20
-15.794958723822736
 30
2.0
 10
36.27974757816388
 20
-15.800051453776355
 30
2.0
 10
36.10009755625
 20
-15.800051471256511
 30
2.0
  0
SPLINE
  5
7D
330
17
100
AcDbEntity
  8
0
100
AcDbSpline
 70
0
 71
8
 72
60
 73
51
 74
0
 40
0.0
 40
0.0
 40
0.0
 40
0.0
 40
0.0
 40
0.0
 40
0.0
 40
0.0
 40
0.0
 40
0.048483005264723295
 40
0.048483005264723295
 40
0.048483005264723295
 40
0.048483005264723295
 40
0.048483005264723295
 40
0.048483005264723295
 40
0.048483005264723295
 40
0.13643537489247054
 40
0.13643537489247054
 40
0.13643537489247054
 40
0.13643537489247054
 40
0.13643537489247054
 40
0.13643537489247054
 40
0.13643537489247054
 40
0.2177766144148655
 40
0.2177766144148655
 40
0.2177766144148655
 40
0.2177766144148655
 40
0.2177766144148655
 40
0.2177766144148655
 40
0.2177766144148655
 40
0.259732494296701
 40
0.259732494296701
 40
0.259732494296701
 40
0.259732494296701
 40
0.259732494296701
 40
0.259732494296701
 40
0.259732494296701
 40
0.3474862318329551
 40
0.3474862318329551
 40
0.3474862318329551
 40
0.3474862318329551
 40
0.3474862318329551
 40
0.3474862318329551
 40
0.3474862318329551
 40
0.653576139163932
 40
0.653576139163932
 40
0.653576139163932
 40
0.653576139163932
 40
0.653576139163932
 40
0.653576139163932
 40
0.653576139163932
 40
1.0
 40
1.0
 40
1.0
 40
1.0
 40
1.0
 40
1.0
 40
1.0
 40
1.0
 40
1.0
 10
36.10009755625
 20
-15.800051471256511
 30
2.0
 10
35.99131652492752
 20
-15.800051448567991
 30
2.0
 10
35.882540301022004
 20
-15.798036671447106
 30
2.0
 10
35.77381231564086
 20
-15.793944907061126
 30
2.0
 10
35.665181127827616
 20
-15.787714376711103
 30
2.0
 10
35.5567003271577
 20
-15.779284920502363
 30
2.0
 10
35.44842843633407
 20
-15.768599162015093
 30
2.0
 10
35.34042881378304
 20
-15.755603672974862
 30
2.0
 10
35.037466341016255
 20
-15.712397495897683
 30
2.0
 10
34.84324559601346
 20
-15.676779235718108
 30
2.0
 10
34.650560450008186
 20
-15.633110195711351
 30
2.0
 10
34.459881344384556
 20
-15.58116672755366
 30
2.0
 10
34.27168961280929
 20
-15.520807727944133
 30
2.0
 10
34.086471060897
 20
-15.451995670278354
 30
2.0
 10
33.90470954587529
 20
-15.374817636321938
 30
2.0
 10
33.562418467276636
 20
-15.2106076669713
 30
2.0
 10
33.4012802321147
 20
-15.124733549961011
 30
2.0
 10
33.243840794377505
 20
-15.03206107997901
 30
2.0
 10
33.09039809027845
 20
-14.932839188020163
 30
2.0
 10
32.94118102150089
 20
-14.827376725698908
 30
2.0
 10
32.796357428068184
 20
-14.716030537999753
 30
2.0
 10
32.65604206121354
 20
-14.599193536027776
 30
2.0
 10
32.45029103682064
 20
-14.41440109379864
 30
2.0
 10
32.38149010059515
 20
-14.35016475168329
 30
2.0
 10
32.31390824805419
 20
-14.284627741817708
 30
2.0
 10
32.24754773296057
 20
-14.21784415742325
 30
2.0
 10
32.182407010021066
 20
-14.14986774209421
 30
2.0
 10
32.11848118254808
 20
-14.080751445354046
 30
2.0
 10
32.05576245012143
 20
-14.010546978211623
 30
2.0
 10
31.86556309452754
 20
-13.790295331782517
 30
2.0
 10
31.742129149351644
 20
-13.636753759681485
 30
2.0
 10
31.623832597295028
 20
-13.47912659370066
 30
2.0
 10
31.51052963916796
 20
-13.317835977558802
 30
2.0
 10
31.402051176329664
 20
-13.153270498401998
 30
2.0
 10
31.298212343154663
 20
-12.98577846643422
 30
2.0
 10
31.198819195653773
 20
-12.815663233183692
 30
2.0
 10
30.77179579685927
 20
-12.04155137017976
 30
2.0
 10
30.492405798561304
 20
-11.412609542084635
 30
2.0
 10
30.255424460229055
 20
-10.76527783260981
 30
2.0
 10
30.05414074448567
 20
-10.105884053815718
 30
2.0
 10
29.882954723341673
 20
-9.43896146076919
 30
2.0
 10
29.73750023601961
 20
-8.767184705829578
 30
2.0
 10
29.61415173259036
 20
-8.091570826522648
 30
2.0
 10
29.392221143615203
 20
-6.641718116943603
 30
2.0
 10
29.2993557072194
 20
-5.868265389576353
 30
2.0
 10
29.22739590245487
 20
-5.092353098633366
 30
2.0
 10
29.173506949061274
 20
-4.31492627133088
 30
2.0
 10
29.13547282904197
 20
-3.5366691243238106
 30
2.0
 10
29.111486054022567
 20
-2.7580211707205504
 30
2.0
 10
29.10009759360255
 20
-1.9791805391892774
 30
2.0
 10
29.100097556250002
 20
-1.2001165754231788
 30
2.0
  0
SPLINE
  5
7E
330
17
100
AcDbEntity
  8
0
100
AcDbSpline
 70
0
 71
7
 72
58
 73
50
 74
0
 40
0.0
 40
0.0
 40
0.0
 40
0.0
 40
0.0
 40
0.0
 40
0.0
 40
0.0
 40
0.24184539092105092
 40
0.24184539092105092
 40
0.24184539092105092
 40
0.24184539092105092
 40
0.24184539092105092
 40
0.24184539092105092
 40
0.4443503123615705
 40
0.4443503123615705
 40
0.4443503123615705
 40
0.4443503123615705
 40
0.4443503123615705
 40
0.4443503123615705
 40
0.6761382276484542
 40
0.6761382276484542
 40
0.6761382276484542
 40
0.6761382276484542
 40
0.6761382276484542
 40
0.6761382276484542
 40
0.7453486347471603
 40
0.7453486347471603
 40
0.7453486347471603
 40
0.7453486347471603
 40
0.7453486347471603
 40
0.7453486347471603
 40
0.7820540095754606
 40
0.7820540095754606
 40
0.7820540095754606
 40
0.7820540095754606
 40
0.7820540095754606
 40
0.7820540095754606
 40
0.8563034101430269
 40
0.8563034101430269
 40
0.8563034101430269
 40
0.8563034101430269
 40
0.8563034101430269
 40
0.8563034101430269
 40
0.9483982884921317
 40
0.9483982884921317
 40
0.9483982884921317
 40
0.9483982884921317
 40
0.9483982884921317
 40
0.9483982884921317
 40
1.0
 40
1.0
 40
1.0
 40
1.0
 40
1.0
 40
1.0
 40
1.0
 40
1.0
 10
29.100097556250002
 20
-1.2001165754231788
 30
2.0
 10
29.100097586664784
 20
-0.581104388315001
 30
2.0
 10
29.107698248599714
 20
0.03785890370144185
 30
2.0
 10
29.123579134140556
 20
0.6567049449808582
 30
2.0
 10
29.148549074903276
 20
1.2752839838439847
 30
2.0
 10
29.183562618207976
 20
1.8933645511123909
 30
2.0
 10
29.229789301711314
 20
2.5106298877597655
 30
2.0
 10
29.33809346316976
 20
3.6425022533128675
 30
2.0
 10
29.396362330855872
 20
4.157390782111247
 30
2.0
 10
29.464425642872992
 20
4.671160531957296
 30
2.0
 10
29.543341823641267
 20
5.183454805270027
 30
2.0
 10
29.634358474394084
 20
5.6937351151419495
 30
2.0
 10
29.739008242547186
 20
6.2012647517267405
 30
2.0
 10
29.996957446764117
 20
7.28174283762505
 30
2.0
 10
30.15490470888567
 20
7.85270190202408
 30
2.0
 10
30.336258352336507
 20
8.417514864428426
 30
2.0
 10
30.54479526746594
 20
8.973883489921144
 30
2.0
 10
30.785014640240018
 20
9.517613596844381
 30
2.0
 10
31.062177481422353
 20
10.042603514062781
 30
2.0
 10
31.478339155186003
 20
10.689420443031432
 30
2.0
 10
31.57784454557405
 20
10.835675811656055
 30
2.0
 10
31.68130227592204
 20
10.979209969005378
 30
2.0
 10
31.78883941829211
 20
11.119736698704411
 30
2.0
 10
31.900563627207585
 20
11.256940650353483
 30
2.0
 10
32.01655422883336
 20
11.390484461507457
 30
2.0
 10
32.20065329424188
 20
11.588712184942738
 30
2.0
 10
32.26566439591071
 20
11.65627930281594
 30
2.0
 10
32.33189200312638
 20
11.722664153311403
 30
2.0
 10
32.399338250504755
 20
11.787812544734313
 30
2.0
 10
32.468001443200926
 20
11.851669777640524
 30
2.0
 10
32.53787548079616
 20
11.914181248818858
 30
2.0
 10
32.752720788753166
 20
12.098912961569983
 30
2.0
 10
32.90141798264661
 20
12.216819627786377
 30
2.0
 10
33.05492781600771
 20
12.328545059813978
 30
2.0
 10
33.213076376376954
 20
12.433662695819171
 30
2.0
 10
33.37561786432768
 20
12.531804066150054
 30
2.0
 10
33.5422235721008
 20
12.622675453243113
 30
2.0
 10
33.923636250171974
 20
12.80951821238701
 30
2.0
 10
34.14046387122798
 20
12.901495468656746
 30
2.0
 10
34.36213199695451
 20
12.981597832364258
 30
2.0
 10
34.58779908539934
 20
13.04974199527416
 30
2.0
 10
34.81662481224856
 20
13.106100192157943
 30
2.0
 10
35.04778961980237
 20
13.151036601055953
 30
2.0
 10
35.410909976168405
 20
13.204107716288224
 30
2.0
 10
35.541813821915675
 20
13.21973880775552
 30
2.0
 10
35.673101629498326
 20
13.232031579947009
 30
2.0
 10
35.80466177105762
 20
13.241086073045471
 30
2.0
 10
35.93639399554997
 20
13.247010174285057
 30
2.0
 10
36.06820974188828
 20
13.249915949831136
 30
2.0
 10
36.20003245208334
 20
13.249915976660152
 30
2.0
  0
ENDSEC
  0
SECTION
  2
OBJECTS
  0
DICTIONARY
  5
A
330
0
100
AcDbDictionary
281
1
  3
ACAD_COLOR
350
B
  3
ACAD_GROUP
350
C
  3
ACAD_LAYOUT
350
D
  3
ACAD_MATERIAL
350
E
  3
ACAD_MLEADERSTYLE
350
F
  3
ACAD_MLINESTYLE
350
10
  3
ACAD_PLOTSETTINGS
350
11
  3
ACAD_PLOTSTYLENAME
350
12
  3
ACAD_SCALELIST
350
14
  3
ACAD_TABLESTYLE
350
15
  3
ACAD_VISUALSTYLE
350
16
  0
DICTIONARY
  5
B
330
A
100
AcDbDictionary
281
1
  0
DICTIONARY
  5
C
330
A
100
AcDbDictionary
281
1
  0
DICTIONARY
  5
D
330
A
100
AcDbDictionary
281
1
  3
Model
350
1A
  3
Layout1
350
1E
  0
DICTIONARY
  5
E
330
A
100
AcDbDictionary
281
1
  3
ByBlock
350
1F
  3
ByLayer
350
20
  3
Global
350
21
  0
DICTIONARY
  5
F
330
A
100
AcDbDictionary
281
1
  3
Standard
350
2C
  0
DICTIONARY
  5
10
330
A
100
AcDbDictionary
281
1
  3
Standard
350
22
  0
DICTIONARY
  5
11
330
A
100
AcDbDictionary
281
1
  0
ACDBDICTIONARYWDFLT
  5
12
330
A
100
AcDbDictionary
281
1
  3
Normal
350
13
100
AcDbDictionaryWithDefault
340
13
  0
ACDBPLACEHOLDER
  5
13
330
12
  0
DICTIONARY
  5
14
330
A
100
AcDbDictionary
281
1
  0
DICTIONARY
  5
15
330
A
100
AcDbDictionary
281
1
  0
DICTIONARY
  5
16
330
A
100
AcDbDictionary
281
1
  0
LAYOUT
  5
1A
330
D
100
AcDbPlotSettings
  1

  2
Adobe PDF
  4
A4
  6

 40
3.175
 41
3.175
 42
3.175
 43
3.175
 44
209.91
 45
297.03
 46
0.0
 47
0.0
 48
0.0
 49
0.0
140
0.0
141
0.0
142
1.0
143
1.0
 70
1024
 72
0
 73
1
 74
5
  7

 75
16
 76
0
 77
2
 78
300
147
1.0
148
0.0
149
0.0
100
AcDbLayout
  1
Model
 70
1
 71
0
 10
-3.175
 20
-3.175
 11
293.857
 21
206.735
 12
0.0
 22
0.0
 32
0.0
 14
29.068
 24
20.356
 34
0.0
 15
261.614
 25
183.204
 35
0.0
146
0.0
 13
0.0
 23
0.0
 33
0.0
 16
1.0
 26
0.0
 36
0.0
 17
0.0
 27
1.0
 37
0.0
 76
1
330
17
  0
LAYOUT
  5
1E
330
D
100
AcDbPlotSettings
  1

  2
Adobe PDF
  4
A4
  6

 40
3.175
 41
3.175
 42
3.175
 43
3.175
 44
209.91
 45
297.03
 46
0.0
 47
0.0
 48
0.0
 49
0.0
140
0.0
141
0.0
142
1.0
143
1.0
 70
0
 72
0
 73
1
 74
5
  7

 75
16
 76
0
 77
2
 78
300
147
1.0
148
0.0
149
0.0
100
AcDbLayout
  1
Layout1
 70
1
 71
1
 10
-3.175
 20
-3.175
 11
293.857
 21
206.735
 12
0.0
 22
0.0
 32
0.0
 14
29.068
 24
20.356
 34
0.0
 15
261.614
 25
183.204
 35
0.0
146
0.0
 13
0.0
 23
0.0
 33
0.0
 16
1.0
 26
0.0
 36
0.0
 17
0.0
 27
1.0
 37
0.0
 76
1
330
1B
  0
MATERIAL
  5
1F
102
{ACAD_REACTORS
330
E
102
}
330
E
100
AcDbMaterial
  1
ByBlock
  2

 70
0
 40
1.0
 71
1
 41
1.0
 91
-1023410177
 42
1.0
 72
1
  3

 73
1
 74
1
 75
1
 44
0.5
 73
0
 45
1.0
 46
1.0
 77
1
  4

 78
1
 79
1
170
1
 48
1.0
171
1
  6

172
1
173
1
174
1
140
1.0
141
1.0
175
1
  7

176
1
177
1
178
1
143
1.0
179
1
  8

270
1
271
1
272
1
145
1.0
146
1.0
273
1
  9

274
1
275
1
276
1
 42
1.0
 72
1
  3

 73
1
 74
1
 75
1
 94
63
  0
MATERIAL
  5
20
102
{ACAD_REACTORS
330
E
102
}
330
E
100
AcDbMaterial
  1
ByLayer
  2

 70
0
 40
1.0
 71
1
 41
1.0
 91
-1023410177
 42
1.0
 72
1
  3

 73
1
 74
1
 75
1
 44
0.5
 73
0
 45
1.0
 46
1.0
 77
1
  4

 78
1
 79
1
170
1
 48
1.0
171
1
  6

172
1
173
1
174
1
140
1.0
141
1.0
175
1
  7

176
1
177
1
178
1
143
1.0
179
1
  8

270
1
271
1
272
1
145
1.0
146
1.0
273
1
  9

274
1
275
1
276
1
 42
1.0
 72
1
  3

 73
1
 74
1
 75
1
 94
63
  0
MATERIAL
  5
21
102
{ACAD_REACTORS
330
E
102
}
330
E
100
AcDbMaterial
  1
Global
  2

 70
0
 40
1.0
 71
1
 41
1.0
 91
-1023410177
 42
1.0
 72
1
  3

 73
1
 74
1
 75
1
 44
0.5
 73
0
 45
1.0
 46
1.0
 77
1
  4

 78
1
 79
1
170
1
 48
1.0
171
1
  6

172
1
173
1
174
1
140
1.0
141
1.0
175
1
  7

176
1
177
1
178
1
143
1.0
179
1
  8

270
1
271
1
272
1
145
1.0
146
1.0
273
1
  9

274
1
275
1
276
1
 42
1.0
 72
1
  3

 73
1
 74
1
 75
1
 94
63
  0
MLINESTYLE
  5
22
102
{ACAD_REACTORS
330
10
102
}
330
10
100
AcDbMlineStyle
  2
Standard
 70
0
  3

 62
256
 51
90.0
 52
90.0
 71
2
 49
0.5
 62
256
  6
BYLAYER
 49
-0.5
 62
256
  6
BYLAYER
  0
MLEADERSTYLE
  5
2C
102
{ACAD_REACTORS
330
F
102
}
330
F
100
AcDbMLeaderStyle
179
2
170
2
171
1
172
0
 90
2
 40
0.0
 41
0.0
173
1
 91
-1056964608
 92
-2
290
1
 42
2.0
291
1
 43
8.0
  3
Standard
 44
4.0
300

342
29
174
1
175
1
176
0
178
1
 93
-1056964608
 45
4.0
292
0
297
0
 46
4.0
 94
-1056964608
 47
1.0
 49
0.0
140
1.0
294
1
141
0.0
177
0
142
1.0
295
0
296
0
143
3.75
271
0
272
9
272
9
  0
ENDSEC
  0
EOF
