0
SECTION
2
HEADER
9
$ACADVER
1
AC1014
9
$HANDSEED
5
FFFF
0
ENDSEC
0
SECTION
2
TABLES
0
TABLE
2
VPORT
5
8
100
AcDbSymbolTable
0
ENDTAB
0
TABLE
2
LTYPE
5
5
100
AcDbSymbolTable
0
LTYPE
5
14
100
AcDbSymbolTableRecord
100
AcDbLinetypeTableRecord
2
BYBLOCK
70
0
0
LTYPE
5
15
100
AcDbSymbolTableRecord
100
AcDbLinetypeTableRecord
2
BYLAYER
70
0
0
ENDTAB
0
TABLE
2
LAYER
5
2
100
AcDbSymbolTable
70
2
0
LAYER
5
50
100
AcDbSymbolTableRecord
100
AcDbLayerTableRecord
2
0
70
0
6
CONTINUOUS
0
ENDTAB
0
TABLE
2
STYLE
5
3
100
AcDbSymbolTable
70
1
0
STYLE
5
11
100
AcDbSymbolTableRecord
100
AcDbTextStyleTableRecord
2
STANDARD
70
0
0
ENDTAB
0
TABLE
2
VIEW
5
6
100
AcDbSymbolTable
70
0
0
ENDTAB
0
TABLE
2
UCS
5
7
100
AcDbSymbolTable
70
0
0
ENDTAB
0
TABLE
2
APPID
5
9
100
AcDbSymbolTable
70
2
0
APPID
5
12
100
AcDbSymbolTableRecord
100
AcDbRegAppTableRecord
2
ACAD
70
0
0
ENDTAB
0
TABLE
2
DIMSTYLE
5
A
100
AcDbSymbolTable
70
1
0
ENDTAB
0
TABLE
2
BLOCK_RECORD
5
1
100
AcDbSymbolTable
70
1
0
BLOCK_RECORD
5
1F
100
AcDbSymbolTableRecord
100
AcDbBlockTableRecord
2
*MODEL_SPACE
0
BLOCK_RECORD
5
1B
100
AcDbSymbolTableRecord
100
AcDbBlockTableRecord
2
*PAPER_SPACE
0
ENDTAB
0
ENDSEC
0
SECTION
2
BLOCKS
0
BLOCK
5
20
100
AcDbEntity
100
AcDbBlockBegin
2
*MODEL_SPACE
0
ENDBLK
5
21
100
AcDbEntity
100
AcDbBlockEnd
0
BLOCK
5
1C
100
AcDbEntity
100
AcDbBlockBegin
2
*PAPER_SPACE
0
ENDBLK
5
1D
100
AcDbEntity
100
AcDbBlockEnd
0
ENDSEC
0
SECTION
2
ENTITIES
0
LWPOLYLINE
5
100
100
AcDbEntity
8
0
100
AcDbPolyline
90
88
70
1
43
0.0
10
10
20
-1.4999999999999991
10
10
20
-6.8619999999999992
42
-0.41421356237309509
10
9.4920000000000009
20
-7.3699999999999992
10
9.0080000000000098
20
-7.3699999999999992
42
-0.41421356237309509
10
8.5000000000000107
20
-6.8619999999999992
10
8.5
20
-4.5129999999999981
42
0.41421356237309509
10
7.992
20
-4.004999999999999
10
7.2659204896855298
20
-4.0050000000000008
42
0.19891236737966167
10
6.9067102448427597
20
-4.1537897551572378
10
3.8037897551572297
20
-7.2567102448427683
42
0.19891236737965856
10
3.6549999999999998
20
-7.6159204896855295
10
3.6549999999999994
20
-12.383759166754819
42
0.19891236737965756
10
3.8037897551572302
20
-12.742969411597588
10
6.9070305884024128
20
-15.846210244842769
42
0.19891236737965926
10
7.2662408332451811
20
-15.994999999999999
10
7.992
20
-15.995000000000001
42
0.41421356237309509
10
8.5
20
-15.487
10
8.5
20
-13.137999999999998
42
-0.41421356237309509
10
9.0079999999999991
20
-12.629999999999999
10
9.4920000000000009
20
-12.629999999999999
42
-0.41421356237309637
10
10
20
-13.138000000000002
10
10
20
-18.5
42
-0.41421356237309509
10
8.5
20
-20
10
3.1380000000000003
20
-20
42
-0.41421356237309509
10
2.6299999999999999
20
-19.492000000000001
10
2.6300000000000008
20
-19.00800000000001
42
-0.41421356237309509
10
3.1380000000000003
20
-18.500000000000011
10
5.487000000000001
20
-18.500000000000007
42
0.4142135623731002
10
5.9950000000000001
20
-17.991999999999997
10
5.9950000000000037
20
-17.265920489685527
42
0.1989123673796612
10
5.8462102448427613
20
-16.90671024484276
10
2.7432897551572339
20
-13.803789755157222
42
0.19891236737965345
10
2.3840795103144705
20
-13.654999999999999
10
-2.3837591667548299
20
-13.654999999999994
42
0.19891236737965873
10
-2.7429694115975902
20
-13.803789755157229
10
-5.8462102448427693
20
-16.907030588402414
42
0.19891236737965839
10
-5.9950000000000001
20
-17.266240833245181
10
-5.9950000000000001
20
-17.991999999999997
42
0.41421356237309509
10
-5.487000000000001
20
-18.5
10
-3.1380000000000003
20
-18.5
42
-0.41421356237309509
10
-2.6299999999999999
20
-19.007999999999999
10
-2.6300000000000008
20
-19.492000000000001
42
-0.41421356237309537
10
-3.1380000000000008
20
-20
10
-8.5
20
-20
42
-0.41421356237309548
10
-10
20
-18.5
10
-10
20
-13.137999999999998
42
-0.41421356237309509
10
-9.4920000000000009
20
-12.629999999999999
10
-9.0080000000000098
20
-12.629999999999999
42
-0.41421356237309509
10
-8.5000000000000107
20
-13.137999999999998
10
-8.5
20
-15.487
42
0.41421356237309509
10
-7.992
20
-15.994999999999999
10
-7.2659204896855298
20
-15.994999999999999
42
0.19891236737966086
10
-6.9067102448427597
20
-15.846210244842762
10
-3.8037897551572311
20
-12.743289755157228
42
0.19891236737965209
10
-3.6549999999999998
20
-12.38407951031447
10
-3.6549999999999967
20
-7.6162408332451781
42
0.19891236737965753
10
-3.8037897551572302
20
-7.2570305884024089
10
-6.907030588402411
20
-4.1537897551572289
42
0.19891236737965834
10
-7.2662408332451811
20
-4.004999999999999
10
-7.992
20
-4.0049999999999963
42
0.41421356237309537
10
-8.5
20
-4.512999999999999
10
-8.5
20
-6.8619999999999992
42
-0.41421356237309509
10
-9.0079999999999991
20
-7.3699999999999992
10
-9.4920000000000009
20
-7.3699999999999974
42
-0.4142135623730957
10
-10
20
-6.8619999999999983
10
-10
20
-1.499999999999998
42
-0.41421356237309509
10
-8.5
20
1.1102230246251565e-15
10
-3.1380000000000003
20
2.7755575615628914e-15
42
-0.41421356237309509
10
-2.6299999999999999
20
-0.50799999999999734
10
-2.6300000000000008
20
-0.9920000075697788
42
-0.41421355800864573
10
-3.1380000000000003
20
-1.499999999999988
10
-5.487000000000001
20
-1.4999999999999898
42
0.41421356237310086
10
-5.9950000000000001
20
-2.0079999999999987
10
-5.9949999999999992
20
-2.7340795103144586
42
0.19891236737966148
10
-5.8462102448427613
20
-3.0932897551572385
10
-2.7432897551572251
20
-6.1962102448427636
42
0.19891236737964904
10
-2.3840795103144705
20
-6.3449999999999989
10
2.3837591667548299
20
-6.3450000000000042
42
0.19891236737965826
10
2.7429694115975902
20
-6.1962102448427681
10
5.8462102448427729
20
-3.0929694115975908
42
0.19891236737965987
10
5.9950000000000001
20
-2.733759166754818
10
5.9950000000000001
20
-2.0079999999999987
42
0.41421356237309509
10
5.487000000000001
20
-1.499999999999998
10
3.1380000000000003
20
-1.4999999999999996
42
-0.41421356237309509
10
2.6299999999999999
20
-0.99199999999999955
10
2.6300000000000017
20
-0.50799999999999745
42
-0.41421356237309537
10
3.1380000000000008
20
1.1102230246251565e-15
10
8.5
20
1.1102230246251565e-15
42
-0.4142135623730952
0
LWPOLYLINE
5
101
100
AcDbEntity
8
0
100
AcDbPolyline
90
16
70
1
43
0.0
10
1.9357773907841684
20
-9.196270012175205
42
-0.19934880077009173
10
1.935777390784168
20
-10.803729987824793
42
-0.58433019455587232
10
2.3044930367938128
20
-12.124493036793812
10
2.1244930367938131
20
-12.304493036793813
42
-0.58433019455587132
10
0.80372998782479499
20
-11.935777390784168
42
-0.19934880077009173
10
-0.80372998782479443
20
-11.935777390784166
42
-0.58433019455587187
10
-2.1244930367938131
20
-12.304493036793811
10
-2.3044930367938128
20
-12.124493036793812
42
-0.58433019455587165
10
-1.9357773907841689
20
-10.803729987824793
42
-0.19934880077009162
10
-1.9357773907841682
20
-9.1962700121752032
42
-0.58433019455587198
10
-2.3044930367938132
20
-7.8755069632061856
10
-2.1244930367938131
20
-7.6955069632061859
42
-0.58433019455587154
10
-0.8037299878247941
20
-8.0642226092158307
42
-0.19934880077009173
10
0.80372998782479443
20
-8.0642226092158289
42
-0.58433019455587187
10
2.1244930367938131
20
-7.6955069632061868
10
2.3044930367938141
20
-7.8755069632061847
42
-0.58433019455587198
0
LWPOLYLINE
5
102
100
AcDbEntity
8
0
100
AcDbPolyline
90
88
70
1
43
0.0
10
10
20
-6.8619999999999983
10
10
20
-1.499999999999998
42
0.41421356237309509
10
8.5
20
1.1102230246251565e-15
10
3.1380000000000003
20
7.7021722333370235e-15
42
0.41421356237309509
10
2.6299999999999999
20
-0.50799999999999734
10
2.6299999999999999
20
-0.99199999999999944
42
0.41421356237309515
10
3.1380000000000003
20
-1.499999999999998
10
5.487000000000001
20
-1.4999999999999991
42
-0.41421356237309509
10
5.9950000000000001
20
-2.0079999999999987
10
5.9949999999999974
20
-2.733759166754818
42
-0.19891236737965984
10
5.8462102448427702
20
-3.0929694115975876
10
2.7429694115975889
20
-6.1962102448427681
42
-0.1989123673796579
10
2.3837591667548299
20
-6.3449999999999989
10
-2.3840795103144705
20
-6.3450000000000006
42
-0.19891236737964921
10
-2.7432897551572299
20
-6.1962102448427681
10
-5.8462102448427578
20
-3.0932897551572376
42
-0.19891236737966206
10
-5.9950000000000001
20
-2.7340795103144586
10
-5.9949999999999912
20
-2.0079999999999987
42
-0.41421356237310086
10
-5.487000000000001
20
-1.499999999999998
10
-3.1380000000000003
20
-1.4999999999999936
42
0.41421355800864573
10
-2.6299999999999999
20
-0.9920000075697788
10
-2.6300000000000012
20
-0.50799999999999734
42
0.41421356237309537
10
-3.1380000000000008
20
1.1102230246251565e-15
10
-8.5
20
2.2204460492503131e-15
42
0.4142135623730952
10
-10
20
-1.4999999999999991
10
-10
20
-6.8619999999999992
42
0.41421356237309509
10
-9.4920000000000009
20
-7.3699999999999992
10
-9.0079999999999991
20
-7.3699999999999992
42
0.41421356237309509
10
-8.5
20
-6.8619999999999992
10
-8.5
20
-4.5129999999999981
42
-0.41421356237309509
10
-7.992
20
-4.004999999999999
10
-7.266240833245182
20
-4.0049999999999937
42
-0.19891236737965848
10
-6.907030588402411
20
-4.1537897551572289
10
-3.8037897551572337
20
-7.2570305884024124
42
-0.19891236737965812
10
-3.6549999999999998
20
-7.616240833245179
10
-3.654999999999994
20
-12.38407951031447
42
-0.19891236737965282
10
-3.8037897551572302
20
-12.74328975515723
10
-6.9067102448427589
20
-15.84621024484276
42
-0.19891236737966206
10
-7.2659204896855298
20
-15.994999999999999
10
-7.992
20
-15.994999999999999
42
-0.41421356237309509
10
-8.5
20
-15.487
10
-8.5000000000000107
20
-13.137999999999998
42
0.41421356237309509
10
-9.0080000000000098
20
-12.629999999999999
10
-9.4920000000000009
20
-12.630000000000001
42
0.41421356237309637
10
-10
20
-13.138000000000002
10
-10
20
-18.5
42
0.41421356237309509
10
-8.5
20
-20
10
-3.1380000000000003
20
-20.000000000000004
42
0.41421356237309509
10
-2.6299999999999999
20
-19.492000000000001
10
-2.6299999999999999
20
-19.007999999999999
42
0.41421356237309509
10
-3.1380000000000003
20
-18.5
10
-5.487000000000001
20
-18.5
42
-0.41421356237309509
10
-5.9950000000000001
20
-17.991999999999997
10
-5.9950000000000063
20
-17.266240833245185
42
-0.19891236737965995
10
-5.8462102448427702
20
-16.90703058840241
10
-2.7429694115975889
20
-13.803789755157229
42
-0.19891236737965834
10
-2.3837591667548303
20
-13.654999999999999
10
2.3840795103144696
20
-13.655000000000001
42
-0.1989123673796549
10
2.7432897551572299
20
-13.803789755157229
10
5.8462102448427613
20
-16.906710244842756
42
-0.1989123673796617
10
5.9950000000000001
20
-17.265920489685527
10
5.9949999999999939
20
-17.991999999999997
42
-0.4142135623731002
10
5.487000000000001
20
-18.5
10
3.1380000000000003
20
-18.500000000000011
42
0.41421356237309509
10
2.6299999999999999
20
-19.00800000000001
10
2.6300000000000012
20
-19.492000000000001
42
0.41421356237309537
10
3.1380000000000008
20
-20
10
8.5
20
-20
42
0.41421356237309548
10
10
20
-18.5
10
10
20
-13.137999999999998
42
0.41421356237309509
10
9.4920000000000009
20
-12.629999999999999
10
9.0079999999999991
20
-12.629999999999999
42
0.41421356237309509
10
8.5
20
-13.137999999999998
10
8.5
20
-15.487
42
-0.41421356237309509
10
7.992
20
-15.994999999999999
10
7.2662408332451811
20
-15.994999999999997
42
-0.19891236737966053
10
6.907030588402411
20
-15.846210244842769
10
3.8037897551572337
20
-12.742969411597585
42
-0.19891236737965892
10
3.6549999999999998
20
-12.383759166754817
10
3.6549999999999994
20
-7.6159204896855286
42
-0.19891236737965776
10
3.8037897551572302
20
-7.2567102448427692
10
6.9067102448427597
20
-4.1537897551572369
42
-0.19891236737966159
10
7.2659204896855298
20
-4.004999999999999
10
7.9919999999999991
20
-4.0049999999999972
42
-0.41421356237309537
10
8.5
20
-4.512999999999999
10
8.5000000000000107
20
-6.8619999999999992
42
0.41421356237309509
10
9.0080000000000098
20
-7.3699999999999992
10
9.4920000000000009
20
-7.3699999999999974
42
0.4142135623730957
0
LWPOLYLINE
5
103
100
AcDbEntity
8
0
100
AcDbPolyline
90
16
70
1
43
0.0
10
1.9357773907841684
20
-9.196270012175205
42
-0.19934880077009173
10
1.9357773907841676
20
-10.803729987824797
42
-0.58433019455587232
10
2.3044930367938101
20
-12.124493036793808
10
2.1244930367938148
20
-12.304493036793813
42
-0.58433019455587198
10
0.80372998782479499
20
-11.935777390784171
42
-0.19934880077009162
10
-0.80372998782479876
20
-11.935777390784171
42
-0.58433019455587043
10
-2.12449303679381
20
-12.304493036793808
10
-2.3044930367938132
20
-12.124493036793814
42
-0.58433019455587254
10
-1.9357773907841711
20
-10.803729987824791
42
-0.19934880077009126
10
-1.9357773907841684
20
-9.1962700121751997
42
-0.58433019455587132
10
-2.3044930367938101
20
-7.8755069632061891
10
-2.1244930367938153
20
-7.6955069632061832
42
-0.58433019455587132
10
-0.8037299878247911
20
-8.0642226092158289
42
-0.19934880077009137
10
0.80372998782479821
20
-8.0642226092158307
42
-0.58433019455587132
10
2.12449303679381
20
-7.6955069632061885
10
2.3044930367938141
20
-7.8755069632061847
42
-0.58433019455587198
0
ENDSEC
0
SECTION
2
OBJECTS
0
DICTIONARY
5
C
100
AcDbDictionary
3
ACAD_GROUP
350
D
3
ACAD_MLINESTYLE
350
17
0
DICTIONARY
5
D
100
AcDbDictionary
0
DICTIONARY
5
1A
330
C
100
AcDbDictionary
0
DICTIONARY
5
17
100
AcDbDictionary
0
ENDSEC
0
EOF
