  0
SECTION
  2
HEADER
  9
$ACADVER
  1
AC1014
  9
$HANDSEED
  5
FFFF
  9
$MEASUREMENT
 70
     1
  0
ENDSEC
  0
SECTION
  2
TABLES
  0
TABLE
  2
VPORT
  5
8
330
0
100
AcDbSymbolTable
 70
     4
  0
VPORT
  5
2E
330
8
100
AcDbSymbolTableRecord
100
AcDbViewportTableRecord
  2
*ACTIVE
 70
     0
 10
0.0
 20
0.0
 11
1.0
 21
1.0
 12
210.0
 22
148.5
 13
0.0
 23
0.0
 14
10.0
 24
10.0
 15
10.0
 25
10.0
 16
0.0
 26
0.0
 36
1.0
 17
0.0
 27
0.0
 37
0.0
 40
341.0
 41
1.24
 42
50.0
 43
0.0
 44
0.0
 50
0.0
 51
0.0
 71
     0
 72
   100
 73
     1
 74
     3
 75
     0
 76
     0
 77
     0
 78
     0
  0
ENDTAB
  0
TABLE
  2
LTYPE
  5
5
330
0
100
AcDbSymbolTable
 70
     1
  0
LTYPE
  5
14
330
5
100
AcDbSymbolTableRecord
100
AcDbLinetypeTableRecord
  2
BYBLOCK
 70
     0
  3

 72
    65
 73
     0
 40
0.0
  0
LTYPE
  5
15
330
5
100
AcDbSymbolTableRecord
100
AcDbLinetypeTableRecord
  2
BYLAYER
 70
     0
  3

 72
    65
 73
     0
 40
0.0
  0
LTYPE
  5
16
330
5
100
AcDbSymbolTableRecord
100
AcDbLinetypeTableRecord
  2
CONTINUOUS
 70
     0
  3
Solid line
 72
    65
 73
     0
 40
0.0
  0
ENDTAB
  0
TABLE
  2
LAYER
  5
2
100
AcDbSymbolTable
 70
2
  0
LAYER
  5
50
100
AcDbSymbolTableRecord
100
AcDbLayerTableRecord
  2
0
 70
0
  6
CONTINUOUS
  0
LAYER
  5
51
100
AcDbSymbolTableRecord
100
AcDbLayerTableRecord
  2
Layer_1
 70
0
  6
CONTINUOUS
  0
ENDTAB
  0
TABLE
  2
STYLE
  5
3
330
0
100
AcDbSymbolTable
 70
     1
  0
STYLE
  5
11
330
3
100
AcDbSymbolTableRecord
100
AcDbTextStyleTableRecord
  2
STANDARD
 70
     0
 40
0.0
 41
1.0
 50
0.0
 71
     0
 42
2.5
  3
txt
  4

  0
ENDTAB
  0
TABLE
  2
VIEW
  5
6
330
0
100
AcDbSymbolTable
 70
     0
  0
ENDTAB
  0
TABLE
  2
UCS
  5
7
330
0
100
AcDbSymbolTable
 70
     0
  0
ENDTAB
  0
TABLE
  2
APPID
  5
9
330
0
100
AcDbSymbolTable
 70
     2
  0
APPID
  5
12
330
9
100
AcDbSymbolTableRecord
100
AcDbRegAppTableRecord
  2
ACAD
 70
     0
  0
ENDTAB
  0
TABLE
  2
DIMSTYLE
  5
A
330
0
100
AcDbSymbolTable
 70
     1
  0
DIMSTYLE
105
27
330
A
100
AcDbSymbolTableRecord
100
AcDbDimStyleTableRecord
  2
ISO-25
 70
     0
  3

  4

  5

  6

  7

 40
1.0
 41
2.5
 42
0.625
 43
3.75
 44
1.25
 45
0.0
 46
0.0
 47
0.0
 48
0.0
140
2.5
141
2.5
142
0.0
143
0.03937007874016
144
1.0
145
0.0
146
1.0
147
0.625
 71
     0
 72
     0
 73
     0
 74
     0
 75
     0
 76
     0
 77
     1
 78
     8
170
     0
171
     3
172
     1
173
     0
174
     0
175
     0
176
     0
177
     0
178
     0
270
     2
271
     2
272
     2
273
     2
274
     3
340
11
275
     0
280
     0
281
     0
282
     0
283
     0
284
     8
285
     0
286
     0
287
     3
288
     0
  0
ENDTAB
  0
TABLE
  2
BLOCK_RECORD
  5
1
330
0
100
AcDbSymbolTable
 70
     1
  0
BLOCK_RECORD
  5
1F
330
1
100
AcDbSymbolTableRecord
100
AcDbBlockTableRecord
  2
*MODEL_SPACE
  0
BLOCK_RECORD
  5
1B
330
1
100
AcDbSymbolTableRecord
100
AcDbBlockTableRecord
  2
*PAPER_SPACE
  0
ENDTAB
  0
ENDSEC
  0
SECTION
  2
BLOCKS
  0
BLOCK
  5
20
330
1F
100
AcDbEntity
  8
0
100
AcDbBlockBegin
  2
*MODEL_SPACE
 70
     0
 10
0.0
 20
0.0
 30
0.0
  3
*MODEL_SPACE
  1

  0
ENDBLK
  5
21
330
1F
100
AcDbEntity
  8
0
100
AcDbBlockEnd
  0
BLOCK
  5
1C
330
1B
100
AcDbEntity
 67
     1
  8
0
100
AcDbBlockBegin
  2
*PAPER_SPACE
  1

  0
ENDBLK
  5
1D
330
1B
100
AcDbEntity
 67
     1
  8
0
100
AcDbBlockEnd
  0
ENDSEC
  0
SECTION
  2
ENTITIES
  0
SPLINE
  5
100
100
AcDbEntity
  8
Layer_1
 62
7
100
AcDbSpline
 70
8
 71
3
 72
8
 73
4
 74
0
 40
0
 40
0
 40
0
 40
0
 40
1
 40
1
 40
1
 40
1
 10
36.896970
 20
0.132150
 30
0.0
 10
36.644511
 20
0.161250
 30
0.0
 10
35.877298
 20
0.248980
 30
0.0
 10
35.192052
 20
0.327130
 30
0.0
  0
SPLINE
  5
101
100
AcDbEntity
  8
Layer_1
 62
7
100
AcDbSpline
 70
8
 71
3
 72
8
 73
4
 74
0
 40
0
 40
0
 40
0
 40
0
 40
1
 40
1
 40
1
 40
1
 10
35.192052
 20
0.327130
 30
0.0
 10
33.305202
 20
0.542330
 30
0.0
 10
30.824460
 20
1.052170
 30
0.0
 10
28.849378
 20
1.630670
 30
0.0
  0
SPLINE
  5
102
100
AcDbEntity
  8
Layer_1
 62
7
100
AcDbSpline
 70
8
 71
3
 72
8
 73
4
 74
0
 40
0
 40
0
 40
0
 40
0
 40
1
 40
1
 40
1
 40
1
 10
28.849378
 20
1.630670
 30
0.0
 10
19.525264
 20
4.361670
 30
0.0
 10
11.299504
 20
10.752490
 30
0.0
 10
6.303844
 20
19.146910
 30
0.0
  0
SPLINE
  5
103
100
AcDbEntity
  8
Layer_1
 62
7
100
AcDbSpline
 70
8
 71
3
 72
8
 73
4
 74
0
 40
0
 40
0
 40
0
 40
0
 40
1
 40
1
 40
1
 40
1
 10
6.303844
 20
19.146910
 30
0.0
 10
3.313824
 20
24.171170
 30
0.0
 10
1.502994
 20
29.817360
 30
0.0
 10
0.949824
 20
35.840840
 30
0.0
  0
SPLINE
  5
104
100
AcDbEntity
  8
Layer_1
 62
7
100
AcDbSpline
 70
8
 71
3
 72
8
 73
4
 74
0
 40
0
 40
0
 40
0
 40
0
 40
1
 40
1
 40
1
 40
1
 10
0.949824
 20
35.840840
 30
0.0
 10
0.737914
 20
38.148380
 30
0.0
 10
0.867824
 20
42.546100
 30
0.0
 10
1.215964
 20
44.850120
 30
0.0
  0
SPLINE
  5
105
100
AcDbEntity
  8
Layer_1
 62
7
100
AcDbSpline
 70
8
 71
3
 72
8
 73
4
 74
0
 40
0
 40
0
 40
0
 40
0
 40
1
 40
1
 40
1
 40
1
 10
1.215964
 20
44.850120
 30
0.0
 10
3.565384
 20
60.398720
 30
0.0
 10
14.835894
 20
73.031490
 30
0.0
 10
29.872262
 20
76.970070
 30
0.0
  0
SPLINE
  5
106
100
AcDbEntity
  8
Layer_1
 62
7
100
AcDbSpline
 70
8
 71
3
 72
8
 73
4
 74
0
 40
0
 40
0
 40
0
 40
0
 40
1
 40
1
 40
1
 40
1
 10
29.872262
 20
76.970070
 30
0.0
 10
33.379435
 20
77.888730
 30
0.0
 10
36.174570
 20
78.237830
 30
0.0
 10
39.978620
 20
78.232330
 30
0.0
  0
SPLINE
  5
107
100
AcDbEntity
  8
Layer_1
 62
7
100
AcDbSpline
 70
8
 71
3
 72
8
 73
4
 74
0
 40
0
 40
0
 40
0
 40
0
 40
1
 40
1
 40
1
 40
1
 10
39.978620
 20
78.232330
 30
0.0
 10
44.404648
 20
78.226330
 30
0.0
 10
47.893444
 20
77.681550
 30
0.0
 10
51.922290
 20
76.368670
 30
0.0
  0
SPLINE
  5
108
100
AcDbEntity
  8
Layer_1
 62
7
100
AcDbSpline
 70
8
 71
3
 72
8
 73
4
 74
0
 40
0
 40
0
 40
0
 40
0
 40
1
 40
1
 40
1
 40
1
 10
51.922290
 20
76.368670
 30
0.0
 10
66.679705
 20
71.559690
 30
0.0
 10
77.165457
 20
58.496760
 30
0.0
 10
78.739530
 20
42.960330
 30
0.0
  0
SPLINE
  5
109
100
AcDbEntity
  8
Layer_1
 62
7
100
AcDbSpline
 70
8
 71
3
 72
8
 73
4
 74
0
 40
0
 40
0
 40
0
 40
0
 40
1
 40
1
 40
1
 40
1
 10
78.739530
 20
42.960330
 30
0.0
 10
78.972939
 20
40.656530
 30
0.0
 10
78.833250
 20
35.416410
 30
0.0
 10
78.479979
 20
33.223990
 30
0.0
  0
SPLINE
  5
10a
100
AcDbEntity
  8
Layer_1
 62
7
100
AcDbSpline
 70
8
 71
3
 72
8
 73
4
 74
0
 40
0
 40
0
 40
0
 40
0
 40
1
 40
1
 40
1
 40
1
 10
78.479979
 20
33.223990
 30
0.0
 10
77.508326
 20
27.193840
 30
0.0
 10
75.460936
 20
22.028670
 30
0.0
 10
72.075351
 20
17.066360
 30
0.0
  0
SPLINE
  5
10b
100
AcDbEntity
  8
Layer_1
 62
7
100
AcDbSpline
 70
8
 71
3
 72
8
 73
4
 74
0
 40
0
 40
0
 40
0
 40
0
 40
1
 40
1
 40
1
 40
1
 10
72.075351
 20
17.066360
 30
0.0
 10
66.618393
 20
9.068010
 30
0.0
 10
58.319475
 20
3.351560
 30
0.0
 10
48.899056
 20
1.102110
 30
0.0
  0
SPLINE
  5
10c
100
AcDbEntity
  8
Layer_1
 62
7
100
AcDbSpline
 70
8
 71
3
 72
8
 73
4
 74
0
 40
0
 40
0
 40
0
 40
0
 40
1
 40
1
 40
1
 40
1
 10
48.899056
 20
1.102110
 30
0.0
 10
46.001122
 20
0.410130
 30
0.0
 10
43.951516
 20
0.171130
 30
0.0
 10
40.503528
 20
0.123110
 30
0.0
  0
SPLINE
  5
10d
100
AcDbEntity
  8
Layer_1
 62
7
100
AcDbSpline
 70
8
 71
3
 72
8
 73
4
 74
0
 40
0
 40
0
 40
0
 40
0
 40
1
 40
1
 40
1
 40
1
 10
40.503528
 20
0.123110
 30
0.0
 10
38.772380
 20
0.099010
 30
0.0
 10
37.149429
 20
0.103110
 30
0.0
 10
36.896970
 20
0.132110
 30
0.0
  0
SPLINE
  5
10e
100
AcDbEntity
  8
Layer_1
 62
7
100
AcDbSpline
 70
8
 71
3
 72
8
 73
4
 74
0
 40
0
 40
0
 40
0
 40
0
 40
1
 40
1
 40
1
 40
1
 10
43.604387
 20
0.715470
 30
0.0
 10
49.910391
 20
1.342990
 30
0.0
 10
56.035651
 20
3.534900
 30
0.0
 10
61.224839
 20
7.020920
 30
0.0
  0
SPLINE
  5
10f
100
AcDbEntity
  8
Layer_1
 62
7
100
AcDbSpline
 70
8
 71
3
 72
8
 73
4
 74
0
 40
0
 40
0
 40
0
 40
0
 40
1
 40
1
 40
1
 40
1
 10
61.224839
 20
7.020920
 30
0.0
 10
65.247491
 20
9.723280
 30
0.0
 10
68.892806
 20
13.320560
 30
0.0
 10
71.670645
 20
17.329080
 30
0.0
  0
SPLINE
  5
110
100
AcDbEntity
  8
Layer_1
 62
7
100
AcDbSpline
 70
8
 71
3
 72
8
 73
4
 74
0
 40
0
 40
0
 40
0
 40
0
 40
1
 40
1
 40
1
 40
1
 10
71.670645
 20
17.329080
 30
0.0
 10
77.780294
 20
26.145530
 30
0.0
 10
79.880885
 20
37.515800
 30
0.0
 10
77.367162
 20
48.163700
 30
0.0
  0
SPLINE
  5
111
100
AcDbEntity
  8
Layer_1
 62
7
100
AcDbSpline
 70
8
 71
3
 72
8
 73
4
 74
0
 40
0
 40
0
 40
0
 40
0
 40
1
 40
1
 40
1
 40
1
 10
77.367162
 20
48.163700
 30
0.0
 10
74.658953
 20
59.635410
 30
0.0
 10
66.507272
 20
69.513920
 30
0.0
 10
55.747448
 20
74.363270
 30
0.0
  0
SPLINE
  5
112
100
AcDbEntity
  8
Layer_1
 62
7
100
AcDbSpline
 70
8
 71
3
 72
8
 73
4
 74
0
 40
0
 40
0
 40
0
 40
0
 40
1
 40
1
 40
1
 40
1
 10
55.747448
 20
74.363270
 30
0.0
 10
43.879339
 20
79.712110
 30
0.0
 10
30.063386
 20
78.714640
 30
0.0
 10
19.141944
 20
71.720460
 30
0.0
  0
SPLINE
  5
113
100
AcDbEntity
  8
Layer_1
 62
7
100
AcDbSpline
 70
8
 71
3
 72
8
 73
4
 74
0
 40
0
 40
0
 40
0
 40
0
 40
1
 40
1
 40
1
 40
1
 10
19.141944
 20
71.720460
 30
0.0
 10
16.870174
 20
70.265610
 30
0.0
 10
15.137854
 20
68.886320
 30
0.0
 10
13.110974
 20
66.918580
 30
0.0
  0
SPLINE
  5
114
100
AcDbEntity
  8
Layer_1
 62
7
100
AcDbSpline
 70
8
 71
3
 72
8
 73
4
 74
0
 40
0
 40
0
 40
0
 40
0
 40
1
 40
1
 40
1
 40
1
 10
13.110974
 20
66.918580
 30
0.0
 10
8.155214
 20
62.107400
 30
0.0
 10
4.896634
 20
56.747770
 30
0.0
 10
2.885374
 20
50.099770
 30
0.0
  0
SPLINE
  5
115
100
AcDbEntity
  8
Layer_1
 62
7
100
AcDbSpline
 70
8
 71
3
 72
8
 73
4
 74
0
 40
0
 40
0
 40
0
 40
0
 40
1
 40
1
 40
1
 40
1
 10
2.885374
 20
50.099770
 30
0.0
 10
1.203684
 20
44.541110
 30
0.0
 10
0.875554
 20
37.707310
 30
0.0
 10
2.008094
 20
31.829060
 30
0.0
  0
SPLINE
  5
116
100
AcDbEntity
  8
Layer_1
 62
7
100
AcDbSpline
 70
8
 71
3
 72
8
 73
4
 74
0
 40
0
 40
0
 40
0
 40
0
 40
1
 40
1
 40
1
 40
1
 10
2.008094
 20
31.829060
 30
0.0
 10
5.188764
 20
15.320420
 30
0.0
 10
18.710284
 20
2.770920
 30
0.0
 10
35.454347
 20
0.787170
 30
0.0
  0
SPLINE
  5
117
100
AcDbEntity
  8
Layer_1
 62
7
100
AcDbSpline
 70
8
 71
3
 72
8
 73
4
 74
0
 40
0
 40
0
 40
0
 40
0
 40
1
 40
1
 40
1
 40
1
 10
35.454347
 20
0.787170
 30
0.0
 10
37.288089
 20
0.569920
 30
0.0
 10
41.747505
 20
0.530690
 30
0.0
 10
43.604387
 20
0.715470
 30
0.0
  0
LWPOLYLINE
  5
118
100
AcDbEntity
  8
Layer_1
 62
7
100
AcDbPolyline
 90
1
 70
1
 10
36.896970
 20
0.132110
 30
0.0
  0
SPLINE
  5
119
100
AcDbEntity
  8
Layer_1
 62
7
100
AcDbSpline
 70
8
 71
3
 72
8
 73
4
 74
0
 40
0
 40
0
 40
0
 40
0
 40
1
 40
1
 40
1
 40
1
 10
26.536315
 20
6.417220
 30
0.0
 10
26.536315
 20
6.665280
 30
0.0
 10
26.771723
 20
7.507640
 30
0.0
 10
27.059446
 20
8.289140
 30
0.0
  0
SPLINE
  5
11a
100
AcDbEntity
  8
Layer_1
 62
7
100
AcDbSpline
 70
8
 71
3
 72
8
 73
4
 74
0
 40
0
 40
0
 40
0
 40
0
 40
1
 40
1
 40
1
 40
1
 10
27.059446
 20
8.289140
 30
0.0
 10
27.347168
 20
9.070630
 30
0.0
 10
27.583234
 20
9.766050
 30
0.0
 10
27.584037
 20
9.834520
 30
0.0
  0
SPLINE
  5
11b
100
AcDbEntity
  8
Layer_1
 62
7
100
AcDbSpline
 70
8
 71
3
 72
8
 73
4
 74
0
 40
0
 40
0
 40
0
 40
0
 40
1
 40
1
 40
1
 40
1
 10
27.584037
 20
9.834520
 30
0.0
 10
27.584823
 20
9.903020
 30
0.0
 10
27.275659
 20
9.548310
 30
0.0
 10
26.896970
 20
9.046340
 30
0.0
  0
SPLINE
  5
11c
100
AcDbEntity
  8
Layer_1
 62
7
100
AcDbSpline
 70
8
 71
3
 72
8
 73
4
 74
0
 40
0
 40
0
 40
0
 40
0
 40
1
 40
1
 40
1
 40
1
 10
26.896970
 20
9.046340
 30
0.0
 10
25.411441
 20
7.077230
 30
0.0
 10
24.173919
 20
6.019680
 30
0.0
 10
24.176507
 20
6.721530
 30
0.0
  0
SPLINE
  5
11d
100
AcDbEntity
  8
Layer_1
 62
7
100
AcDbSpline
 70
8
 71
3
 72
8
 73
4
 74
0
 40
0
 40
0
 40
0
 40
0
 40
1
 40
1
 40
1
 40
1
 10
24.176507
 20
6.721530
 30
0.0
 10
24.177294
 20
6.936930
 30
0.0
 10
25.402106
 20
9.272870
 30
0.0
 10
25.932884
 20
10.071280
 30
0.0
  0
SPLINE
  5
11e
100
AcDbEntity
  8
Layer_1
 62
7
100
AcDbSpline
 70
8
 71
3
 72
8
 73
4
 74
0
 40
0
 40
0
 40
0
 40
0
 40
1
 40
1
 40
1
 40
1
 10
25.932884
 20
10.071280
 30
0.0
 10
26.318885
 20
10.651920
 30
0.0
 10
26.064023
 20
10.495090
 30
0.0
 10
25.032764
 20
9.517400
 30
0.0
  0
SPLINE
  5
11f
100
AcDbEntity
  8
Layer_1
 62
7
100
AcDbSpline
 70
8
 71
3
 72
8
 73
4
 74
0
 40
0
 40
0
 40
0
 40
0
 40
1
 40
1
 40
1
 40
1
 10
25.032764
 20
9.517400
 30
0.0
 10
24.501863
 20
9.014070
 30
0.0
 10
23.785194
 20
8.422940
 30
0.0
 10
23.440164
 20
8.203770
 30
0.0
  0
SPLINE
  5
120
100
AcDbEntity
  8
Layer_1
 62
7
100
AcDbSpline
 70
8
 71
3
 72
8
 73
4
 74
0
 40
0
 40
0
 40
0
 40
0
 40
1
 40
1
 40
1
 40
1
 10
23.440164
 20
8.203770
 30
0.0
 10
22.823064
 20
7.811770
 30
0.0
 10
22.339594
 20
7.689440
 30
0.0
 10
22.339594
 20
7.925290
 30
0.0
  0
SPLINE
  5
121
100
AcDbEntity
  8
Layer_1
 62
7
100
AcDbSpline
 70
8
 71
3
 72
8
 73
4
 74
0
 40
0
 40
0
 40
0
 40
0
 40
1
 40
1
 40
1
 40
1
 10
22.339594
 20
7.925290
 30
0.0
 10
22.339594
 20
8.068170
 30
0.0
 10
22.953034
 20
8.819270
 30
0.0
 10
24.349511
 20
10.386230
 30
0.0
  0
SPLINE
  5
122
100
AcDbEntity
  8
Layer_1
 62
7
100
AcDbSpline
 70
8
 71
3
 72
8
 73
4
 74
0
 40
0
 40
0
 40
0
 40
0
 40
1
 40
1
 40
1
 40
1
 10
24.349511
 20
10.386230
 30
0.0
 10
24.913983
 20
11.019610
 30
0.0
 10
25.437206
 20
11.652720
 30
0.0
 10
25.512229
 20
11.793130
 30
0.0
  0
SPLINE
  5
123
100
AcDbEntity
  8
Layer_1
 62
7
100
AcDbSpline
 70
8
 71
3
 72
8
 73
4
 74
0
 40
0
 40
0
 40
0
 40
0
 40
1
 40
1
 40
1
 40
1
 10
25.512229
 20
11.793130
 30
0.0
 10
25.644140
 20
12.040010
 30
0.0
 10
25.636248
 20
12.039670
 30
0.0
 10
25.272804
 20
11.782730
 30
0.0
  0
SPLINE
  5
124
100
AcDbEntity
  8
Layer_1
 62
7
100
AcDbSpline
 70
8
 71
3
 72
8
 73
4
 74
0
 40
0
 40
0
 40
0
 40
0
 40
1
 40
1
 40
1
 40
1
 10
25.272804
 20
11.782730
 30
0.0
 10
24.239393
 20
11.052290
 30
0.0
 10
22.728484
 20
10.515120
 30
0.0
 10
22.544784
 20
10.812850
 30
0.0
  0
SPLINE
  5
125
100
AcDbEntity
  8
Layer_1
 62
7
100
AcDbSpline
 70
8
 71
3
 72
8
 73
4
 74
0
 40
0
 40
0
 40
0
 40
0
 40
1
 40
1
 40
1
 40
1
 10
22.544784
 20
10.812850
 30
0.0
 10
22.495884
 20
10.892050
 30
0.0
 10
22.729114
 20
11.142570
 30
0.0
 10
23.075344
 20
11.382940
 30
0.0
  0
SPLINE
  5
126
100
AcDbEntity
  8
Layer_1
 62
7
100
AcDbSpline
 70
8
 71
3
 72
8
 73
4
 74
0
 40
0
 40
0
 40
0
 40
0
 40
1
 40
1
 40
1
 40
1
 10
23.075344
 20
11.382940
 30
0.0
 10
24.845802
 20
12.612090
 30
0.0
 10
27.077844
 20
14.520970
 30
0.0
 10
26.838183
 20
14.600990
 30
0.0
  0
SPLINE
  5
127
100
AcDbEntity
  8
Layer_1
 62
7
100
AcDbSpline
 70
8
 71
3
 72
8
 73
4
 74
0
 40
0
 40
0
 40
0
 40
0
 40
1
 40
1
 40
1
 40
1
 10
26.838183
 20
14.600990
 30
0.0
 10
26.766793
 20
14.624790
 30
0.0
 10
26.428708
 20
14.524290
 30
0.0
 10
26.086885
 20
14.377490
 30
0.0
  0
SPLINE
  5
128
100
AcDbEntity
  8
Layer_1
 62
7
100
AcDbSpline
 70
8
 71
3
 72
8
 73
4
 74
0
 40
0
 40
0
 40
0
 40
0
 40
1
 40
1
 40
1
 40
1
 10
26.086885
 20
14.377490
 30
0.0
 10
25.380198
 20
14.074070
 30
0.0
 10
24.914081
 20
14.030250
 30
0.0
 10
24.995027
 20
14.274850
 30
0.0
  0
SPLINE
  5
129
100
AcDbEntity
  8
Layer_1
 62
7
100
AcDbSpline
 70
8
 71
3
 72
8
 73
4
 74
0
 40
0
 40
0
 40
0
 40
0
 40
1
 40
1
 40
1
 40
1
 10
24.995027
 20
14.274850
 30
0.0
 10
25.024917
 20
14.365150
 30
0.0
 10
25.530312
 20
14.734620
 30
0.0
 10
26.118134
 20
15.095870
 30
0.0
  0
SPLINE
  5
12a
100
AcDbEntity
  8
Layer_1
 62
7
100
AcDbSpline
 70
8
 71
3
 72
8
 73
4
 74
0
 40
0
 40
0
 40
0
 40
0
 40
1
 40
1
 40
1
 40
1
 10
26.118134
 20
15.095870
 30
0.0
 10
27.334342
 20
15.843290
 30
0.0
 10
29.589736
 20
17.689200
 30
0.0
 10
30.365884
 20
18.572400
 30
0.0
  0
SPLINE
  5
12b
100
AcDbEntity
  8
Layer_1
 62
7
100
AcDbSpline
 70
8
 71
3
 72
8
 73
4
 74
0
 40
0
 40
0
 40
0
 40
0
 40
1
 40
1
 40
1
 40
1
 10
30.365884
 20
18.572400
 30
0.0
 10
30.863484
 20
19.138630
 30
0.0
 10
30.874359
 20
19.169370
 30
0.0
 10
30.600004
 20
19.234240
 30
0.0
  0
SPLINE
  5
12c
100
AcDbEntity
  8
Layer_1
 62
7
100
AcDbSpline
 70
8
 71
3
 72
8
 73
4
 74
0
 40
0
 40
0
 40
0
 40
0
 40
1
 40
1
 40
1
 40
1
 10
30.600004
 20
19.234240
 30
0.0
 10
30.318169
 20
19.300840
 30
0.0
 10
30.317258
 20
19.307940
 30
0.0
 10
30.555444
 20
19.580700
 30
0.0
  0
SPLINE
  5
12d
100
AcDbEntity
  8
Layer_1
 62
7
100
AcDbSpline
 70
8
 71
3
 72
8
 73
4
 74
0
 40
0
 40
0
 40
0
 40
0
 40
1
 40
1
 40
1
 40
1
 10
30.555444
 20
19.580700
 30
0.0
 10
30.689183
 20
19.733840
 30
0.0
 10
31.410526
 20
20.317040
 30
0.0
 10
32.158429
 20
20.876700
 30
0.0
  0
SPLINE
  5
12e
100
AcDbEntity
  8
Layer_1
 62
7
100
AcDbSpline
 70
8
 71
3
 72
8
 73
4
 74
0
 40
0
 40
0
 40
0
 40
0
 40
1
 40
1
 40
1
 40
1
 10
32.158429
 20
20.876700
 30
0.0
 10
32.906332
 20
21.436360
 30
0.0
 10
33.673545
 20
22.031990
 30
0.0
 10
33.863347
 20
22.200320
 30
0.0
  0
SPLINE
  5
12f
100
AcDbEntity
  8
Layer_1
 62
7
100
AcDbSpline
 70
8
 71
3
 72
8
 73
4
 74
0
 40
0
 40
0
 40
0
 40
0
 40
1
 40
1
 40
1
 40
1
 10
33.863347
 20
22.200320
 30
0.0
 10
34.053149
 20
22.368660
 30
0.0
 10
34.946147
 20
23.050870
 30
0.0
 10
35.847786
 20
23.716350
 30
0.0
  0
SPLINE
  5
130
100
AcDbEntity
  8
Layer_1
 62
7
100
AcDbSpline
 70
8
 71
3
 72
8
 73
4
 74
0
 40
0
 40
0
 40
0
 40
0
 40
1
 40
1
 40
1
 40
1
 10
35.847786
 20
23.716350
 30
0.0
 10
37.845592
 20
25.190890
 30
0.0
 10
40.969958
 20
27.712020
 30
0.0
 10
42.191382
 20
28.835140
 30
0.0
  0
LWPOLYLINE
  5
131
100
AcDbEntity
  8
Layer_1
 62
7
100
AcDbPolyline
 90
1
 70
1
 10
43.604387
 20
0.715470
 30
0.0
  0
SPLINE
  5
132
100
AcDbEntity
  8
Layer_1
 62
7
100
AcDbSpline
 70
8
 71
3
 72
8
 73
4
 74
0
 40
0
 40
0
 40
0
 40
0
 40
1
 40
1
 40
1
 40
1
 10
42.741445
 20
29.965940
 30
0.0
 10
42.522098
 20
30.154930
 30
0.0
 10
42.221185
 20
30.268280
 30
0.0
 10
41.938834
 20
30.268280
 30
0.0
  0
SPLINE
  5
133
100
AcDbEntity
  8
Layer_1
 62
7
100
AcDbSpline
 70
8
 71
3
 72
8
 73
4
 74
0
 40
0
 40
0
 40
0
 40
0
 40
1
 40
1
 40
1
 40
1
 10
41.938834
 20
30.268280
 30
0.0
 10
41.516514
 20
30.268280
 30
0.0
 10
41.487174
 20
30.296080
 30
0.0
 10
41.487802
 20
30.695210
 30
0.0
  0
SPLINE
  5
134
100
AcDbEntity
  8
Layer_1
 62
7
100
AcDbSpline
 70
8
 71
3
 72
8
 73
4
 74
0
 40
0
 40
0
 40
0
 40
0
 40
1
 40
1
 40
1
 40
1
 10
41.487802
 20
30.695210
 30
0.0
 10
41.489002
 20
31.466500
 30
0.0
 10
41.979353
 20
32.053480
 30
0.0
 10
43.103482
 20
32.629310
 30
0.0
  0
SPLINE
  5
135
100
AcDbEntity
  8
Layer_1
 62
7
100
AcDbSpline
 70
8
 71
3
 72
8
 73
4
 74
0
 40
0
 40
0
 40
0
 40
0
 40
1
 40
1
 40
1
 40
1
 10
43.103482
 20
32.629310
 30
0.0
 10
43.664380
 20
32.916620
 30
0.0
 10
44.358795
 20
33.215220
 30
0.0
 10
44.646625
 20
33.292850
 30
0.0
  0
SPLINE
  5
136
100
AcDbEntity
  8
Layer_1
 62
7
100
AcDbSpline
 70
8
 71
3
 72
8
 73
4
 74
0
 40
0
 40
0
 40
0
 40
0
 40
1
 40
1
 40
1
 40
1
 10
44.646625
 20
33.292850
 30
0.0
 10
45.248509
 20
33.455190
 30
0.0
 10
46.498843
 20
34.278760
 30
0.0
 10
47.087412
 20
34.900560
 30
0.0
  0
SPLINE
  5
137
100
AcDbEntity
  8
Layer_1
 62
7
100
AcDbSpline
 70
8
 71
3
 72
8
 73
4
 74
0
 40
0
 40
0
 40
0
 40
0
 40
1
 40
1
 40
1
 40
1
 10
47.087412
 20
34.900560
 30
0.0
 10
47.701930
 20
35.549770
 30
0.0
 10
50.015610
 20
41.086630
 30
0.0
 10
51.519251
 20
45.506370
 30
0.0
  0
SPLINE
  5
138
100
AcDbEntity
  8
Layer_1
 62
7
100
AcDbSpline
 70
8
 71
3
 72
8
 73
4
 74
0
 40
0
 40
0
 40
0
 40
0
 40
1
 40
1
 40
1
 40
1
 10
51.519251
 20
45.506370
 30
0.0
 10
51.965202
 20
46.817180
 30
0.0
 10
52.800330
 20
48.384720
 30
0.0
 10
53.990640
 20
50.145170
 30
0.0
  0
SPLINE
  5
139
100
AcDbEntity
  8
Layer_1
 62
7
100
AcDbSpline
 70
8
 71
3
 72
8
 73
4
 74
0
 40
0
 40
0
 40
0
 40
0
 40
1
 40
1
 40
1
 40
1
 10
53.990640
 20
50.145170
 30
0.0
 10
55.418676
 20
52.257210
 30
0.0
 10
55.739779
 20
52.837060
 30
0.0
 10
56.810780
 20
55.237760
 30
0.0
  0
SPLINE
  5
13a
100
AcDbEntity
  8
Layer_1
 62
7
100
AcDbSpline
 70
8
 71
3
 72
8
 73
4
 74
0
 40
0
 40
0
 40
0
 40
0
 40
1
 40
1
 40
1
 40
1
 10
56.810780
 20
55.237760
 30
0.0
 10
58.062604
 20
58.043790
 30
0.0
 10
58.168242
 20
58.248570
 30
0.0
 10
58.363879
 20
58.248570
 30
0.0
  0
SPLINE
  5
13b
100
AcDbEntity
  8
Layer_1
 62
7
100
AcDbSpline
 70
8
 71
3
 72
8
 73
4
 74
0
 40
0
 40
0
 40
0
 40
0
 40
1
 40
1
 40
1
 40
1
 10
58.363879
 20
58.248570
 30
0.0
 10
58.619895
 20
58.248570
 30
0.0
 10
58.578397
 20
57.492690
 30
0.0
 10
58.273679
 20
56.605550
 30
0.0
  0
SPLINE
  5
13c
100
AcDbEntity
  8
Layer_1
 62
7
100
AcDbSpline
 70
8
 71
3
 72
8
 73
4
 74
0
 40
0
 40
0
 40
0
 40
0
 40
1
 40
1
 40
1
 40
1
 10
58.273679
 20
56.605550
 30
0.0
 10
58.129230
 20
56.185010
 30
0.0
 10
58.034085
 20
55.817860
 30
0.0
 10
58.062245
 20
55.789650
 30
0.0
  0
SPLINE
  5
13d
100
AcDbEntity
  8
Layer_1
 62
7
100
AcDbSpline
 70
8
 71
3
 72
8
 73
4
 74
0
 40
0
 40
0
 40
0
 40
0
 40
1
 40
1
 40
1
 40
1
 10
58.062245
 20
55.789650
 30
0.0
 10
58.115555
 20
55.736250
 30
0.0
 10
59.047378
 20
57.468800
 30
0.0
 10
60.570502
 20
60.453260
 30
0.0
  0
SPLINE
  5
13e
100
AcDbEntity
  8
Layer_1
 62
7
100
AcDbSpline
 70
8
 71
3
 72
8
 73
4
 74
0
 40
0
 40
0
 40
0
 40
0
 40
1
 40
1
 40
1
 40
1
 10
60.570502
 20
60.453260
 30
0.0
 10
61.060289
 20
61.412970
 30
0.0
 10
61.525914
 20
62.175070
 30
0.0
 10
61.605225
 20
62.146830
 30
0.0
  0
SPLINE
  5
13f
100
AcDbEntity
  8
Layer_1
 62
7
100
AcDbSpline
 70
8
 71
3
 72
8
 73
4
 74
0
 40
0
 40
0
 40
0
 40
0
 40
1
 40
1
 40
1
 40
1
 10
61.605225
 20
62.146830
 30
0.0
 10
61.841898
 20
62.062530
 30
0.0
 10
61.700905
 20
61.023190
 30
0.0
 10
61.290925
 20
59.829850
 30
0.0
  0
SPLINE
  5
140
100
AcDbEntity
  8
Layer_1
 62
7
100
AcDbSpline
 70
8
 71
3
 72
8
 73
4
 74
0
 40
0
 40
0
 40
0
 40
0
 40
1
 40
1
 40
1
 40
1
 10
61.290925
 20
59.829850
 30
0.0
 10
61.080867
 20
59.218440
 30
0.0
 10
60.929966
 20
58.697190
 30
0.0
 10
60.955590
 20
58.671520
 30
0.0
  0
SPLINE
  5
141
100
AcDbEntity
  8
Layer_1
 62
7
100
AcDbSpline
 70
8
 71
3
 72
8
 73
4
 74
0
 40
0
 40
0
 40
0
 40
0
 40
1
 40
1
 40
1
 40
1
 10
60.955590
 20
58.671520
 30
0.0
 10
61.002370
 20
58.624620
 30
0.0
 10
61.411587
 20
59.191460
 30
0.0
 10
63.044971
 20
61.565490
 30
0.0
  0
SPLINE
  5
142
100
AcDbEntity
  8
Layer_1
 62
7
100
AcDbSpline
 70
8
 71
3
 72
8
 73
4
 74
0
 40
0
 40
0
 40
0
 40
0
 40
1
 40
1
 40
1
 40
1
 10
63.044971
 20
61.565490
 30
0.0
 10
64.871799
 20
64.220680
 30
0.0
 10
64.681258
 20
62.399860
 30
0.0
 10
62.794093
 20
59.168110
 30
0.0
  0
SPLINE
  5
143
100
AcDbEntity
  8
Layer_1
 62
7
100
AcDbSpline
 70
8
 71
3
 72
8
 73
4
 74
0
 40
0
 40
0
 40
0
 40
0
 40
1
 40
1
 40
1
 40
1
 10
62.794093
 20
59.168110
 30
0.0
 10
62.526471
 20
58.709820
 30
0.0
 10
62.833543
 20
58.975480
 30
0.0
 10
64.160602
 20
60.350380
 30
0.0
  0
SPLINE
  5
144
100
AcDbEntity
  8
Layer_1
 62
7
100
AcDbSpline
 70
8
 71
3
 72
8
 73
4
 74
0
 40
0
 40
0
 40
0
 40
0
 40
1
 40
1
 40
1
 40
1
 10
64.160602
 20
60.350380
 30
0.0
 10
65.509933
 20
61.748350
 30
0.0
 10
65.899023
 20
62.083530
 30
0.0
 10
65.998533
 20
61.933650
 30
0.0
  0
SPLINE
  5
145
100
AcDbEntity
  8
Layer_1
 62
7
100
AcDbSpline
 70
8
 71
3
 72
8
 73
4
 74
0
 40
0
 40
0
 40
0
 40
0
 40
1
 40
1
 40
1
 40
1
 10
65.998533
 20
61.933650
 30
0.0
 10
66.228502
 20
61.587290
 30
0.0
 10
65.813483
 20
60.799380
 30
0.0
 10
64.507230
 20
59.102430
 30
0.0
  0
SPLINE
  5
146
100
AcDbEntity
  8
Layer_1
 62
7
100
AcDbSpline
 70
8
 71
3
 72
8
 73
4
 74
0
 40
0
 40
0
 40
0
 40
0
 40
1
 40
1
 40
1
 40
1
 10
64.507230
 20
59.102430
 30
0.0
 10
63.197680
 20
57.401210
 30
0.0
 10
63.203022
 20
57.393630
 30
0.0
 10
64.782714
 20
58.711520
 30
0.0
  0
SPLINE
  5
147
100
AcDbEntity
  8
Layer_1
 62
7
100
AcDbSpline
 70
8
 71
3
 72
8
 73
4
 74
0
 40
0
 40
0
 40
0
 40
0
 40
1
 40
1
 40
1
 40
1
 10
64.782714
 20
58.711520
 30
0.0
 10
66.079057
 20
59.793030
 30
0.0
 10
67.167487
 20
60.550140
 30
0.0
 10
67.273410
 20
60.444040
 30
0.0
  0
SPLINE
  5
148
100
AcDbEntity
  8
Layer_1
 62
7
100
AcDbSpline
 70
8
 71
3
 72
8
 73
4
 74
0
 40
0
 40
0
 40
0
 40
0
 40
1
 40
1
 40
1
 40
1
 10
67.273410
 20
60.444040
 30
0.0
 10
67.447438
 20
60.269730
 30
0.0
 10
67.159318
 20
59.719070
 30
0.0
 10
66.405009
 20
58.784360
 30
0.0
  0
SPLINE
  5
149
100
AcDbEntity
  8
Layer_1
 62
7
100
AcDbSpline
 70
8
 71
3
 72
8
 73
4
 74
0
 40
0
 40
0
 40
0
 40
0
 40
1
 40
1
 40
1
 40
1
 10
66.405009
 20
58.784360
 30
0.0
 10
65.575107
 20
57.755980
 30
0.0
 10
65.494432
 20
57.591760
 30
0.0
 10
65.819118
 20
57.591760
 30
0.0
  0
SPLINE
  5
14a
100
AcDbEntity
  8
Layer_1
 62
7
100
AcDbSpline
 70
8
 71
3
 72
8
 73
4
 74
0
 40
0
 40
0
 40
0
 40
0
 40
1
 40
1
 40
1
 40
1
 10
65.819118
 20
57.591760
 30
0.0
 10
66.156593
 20
57.591760
 30
0.0
 10
66.179684
 20
57.245040
 30
0.0
 10
65.899738
 20
56.381320
 30
0.0
  0
SPLINE
  5
14b
100
AcDbEntity
  8
Layer_1
 62
7
100
AcDbSpline
 70
8
 71
3
 72
8
 73
4
 74
0
 40
0
 40
0
 40
0
 40
0
 40
1
 40
1
 40
1
 40
1
 10
65.899738
 20
56.381320
 30
0.0
 10
65.739350
 20
55.886480
 30
0.0
 10
65.583524
 20
54.894950
 30
0.0
 10
65.510847
 20
53.906770
 30
0.0
  0
SPLINE
  5
14c
100
AcDbEntity
  8
Layer_1
 62
7
100
AcDbSpline
 70
8
 71
3
 72
8
 73
4
 74
0
 40
0
 40
0
 40
0
 40
0
 40
1
 40
1
 40
1
 40
1
 10
65.510847
 20
53.906770
 30
0.0
 10
65.433367
 20
52.853230
 30
0.0
 10
65.312489
 20
52.108580
 30
0.0
 10
65.176064
 20
51.844330
 30
0.0
  0
SPLINE
  5
14d
100
AcDbEntity
  8
Layer_1
 62
7
100
AcDbSpline
 70
8
 71
3
 72
8
 73
4
 74
0
 40
0
 40
0
 40
0
 40
0
 40
1
 40
1
 40
1
 40
1
 10
65.176064
 20
51.844330
 30
0.0
 10
65.058630
 20
51.616860
 30
0.0
 10
64.962547
 20
51.308110
 30
0.0
 10
64.962547
 20
51.158220
 30
0.0
  0
SPLINE
  5
14e
100
AcDbEntity
  8
Layer_1
 62
7
100
AcDbSpline
 70
8
 71
3
 72
8
 73
4
 74
0
 40
0
 40
0
 40
0
 40
0
 40
1
 40
1
 40
1
 40
1
 10
64.962547
 20
51.158220
 30
0.0
 10
64.962547
 20
51.008330
 30
0.0
 10
64.844514
 20
50.549310
 30
0.0
 10
64.700252
 20
50.138190
 30
0.0
  0
SPLINE
  5
14f
100
AcDbEntity
  8
Layer_1
 62
7
100
AcDbSpline
 70
8
 71
3
 72
8
 73
4
 74
0
 40
0
 40
0
 40
0
 40
0
 40
1
 40
1
 40
1
 40
1
 10
64.700252
 20
50.138190
 30
0.0
 10
64.555990
 20
49.727060
 30
0.0
 10
64.437957
 20
49.223140
 30
0.0
 10
64.437957
 20
49.018360
 30
0.0
  0
SPLINE
  5
150
100
AcDbEntity
  8
Layer_1
 62
7
100
AcDbSpline
 70
8
 71
3
 72
8
 73
4
 74
0
 40
0
 40
0
 40
0
 40
0
 40
1
 40
1
 40
1
 40
1
 10
64.437957
 20
49.018360
 30
0.0
 10
64.437957
 20
48.813580
 30
0.0
 10
64.343397
 20
48.462880
 30
0.0
 10
64.227826
 20
48.239020
 30
0.0
  0
SPLINE
  5
151
100
AcDbEntity
  8
Layer_1
 62
7
100
AcDbSpline
 70
8
 71
3
 72
8
 73
4
 74
0
 40
0
 40
0
 40
0
 40
0
 40
1
 40
1
 40
1
 40
1
 10
64.227826
 20
48.239020
 30
0.0
 10
64.112255
 20
48.015160
 30
0.0
 10
63.932196
 20
47.299970
 30
0.0
 10
63.827696
 20
46.649710
 30
0.0
  0
SPLINE
  5
152
100
AcDbEntity
  8
Layer_1
 62
7
100
AcDbSpline
 70
8
 71
3
 72
8
 73
4
 74
0
 40
0
 40
0
 40
0
 40
0
 40
1
 40
1
 40
1
 40
1
 10
63.827696
 20
46.649710
 30
0.0
 10
63.723195
 20
45.999450
 30
0.0
 10
63.552180
 20
45.301780
 30
0.0
 10
63.447662
 20
45.099330
 30
0.0
  0
SPLINE
  5
153
100
AcDbEntity
  8
Layer_1
 62
7
100
AcDbSpline
 70
8
 71
3
 72
8
 73
4
 74
0
 40
0
 40
0
 40
0
 40
0
 40
1
 40
1
 40
1
 40
1
 10
63.447662
 20
45.099330
 30
0.0
 10
63.343144
 20
44.896880
 30
0.0
 10
63.257629
 20
44.496080
 30
0.0
 10
63.257629
 20
44.208650
 30
0.0
  0
SPLINE
  5
154
100
AcDbEntity
  8
Layer_1
 62
7
100
AcDbSpline
 70
8
 71
3
 72
8
 73
4
 74
0
 40
0
 40
0
 40
0
 40
0
 40
1
 40
1
 40
1
 40
1
 10
63.257629
 20
44.208650
 30
0.0
 10
63.257629
 20
43.607960
 30
0.0
 10
63.010594
 20
43.295970
 30
0.0
 10
62.445316
 20
43.182730
 30
0.0
  0
SPLINE
  5
155
100
AcDbEntity
  8
Layer_1
 62
7
100
AcDbSpline
 70
8
 71
3
 72
8
 73
4
 74
0
 40
0
 40
0
 40
0
 40
0
 40
1
 40
1
 40
1
 40
1
 10
62.445316
 20
43.182730
 30
0.0
 10
62.101780
 20
43.113930
 30
0.0
 10
62.068614
 20
43.066440
 30
0.0
 10
62.151542
 20
42.762250
 30
0.0
  0
SPLINE
  5
156
100
AcDbEntity
  8
Layer_1
 62
7
100
AcDbSpline
 70
8
 71
3
 72
8
 73
4
 74
0
 40
0
 40
0
 40
0
 40
0
 40
1
 40
1
 40
1
 40
1
 10
62.151542
 20
42.762250
 30
0.0
 10
62.301567
 20
42.211930
 30
0.0
 10
62.248732
 20
41.995060
 30
0.0
 10
61.836655
 20
41.469680
 30
0.0
  0
SPLINE
  5
157
100
AcDbEntity
  8
Layer_1
 62
7
100
AcDbSpline
 70
8
 71
3
 72
8
 73
4
 74
0
 40
0
 40
0
 40
0
 40
0
 40
1
 40
1
 40
1
 40
1
 10
61.836655
 20
41.469680
 30
0.0
 10
61.622979
 20
41.197250
 30
0.0
 10
61.406032
 20
40.826570
 30
0.0
 10
61.354551
 20
40.645950
 30
0.0
  0
SPLINE
  5
158
100
AcDbEntity
  8
Layer_1
 62
7
100
AcDbSpline
 70
8
 71
3
 72
8
 73
4
 74
0
 40
0
 40
0
 40
0
 40
0
 40
1
 40
1
 40
1
 40
1
 10
61.354551
 20
40.645950
 30
0.0
 10
61.303071
 20
40.465320
 30
0.0
 10
61.127706
 20
40.169760
 30
0.0
 10
60.964854
 20
39.989130
 30
0.0
  0
SPLINE
  5
159
100
AcDbEntity
  8
Layer_1
 62
7
100
AcDbSpline
 70
8
 71
3
 72
8
 73
4
 74
0
 40
0
 40
0
 40
0
 40
0
 40
1
 40
1
 40
1
 40
1
 10
60.964854
 20
39.989130
 30
0.0
 10
60.802002
 20
39.808510
 30
0.0
 10
60.633798
 20
39.429820
 30
0.0
 10
60.591068
 20
39.147610
 30
0.0
  0
SPLINE
  5
15a
100
AcDbEntity
  8
Layer_1
 62
7
100
AcDbSpline
 70
8
 71
3
 72
8
 73
4
 74
0
 40
0
 40
0
 40
0
 40
0
 40
1
 40
1
 40
1
 40
1
 10
60.591068
 20
39.147610
 30
0.0
 10
60.547608
 20
38.860550
 30
0.0
 10
60.366763
 20
38.481210
 30
0.0
 10
60.180585
 20
38.286560
 30
0.0
  0
SPLINE
  5
15b
100
AcDbEntity
  8
Layer_1
 62
7
100
AcDbSpline
 70
8
 71
3
 72
8
 73
4
 74
0
 40
0
 40
0
 40
0
 40
0
 40
1
 40
1
 40
1
 40
1
 10
60.180585
 20
38.286560
 30
0.0
 10
59.969292
 20
38.065660
 30
0.0
 10
59.847793
 20
37.788650
 30
0.0
 10
59.847793
 20
37.527840
 30
0.0
  0
SPLINE
  5
15c
100
AcDbEntity
  8
Layer_1
 62
7
100
AcDbSpline
 70
8
 71
3
 72
8
 73
4
 74
0
 40
0
 40
0
 40
0
 40
0
 40
1
 40
1
 40
1
 40
1
 10
59.847793
 20
37.527840
 30
0.0
 10
59.847793
 20
37.224050
 30
0.0
 10
59.748273
 20
37.046060
 30
0.0
 10
59.465739
 20
36.844550
 30
0.0
  0
SPLINE
  5
15d
100
AcDbEntity
  8
Layer_1
 62
7
100
AcDbSpline
 70
8
 71
3
 72
8
 73
4
 74
0
 40
0
 40
0
 40
0
 40
0
 40
1
 40
1
 40
1
 40
1
 10
59.465739
 20
36.844550
 30
0.0
 10
59.194731
 20
36.651250
 30
0.0
 10
59.057565
 20
36.417190
 30
0.0
 10
58.993818
 20
36.039260
 30
0.0
  0
SPLINE
  5
15e
100
AcDbEntity
  8
Layer_1
 62
7
100
AcDbSpline
 70
8
 71
3
 72
8
 73
4
 74
0
 40
0
 40
0
 40
0
 40
0
 40
1
 40
1
 40
1
 40
1
 10
58.993818
 20
36.039260
 30
0.0
 10
58.929578
 20
35.658390
 30
0.0
 10
58.821132
 20
35.474920
 30
0.0
 10
58.613511
 20
35.395860
 30
0.0
  0
SPLINE
  5
15f
100
AcDbEntity
  8
Layer_1
 62
7
100
AcDbSpline
 70
8
 71
3
 72
8
 73
4
 74
0
 40
0
 40
0
 40
0
 40
0
 40
1
 40
1
 40
1
 40
1
 10
58.613511
 20
35.395860
 30
0.0
 10
58.431215
 20
35.326460
 30
0.0
 10
58.265560
 20
35.092970
 30
0.0
 10
58.168607
 20
34.768850
 30
0.0
  0
SPLINE
  5
160
100
AcDbEntity
  8
Layer_1
 62
7
100
AcDbSpline
 70
8
 71
3
 72
8
 73
4
 74
0
 40
0
 40
0
 40
0
 40
0
 40
1
 40
1
 40
1
 40
1
 10
58.168607
 20
34.768850
 30
0.0
 10
58.069267
 20
34.436730
 30
0.0
 10
57.897996
 20
34.199430
 30
0.0
 10
57.688683
 20
34.103910
 30
0.0
  0
SPLINE
  5
161
100
AcDbEntity
  8
Layer_1
 62
7
100
AcDbSpline
 70
8
 71
3
 72
8
 73
4
 74
0
 40
0
 40
0
 40
0
 40
0
 40
1
 40
1
 40
1
 40
1
 10
57.688683
 20
34.103910
 30
0.0
 10
57.337232
 20
33.943510
 30
0.0
 10
57.110868
 20
33.351240
 30
0.0
 10
57.320691
 20
33.141070
 30
0.0
  0
SPLINE
  5
162
100
AcDbEntity
  8
Layer_1
 62
7
100
AcDbSpline
 70
8
 71
3
 72
8
 73
4
 74
0
 40
0
 40
0
 40
0
 40
0
 40
1
 40
1
 40
1
 40
1
 10
57.320691
 20
33.141070
 30
0.0
 10
57.493337
 20
32.968150
 30
0.0
 10
58.994167
 20
33.359330
 30
0.0
 10
62.242952
 20
34.424030
 30
0.0
  0
SPLINE
  5
163
100
AcDbEntity
  8
Layer_1
 62
7
100
AcDbSpline
 70
8
 71
3
 72
8
 73
4
 74
0
 40
0
 40
0
 40
0
 40
0
 40
1
 40
1
 40
1
 40
1
 10
62.242952
 20
34.424030
 30
0.0
 10
63.668487
 20
34.891210
 30
0.0
 10
64.893077
 20
35.237390
 30
0.0
 10
64.964264
 20
35.193320
 30
0.0
  0
SPLINE
  5
164
100
AcDbEntity
  8
Layer_1
 62
7
100
AcDbSpline
 70
8
 71
3
 72
8
 73
4
 74
0
 40
0
 40
0
 40
0
 40
0
 40
1
 40
1
 40
1
 40
1
 10
64.964264
 20
35.193320
 30
0.0
 10
65.035454
 20
35.149220
 30
0.0
 10
65.093695
 20
35.009950
 30
0.0
 10
65.093695
 20
34.883750
 30
0.0
  0
SPLINE
  5
165
100
AcDbEntity
  8
Layer_1
 62
7
100
AcDbSpline
 70
8
 71
3
 72
8
 73
4
 74
0
 40
0
 40
0
 40
0
 40
0
 40
1
 40
1
 40
1
 40
1
 10
65.093695
 20
34.883750
 30
0.0
 10
65.093695
 20
34.757550
 30
0.0
 10
65.234849
 20
34.462660
 30
0.0
 10
65.407372
 20
34.228430
 30
0.0
  0
SPLINE
  5
166
100
AcDbEntity
  8
Layer_1
 62
7
100
AcDbSpline
 70
8
 71
3
 72
8
 73
4
 74
0
 40
0
 40
0
 40
0
 40
0
 40
1
 40
1
 40
1
 40
1
 10
65.407372
 20
34.228430
 30
0.0
 10
65.681594
 20
33.856140
 30
0.0
 10
65.703650
 20
33.745780
 30
0.0
 10
65.582722
 20
33.351120
 30
0.0
  0
SPLINE
  5
167
100
AcDbEntity
  8
Layer_1
 62
7
100
AcDbSpline
 70
8
 71
3
 72
8
 73
4
 74
0
 40
0
 40
0
 40
0
 40
0
 40
1
 40
1
 40
1
 40
1
 10
65.582722
 20
33.351120
 30
0.0
 10
65.457222
 20
32.941530
 30
0.0
 10
65.476786
 20
32.869590
 30
0.0
 10
65.793634
 20
32.575460
 30
0.0
  0
SPLINE
  5
168
100
AcDbEntity
  8
Layer_1
 62
7
100
AcDbSpline
 70
8
 71
3
 72
8
 73
4
 74
0
 40
0
 40
0
 40
0
 40
0
 40
1
 40
1
 40
1
 40
1
 10
65.793634
 20
32.575460
 30
0.0
 10
66.224012
 20
32.175950
 30
0.0
 10
66.225800
 20
32.094870
 30
0.0
 10
65.815004
 20
31.605860
 30
0.0
  0
SPLINE
  5
169
100
AcDbEntity
  8
Layer_1
 62
7
100
AcDbSpline
 70
8
 71
3
 72
8
 73
4
 74
0
 40
0
 40
0
 40
0
 40
0
 40
1
 40
1
 40
1
 40
1
 10
65.815004
 20
31.605860
 30
0.0
 10
65.407520
 20
31.120800
 30
0.0
 10
65.408199
 20
31.087680
 30
0.0
 10
65.834764
 20
30.641710
 30
0.0
  0
LWPOLYLINE
  5
16a
100
AcDbEntity
  8
Layer_1
 62
7
100
AcDbPolyline
 90
3
 70
0
 10
42.191382
 20
28.835140
 30
0.0
 10
43.092355
 20
29.663610
 30
0.0
 10
42.741445
 20
29.965940
 30
0.0
  0
SPLINE
  5
16b
100
AcDbEntity
  8
Layer_1
 62
7
100
AcDbSpline
 70
8
 71
3
 72
8
 73
4
 74
0
 40
0
 40
0
 40
0
 40
0
 40
1
 40
1
 40
1
 40
1
 10
65.691057
 20
29.733520
 30
0.0
 10
65.313625
 20
29.315060
 30
0.0
 10
65.217833
 20
29.115950
 30
0.0
 10
65.277852
 20
28.874670
 30
0.0
  0
SPLINE
  5
16c
100
AcDbEntity
  8
Layer_1
 62
7
100
AcDbSpline
 70
8
 71
3
 72
8
 73
4
 74
0
 40
0
 40
0
 40
0
 40
0
 40
1
 40
1
 40
1
 40
1
 10
65.277852
 20
28.874670
 30
0.0
 10
65.505537
 20
27.959340
 30
0.0
 10
65.514450
 20
27.987310
 30
0.0
 10
64.863720
 20
27.575340
 30
0.0
  0
SPLINE
  5
16d
100
AcDbEntity
  8
Layer_1
 62
7
100
AcDbSpline
 70
8
 71
3
 72
8
 73
4
 74
0
 40
0
 40
0
 40
0
 40
0
 40
1
 40
1
 40
1
 40
1
 10
64.863720
 20
27.575340
 30
0.0
 10
64.304955
 20
27.221590
 30
0.0
 10
64.245570
 20
27.137820
 30
0.0
 10
64.283624
 20
26.756970
 30
0.0
  0
SPLINE
  5
16e
100
AcDbEntity
  8
Layer_1
 62
7
100
AcDbSpline
 70
8
 71
3
 72
8
 73
4
 74
0
 40
0
 40
0
 40
0
 40
0
 40
1
 40
1
 40
1
 40
1
 10
64.283624
 20
26.756970
 30
0.0
 10
64.316164
 20
26.431330
 30
0.0
 10
64.243094
 20
26.255710
 30
0.0
 10
63.969392
 20
26.001630
 30
0.0
  0
SPLINE
  5
16f
100
AcDbEntity
  8
Layer_1
 62
7
100
AcDbSpline
 70
8
 71
3
 72
8
 73
4
 74
0
 40
0
 40
0
 40
0
 40
0
 40
1
 40
1
 40
1
 40
1
 10
63.969392
 20
26.001630
 30
0.0
 10
63.773248
 20
25.819550
 30
0.0
 10
63.567248
 20
25.670580
 30
0.0
 10
63.511616
 20
25.670580
 30
0.0
  0
SPLINE
  5
170
100
AcDbEntity
  8
Layer_1
 62
7
100
AcDbSpline
 70
8
 71
3
 72
8
 73
4
 74
0
 40
0
 40
0
 40
0
 40
0
 40
1
 40
1
 40
1
 40
1
 10
63.511616
 20
25.670580
 30
0.0
 10
63.455986
 20
25.670580
 30
0.0
 10
63.307880
 20
25.401520
 30
0.0
 10
63.182496
 20
25.072670
 30
0.0
  0
SPLINE
  5
171
100
AcDbEntity
  8
Layer_1
 62
7
100
AcDbSpline
 70
8
 71
3
 72
8
 73
4
 74
0
 40
0
 40
0
 40
0
 40
0
 40
1
 40
1
 40
1
 40
1
 10
63.182496
 20
25.072670
 30
0.0
 10
63.014301
 20
24.631530
 30
0.0
 10
62.846345
 20
24.429490
 30
0.0
 10
62.541934
 20
24.302090
 30
0.0
  0
SPLINE
  5
172
100
AcDbEntity
  8
Layer_1
 62
7
100
AcDbSpline
 70
8
 71
3
 72
8
 73
4
 74
0
 40
0
 40
0
 40
0
 40
0
 40
1
 40
1
 40
1
 40
1
 10
62.541934
 20
24.302090
 30
0.0
 10
62.229961
 20
24.171520
 30
0.0
 10
62.089882
 20
23.997500
 30
0.0
 10
61.967547
 20
23.588510
 30
0.0
  0
SPLINE
  5
173
100
AcDbEntity
  8
Layer_1
 62
7
100
AcDbSpline
 70
8
 71
3
 72
8
 73
4
 74
0
 40
0
 40
0
 40
0
 40
0
 40
1
 40
1
 40
1
 40
1
 10
61.967547
 20
23.588510
 30
0.0
 10
61.783640
 20
22.973670
 30
0.0
 10
61.512882
 20
22.780590
 30
0.0
 10
60.834600
 20
22.780590
 30
0.0
  0
SPLINE
  5
174
100
AcDbEntity
  8
Layer_1
 62
7
100
AcDbSpline
 70
8
 71
3
 72
8
 73
4
 74
0
 40
0
 40
0
 40
0
 40
0
 40
1
 40
1
 40
1
 40
1
 10
60.834600
 20
22.780590
 30
0.0
 10
60.409030
 20
22.780590
 30
0.0
 10
60.320829
 20
22.714990
 30
0.0
 10
59.955941
 20
22.127040
 30
0.0
  0
SPLINE
  5
175
100
AcDbEntity
  8
Layer_1
 62
7
100
AcDbSpline
 70
8
 71
3
 72
8
 73
4
 74
0
 40
0
 40
0
 40
0
 40
0
 40
1
 40
1
 40
1
 40
1
 10
59.955941
 20
22.127040
 30
0.0
 10
59.488105
 20
21.373220
 30
0.0
 10
59.287172
 20
21.279780
 30
0.0
 10
58.397540
 20
21.402330
 30
0.0
  0
SPLINE
  5
176
100
AcDbEntity
  8
Layer_1
 62
7
100
AcDbSpline
 70
8
 71
3
 72
8
 73
4
 74
0
 40
0
 40
0
 40
0
 40
0
 40
1
 40
1
 40
1
 40
1
 10
58.397540
 20
21.402330
 30
0.0
 10
57.783544
 20
21.486930
 30
0.0
 10
57.749427
 20
21.475830
 30
0.0
 10
57.749427
 20
21.190790
 30
0.0
  0
SPLINE
  5
177
100
AcDbEntity
  8
Layer_1
 62
7
100
AcDbSpline
 70
8
 71
3
 72
8
 73
4
 74
0
 40
0
 40
0
 40
0
 40
0
 40
1
 40
1
 40
1
 40
1
 10
57.749427
 20
21.190790
 30
0.0
 10
57.749427
 20
20.816010
 30
0.0
 10
57.146237
 20
19.925020
 30
0.0
 10
56.822936
 20
19.822240
 30
0.0
  0
SPLINE
  5
178
100
AcDbEntity
  8
Layer_1
 62
7
100
AcDbSpline
 70
8
 71
3
 72
8
 73
4
 74
0
 40
0
 40
0
 40
0
 40
0
 40
1
 40
1
 40
1
 40
1
 10
56.822936
 20
19.822240
 30
0.0
 10
56.690536
 20
19.780140
 30
0.0
 10
56.401885
 20
19.839140
 30
0.0
 10
56.181489
 20
19.953270
 30
0.0
  0
SPLINE
  5
179
100
AcDbEntity
  8
Layer_1
 62
7
100
AcDbSpline
 70
8
 71
3
 72
8
 73
4
 74
0
 40
0
 40
0
 40
0
 40
0
 40
1
 40
1
 40
1
 40
1
 10
56.181489
 20
19.953270
 30
0.0
 10
55.785708
 20
20.158270
 30
0.0
 10
55.775850
 20
20.155220
 30
0.0
 10
55.381494
 20
19.705330
 30
0.0
  0
SPLINE
  5
17a
100
AcDbEntity
  8
Layer_1
 62
7
100
AcDbSpline
 70
8
 71
3
 72
8
 73
4
 74
0
 40
0
 40
0
 40
0
 40
0
 40
1
 40
1
 40
1
 40
1
 10
55.381494
 20
19.705330
 30
0.0
 10
54.939627
 20
19.201250
 30
0.0
 10
54.515157
 20
19.033470
 30
0.0
 10
53.382849
 20
18.915320
 30
0.0
  0
LWPOLYLINE
  5
17b
100
AcDbEntity
  8
Layer_1
 62
7
100
AcDbPolyline
 90
3
 70
0
 10
65.834764
 20
30.641710
 30
0.0
 10
66.182395
 20
30.278260
 30
0.0
 10
65.691057
 20
29.733520
 30
0.0
  0
SPLINE
  5
17c
100
AcDbEntity
  8
Layer_1
 62
7
100
AcDbSpline
 70
8
 71
3
 72
8
 73
4
 74
0
 40
0
 40
0
 40
0
 40
0
 40
1
 40
1
 40
1
 40
1
 10
52.445054
 20
19.264790
 30
0.0
 10
52.347274
 20
19.500620
 30
0.0
 10
52.020206
 20
20.846280
 30
0.0
 10
51.718227
 20
22.255140
 30
0.0
  0
SPLINE
  5
17d
100
AcDbEntity
  8
Layer_1
 62
7
100
AcDbSpline
 70
8
 71
3
 72
8
 73
4
 74
0
 40
0
 40
0
 40
0
 40
0
 40
1
 40
1
 40
1
 40
1
 10
51.718227
 20
22.255140
 30
0.0
 10
51.416248
 20
23.664010
 30
0.0
 10
51.121574
 20
24.866600
 30
0.0
 10
51.063396
 20
24.927560
 30
0.0
  0
SPLINE
  5
17e
100
AcDbEntity
  8
Layer_1
 62
7
100
AcDbSpline
 70
8
 71
3
 72
8
 73
4
 74
0
 40
0
 40
0
 40
0
 40
0
 40
1
 40
1
 40
1
 40
1
 10
51.063396
 20
24.927560
 30
0.0
 10
50.833486
 20
25.168470
 30
0.0
 10
50.470896
 20
24.946260
 30
0.0
 10
50.450003
 20
24.551580
 30
0.0
  0
SPLINE
  5
17f
100
AcDbEntity
  8
Layer_1
 62
7
100
AcDbSpline
 70
8
 71
3
 72
8
 73
4
 74
0
 40
0
 40
0
 40
0
 40
0
 40
1
 40
1
 40
1
 40
1
 10
50.450003
 20
24.551580
 30
0.0
 10
50.438593
 20
24.336160
 30
0.0
 10
50.423843
 20
24.095500
 30
0.0
 10
50.417213
 20
24.016790
 30
0.0
  0
SPLINE
  5
180
100
AcDbEntity
  8
Layer_1
 62
7
100
AcDbSpline
 70
8
 71
3
 72
8
 73
4
 74
0
 40
0
 40
0
 40
0
 40
0
 40
1
 40
1
 40
1
 40
1
 10
50.417213
 20
24.016790
 30
0.0
 10
50.410613
 20
23.938090
 30
0.0
 10
50.266016
 20
23.810170
 30
0.0
 10
50.095949
 20
23.732550
 30
0.0
  0
SPLINE
  5
181
100
AcDbEntity
  8
Layer_1
 62
7
100
AcDbSpline
 70
8
 71
3
 72
8
 73
4
 74
0
 40
0
 40
0
 40
0
 40
0
 40
1
 40
1
 40
1
 40
1
 10
50.095949
 20
23.732550
 30
0.0
 10
49.907010
 20
23.646350
 30
0.0
 10
49.755521
 20
23.435100
 30
0.0
 10
49.706484
 20
23.189520
 30
0.0
  0
SPLINE
  5
182
100
AcDbEntity
  8
Layer_1
 62
7
100
AcDbSpline
 70
8
 71
3
 72
8
 73
4
 74
0
 40
0
 40
0
 40
0
 40
0
 40
1
 40
1
 40
1
 40
1
 10
49.706484
 20
23.189520
 30
0.0
 10
49.648864
 20
22.900940
 30
0.0
 10
49.531361
 20
22.763750
 30
0.0
 10
49.289807
 20
22.703020
 30
0.0
  0
SPLINE
  5
183
100
AcDbEntity
  8
Layer_1
 62
7
100
AcDbSpline
 70
8
 71
3
 72
8
 73
4
 74
0
 40
0
 40
0
 40
0
 40
0
 40
1
 40
1
 40
1
 40
1
 10
49.289807
 20
22.703020
 30
0.0
 10
49.104774
 20
22.656520
 30
0.0
 10
48.865237
 20
22.447710
 30
0.0
 10
48.757502
 20
22.239040
 30
0.0
  0
SPLINE
  5
184
100
AcDbEntity
  8
Layer_1
 62
7
100
AcDbSpline
 70
8
 71
3
 72
8
 73
4
 74
0
 40
0
 40
0
 40
0
 40
0
 40
1
 40
1
 40
1
 40
1
 10
48.757502
 20
22.239040
 30
0.0
 10
48.649768
 20
22.030360
 30
0.0
 10
48.334620
 20
21.716090
 30
0.0
 10
48.057173
 20
21.540660
 30
0.0
  0
SPLINE
  5
185
100
AcDbEntity
  8
Layer_1
 62
7
100
AcDbSpline
 70
8
 71
3
 72
8
 73
4
 74
0
 40
0
 40
0
 40
0
 40
0
 40
1
 40
1
 40
1
 40
1
 10
48.057173
 20
21.540660
 30
0.0
 10
47.776992
 20
21.363490
 30
0.0
 10
47.516375
 20
21.076630
 30
0.0
 10
47.470967
 20
20.895410
 30
0.0
  0
SPLINE
  5
186
100
AcDbEntity
  8
Layer_1
 62
7
100
AcDbSpline
 70
8
 71
3
 72
8
 73
4
 74
0
 40
0
 40
0
 40
0
 40
0
 40
1
 40
1
 40
1
 40
1
 10
47.470967
 20
20.895410
 30
0.0
 10
47.425997
 20
20.715950
 30
0.0
 10
47.197306
 20
20.448820
 30
0.0
 10
46.962759
 20
20.301780
 30
0.0
  0
SPLINE
  5
187
100
AcDbEntity
  8
Layer_1
 62
7
100
AcDbSpline
 70
8
 71
3
 72
8
 73
4
 74
0
 40
0
 40
0
 40
0
 40
0
 40
1
 40
1
 40
1
 40
1
 10
46.962759
 20
20.301780
 30
0.0
 10
46.728213
 20
20.154740
 30
0.0
 10
46.375557
 20
19.829820
 30
0.0
 10
46.179081
 20
19.579750
 30
0.0
  0
SPLINE
  5
188
100
AcDbEntity
  8
Layer_1
 62
7
100
AcDbSpline
 70
8
 71
3
 72
8
 73
4
 74
0
 40
0
 40
0
 40
0
 40
0
 40
1
 40
1
 40
1
 40
1
 10
46.179081
 20
19.579750
 30
0.0
 10
45.982605
 20
19.329680
 30
0.0
 10
45.609706
 20
19.054940
 30
0.0
 10
45.350418
 20
18.969230
 30
0.0
  0
SPLINE
  5
189
100
AcDbEntity
  8
Layer_1
 62
7
100
AcDbSpline
 70
8
 71
3
 72
8
 73
4
 74
0
 40
0
 40
0
 40
0
 40
0
 40
1
 40
1
 40
1
 40
1
 10
45.350418
 20
18.969230
 30
0.0
 10
45.018220
 20
18.859420
 30
0.0
 10
44.901173
 20
18.755480
 30
0.0
 10
44.954109
 20
18.617300
 30
0.0
  0
SPLINE
  5
18a
100
AcDbEntity
  8
Layer_1
 62
7
100
AcDbSpline
 70
8
 71
3
 72
8
 73
4
 74
0
 40
0
 40
0
 40
0
 40
0
 40
1
 40
1
 40
1
 40
1
 10
44.954109
 20
18.617300
 30
0.0
 10
45.279845
 20
17.767050
 30
0.0
 10
45.022429
 20
17.328560
 30
0.0
 10
44.111925
 20
17.182730
 30
0.0
  0
SPLINE
  5
18b
100
AcDbEntity
  8
Layer_1
 62
7
100
AcDbSpline
 70
8
 71
3
 72
8
 73
4
 74
0
 40
0
 40
0
 40
0
 40
0
 40
1
 40
1
 40
1
 40
1
 10
44.111925
 20
17.182730
 30
0.0
 10
43.636003
 20
17.106530
 30
0.0
 10
43.585490
 20
17.061380
 30
0.0
 10
43.585490
 20
16.712480
 30
0.0
  0
SPLINE
  5
18c
100
AcDbEntity
  8
Layer_1
 62
7
100
AcDbSpline
 70
8
 71
3
 72
8
 73
4
 74
0
 40
0
 40
0
 40
0
 40
0
 40
1
 40
1
 40
1
 40
1
 10
43.585490
 20
16.712480
 30
0.0
 10
43.585490
 20
16.120780
 30
0.0
 10
43.368817
 20
15.840790
 30
0.0
 10
42.790136
 20
15.684710
 30
0.0
  0
SPLINE
  5
18d
100
AcDbEntity
  8
Layer_1
 62
7
100
AcDbSpline
 70
8
 71
3
 72
8
 73
4
 74
0
 40
0
 40
0
 40
0
 40
0
 40
1
 40
1
 40
1
 40
1
 10
42.790136
 20
15.684710
 30
0.0
 10
42.499409
 20
15.606310
 30
0.0
 10
41.968858
 20
15.320260
 30
0.0
 10
41.611133
 20
15.049060
 30
0.0
  0
SPLINE
  5
18e
100
AcDbEntity
  8
Layer_1
 62
7
100
AcDbSpline
 70
8
 71
3
 72
8
 73
4
 74
0
 40
0
 40
0
 40
0
 40
0
 40
1
 40
1
 40
1
 40
1
 10
41.611133
 20
15.049060
 30
0.0
 10
40.876522
 20
14.492140
 30
0.0
 10
39.774498
 20
14.047670
 30
0.0
 10
39.382721
 20
14.150290
 30
0.0
  0
SPLINE
  5
18f
100
AcDbEntity
  8
Layer_1
 62
7
100
AcDbSpline
 70
8
 71
3
 72
8
 73
4
 74
0
 40
0
 40
0
 40
0
 40
0
 40
1
 40
1
 40
1
 40
1
 10
39.382721
 20
14.150290
 30
0.0
 10
39.191510
 20
14.200390
 30
0.0
 10
39.070316
 20
14.120190
 30
0.0
 10
38.931836
 20
13.851950
 30
0.0
  0
SPLINE
  5
190
100
AcDbEntity
  8
Layer_1
 62
7
100
AcDbSpline
 70
8
 71
3
 72
8
 73
4
 74
0
 40
0
 40
0
 40
0
 40
0
 40
1
 40
1
 40
1
 40
1
 10
38.931836
 20
13.851950
 30
0.0
 10
38.670529
 20
13.345810
 30
0.0
 10
38.030030
 20
12.832560
 30
0.0
 10
37.464530
 20
12.676160
 30
0.0
  0
SPLINE
  5
191
100
AcDbEntity
  8
Layer_1
 62
7
100
AcDbSpline
 70
8
 71
3
 72
8
 73
4
 74
0
 40
0
 40
0
 40
0
 40
0
 40
1
 40
1
 40
1
 40
1
 10
37.464530
 20
12.676160
 30
0.0
 10
37.204121
 20
12.604160
 30
0.0
 10
36.866610
 20
12.431810
 30
0.0
 10
36.714504
 20
12.293210
 30
0.0
  0
SPLINE
  5
192
100
AcDbEntity
  8
Layer_1
 62
7
100
AcDbSpline
 70
8
 71
3
 72
8
 73
4
 74
0
 40
0
 40
0
 40
0
 40
0
 40
1
 40
1
 40
1
 40
1
 10
36.714504
 20
12.293210
 30
0.0
 10
36.562399
 20
12.154600
 30
0.0
 10
36.211575
 20
11.968550
 30
0.0
 10
35.934897
 20
11.879750
 30
0.0
  0
SPLINE
  5
193
100
AcDbEntity
  8
Layer_1
 62
7
100
AcDbSpline
 70
8
 71
3
 72
8
 73
4
 74
0
 40
0
 40
0
 40
0
 40
0
 40
1
 40
1
 40
1
 40
1
 10
35.934897
 20
11.879750
 30
0.0
 10
35.658219
 20
11.790950
 30
0.0
 10
35.232350
 20
11.542850
 30
0.0
 10
34.988523
 20
11.328420
 30
0.0
  0
SPLINE
  5
194
100
AcDbEntity
  8
Layer_1
 62
7
100
AcDbSpline
 70
8
 71
3
 72
8
 73
4
 74
0
 40
0
 40
0
 40
0
 40
0
 40
1
 40
1
 40
1
 40
1
 10
34.988523
 20
11.328420
 30
0.0
 10
34.744696
 20
11.113980
 30
0.0
 10
34.255106
 20
10.832330
 30
0.0
 10
33.900543
 20
10.702520
 30
0.0
  0
SPLINE
  5
195
100
AcDbEntity
  8
Layer_1
 62
7
100
AcDbSpline
 70
8
 71
3
 72
8
 73
4
 74
0
 40
0
 40
0
 40
0
 40
0
 40
1
 40
1
 40
1
 40
1
 10
33.900543
 20
10.702520
 30
0.0
 10
33.545980
 20
10.572710
 30
0.0
 10
32.986110
 20
10.280590
 30
0.0
 10
32.656387
 20
10.053360
 30
0.0
  0
SPLINE
  5
196
100
AcDbEntity
  8
Layer_1
 62
7
100
AcDbSpline
 70
8
 71
3
 72
8
 73
4
 74
0
 40
0
 40
0
 40
0
 40
0
 40
1
 40
1
 40
1
 40
1
 10
32.656387
 20
10.053360
 30
0.0
 10
32.326664
 20
9.826130
 30
0.0
 10
31.881607
 20
9.605100
 30
0.0
 10
31.667371
 20
9.562190
 30
0.0
  0
SPLINE
  5
197
100
AcDbEntity
  8
Layer_1
 62
7
100
AcDbSpline
 70
8
 71
3
 72
8
 73
4
 74
0
 40
0
 40
0
 40
0
 40
0
 40
1
 40
1
 40
1
 40
1
 10
31.667371
 20
9.562190
 30
0.0
 10
31.453134
 20
9.519290
 30
0.0
 10
30.936509
 20
9.195070
 30
0.0
 10
30.519314
 20
8.841730
 30
0.0
  0
SPLINE
  5
198
100
AcDbEntity
  8
Layer_1
 62
7
100
AcDbSpline
 70
8
 71
3
 72
8
 73
4
 74
0
 40
0
 40
0
 40
0
 40
0
 40
1
 40
1
 40
1
 40
1
 10
30.519314
 20
8.841730
 30
0.0
 10
29.654171
 20
8.109030
 30
0.0
 10
29.363233
 20
8.046160
 30
0.0
 10
29.193790
 20
8.555320
 30
0.0
  0
SPLINE
  5
199
100
AcDbEntity
  8
Layer_1
 62
7
100
AcDbSpline
 70
8
 71
3
 72
8
 73
4
 74
0
 40
0
 40
0
 40
0
 40
0
 40
1
 40
1
 40
1
 40
1
 10
29.193790
 20
8.555320
 30
0.0
 10
29.076117
 20
8.908920
 30
0.0
 10
29.071426
 20
8.905590
 30
0.0
 10
28.500733
 20
8.062710
 30
0.0
  0
SPLINE
  5
19a
100
AcDbEntity
  8
Layer_1
 62
7
100
AcDbSpline
 70
8
 71
3
 72
8
 73
4
 74
0
 40
0
 40
0
 40
0
 40
0
 40
1
 40
1
 40
1
 40
1
 10
28.500733
 20
8.062710
 30
0.0
 10
27.886727
 20
7.155860
 30
0.0
 10
26.836232
 20
5.966140
 30
0.0
 10
26.649511
 20
5.966140
 30
0.0
  0
SPLINE
  5
19b
100
AcDbEntity
  8
Layer_1
 62
7
100
AcDbSpline
 70
8
 71
3
 72
8
 73
4
 74
0
 40
0
 40
0
 40
0
 40
0
 40
1
 40
1
 40
1
 40
1
 10
26.649511
 20
5.966140
 30
0.0
 10
26.587251
 20
5.966140
 30
0.0
 10
26.536310
 20
6.169100
 30
0.0
 10
26.536310
 20
6.417170
 30
0.0
  0
LWPOLYLINE
  5
19c
100
AcDbEntity
  8
Layer_1
 62
7
100
AcDbPolyline
 90
3
 70
0
 10
53.382849
 20
18.915320
 30
0.0
 10
52.622828
 20
18.836020
 30
0.0
 10
52.445054
 20
19.264790
 30
0.0
  0
SPLINE
  5
19d
100
AcDbEntity
  8
Layer_1
 62
7
100
AcDbSpline
 70
8
 71
3
 72
8
 73
4
 74
0
 40
0
 40
0
 40
0
 40
0
 40
1
 40
1
 40
1
 40
1
 10
28.277642
 20
8.062990
 30
0.0
 10
28.654338
 20
8.595710
 30
0.0
 10
29.036776
 20
9.056300
 30
0.0
 10
29.127503
 20
9.086520
 30
0.0
  0
SPLINE
  5
19e
100
AcDbEntity
  8
Layer_1
 62
7
100
AcDbSpline
 70
8
 71
3
 72
8
 73
4
 74
0
 40
0
 40
0
 40
0
 40
0
 40
1
 40
1
 40
1
 40
1
 10
29.127503
 20
9.086520
 30
0.0
 10
29.226773
 20
9.119620
 30
0.0
 10
29.324694
 20
8.980060
 30
0.0
 10
29.373404
 20
8.736100
 30
0.0
  0
SPLINE
  5
19f
100
AcDbEntity
  8
Layer_1
 62
7
100
AcDbSpline
 70
8
 71
3
 72
8
 73
4
 74
0
 40
0
 40
0
 40
0
 40
0
 40
1
 40
1
 40
1
 40
1
 10
29.373404
 20
8.736100
 30
0.0
 10
29.417924
 20
8.513150
 30
0.0
 10
29.493787
 20
8.330730
 30
0.0
 10
29.541991
 20
8.330730
 30
0.0
  0
SPLINE
  5
1a0
100
AcDbEntity
  8
Layer_1
 62
7
100
AcDbSpline
 70
8
 71
3
 72
8
 73
4
 74
0
 40
0
 40
0
 40
0
 40
0
 40
1
 40
1
 40
1
 40
1
 10
29.541991
 20
8.330730
 30
0.0
 10
29.590191
 20
8.330730
 30
0.0
 10
29.973014
 20
8.621540
 30
0.0
 10
30.392699
 20
8.976980
 30
0.0
  0
SPLINE
  5
1a1
100
AcDbEntity
  8
Layer_1
 62
7
100
AcDbSpline
 70
8
 71
3
 72
8
 73
4
 74
0
 40
0
 40
0
 40
0
 40
0
 40
1
 40
1
 40
1
 40
1
 10
30.392699
 20
8.976980
 30
0.0
 10
30.812384
 20
9.332420
 30
0.0
 10
31.311469
 20
9.660590
 30
0.0
 10
31.501777
 20
9.706240
 30
0.0
  0
SPLINE
  5
1a2
100
AcDbEntity
  8
Layer_1
 62
7
100
AcDbSpline
 70
8
 71
3
 72
8
 73
4
 74
0
 40
0
 40
0
 40
0
 40
0
 40
1
 40
1
 40
1
 40
1
 10
31.501777
 20
9.706240
 30
0.0
 10
31.692084
 20
9.751940
 30
0.0
 10
32.183359
 20
9.994390
 30
0.0
 10
32.593499
 20
10.245120
 30
0.0
  0
SPLINE
  5
1a3
100
AcDbEntity
  8
Layer_1
 62
7
100
AcDbSpline
 70
8
 71
3
 72
8
 73
4
 74
0
 40
0
 40
0
 40
0
 40
0
 40
1
 40
1
 40
1
 40
1
 10
32.593499
 20
10.245120
 30
0.0
 10
33.003638
 20
10.495840
 30
0.0
 10
33.582985
 20
10.787130
 30
0.0
 10
33.880936
 20
10.892430
 30
0.0
  0
SPLINE
  5
1a4
100
AcDbEntity
  8
Layer_1
 62
7
100
AcDbSpline
 70
8
 71
3
 72
8
 73
4
 74
0
 40
0
 40
0
 40
0
 40
0
 40
1
 40
1
 40
1
 40
1
 10
33.880936
 20
10.892430
 30
0.0
 10
34.178886
 20
10.997730
 30
0.0
 10
34.661714
 20
11.288830
 30
0.0
 10
34.953884
 20
11.539330
 30
0.0
  0
SPLINE
  5
1a5
100
AcDbEntity
  8
Layer_1
 62
7
100
AcDbSpline
 70
8
 71
3
 72
8
 73
4
 74
0
 40
0
 40
0
 40
0
 40
0
 40
1
 40
1
 40
1
 40
1
 10
34.953884
 20
11.539330
 30
0.0
 10
35.246056
 20
11.789830
 30
0.0
 10
35.669988
 20
12.033890
 30
0.0
 10
35.895955
 20
12.081700
 30
0.0
  0
SPLINE
  5
1a6
100
AcDbEntity
  8
Layer_1
 62
7
100
AcDbSpline
 70
8
 71
3
 72
8
 73
4
 74
0
 40
0
 40
0
 40
0
 40
0
 40
1
 40
1
 40
1
 40
1
 10
35.895955
 20
12.081700
 30
0.0
 10
36.121924
 20
12.129500
 30
0.0
 10
36.426519
 20
12.278460
 30
0.0
 10
36.572835
 20
12.412720
 30
0.0
  0
SPLINE
  5
1a7
100
AcDbEntity
  8
Layer_1
 62
7
100
AcDbSpline
 70
8
 71
3
 72
8
 73
4
 74
0
 40
0
 40
0
 40
0
 40
0
 40
1
 40
1
 40
1
 40
1
 10
36.572835
 20
12.412720
 30
0.0
 10
36.719151
 20
12.546970
 30
0.0
 10
37.101078
 20
12.749490
 30
0.0
 10
37.421560
 20
12.862750
 30
0.0
  0
SPLINE
  5
1a8
100
AcDbEntity
  8
Layer_1
 62
7
100
AcDbSpline
 70
8
 71
3
 72
8
 73
4
 74
0
 40
0
 40
0
 40
0
 40
0
 40
1
 40
1
 40
1
 40
1
 10
37.421560
 20
12.862750
 30
0.0
 10
38.073591
 20
13.093170
 30
0.0
 10
38.534799
 20
13.473770
 30
0.0
 10
38.814438
 20
14.012170
 30
0.0
  0
SPLINE
  5
1a9
100
AcDbEntity
  8
Layer_1
 62
7
100
AcDbSpline
 70
8
 71
3
 72
8
 73
4
 74
0
 40
0
 40
0
 40
0
 40
0
 40
1
 40
1
 40
1
 40
1
 10
38.814438
 20
14.012170
 30
0.0
 10
38.971673
 20
14.314900
 30
0.0
 10
39.087204
 20
14.373420
 30
0.0
 10
39.527648
 20
14.373420
 30
0.0
  0
SPLINE
  5
1aa
100
AcDbEntity
  8
Layer_1
 62
7
100
AcDbSpline
 70
8
 71
3
 72
8
 73
4
 74
0
 40
0
 40
0
 40
0
 40
0
 40
1
 40
1
 40
1
 40
1
 10
39.527648
 20
14.373420
 30
0.0
 10
40.112644
 20
14.373420
 30
0.0
 10
41.020144
 20
14.787770
 30
0.0
 10
41.800249
 20
15.411060
 30
0.0
  0
SPLINE
  5
1ab
100
AcDbEntity
  8
Layer_1
 62
7
100
AcDbSpline
 70
8
 71
3
 72
8
 73
4
 74
0
 40
0
 40
0
 40
0
 40
0
 40
1
 40
1
 40
1
 40
1
 10
41.800249
 20
15.411060
 30
0.0
 10
42.080659
 20
15.635100
 30
0.0
 10
42.423884
 20
15.818410
 30
0.0
 10
42.562970
 20
15.818410
 30
0.0
  0
SPLINE
  5
1ac
100
AcDbEntity
  8
Layer_1
 62
7
100
AcDbSpline
 70
8
 71
3
 72
8
 73
4
 74
0
 40
0
 40
0
 40
0
 40
0
 40
1
 40
1
 40
1
 40
1
 10
42.562970
 20
15.818410
 30
0.0
 10
43.027461
 20
15.818410
 30
0.0
 10
43.323200
 20
16.071540
 30
0.0
 10
43.323200
 20
16.469100
 30
0.0
  0
SPLINE
  5
1ad
100
AcDbEntity
  8
Layer_1
 62
7
100
AcDbSpline
 70
8
 71
3
 72
8
 73
4
 74
0
 40
0
 40
0
 40
0
 40
0
 40
1
 40
1
 40
1
 40
1
 10
43.323200
 20
16.469100
 30
0.0
 10
43.323200
 20
17.077150
 30
0.0
 10
43.449539
 20
17.250810
 30
0.0
 10
43.958813
 20
17.342800
 30
0.0
  0
SPLINE
  5
1ae
100
AcDbEntity
  8
Layer_1
 62
7
100
AcDbSpline
 70
8
 71
3
 72
8
 73
4
 74
0
 40
0
 40
0
 40
0
 40
0
 40
1
 40
1
 40
1
 40
1
 10
43.958813
 20
17.342800
 30
0.0
 10
44.840001
 20
17.501970
 30
0.0
 10
44.929334
 20
17.601050
 30
0.0
 10
44.831835
 20
18.311120
 30
0.0
  0
LWPOLYLINE
  5
1af
100
AcDbEntity
  8
Layer_1
 62
7
100
AcDbPolyline
 90
1
 70
1
 10
26.536310
 20
6.417170
 30
0.0
  0
SPLINE
  5
1b0
100
AcDbEntity
  8
Layer_1
 62
7
100
AcDbSpline
 70
8
 71
3
 72
8
 73
4
 74
0
 40
0
 40
0
 40
0
 40
0
 40
1
 40
1
 40
1
 40
1
 10
45.217832
 20
19.100170
 30
0.0
 10
45.477915
 20
19.186170
 30
0.0
 10
45.851462
 20
19.461090
 30
0.0
 10
46.047938
 20
19.711160
 30
0.0
  0
SPLINE
  5
1b1
100
AcDbEntity
  8
Layer_1
 62
7
100
AcDbSpline
 70
8
 71
3
 72
8
 73
4
 74
0
 40
0
 40
0
 40
0
 40
0
 40
1
 40
1
 40
1
 40
1
 10
46.047938
 20
19.711160
 30
0.0
 10
46.244414
 20
19.961240
 30
0.0
 10
46.597070
 20
20.286150
 30
0.0
 10
46.831617
 20
20.433190
 30
0.0
  0
SPLINE
  5
1b2
100
AcDbEntity
  8
Layer_1
 62
7
100
AcDbSpline
 70
8
 71
3
 72
8
 73
4
 74
0
 40
0
 40
0
 40
0
 40
0
 40
1
 40
1
 40
1
 40
1
 10
46.831617
 20
20.433190
 30
0.0
 10
47.066164
 20
20.580230
 30
0.0
 10
47.294858
 20
20.847360
 30
0.0
 10
47.339824
 20
21.026820
 30
0.0
  0
SPLINE
  5
1b3
100
AcDbEntity
  8
Layer_1
 62
7
100
AcDbSpline
 70
8
 71
3
 72
8
 73
4
 74
0
 40
0
 40
0
 40
0
 40
0
 40
1
 40
1
 40
1
 40
1
 10
47.339824
 20
21.026820
 30
0.0
 10
47.385234
 20
21.208040
 30
0.0
 10
47.645849
 20
21.494910
 30
0.0
 10
47.926030
 20
21.672070
 30
0.0
  0
SPLINE
  5
1b4
100
AcDbEntity
  8
Layer_1
 62
7
100
AcDbSpline
 70
8
 71
3
 72
8
 73
4
 74
0
 40
0
 40
0
 40
0
 40
0
 40
1
 40
1
 40
1
 40
1
 10
47.926030
 20
21.672070
 30
0.0
 10
48.203478
 20
21.847500
 30
0.0
 10
48.521760
 20
22.167840
 30
0.0
 10
48.633323
 20
22.383940
 30
0.0
  0
SPLINE
  5
1b5
100
AcDbEntity
  8
Layer_1
 62
7
100
AcDbSpline
 70
8
 71
3
 72
8
 73
4
 74
0
 40
0
 40
0
 40
0
 40
0
 40
1
 40
1
 40
1
 40
1
 10
48.633323
 20
22.383940
 30
0.0
 10
48.744888
 20
22.600030
 30
0.0
 10
48.971440
 20
22.810840
 30
0.0
 10
49.136774
 20
22.852410
 30
0.0
  0
SPLINE
  5
1b6
100
AcDbEntity
  8
Layer_1
 62
7
100
AcDbSpline
 70
8
 71
3
 72
8
 73
4
 74
0
 40
0
 40
0
 40
0
 40
0
 40
1
 40
1
 40
1
 40
1
 10
49.136774
 20
22.852410
 30
0.0
 10
49.330461
 20
22.901110
 30
0.0
 10
49.481212
 20
23.076990
 30
0.0
 10
49.560618
 20
23.346920
 30
0.0
  0
SPLINE
  5
1b7
100
AcDbEntity
  8
Layer_1
 62
7
100
AcDbSpline
 70
8
 71
3
 72
8
 73
4
 74
0
 40
0
 40
0
 40
0
 40
0
 40
1
 40
1
 40
1
 40
1
 10
49.560618
 20
23.346920
 30
0.0
 10
49.628398
 20
23.577340
 30
0.0
 10
49.816642
 20
23.824220
 30
0.0
 10
49.978938
 20
23.895540
 30
0.0
  0
SPLINE
  5
1b8
100
AcDbEntity
  8
Layer_1
 62
7
100
AcDbSpline
 70
8
 71
3
 72
8
 73
4
 74
0
 40
0
 40
0
 40
0
 40
0
 40
1
 40
1
 40
1
 40
1
 10
49.978938
 20
23.895540
 30
0.0
 10
50.210224
 20
23.997180
 30
0.0
 10
50.274019
 20
24.132780
 30
0.0
 10
50.274019
 20
24.522760
 30
0.0
  0
SPLINE
  5
1b9
100
AcDbEntity
  8
Layer_1
 62
7
100
AcDbSpline
 70
8
 71
3
 72
8
 73
4
 74
0
 40
0
 40
0
 40
0
 40
0
 40
1
 40
1
 40
1
 40
1
 10
50.274019
 20
24.522760
 30
0.0
 10
50.274019
 20
24.941210
 30
0.0
 10
50.329759
 20
25.041540
 30
0.0
 10
50.624602
 20
25.153830
 30
0.0
  0
SPLINE
  5
1ba
100
AcDbEntity
  8
Layer_1
 62
7
100
AcDbSpline
 70
8
 71
3
 72
8
 73
4
 74
0
 40
0
 40
0
 40
0
 40
0
 40
1
 40
1
 40
1
 40
1
 10
50.624602
 20
25.153830
 30
0.0
 10
50.886679
 20
25.253630
 30
0.0
 10
51.019355
 20
25.243130
 30
0.0
 10
51.150149
 20
25.112030
 30
0.0
  0
SPLINE
  5
1bb
100
AcDbEntity
  8
Layer_1
 62
7
100
AcDbSpline
 70
8
 71
3
 72
8
 73
4
 74
0
 40
0
 40
0
 40
0
 40
0
 40
1
 40
1
 40
1
 40
1
 10
51.150149
 20
25.112030
 30
0.0
 10
51.246379
 20
25.015630
 30
0.0
 10
51.590054
 20
23.709220
 30
0.0
 10
51.913867
 20
22.208870
 30
0.0
  0
SPLINE
  5
1bc
100
AcDbEntity
  8
Layer_1
 62
7
100
AcDbSpline
 70
8
 71
3
 72
8
 73
4
 74
0
 40
0
 40
0
 40
0
 40
0
 40
1
 40
1
 40
1
 40
1
 10
51.913867
 20
22.208870
 30
0.0
 10
52.237680
 20
20.708510
 30
0.0
 10
52.558599
 20
19.376180
 30
0.0
 10
52.627020
 20
19.248120
 30
0.0
  0
SPLINE
  5
1bd
100
AcDbEntity
  8
Layer_1
 62
7
100
AcDbSpline
 70
8
 71
3
 72
8
 73
4
 74
0
 40
0
 40
0
 40
0
 40
0
 40
1
 40
1
 40
1
 40
1
 10
52.627020
 20
19.248120
 30
0.0
 10
52.741353
 20
19.034140
 30
0.0
 10
52.833773
 20
19.028230
 30
0.0
 10
53.768846
 20
19.175220
 30
0.0
  0
SPLINE
  5
1be
100
AcDbEntity
  8
Layer_1
 62
7
100
AcDbSpline
 70
8
 71
3
 72
8
 73
4
 74
0
 40
0
 40
0
 40
0
 40
0
 40
1
 40
1
 40
1
 40
1
 10
53.768846
 20
19.175220
 30
0.0
 10
54.627761
 20
19.310180
 30
0.0
 10
54.840876
 20
19.396300
 30
0.0
 10
55.136763
 20
19.728000
 30
0.0
  0
SPLINE
  5
1bf
100
AcDbEntity
  8
Layer_1
 62
7
100
AcDbSpline
 70
8
 71
3
 72
8
 73
4
 74
0
 40
0
 40
0
 40
0
 40
0
 40
1
 40
1
 40
1
 40
1
 10
55.136763
 20
19.728000
 30
0.0
 10
55.329534
 20
19.944100
 30
0.0
 10
55.511960
 20
20.195150
 30
0.0
 10
55.542155
 20
20.285880
 30
0.0
  0
SPLINE
  5
1c0
100
AcDbEntity
  8
Layer_1
 62
7
100
AcDbSpline
 70
8
 71
3
 72
8
 73
4
 74
0
 40
0
 40
0
 40
0
 40
0
 40
1
 40
1
 40
1
 40
1
 10
55.542155
 20
20.285880
 30
0.0
 10
55.584235
 20
20.412310
 30
0.0
 10
55.693726
 20
20.400760
 30
0.0
 10
56.010990
 20
20.236380
 30
0.0
  0
SPLINE
  5
1c1
100
AcDbEntity
  8
Layer_1
 62
7
100
AcDbSpline
 70
8
 71
3
 72
8
 73
4
 74
0
 40
0
 40
0
 40
0
 40
0
 40
1
 40
1
 40
1
 40
1
 10
56.010990
 20
20.236380
 30
0.0
 10
56.238656
 20
20.118460
 30
0.0
 10
56.534793
 20
20.021970
 30
0.0
 10
56.669073
 20
20.021970
 30
0.0
  0
SPLINE
  5
1c2
100
AcDbEntity
  8
Layer_1
 62
7
100
AcDbSpline
 70
8
 71
3
 72
8
 73
4
 74
0
 40
0
 40
0
 40
0
 40
0
 40
1
 40
1
 40
1
 40
1
 10
56.669073
 20
20.021970
 30
0.0
 10
56.969862
 20
20.021970
 30
0.0
 10
57.465831
 20
20.670620
 30
0.0
 10
57.572140
 20
21.203040
 30
0.0
  0
SPLINE
  5
1c3
100
AcDbEntity
  8
Layer_1
 62
7
100
AcDbSpline
 70
8
 71
3
 72
8
 73
4
 74
0
 40
0
 40
0
 40
0
 40
0
 40
1
 40
1
 40
1
 40
1
 10
57.572140
 20
21.203040
 30
0.0
 10
57.650670
 20
21.596350
 30
0.0
 10
57.655570
 20
21.598330
 30
0.0
 10
58.549340
 20
21.598330
 30
0.0
  0
SPLINE
  5
1c4
100
AcDbEntity
  8
Layer_1
 62
7
100
AcDbSpline
 70
8
 71
3
 72
8
 73
4
 74
0
 40
0
 40
0
 40
0
 40
0
 40
1
 40
1
 40
1
 40
1
 10
58.549340
 20
21.598330
 30
0.0
 10
59.431054
 20
21.598330
 30
0.0
 10
59.451591
 20
21.606330
 30
0.0
 10
59.663516
 20
22.025260
 30
0.0
  0
SPLINE
  5
1c5
100
AcDbEntity
  8
Layer_1
 62
7
100
AcDbSpline
 70
8
 71
3
 72
8
 73
4
 74
0
 40
0
 40
0
 40
0
 40
0
 40
1
 40
1
 40
1
 40
1
 10
59.663516
 20
22.025260
 30
0.0
 10
60.020034
 20
22.730240
 30
0.0
 10
60.244969
 20
22.911960
 30
0.0
 10
60.761083
 20
22.911960
 30
0.0
  0
SPLINE
  5
1c6
100
AcDbEntity
  8
Layer_1
 62
7
100
AcDbSpline
 70
8
 71
3
 72
8
 73
4
 74
0
 40
0
 40
0
 40
0
 40
0
 40
1
 40
1
 40
1
 40
1
 10
60.761083
 20
22.911960
 30
0.0
 10
61.377074
 20
22.911960
 30
0.0
 10
61.634351
 20
23.114970
 30
0.0
 10
61.843151
 20
23.765820
 30
0.0
  0
SPLINE
  5
1c7
100
AcDbEntity
  8
Layer_1
 62
7
100
AcDbSpline
 70
8
 71
3
 72
8
 73
4
 74
0
 40
0
 40
0
 40
0
 40
0
 40
1
 40
1
 40
1
 40
1
 10
61.843151
 20
23.765820
 30
0.0
 10
61.967759
 20
24.154220
 30
0.0
 10
62.123279
 20
24.340440
 30
0.0
 10
62.439445
 20
24.479820
 30
0.0
  0
SPLINE
  5
1c8
100
AcDbEntity
  8
Layer_1
 62
7
100
AcDbSpline
 70
8
 71
3
 72
8
 73
4
 74
0
 40
0
 40
0
 40
0
 40
0
 40
1
 40
1
 40
1
 40
1
 10
62.439445
 20
24.479820
 30
0.0
 10
62.759465
 20
24.620890
 30
0.0
 10
62.900469
 20
24.792260
 30
0.0
 10
62.999431
 20
25.160380
 30
0.0
  0
SPLINE
  5
1c9
100
AcDbEntity
  8
Layer_1
 62
7
100
AcDbSpline
 70
8
 71
3
 72
8
 73
4
 74
0
 40
0
 40
0
 40
0
 40
0
 40
1
 40
1
 40
1
 40
1
 10
62.999431
 20
25.160380
 30
0.0
 10
63.090921
 20
25.500720
 30
0.0
 10
63.270299
 20
25.738180
 30
0.0
 10
63.581332
 20
25.930730
 30
0.0
  0
SPLINE
  5
1ca
100
AcDbEntity
  8
Layer_1
 62
7
100
AcDbSpline
 70
8
 71
3
 72
8
 73
4
 74
0
 40
0
 40
0
 40
0
 40
0
 40
1
 40
1
 40
1
 40
1
 10
63.581332
 20
25.930730
 30
0.0
 10
64.082826
 20
26.241180
 30
0.0
 10
64.301519
 20
26.693740
 30
0.0
 10
64.030974
 20
26.861220
 30
0.0
  0
SPLINE
  5
1cb
100
AcDbEntity
  8
Layer_1
 62
7
100
AcDbSpline
 70
8
 71
3
 72
8
 73
4
 74
0
 40
0
 40
0
 40
0
 40
0
 40
1
 40
1
 40
1
 40
1
 10
64.030974
 20
26.861220
 30
0.0
 10
63.811765
 20
26.996930
 30
0.0
 10
64.144943
 20
27.391710
 30
0.0
 10
64.822768
 20
27.799440
 30
0.0
  0
SPLINE
  5
1cc
100
AcDbEntity
  8
Layer_1
 62
7
100
AcDbSpline
 70
8
 71
3
 72
8
 73
4
 74
0
 40
0
 40
0
 40
0
 40
0
 40
1
 40
1
 40
1
 40
1
 10
64.822768
 20
27.799440
 30
0.0
 10
65.079972
 20
27.954150
 30
0.0
 10
65.309519
 20
28.094530
 30
0.0
 10
65.332871
 20
28.111400
 30
0.0
  0
SPLINE
  5
1cd
100
AcDbEntity
  8
Layer_1
 62
7
100
AcDbSpline
 70
8
 71
3
 72
8
 73
4
 74
0
 40
0
 40
0
 40
0
 40
0
 40
1
 40
1
 40
1
 40
1
 10
65.332871
 20
28.111400
 30
0.0
 10
65.356221
 20
28.128300
 30
0.0
 10
65.282451
 20
28.321960
 30
0.0
 10
65.168936
 20
28.541830
 30
0.0
  0
SPLINE
  5
1ce
100
AcDbEntity
  8
Layer_1
 62
7
100
AcDbSpline
 70
8
 71
3
 72
8
 73
4
 74
0
 40
0
 40
0
 40
0
 40
0
 40
1
 40
1
 40
1
 40
1
 10
65.168936
 20
28.541830
 30
0.0
 10
64.891732
 20
29.078760
 30
0.0
 10
64.894305
 20
29.090230
 30
0.0
 10
65.433441
 20
29.721130
 30
0.0
  0
LWPOLYLINE
  5
1cf
100
AcDbEntity
  8
Layer_1
 62
7
100
AcDbPolyline
 90
3
 70
0
 10
44.831835
 20
18.311120
 30
0.0
 10
44.744955
 20
18.943850
 30
0.0
 10
45.217832
 20
19.100170
 30
0.0
  0
SPLINE
  5
1d0
100
AcDbEntity
  8
Layer_1
 62
7
100
AcDbSpline
 70
8
 71
3
 72
8
 73
4
 74
0
 40
0
 40
0
 40
0
 40
0
 40
1
 40
1
 40
1
 40
1
 10
65.485163
 20
31.534720
 30
0.0
 10
65.971318
 20
31.944470
 30
0.0
 10
65.984256
 20
32.211730
 30
0.0
 10
65.535293
 20
32.570310
 30
0.0
  0
SPLINE
  5
1d1
100
AcDbEntity
  8
Layer_1
 62
7
100
AcDbSpline
 70
8
 71
3
 72
8
 73
4
 74
0
 40
0
 40
0
 40
0
 40
0
 40
1
 40
1
 40
1
 40
1
 10
65.535293
 20
32.570310
 30
0.0
 10
65.208030
 20
32.831690
 30
0.0
 10
65.198860
 20
32.870600
 30
0.0
 10
65.359618
 20
33.315900
 30
0.0
  0
SPLINE
  5
1d2
100
AcDbEntity
  8
Layer_1
 62
7
100
AcDbSpline
 70
8
 71
3
 72
8
 73
4
 74
0
 40
0
 40
0
 40
0
 40
0
 40
1
 40
1
 40
1
 40
1
 10
65.359618
 20
33.315900
 30
0.0
 10
65.513682
 20
33.742650
 30
0.0
 10
65.503257
 20
33.818790
 30
0.0
 10
65.245887
 20
34.146520
 30
0.0
  0
SPLINE
  5
1d3
100
AcDbEntity
  8
Layer_1
 62
7
100
AcDbSpline
 70
8
 71
3
 72
8
 73
4
 74
0
 40
0
 40
0
 40
0
 40
0
 40
1
 40
1
 40
1
 40
1
 10
65.245887
 20
34.146520
 30
0.0
 10
65.090049
 20
34.344960
 30
0.0
 10
64.962545
 20
34.607720
 30
0.0
 10
64.962545
 20
34.730440
 30
0.0
  0
SPLINE
  5
1d4
100
AcDbEntity
  8
Layer_1
 62
7
100
AcDbSpline
 70
8
 71
3
 72
8
 73
4
 74
0
 40
0
 40
0
 40
0
 40
0
 40
1
 40
1
 40
1
 40
1
 10
64.962545
 20
34.730440
 30
0.0
 10
64.962545
 20
34.853150
 30
0.0
 10
64.927085
 20
34.989070
 30
0.0
 10
64.883755
 20
35.032480
 30
0.0
  0
SPLINE
  5
1d5
100
AcDbEntity
  8
Layer_1
 62
7
100
AcDbSpline
 70
8
 71
3
 72
8
 73
4
 74
0
 40
0
 40
0
 40
0
 40
0
 40
1
 40
1
 40
1
 40
1
 10
64.883755
 20
35.032480
 30
0.0
 10
64.840425
 20
35.075880
 30
0.0
 10
64.146977
 20
34.875000
 30
0.0
 10
63.342771
 20
34.586070
 30
0.0
  0
SPLINE
  5
1d6
100
AcDbEntity
  8
Layer_1
 62
7
100
AcDbSpline
 70
8
 71
3
 72
8
 73
4
 74
0
 40
0
 40
0
 40
0
 40
0
 40
1
 40
1
 40
1
 40
1
 10
63.342771
 20
34.586070
 30
0.0
 10
61.401230
 20
33.888520
 30
0.0
 10
57.963883
 20
32.895540
 30
0.0
 10
57.490749
 20
32.895540
 30
0.0
  0
SPLINE
  5
1d7
100
AcDbEntity
  8
Layer_1
 62
7
100
AcDbSpline
 70
8
 71
3
 72
8
 73
4
 74
0
 40
0
 40
0
 40
0
 40
0
 40
1
 40
1
 40
1
 40
1
 10
57.490749
 20
32.895540
 30
0.0
 10
56.839257
 20
32.895540
 30
0.0
 10
56.912482
 20
33.797080
 30
0.0
 10
57.605670
 20
34.310420
 30
0.0
  0
SPLINE
  5
1d8
100
AcDbEntity
  8
Layer_1
 62
7
100
AcDbSpline
 70
8
 71
3
 72
8
 73
4
 74
0
 40
0
 40
0
 40
0
 40
0
 40
1
 40
1
 40
1
 40
1
 10
57.605670
 20
34.310420
 30
0.0
 10
57.812416
 20
34.463520
 30
0.0
 10
58.010783
 20
34.762730
 30
0.0
 10
58.056139
 20
34.989880
 30
0.0
  0
SPLINE
  5
1d9
100
AcDbEntity
  8
Layer_1
 62
7
100
AcDbSpline
 70
8
 71
3
 72
8
 73
4
 74
0
 40
0
 40
0
 40
0
 40
0
 40
1
 40
1
 40
1
 40
1
 10
58.056139
 20
34.989880
 30
0.0
 10
58.110249
 20
35.260880
 30
0.0
 10
58.247087
 20
35.437620
 30
0.0
 10
58.467898
 20
35.521710
 30
0.0
  0
SPLINE
  5
1da
100
AcDbEntity
  8
Layer_1
 62
7
100
AcDbSpline
 70
8
 71
3
 72
8
 73
4
 74
0
 40
0
 40
0
 40
0
 40
0
 40
1
 40
1
 40
1
 40
1
 10
58.467898
 20
35.521710
 30
0.0
 10
58.721912
 20
35.618410
 30
0.0
 10
58.798613
 20
35.740820
 30
0.0
 10
58.798613
 20
36.049370
 30
0.0
  0
SPLINE
  5
1db
100
AcDbEntity
  8
Layer_1
 62
7
100
AcDbSpline
 70
8
 71
3
 72
8
 73
4
 74
0
 40
0
 40
0
 40
0
 40
0
 40
1
 40
1
 40
1
 40
1
 10
58.798613
 20
36.049370
 30
0.0
 10
58.798613
 20
36.333330
 30
0.0
 10
58.933171
 20
36.585870
 30
0.0
 10
59.257629
 20
36.910860
 30
0.0
  0
SPLINE
  5
1dc
100
AcDbEntity
  8
Layer_1
 62
7
100
AcDbSpline
 70
8
 71
3
 72
8
 73
4
 74
0
 40
0
 40
0
 40
0
 40
0
 40
1
 40
1
 40
1
 40
1
 10
59.257629
 20
36.910860
 30
0.0
 10
59.563042
 20
37.216780
 30
0.0
 10
59.716645
 20
37.493380
 30
0.0
 10
59.716645
 20
37.737440
 30
0.0
  0
SPLINE
  5
1dd
100
AcDbEntity
  8
Layer_1
 62
7
100
AcDbSpline
 70
8
 71
3
 72
8
 73
4
 74
0
 40
0
 40
0
 40
0
 40
0
 40
1
 40
1
 40
1
 40
1
 10
59.716645
 20
37.737440
 30
0.0
 10
59.716645
 20
37.958860
 30
0.0
 10
59.846603
 20
38.226550
 30
0.0
 10
60.044514
 20
38.412780
 30
0.0
  0
SPLINE
  5
1de
100
AcDbEntity
  8
Layer_1
 62
7
100
AcDbSpline
 70
8
 71
3
 72
8
 73
4
 74
0
 40
0
 40
0
 40
0
 40
0
 40
1
 40
1
 40
1
 40
1
 10
60.044514
 20
38.412780
 30
0.0
 10
60.265423
 20
38.620650
 30
0.0
 10
60.372383
 20
38.862330
 30
0.0
 10
60.372383
 20
39.153600
 30
0.0
  0
SPLINE
  5
1df
100
AcDbEntity
  8
Layer_1
 62
7
100
AcDbSpline
 70
8
 71
3
 72
8
 73
4
 74
0
 40
0
 40
0
 40
0
 40
0
 40
1
 40
1
 40
1
 40
1
 10
60.372383
 20
39.153600
 30
0.0
 10
60.372383
 20
39.446620
 30
0.0
 10
60.499148
 20
39.730520
 30
0.0
 10
60.765826
 20
40.034740
 30
0.0
  0
SPLINE
  5
1e0
100
AcDbEntity
  8
Layer_1
 62
7
100
AcDbSpline
 70
8
 71
3
 72
8
 73
4
 74
0
 40
0
 40
0
 40
0
 40
0
 40
1
 40
1
 40
1
 40
1
 10
60.765826
 20
40.034740
 30
0.0
 10
60.982219
 20
40.281610
 30
0.0
 10
61.159268
 20
40.574700
 30
0.0
 10
61.159268
 20
40.686070
 30
0.0
  0
SPLINE
  5
1e1
100
AcDbEntity
  8
Layer_1
 62
7
100
AcDbSpline
 70
8
 71
3
 72
8
 73
4
 74
0
 40
0
 40
0
 40
0
 40
0
 40
1
 40
1
 40
1
 40
1
 10
61.159268
 20
40.686070
 30
0.0
 10
61.159268
 20
40.797430
 30
0.0
 10
61.371250
 20
41.166720
 30
0.0
 10
61.630339
 20
41.506700
 30
0.0
  0
SPLINE
  5
1e2
100
AcDbEntity
  8
Layer_1
 62
7
100
AcDbSpline
 70
8
 71
3
 72
8
 73
4
 74
0
 40
0
 40
0
 40
0
 40
0
 40
1
 40
1
 40
1
 40
1
 10
61.630339
 20
41.506700
 30
0.0
 10
62.097186
 20
42.119310
 30
0.0
 10
62.113086
 20
42.213180
 30
0.0
 10
61.878068
 20
42.969220
 30
0.0
  0
SPLINE
  5
1e3
100
AcDbEntity
  8
Layer_1
 62
7
100
AcDbSpline
 70
8
 71
3
 72
8
 73
4
 74
0
 40
0
 40
0
 40
0
 40
0
 40
1
 40
1
 40
1
 40
1
 10
61.878068
 20
42.969220
 30
0.0
 10
61.800208
 20
43.219700
 30
0.0
 10
61.849938
 20
43.267860
 30
0.0
 10
62.267359
 20
43.346300
 30
0.0
  0
SPLINE
  5
1e4
100
AcDbEntity
  8
Layer_1
 62
7
100
AcDbSpline
 70
8
 71
3
 72
8
 73
4
 74
0
 40
0
 40
0
 40
0
 40
0
 40
1
 40
1
 40
1
 40
1
 10
62.267359
 20
43.346300
 30
0.0
 10
62.921641
 20
43.469250
 30
0.0
 10
63.126482
 20
43.715470
 30
0.0
 10
63.126482
 20
44.378990
 30
0.0
  0
SPLINE
  5
1e5
100
AcDbEntity
  8
Layer_1
 62
7
100
AcDbSpline
 70
8
 71
3
 72
8
 73
4
 74
0
 40
0
 40
0
 40
0
 40
0
 40
1
 40
1
 40
1
 40
1
 10
63.126482
 20
44.378990
 30
0.0
 10
63.126482
 20
44.687850
 30
0.0
 10
63.213582
 20
45.115450
 30
0.0
 10
63.320049
 20
45.329210
 30
0.0
  0
SPLINE
  5
1e6
100
AcDbEntity
  8
Layer_1
 62
7
100
AcDbSpline
 70
8
 71
3
 72
8
 73
4
 74
0
 40
0
 40
0
 40
0
 40
0
 40
1
 40
1
 40
1
 40
1
 10
63.320049
 20
45.329210
 30
0.0
 10
63.426510
 20
45.542970
 30
0.0
 10
63.575042
 20
46.151680
 30
0.0
 10
63.650117
 20
46.681900
 30
0.0
  0
SPLINE
  5
1e7
100
AcDbEntity
  8
Layer_1
 62
7
100
AcDbSpline
 70
8
 71
3
 72
8
 73
4
 74
0
 40
0
 40
0
 40
0
 40
0
 40
1
 40
1
 40
1
 40
1
 10
63.650117
 20
46.681900
 30
0.0
 10
63.725187
 20
47.212120
 30
0.0
 10
63.903661
 20
47.910960
 30
0.0
 10
64.046714
 20
48.234890
 30
0.0
  0
SPLINE
  5
1e8
100
AcDbEntity
  8
Layer_1
 62
7
100
AcDbSpline
 70
8
 71
3
 72
8
 73
4
 74
0
 40
0
 40
0
 40
0
 40
0
 40
1
 40
1
 40
1
 40
1
 10
64.046714
 20
48.234890
 30
0.0
 10
64.189767
 20
48.558810
 30
0.0
 10
64.306809
 20
49.027110
 30
0.0
 10
64.306809
 20
49.275550
 30
0.0
  0
SPLINE
  5
1e9
100
AcDbEntity
  8
Layer_1
 62
7
100
AcDbSpline
 70
8
 71
3
 72
8
 73
4
 74
0
 40
0
 40
0
 40
0
 40
0
 40
1
 40
1
 40
1
 40
1
 10
64.306809
 20
49.275550
 30
0.0
 10
64.306809
 20
49.523990
 30
0.0
 10
64.367049
 20
49.840010
 30
0.0
 10
64.440682
 20
49.977810
 30
0.0
  0
SPLINE
  5
1ea
100
AcDbEntity
  8
Layer_1
 62
7
100
AcDbSpline
 70
8
 71
3
 72
8
 73
4
 74
0
 40
0
 40
0
 40
0
 40
0
 40
1
 40
1
 40
1
 40
1
 10
64.440682
 20
49.977810
 30
0.0
 10
64.514312
 20
50.115620
 30
0.0
 10
64.633161
 20
50.540300
 30
0.0
 10
64.704788
 20
50.921560
 30
0.0
  0
SPLINE
  5
1eb
100
AcDbEntity
  8
Layer_1
 62
7
100
AcDbSpline
 70
8
 71
3
 72
8
 73
4
 74
0
 40
0
 40
0
 40
0
 40
0
 40
1
 40
1
 40
1
 40
1
 10
64.704788
 20
50.921560
 30
0.0
 10
64.776418
 20
51.302810
 30
0.0
 10
64.928273
 20
51.812720
 30
0.0
 10
65.042245
 20
52.054680
 30
0.0
  0
SPLINE
  5
1ec
100
AcDbEntity
  8
Layer_1
 62
7
100
AcDbSpline
 70
8
 71
3
 72
8
 73
4
 74
0
 40
0
 40
0
 40
0
 40
0
 40
1
 40
1
 40
1
 40
1
 10
65.042245
 20
52.054680
 30
0.0
 10
65.170875
 20
52.327760
 30
0.0
 10
65.291675
 20
53.132100
 30
0.0
 10
65.360754
 20
54.175450
 30
0.0
  0
SPLINE
  5
1ed
100
AcDbEntity
  8
Layer_1
 62
7
100
AcDbSpline
 70
8
 71
3
 72
8
 73
4
 74
0
 40
0
 40
0
 40
0
 40
0
 40
1
 40
1
 40
1
 40
1
 10
65.360754
 20
54.175450
 30
0.0
 10
65.425374
 20
55.151450
 30
0.0
 10
65.557699
 20
56.061640
 30
0.0
 10
65.676311
 20
56.345980
 30
0.0
  0
SPLINE
  5
1ee
100
AcDbEntity
  8
Layer_1
 62
7
100
AcDbSpline
 70
8
 71
3
 72
8
 73
4
 74
0
 40
0
 40
0
 40
0
 40
0
 40
1
 40
1
 40
1
 40
1
 10
65.676311
 20
56.345980
 30
0.0
 10
65.966634
 20
57.041960
 30
0.0
 10
65.944846
 20
57.460400
 30
0.0
 10
65.618281
 20
57.460400
 30
0.0
  0
SPLINE
  5
1ef
100
AcDbEntity
  8
Layer_1
 62
7
100
AcDbSpline
 70
8
 71
3
 72
8
 73
4
 74
0
 40
0
 40
0
 40
0
 40
0
 40
1
 40
1
 40
1
 40
1
 10
65.618281
 20
57.460400
 30
0.0
 10
65.238990
 20
57.460400
 30
0.0
 10
65.294757
 20
57.734960
 30
0.0
 10
65.793578
 20
58.323450
 30
0.0
  0
SPLINE
  5
1f0
100
AcDbEntity
  8
Layer_1
 62
7
100
AcDbSpline
 70
8
 71
3
 72
8
 73
4
 74
0
 40
0
 40
0
 40
0
 40
0
 40
1
 40
1
 40
1
 40
1
 10
65.793578
 20
58.323450
 30
0.0
 10
66.401316
 20
59.040440
 30
0.0
 10
67.060904
 20
59.972370
 30
0.0
 10
67.060904
 20
60.114050
 30
0.0
  0
SPLINE
  5
1f1
100
AcDbEntity
  8
Layer_1
 62
7
100
AcDbSpline
 70
8
 71
3
 72
8
 73
4
 74
0
 40
0
 40
0
 40
0
 40
0
 40
1
 40
1
 40
1
 40
1
 10
67.060904
 20
60.114050
 30
0.0
 10
67.060904
 20
60.253370
 30
0.0
 10
66.583906
 20
59.904980
 30
0.0
 10
64.648497
 20
58.352070
 30
0.0
  0
SPLINE
  5
1f2
100
AcDbEntity
  8
Layer_1
 62
7
100
AcDbSpline
 70
8
 71
3
 72
8
 73
4
 74
0
 40
0
 40
0
 40
0
 40
0
 40
1
 40
1
 40
1
 40
1
 10
64.648497
 20
58.352070
 30
0.0
 10
62.596534
 20
56.705640
 30
0.0
 10
62.568210
 20
56.871490
 30
0.0
 10
64.476341
 20
59.360110
 30
0.0
  0
SPLINE
  5
1f3
100
AcDbEntity
  8
Layer_1
 62
7
100
AcDbSpline
 70
8
 71
3
 72
8
 73
4
 74
0
 40
0
 40
0
 40
0
 40
0
 40
1
 40
1
 40
1
 40
1
 10
64.476341
 20
59.360110
 30
0.0
 10
65.413498
 20
60.582360
 30
0.0
 10
65.928443
 20
61.454490
 30
0.0
 10
65.850773
 20
61.687890
 30
0.0
  0
SPLINE
  5
1f4
100
AcDbEntity
  8
Layer_1
 62
7
100
AcDbSpline
 70
8
 71
3
 72
8
 73
4
 74
0
 40
0
 40
0
 40
0
 40
0
 40
1
 40
1
 40
1
 40
1
 10
65.850773
 20
61.687890
 30
0.0
 10
65.825953
 20
61.762490
 30
0.0
 10
65.078092
 20
61.048700
 30
0.0
 10
64.188863
 20
60.101720
 30
0.0
  0
SPLINE
  5
1f5
100
AcDbEntity
  8
Layer_1
 62
7
100
AcDbSpline
 70
8
 71
3
 72
8
 73
4
 74
0
 40
0
 40
0
 40
0
 40
0
 40
1
 40
1
 40
1
 40
1
 10
64.188863
 20
60.101720
 30
0.0
 10
62.760518
 20
58.580610
 30
0.0
 10
62.208445
 20
58.130250
 30
0.0
 10
62.208445
 20
58.486190
 30
0.0
  0
SPLINE
  5
1f6
100
AcDbEntity
  8
Layer_1
 62
7
100
AcDbSpline
 70
8
 71
3
 72
8
 73
4
 74
0
 40
0
 40
0
 40
0
 40
0
 40
1
 40
1
 40
1
 40
1
 10
62.208445
 20
58.486190
 30
0.0
 10
62.208445
 20
58.544590
 30
0.0
 10
62.420632
 20
58.943640
 30
0.0
 10
62.679973
 20
59.372890
 30
0.0
  0
SPLINE
  5
1f7
100
AcDbEntity
  8
Layer_1
 62
7
100
AcDbSpline
 70
8
 71
3
 72
8
 73
4
 74
0
 40
0
 40
0
 40
0
 40
0
 40
1
 40
1
 40
1
 40
1
 10
62.679973
 20
59.372890
 30
0.0
 10
63.617157
 20
60.924070
 30
0.0
 10
64.330682
 20
62.583550
 30
0.0
 10
64.060458
 20
62.583550
 30
0.0
  0
SPLINE
  5
1f8
100
AcDbEntity
  8
Layer_1
 62
7
100
AcDbSpline
 70
8
 71
3
 72
8
 73
4
 74
0
 40
0
 40
0
 40
0
 40
0
 40
1
 40
1
 40
1
 40
1
 10
64.060458
 20
62.583550
 30
0.0
 10
64.008728
 20
62.583550
 30
0.0
 10
63.473434
 20
61.859410
 30
0.0
 10
62.870921
 20
60.974350
 30
0.0
  0
SPLINE
  5
1f9
100
AcDbEntity
  8
Layer_1
 62
7
100
AcDbSpline
 70
8
 71
3
 72
8
 73
4
 74
0
 40
0
 40
0
 40
0
 40
0
 40
1
 40
1
 40
1
 40
1
 10
62.870921
 20
60.974350
 30
0.0
 10
61.581655
 20
59.080500
 30
0.0
 10
60.931819
 20
58.248570
 30
0.0
 10
60.741752
 20
58.248570
 30
0.0
  0
SPLINE
  5
1fa
100
AcDbEntity
  8
Layer_1
 62
7
100
AcDbSpline
 70
8
 71
3
 72
8
 73
4
 74
0
 40
0
 40
0
 40
0
 40
0
 40
1
 40
1
 40
1
 40
1
 10
60.741752
 20
58.248570
 30
0.0
 10
60.569006
 20
58.248570
 30
0.0
 10
60.639739
 20
58.546050
 30
0.0
 10
61.156859
 20
59.994330
 30
0.0
  0
SPLINE
  5
1fb
100
AcDbEntity
  8
Layer_1
 62
7
100
AcDbSpline
 70
8
 71
3
 72
8
 73
4
 74
0
 40
0
 40
0
 40
0
 40
0
 40
1
 40
1
 40
1
 40
1
 10
61.156859
 20
59.994330
 30
0.0
 10
61.383607
 20
60.629380
 30
0.0
 10
61.550678
 20
61.308320
 30
0.0
 10
61.528130
 20
61.503100
 30
0.0
  0
SPLINE
  5
1fc
100
AcDbEntity
  8
Layer_1
 62
7
100
AcDbSpline
 70
8
 71
3
 72
8
 73
4
 74
0
 40
0
 40
0
 40
0
 40
0
 40
1
 40
1
 40
1
 40
1
 10
61.528130
 20
61.503100
 30
0.0
 10
61.496170
 20
61.779160
 30
0.0
 10
61.145771
 20
61.191560
 30
0.0
 10
59.938740
 20
58.837800
 30
0.0
  0
SPLINE
  5
1fd
100
AcDbEntity
  8
Layer_1
 62
7
100
AcDbSpline
 70
8
 71
3
 72
8
 73
4
 74
0
 40
0
 40
0
 40
0
 40
0
 40
1
 40
1
 40
1
 40
1
 10
59.938740
 20
58.837800
 30
0.0
 10
58.333516
 20
55.707540
 30
0.0
 10
57.967506
 20
55.096370
 30
0.0
 10
57.799121
 20
55.265030
 30
0.0
  0
SPLINE
  5
1fe
100
AcDbEntity
  8
Layer_1
 62
7
100
AcDbSpline
 70
8
 71
3
 72
8
 73
4
 74
0
 40
0
 40
0
 40
0
 40
0
 40
1
 40
1
 40
1
 40
1
 10
57.799121
 20
55.265030
 30
0.0
 10
57.744451
 20
55.319830
 30
0.0
 10
57.824221
 20
55.762250
 30
0.0
 10
57.976375
 20
56.248290
 30
0.0
  0
SPLINE
  5
1ff
100
AcDbEntity
  8
Layer_1
 62
7
100
AcDbSpline
 70
8
 71
3
 72
8
 73
4
 74
0
 40
0
 40
0
 40
0
 40
0
 40
1
 40
1
 40
1
 40
1
 10
57.976375
 20
56.248290
 30
0.0
 10
58.728043
 20
58.649360
 30
0.0
 10
58.459232
 20
58.495220
 30
0.0
 10
57.289457
 20
55.854400
 30
0.0
  0
SPLINE
  5
200
100
AcDbEntity
  8
Layer_1
 62
7
100
AcDbSpline
 70
8
 71
3
 72
8
 73
4
 74
0
 40
0
 40
0
 40
0
 40
0
 40
1
 40
1
 40
1
 40
1
 10
57.289457
 20
55.854400
 30
0.0
 10
55.971915
 20
52.879980
 30
0.0
 10
55.659322
 20
52.297530
 30
0.0
 10
54.273354
 20
50.234450
 30
0.0
  0
SPLINE
  5
201
100
AcDbEntity
  8
Layer_1
 62
7
100
AcDbSpline
 70
8
 71
3
 72
8
 73
4
 74
0
 40
0
 40
0
 40
0
 40
0
 40
1
 40
1
 40
1
 40
1
 10
54.273354
 20
50.234450
 30
0.0
 10
52.920060
 20
48.220010
 30
0.0
 10
52.079179
 20
46.669810
 30
0.0
 10
51.708686
 20
45.506370
 30
0.0
  0
SPLINE
  5
202
100
AcDbEntity
  8
Layer_1
 62
7
100
AcDbSpline
 70
8
 71
3
 72
8
 73
4
 74
0
 40
0
 40
0
 40
0
 40
0
 40
1
 40
1
 40
1
 40
1
 10
51.708686
 20
45.506370
 30
0.0
 10
50.573009
 20
41.940090
 30
0.0
 10
47.850880
 20
35.423000
 30
0.0
 10
47.223865
 20
34.769200
 30
0.0
  0
SPLINE
  5
203
100
AcDbEntity
  8
Layer_1
 62
7
100
AcDbSpline
 70
8
 71
3
 72
8
 73
4
 74
0
 40
0
 40
0
 40
0
 40
0
 40
1
 40
1
 40
1
 40
1
 10
47.223865
 20
34.769200
 30
0.0
 10
46.570449
 20
34.087870
 30
0.0
 10
45.317347
 20
33.290740
 30
0.0
 10
44.498325
 20
33.035410
 30
0.0
  0
SPLINE
  5
204
100
AcDbEntity
  8
Layer_1
 62
7
100
AcDbSpline
 70
8
 71
3
 72
8
 73
4
 74
0
 40
0
 40
0
 40
0
 40
0
 40
1
 40
1
 40
1
 40
1
 10
44.498325
 20
33.035410
 30
0.0
 10
44.081632
 20
32.905510
 30
0.0
 10
43.569393
 20
32.677040
 30
0.0
 10
43.360016
 20
32.527710
 30
0.0
  0
SPLINE
  5
205
100
AcDbEntity
  8
Layer_1
 62
7
100
AcDbSpline
 70
8
 71
3
 72
8
 73
4
 74
0
 40
0
 40
0
 40
0
 40
0
 40
1
 40
1
 40
1
 40
1
 10
43.360016
 20
32.527710
 30
0.0
 10
43.150639
 20
32.378370
 30
0.0
 10
42.821653
 20
32.216550
 30
0.0
 10
42.628935
 20
32.168100
 30
0.0
  0
SPLINE
  5
206
100
AcDbEntity
  8
Layer_1
 62
7
100
AcDbSpline
 70
8
 71
3
 72
8
 73
4
 74
0
 40
0
 40
0
 40
0
 40
0
 40
1
 40
1
 40
1
 40
1
 10
42.628935
 20
32.168100
 30
0.0
 10
42.236198
 20
32.069400
 30
0.0
 10
41.793338
 20
31.440570
 30
0.0
 10
41.665449
 20
30.800080
 30
0.0
  0
SPLINE
  5
207
100
AcDbEntity
  8
Layer_1
 62
7
100
AcDbSpline
 70
8
 71
3
 72
8
 73
4
 74
0
 40
0
 40
0
 40
0
 40
0
 40
1
 40
1
 40
1
 40
1
 10
41.665449
 20
30.800080
 30
0.0
 10
41.593059
 20
30.437520
 30
0.0
 10
41.616539
 20
30.380600
 30
0.0
 10
41.829114
 20
30.403340
 30
0.0
  0
SPLINE
  5
208
100
AcDbEntity
  8
Layer_1
 62
7
100
AcDbSpline
 70
8
 71
3
 72
8
 73
4
 74
0
 40
0
 40
0
 40
0
 40
0
 40
1
 40
1
 40
1
 40
1
 10
41.829114
 20
30.403340
 30
0.0
 10
42.325642
 20
30.456440
 30
0.0
 10
42.523900
 20
30.393140
 30
0.0
 10
42.928383
 20
30.052230
 30
0.0
  0
LWPOLYLINE
  5
209
100
AcDbEntity
  8
Layer_1
 62
7
100
AcDbPolyline
 90
5
 70
0
 10
65.433441
 20
29.721130
 30
0.0
 10
65.904339
 20
30.272170
 30
0.0
 10
65.497045
 20
30.736810
 30
0.0
 10
65.089749
 20
31.201460
 30
0.0
 10
65.485163
 20
31.534720
 30
0.0
  0
SPLINE
  5
20a
100
AcDbEntity
  8
Layer_1
 62
7
100
AcDbSpline
 70
8
 71
3
 72
8
 73
4
 74
0
 40
0
 40
0
 40
0
 40
0
 40
1
 40
1
 40
1
 40
1
 10
42.774510
 20
29.123880
 30
0.0
 10
41.778697
 20
28.101880
 30
0.0
 10
36.856790
 20
24.133220
 30
0.0
 10
35.060904
 20
22.904210
 30
0.0
  0
SPLINE
  5
20b
100
AcDbEntity
  8
Layer_1
 62
7
100
AcDbSpline
 70
8
 71
3
 72
8
 73
4
 74
0
 40
0
 40
0
 40
0
 40
0
 40
1
 40
1
 40
1
 40
1
 10
35.060904
 20
22.904210
 30
0.0
 10
34.592051
 20
22.583350
 30
0.0
 10
34.166702
 20
22.256690
 30
0.0
 10
34.115681
 20
22.178300
 30
0.0
  0
SPLINE
  5
20c
100
AcDbEntity
  8
Layer_1
 62
7
100
AcDbSpline
 70
8
 71
3
 72
8
 73
4
 74
0
 40
0
 40
0
 40
0
 40
0
 40
1
 40
1
 40
1
 40
1
 10
34.115681
 20
22.178300
 30
0.0
 10
34.064661
 20
22.099900
 30
0.0
 10
33.288757
 20
21.481300
 30
0.0
 10
32.391449
 20
20.803610
 30
0.0
  0
SPLINE
  5
20d
100
AcDbEntity
  8
Layer_1
 62
7
100
AcDbSpline
 70
8
 71
3
 72
8
 73
4
 74
0
 40
0
 40
0
 40
0
 40
0
 40
1
 40
1
 40
1
 40
1
 10
32.391449
 20
20.803610
 30
0.0
 10
31.011958
 20
19.761740
 30
0.0
 10
30.792037
 20
19.547950
 30
0.0
 10
30.967535
 20
19.419420
 30
0.0
  0
SPLINE
  5
20e
100
AcDbEntity
  8
Layer_1
 62
7
100
AcDbSpline
 70
8
 71
3
 72
8
 73
4
 74
0
 40
0
 40
0
 40
0
 40
0
 40
1
 40
1
 40
1
 40
1
 10
30.967535
 20
19.419420
 30
0.0
 10
31.150994
 20
19.285050
 30
0.0
 10
31.127276
 20
19.206930
 30
0.0
 10
30.763217
 20
18.746520
 30
0.0
  0
SPLINE
  5
20f
100
AcDbEntity
  8
Layer_1
 62
7
100
AcDbSpline
 70
8
 71
3
 72
8
 73
4
 74
0
 40
0
 40
0
 40
0
 40
0
 40
1
 40
1
 40
1
 40
1
 10
30.763217
 20
18.746520
 30
0.0
 10
29.938352
 20
17.703330
 30
0.0
 10
27.571970
 20
15.734830
 30
0.0
 10
26.125799
 20
14.888830
 30
0.0
  0
SPLINE
  5
210
100
AcDbEntity
  8
Layer_1
 62
7
100
AcDbSpline
 70
8
 71
3
 72
8
 73
4
 74
0
 40
0
 40
0
 40
0
 40
0
 40
1
 40
1
 40
1
 40
1
 10
26.125799
 20
14.888830
 30
0.0
 10
25.630270
 20
14.598960
 30
0.0
 10
25.224838
 20
14.336080
 30
0.0
 10
25.224838
 20
14.304680
 30
0.0
  0
SPLINE
  5
211
100
AcDbEntity
  8
Layer_1
 62
7
100
AcDbSpline
 70
8
 71
3
 72
8
 73
4
 74
0
 40
0
 40
0
 40
0
 40
0
 40
1
 40
1
 40
1
 40
1
 10
25.224838
 20
14.304680
 30
0.0
 10
25.224838
 20
14.273280
 30
0.0
 10
25.640140
 20
14.401780
 30
0.0
 10
26.147733
 20
14.590220
 30
0.0
  0
SPLINE
  5
212
100
AcDbEntity
  8
Layer_1
 62
7
100
AcDbSpline
 70
8
 71
3
 72
8
 73
4
 74
0
 40
0
 40
0
 40
0
 40
0
 40
1
 40
1
 40
1
 40
1
 10
26.147733
 20
14.590220
 30
0.0
 10
26.655323
 20
14.778680
 30
0.0
 10
27.108749
 20
14.894690
 30
0.0
 10
27.155343
 20
14.848010
 30
0.0
  0
SPLINE
  5
213
100
AcDbEntity
  8
Layer_1
 62
7
100
AcDbSpline
 70
8
 71
3
 72
8
 73
4
 74
0
 40
0
 40
0
 40
0
 40
0
 40
1
 40
1
 40
1
 40
1
 10
27.155343
 20
14.848010
 30
0.0
 10
27.381544
 20
14.621440
 30
0.0
 10
25.275469
 20
12.642830
 30
0.0
 10
23.675954
 20
11.579200
 30
0.0
  0
SPLINE
  5
214
100
AcDbEntity
  8
Layer_1
 62
7
100
AcDbSpline
 70
8
 71
3
 72
8
 73
4
 74
0
 40
0
 40
0
 40
0
 40
0
 40
1
 40
1
 40
1
 40
1
 10
23.675954
 20
11.579200
 30
0.0
 10
22.352444
 20
10.699100
 30
0.0
 10
23.278484
 20
10.788870
 30
0.0
 10
24.763608
 20
11.684630
 30
0.0
  0
SPLINE
  5
215
100
AcDbEntity
  8
Layer_1
 62
7
100
AcDbSpline
 70
8
 71
3
 72
8
 73
4
 74
0
 40
0
 40
0
 40
0
 40
0
 40
1
 40
1
 40
1
 40
1
 10
24.763608
 20
11.684630
 30
0.0
 10
25.597242
 20
12.187450
 30
0.0
 10
25.749428
 20
12.229180
 30
0.0
 10
25.749428
 20
11.954950
 30
0.0
  0
SPLINE
  5
216
100
AcDbEntity
  8
Layer_1
 62
7
100
AcDbSpline
 70
8
 71
3
 72
8
 73
4
 74
0
 40
0
 40
0
 40
0
 40
0
 40
1
 40
1
 40
1
 40
1
 10
25.749428
 20
11.954950
 30
0.0
 10
25.749428
 20
11.721290
 30
0.0
 10
25.042398
 20
10.827260
 30
0.0
 10
23.671734
 20
9.327740
 30
0.0
  0
SPLINE
  5
217
100
AcDbEntity
  8
Layer_1
 62
7
100
AcDbSpline
 70
8
 71
3
 72
8
 73
4
 74
0
 40
0
 40
0
 40
0
 40
0
 40
1
 40
1
 40
1
 40
1
 10
23.671734
 20
9.327740
 30
0.0
 10
23.083314
 20
8.684010
 30
0.0
 10
22.601884
 20
8.103880
 30
0.0
 10
22.601884
 20
8.038550
 30
0.0
  0
SPLINE
  5
218
100
AcDbEntity
  8
Layer_1
 62
7
100
AcDbSpline
 70
8
 71
3
 72
8
 73
4
 74
0
 40
0
 40
0
 40
0
 40
0
 40
1
 40
1
 40
1
 40
1
 10
22.601884
 20
8.038550
 30
0.0
 10
22.601884
 20
7.777290
 30
0.0
 10
23.751114
 20
8.592170
 30
0.0
 10
25.004453
 20
9.742150
 30
0.0
  0
SPLINE
  5
219
100
AcDbEntity
  8
Layer_1
 62
7
100
AcDbSpline
 70
8
 71
3
 72
8
 73
4
 74
0
 40
0
 40
0
 40
0
 40
0
 40
1
 40
1
 40
1
 40
1
 10
25.004453
 20
9.742150
 30
0.0
 10
25.733238
 20
10.410830
 30
0.0
 10
26.376047
 20
10.957930
 30
0.0
 10
26.432916
 20
10.957930
 30
0.0
  0
SPLINE
  5
21a
100
AcDbEntity
  8
Layer_1
 62
7
100
AcDbSpline
 70
8
 71
3
 72
8
 73
4
 74
0
 40
0
 40
0
 40
0
 40
0
 40
1
 40
1
 40
1
 40
1
 10
26.432916
 20
10.957930
 30
0.0
 10
26.645015
 20
10.957930
 30
0.0
 10
26.523076
 20
10.606330
 30
0.0
 10
26.085007
 20
9.954770
 30
0.0
  0
SPLINE
  5
21b
100
AcDbEntity
  8
Layer_1
 62
7
100
AcDbSpline
 70
8
 71
3
 72
8
 73
4
 74
0
 40
0
 40
0
 40
0
 40
0
 40
1
 40
1
 40
1
 40
1
 10
26.085007
 20
9.954770
 30
0.0
 10
25.467642
 20
9.036530
 30
0.0
 10
24.275838
 20
6.741550
 30
0.0
 10
24.368270
 20
6.648970
 30
0.0
  0
SPLINE
  5
21c
100
AcDbEntity
  8
Layer_1
 62
7
100
AcDbSpline
 70
8
 71
3
 72
8
 73
4
 74
0
 40
0
 40
0
 40
0
 40
0
 40
1
 40
1
 40
1
 40
1
 10
24.368270
 20
6.648970
 30
0.0
 10
24.497150
 20
6.519880
 30
0.0
 10
25.603020
 20
7.683380
 30
0.0
 10
26.613618
 20
9.011330
 30
0.0
  0
SPLINE
  5
21d
100
AcDbEntity
  8
Layer_1
 62
7
100
AcDbSpline
 70
8
 71
3
 72
8
 73
4
 74
0
 40
0
 40
0
 40
0
 40
0
 40
1
 40
1
 40
1
 40
1
 10
26.613618
 20
9.011330
 30
0.0
 10
27.145938
 20
9.710820
 30
0.0
 10
27.641396
 20
10.320220
 30
0.0
 10
27.714631
 20
10.365560
 30
0.0
  0
SPLINE
  5
21e
100
AcDbEntity
  8
Layer_1
 62
7
100
AcDbSpline
 70
8
 71
3
 72
8
 73
4
 74
0
 40
0
 40
0
 40
0
 40
0
 40
1
 40
1
 40
1
 40
1
 10
27.714631
 20
10.365560
 30
0.0
 10
27.973420
 20
10.525760
 30
0.0
 10
27.841099
 20
9.919640
 30
0.0
 10
27.257625
 20
8.272160
 30
0.0
  0
SPLINE
  5
21f
100
AcDbEntity
  8
Layer_1
 62
7
100
AcDbSpline
 70
8
 71
3
 72
8
 73
4
 74
0
 40
0
 40
0
 40
0
 40
0
 40
1
 40
1
 40
1
 40
1
 10
27.257625
 20
8.272160
 30
0.0
 10
26.933035
 20
7.355660
 30
0.0
 10
26.667461
 20
6.507190
 30
0.0
 10
26.667461
 20
6.386680
 30
0.0
  0
SPLINE
  5
220
100
AcDbEntity
  8
Layer_1
 62
7
100
AcDbSpline
 70
8
 71
3
 72
8
 73
4
 74
0
 40
0
 40
0
 40
0
 40
0
 40
1
 40
1
 40
1
 40
1
 10
26.667461
 20
6.386680
 30
0.0
 10
26.667461
 20
6.071860
 30
0.0
 10
27.433935
 20
6.869790
 30
0.0
 10
28.277641
 20
8.062940
 30
0.0
  0
LWPOLYLINE
  5
221
100
AcDbEntity
  8
Layer_1
 62
7
100
AcDbPolyline
 90
3
 70
0
 10
42.928383
 20
30.052230
 30
0.0
 10
43.340577
 20
29.704830
 30
0.0
 10
42.774510
 20
29.123880
 30
0.0
  0
SPLINE
  5
222
100
AcDbEntity
  8
Layer_1
 62
7
100
AcDbSpline
 70
8
 71
3
 72
8
 73
4
 74
0
 40
0
 40
0
 40
0
 40
0
 40
1
 40
1
 40
1
 40
1
 10
15.740744
 20
37.158160
 30
0.0
 10
15.148094
 20
37.369870
 30
0.0
 10
14.785394
 20
37.676510
 30
0.0
 10
14.490104
 20
38.215470
 30
0.0
  0
SPLINE
  5
223
100
AcDbEntity
  8
Layer_1
 62
7
100
AcDbSpline
 70
8
 71
3
 72
8
 73
4
 74
0
 40
0
 40
0
 40
0
 40
0
 40
1
 40
1
 40
1
 40
1
 10
14.490104
 20
38.215470
 30
0.0
 10
14.309754
 20
38.544650
 30
0.0
 10
14.274024
 20
39.044330
 30
0.0
 10
14.274024
 20
41.237130
 30
0.0
  0
SPLINE
  5
224
100
AcDbEntity
  8
Layer_1
 62
7
100
AcDbSpline
 70
8
 71
3
 72
8
 73
4
 74
0
 40
0
 40
0
 40
0
 40
0
 40
1
 40
1
 40
1
 40
1
 10
14.274024
 20
41.237130
 30
0.0
 10
14.274024
 20
43.632110
 30
0.0
 10
14.297424
 20
43.905040
 30
0.0
 10
14.538514
 20
44.324160
 30
0.0
  0
SPLINE
  5
225
100
AcDbEntity
  8
Layer_1
 62
7
100
AcDbSpline
 70
8
 71
3
 72
8
 73
4
 74
0
 40
0
 40
0
 40
0
 40
0
 40
1
 40
1
 40
1
 40
1
 10
14.538514
 20
44.324160
 30
0.0
 10
14.829824
 20
44.830540
 30
0.0
 10
15.664554
 20
45.303660
 30
0.0
 10
16.470744
 20
45.419340
 30
0.0
  0
LWPOLYLINE
  5
226
100
AcDbEntity
  8
Layer_1
 62
7
100
AcDbPolyline
 90
1
 70
1
 10
28.277641
 20
8.062940
 30
0.0
  0
SPLINE
  5
227
100
AcDbEntity
  8
Layer_1
 62
7
100
AcDbSpline
 70
8
 71
3
 72
8
 73
4
 74
0
 40
0
 40
0
 40
0
 40
0
 40
1
 40
1
 40
1
 40
1
 10
16.962544
 20
44.775700
 30
0.0
 10
16.962544
 20
44.264980
 30
0.0
 10
16.912244
 20
44.061460
 30
0.0
 10
16.786154
 20
44.061460
 30
0.0
  0
SPLINE
  5
228
100
AcDbEntity
  8
Layer_1
 62
7
100
AcDbSpline
 70
8
 71
3
 72
8
 73
4
 74
0
 40
0
 40
0
 40
0
 40
0
 40
1
 40
1
 40
1
 40
1
 10
16.786154
 20
44.061460
 30
0.0
 10
16.689154
 20
44.061460
 30
0.0
 10
16.512084
 20
43.953360
 30
0.0
 10
16.392704
 20
43.821230
 30
0.0
  0
SPLINE
  5
229
100
AcDbEntity
  8
Layer_1
 62
7
100
AcDbSpline
 70
8
 71
3
 72
8
 73
4
 74
0
 40
0
 40
0
 40
0
 40
0
 40
1
 40
1
 40
1
 40
1
 10
16.392704
 20
43.821230
 30
0.0
 10
16.079604
 20
43.474690
 30
0.0
 10
16.068654
 20
39.018430
 30
0.0
 10
16.379804
 20
38.573450
 30
0.0
  0
SPLINE
  5
22a
100
AcDbEntity
  8
Layer_1
 62
7
100
AcDbSpline
 70
8
 71
3
 72
8
 73
4
 74
0
 40
0
 40
0
 40
0
 40
0
 40
1
 40
1
 40
1
 40
1
 10
16.379804
 20
38.573450
 30
0.0
 10
16.492094
 20
38.412880
 30
0.0
 10
16.669144
 20
38.281500
 30
0.0
 10
16.773254
 20
38.281500
 30
0.0
  0
SPLINE
  5
22b
100
AcDbEntity
  8
Layer_1
 62
7
100
AcDbSpline
 70
8
 71
3
 72
8
 73
4
 74
0
 40
0
 40
0
 40
0
 40
0
 40
1
 40
1
 40
1
 40
1
 10
16.773254
 20
38.281500
 30
0.0
 10
16.912964
 20
38.281500
 30
0.0
 10
16.962534
 20
38.109470
 30
0.0
 10
16.962534
 20
37.624680
 30
0.0
  0
SPLINE
  5
22c
100
AcDbEntity
  8
Layer_1
 62
7
100
AcDbSpline
 70
8
 71
3
 72
8
 73
4
 74
0
 40
0
 40
0
 40
0
 40
0
 40
1
 40
1
 40
1
 40
1
 10
16.962534
 20
37.624680
 30
0.0
 10
16.962534
 20
36.994330
 30
0.0
 10
16.948034
 20
36.968100
 30
0.0
 10
16.601884
 20
36.973630
 30
0.0
  0
SPLINE
  5
22d
100
AcDbEntity
  8
Layer_1
 62
7
100
AcDbSpline
 70
8
 71
3
 72
8
 73
4
 74
0
 40
0
 40
0
 40
0
 40
0
 40
1
 40
1
 40
1
 40
1
 10
16.601884
 20
36.973630
 30
0.0
 10
16.403514
 20
36.976630
 30
0.0
 10
16.016004
 20
37.059830
 30
0.0
 10
15.740734
 20
37.158190
 30
0.0
  0
LWPOLYLINE
  5
22e
100
AcDbEntity
  8
Layer_1
 62
7
100
AcDbPolyline
 90
3
 70
0
 10
16.470744
 20
45.419340
 30
0.0
 10
16.962544
 20
45.489940
 30
0.0
 10
16.962544
 20
44.775700
 30
0.0
  0
SPLINE
  5
22f
100
AcDbEntity
  8
Layer_1
 62
7
100
AcDbSpline
 70
8
 71
3
 72
8
 73
4
 74
0
 40
0
 40
0
 40
0
 40
0
 40
1
 40
1
 40
1
 40
1
 10
17.355984
 20
37.624650
 30
0.0
 10
17.355984
 20
38.109440
 30
0.0
 10
17.405584
 20
38.281470
 30
0.0
 10
17.545274
 20
38.281470
 30
0.0
  0
SPLINE
  5
230
100
AcDbEntity
  8
Layer_1
 62
7
100
AcDbSpline
 70
8
 71
3
 72
8
 73
4
 74
0
 40
0
 40
0
 40
0
 40
0
 40
1
 40
1
 40
1
 40
1
 10
17.545274
 20
38.281470
 30
0.0
 10
17.649374
 20
38.281470
 30
0.0
 10
17.826424
 20
38.412850
 30
0.0
 10
17.938714
 20
38.573420
 30
0.0
  0
SPLINE
  5
231
100
AcDbEntity
  8
Layer_1
 62
7
100
AcDbSpline
 70
8
 71
3
 72
8
 73
4
 74
0
 40
0
 40
0
 40
0
 40
0
 40
1
 40
1
 40
1
 40
1
 10
17.938714
 20
38.573420
 30
0.0
 10
18.105264
 20
38.811590
 30
0.0
 10
18.142874
 20
39.303950
 30
0.0
 10
18.142874
 20
41.246000
 30
0.0
  0
SPLINE
  5
232
100
AcDbEntity
  8
Layer_1
 62
7
100
AcDbSpline
 70
8
 71
3
 72
8
 73
4
 74
0
 40
0
 40
0
 40
0
 40
0
 40
1
 40
1
 40
1
 40
1
 10
18.142874
 20
41.246000
 30
0.0
 10
18.142874
 20
43.385480
 30
0.0
 10
18.118574
 20
43.648650
 30
0.0
 10
17.903034
 20
43.844030
 30
0.0
  0
SPLINE
  5
233
100
AcDbEntity
  8
Layer_1
 62
7
100
AcDbSpline
 70
8
 71
3
 72
8
 73
4
 74
0
 40
0
 40
0
 40
0
 40
0
 40
1
 40
1
 40
1
 40
1
 10
17.903034
 20
43.844030
 30
0.0
 10
17.771124
 20
43.963600
 30
0.0
 10
17.594084
 20
44.061430
 30
0.0
 10
17.509594
 20
44.061430
 30
0.0
  0
SPLINE
  5
234
100
AcDbEntity
  8
Layer_1
 62
7
100
AcDbSpline
 70
8
 71
3
 72
8
 73
4
 74
0
 40
0
 40
0
 40
0
 40
0
 40
1
 40
1
 40
1
 40
1
 10
17.509594
 20
44.061430
 30
0.0
 10
17.410794
 20
44.061430
 30
0.0
 10
17.355984
 20
44.319410
 30
0.0
 10
17.355984
 20
44.783930
 30
0.0
  0
SPLINE
  5
235
100
AcDbEntity
  8
Layer_1
 62
7
100
AcDbSpline
 70
8
 71
3
 72
8
 73
4
 74
0
 40
0
 40
0
 40
0
 40
0
 40
1
 40
1
 40
1
 40
1
 10
17.355984
 20
44.783930
 30
0.0
 10
17.355984
 20
45.181300
 30
0.0
 10
17.412084
 20
45.506420
 30
0.0
 10
17.480684
 20
45.506420
 30
0.0
  0
SPLINE
  5
236
100
AcDbEntity
  8
Layer_1
 62
7
100
AcDbSpline
 70
8
 71
3
 72
8
 73
4
 74
0
 40
0
 40
0
 40
0
 40
0
 40
1
 40
1
 40
1
 40
1
 10
17.480684
 20
45.506420
 30
0.0
 10
17.549284
 20
45.506420
 30
0.0
 10
17.908014
 20
45.441420
 30
0.0
 10
18.277904
 20
45.361960
 30
0.0
  0
SPLINE
  5
237
100
AcDbEntity
  8
Layer_1
 62
7
100
AcDbSpline
 70
8
 71
3
 72
8
 73
4
 74
0
 40
0
 40
0
 40
0
 40
0
 40
1
 40
1
 40
1
 40
1
 10
18.277904
 20
45.361960
 30
0.0
 10
19.103254
 20
45.184660
 30
0.0
 10
19.791864
 20
44.612610
 30
0.0
 10
19.975024
 20
43.952100
 30
0.0
  0
SPLINE
  5
238
100
AcDbEntity
  8
Layer_1
 62
7
100
AcDbSpline
 70
8
 71
3
 72
8
 73
4
 74
0
 40
0
 40
0
 40
0
 40
0
 40
1
 40
1
 40
1
 40
1
 10
19.975024
 20
43.952100
 30
0.0
 10
20.146344
 20
43.334280
 30
0.0
 10
20.149444
 20
39.151140
 30
0.0
 10
19.979024
 20
38.536720
 30
0.0
  0
SPLINE
  5
239
100
AcDbEntity
  8
Layer_1
 62
7
100
AcDbSpline
 70
8
 71
3
 72
8
 73
4
 74
0
 40
0
 40
0
 40
0
 40
0
 40
1
 40
1
 40
1
 40
1
 10
19.979024
 20
38.536720
 30
0.0
 10
19.752454
 20
37.719800
 30
0.0
 10
18.685834
 20
36.967840
 30
0.0
 10
17.753634
 20
36.967840
 30
0.0
  0
SPLINE
  5
23a
100
AcDbEntity
  8
Layer_1
 62
7
100
AcDbSpline
 70
8
 71
3
 72
8
 73
4
 74
0
 40
0
 40
0
 40
0
 40
0
 40
1
 40
1
 40
1
 40
1
 10
17.753634
 20
36.967840
 30
0.0
 10
17.363874
 20
36.967840
 30
0.0
 10
17.355974
 20
36.980840
 30
0.0
 10
17.355974
 20
37.624650
 30
0.0
  0
LWPOLYLINE
  5
23b
100
AcDbEntity
  8
Layer_1
 62
7
100
AcDbPolyline
 90
1
 70
1
 10
15.740734
 20
37.158190
 30
0.0
  0
SPLINE
  5
23c
100
AcDbEntity
  8
Layer_1
 62
7
100
AcDbSpline
 70
8
 71
3
 72
8
 73
4
 74
0
 40
0
 40
0
 40
0
 40
0
 40
1
 40
1
 40
1
 40
1
 10
28.962544
 20
37.125960
 30
0.0
 10
28.129360
 20
37.416890
 30
0.0
 10
27.454347
 20
38.343710
 30
0.0
 10
27.454347
 20
39.196790
 30
0.0
  0
LWPOLYLINE
  5
23d
100
AcDbEntity
  8
Layer_1
 62
7
100
AcDbPolyline
 90
1
 70
1
 10
17.355974
 20
37.624650
 30
0.0
  0
SPLINE
  5
23e
100
AcDbEntity
  8
Layer_1
 62
7
100
AcDbSpline
 70
8
 71
3
 72
8
 73
4
 74
0
 40
0
 40
0
 40
0
 40
0
 40
1
 40
1
 40
1
 40
1
 10
29.274278
 20
39.071790
 30
0.0
 10
29.360368
 20
38.783970
 30
0.0
 10
29.546759
 20
38.486320
 30
0.0
 10
29.688479
 20
38.410350
 30
0.0
  0
SPLINE
  5
23f
100
AcDbEntity
  8
Layer_1
 62
7
100
AcDbSpline
 70
8
 71
3
 72
8
 73
4
 74
0
 40
0
 40
0
 40
0
 40
0
 40
1
 40
1
 40
1
 40
1
 10
29.688479
 20
38.410350
 30
0.0
 10
29.891492
 20
38.301520
 30
0.0
 10
29.946151
 20
38.133880
 30
0.0
 10
29.946151
 20
37.620030
 30
0.0
  0
SPLINE
  5
240
100
AcDbEntity
  8
Layer_1
 62
7
100
AcDbSpline
 70
8
 71
3
 72
8
 73
4
 74
0
 40
0
 40
0
 40
0
 40
0
 40
1
 40
1
 40
1
 40
1
 10
29.946151
 20
37.620030
 30
0.0
 10
29.946151
 20
37.028180
 30
0.0
 10
29.918851
 20
36.968800
 30
0.0
 10
29.651069
 20
36.978210
 30
0.0
  0
SPLINE
  5
241
100
AcDbEntity
  8
Layer_1
 62
7
100
AcDbSpline
 70
8
 71
3
 72
8
 73
4
 74
0
 40
0
 40
0
 40
0
 40
0
 40
1
 40
1
 40
1
 40
1
 10
29.651069
 20
36.978210
 30
0.0
 10
29.488774
 20
36.984210
 30
0.0
 10
29.178938
 20
37.050410
 30
0.0
 10
28.962544
 20
37.125960
 30
0.0
  0
LWPOLYLINE
  5
242
100
AcDbEntity
  8
Layer_1
 62
7
100
AcDbPolyline
 90
5
 70
0
 10
27.454347
 20
39.196790
 30
0.0
 10
27.454347
 20
39.595090
 30
0.0
 10
28.286047
 20
39.595090
 30
0.0
 10
29.117747
 20
39.595090
 30
0.0
 10
29.274278
 20
39.071790
 30
0.0
  0
SPLINE
  5
243
100
AcDbEntity
  8
Layer_1
 62
7
100
AcDbSpline
 70
8
 71
3
 72
8
 73
4
 74
0
 40
0
 40
0
 40
0
 40
0
 40
1
 40
1
 40
1
 40
1
 10
30.339593
 20
37.571950
 30
0.0
 10
30.339593
 20
38.073800
 30
0.0
 10
30.406193
 20
38.238370
 30
0.0
 10
30.733036
 20
38.544190
 30
0.0
  0
SPLINE
  5
244
100
AcDbEntity
  8
Layer_1
 62
7
100
AcDbSpline
 70
8
 71
3
 72
8
 73
4
 74
0
 40
0
 40
0
 40
0
 40
0
 40
1
 40
1
 40
1
 40
1
 10
30.733036
 20
38.544190
 30
0.0
 10
31.179120
 20
38.961580
 30
0.0
 10
31.248729
 20
39.502710
 30
0.0
 10
30.934608
 20
40.111150
 30
0.0
  0
SPLINE
  5
245
100
AcDbEntity
  8
Layer_1
 62
7
100
AcDbSpline
 70
8
 71
3
 72
8
 73
4
 74
0
 40
0
 40
0
 40
0
 40
0
 40
1
 40
1
 40
1
 40
1
 10
30.934608
 20
40.111150
 30
0.0
 10
30.709359
 20
40.547450
 30
0.0
 10
30.501091
 20
40.646000
 30
0.0
 10
29.804277
 20
40.646000
 30
0.0
  0
LWPOLYLINE
  5
246
100
AcDbEntity
  8
Layer_1
 62
7
100
AcDbPolyline
 90
1
 70
1
 10
28.962544
 20
37.125960
 30
0.0
  0
SPLINE
  5
247
100
AcDbEntity
  8
Layer_1
 62
7
100
AcDbSpline
 70
8
 71
3
 72
8
 73
4
 74
0
 40
0
 40
0
 40
0
 40
0
 40
1
 40
1
 40
1
 40
1
 10
29.844364
 20
42.014750
 30
0.0
 10
30.635537
 20
42.141480
 30
0.0
 10
30.864183
 20
42.397710
 30
0.0
 10
30.864183
 20
43.157610
 30
0.0
  0
SPLINE
  5
248
100
AcDbEntity
  8
Layer_1
 62
7
100
AcDbSpline
 70
8
 71
3
 72
8
 73
4
 74
0
 40
0
 40
0
 40
0
 40
0
 40
1
 40
1
 40
1
 40
1
 10
30.864183
 20
43.157610
 30
0.0
 10
30.864183
 20
43.655000
 30
0.0
 10
30.808373
 20
43.819360
 30
0.0
 10
30.601888
 20
43.930050
 30
0.0
  0
SPLINE
  5
249
100
AcDbEntity
  8
Layer_1
 62
7
100
AcDbSpline
 70
8
 71
3
 72
8
 73
4
 74
0
 40
0
 40
0
 40
0
 40
0
 40
1
 40
1
 40
1
 40
1
 10
30.601888
 20
43.930050
 30
0.0
 10
30.392266
 20
44.042420
 30
0.0
 10
30.339593
 20
44.205100
 30
0.0
 10
30.339593
 20
44.740140
 30
0.0
  0
LWPOLYLINE
  5
24a
100
AcDbEntity
  8
Layer_1
 62
7
100
AcDbPolyline
 90
5
 70
0
 10
29.804277
 20
40.646000
 30
0.0
 10
29.290413
 20
40.646000
 30
0.0
 10
29.290413
 20
41.286020
 30
0.0
 10
29.290413
 20
41.926050
 30
0.0
 10
29.844364
 20
42.014750
 30
0.0
  0
SPLINE
  5
24b
100
AcDbEntity
  8
Layer_1
 62
7
100
AcDbSpline
 70
8
 71
3
 72
8
 73
4
 74
0
 40
0
 40
0
 40
0
 40
0
 40
1
 40
1
 40
1
 40
1
 10
30.885616
 20
45.336230
 30
0.0
 10
31.945410
 20
45.193850
 30
0.0
 10
32.568540
 20
44.391250
 30
0.0
 10
32.568898
 20
43.168140
 30
0.0
  0
SPLINE
  5
24c
100
AcDbEntity
  8
Layer_1
 62
7
100
AcDbSpline
 70
8
 71
3
 72
8
 73
4
 74
0
 40
0
 40
0
 40
0
 40
0
 40
1
 40
1
 40
1
 40
1
 10
32.568898
 20
43.168140
 30
0.0
 10
32.569160
 20
42.460990
 30
0.0
 10
32.357957
 20
41.880540
 30
0.0
 10
31.988913
 20
41.573760
 30
0.0
  0
SPLINE
  5
24d
100
AcDbEntity
  8
Layer_1
 62
7
100
AcDbSpline
 70
8
 71
3
 72
8
 73
4
 74
0
 40
0
 40
0
 40
0
 40
0
 40
1
 40
1
 40
1
 40
1
 10
31.988913
 20
41.573760
 30
0.0
 10
31.807553
 20
41.423000
 30
0.0
 10
31.820025
 20
41.376450
 30
0.0
 10
32.101104
 20
41.154980
 30
0.0
  0
SPLINE
  5
24e
100
AcDbEntity
  8
Layer_1
 62
7
100
AcDbSpline
 70
8
 71
3
 72
8
 73
4
 74
0
 40
0
 40
0
 40
0
 40
0
 40
1
 40
1
 40
1
 40
1
 10
32.101104
 20
41.154980
 30
0.0
 10
32.841115
 20
40.571940
 30
0.0
 10
33.030620
 20
38.948050
 30
0.0
 10
32.472421
 20
37.973150
 30
0.0
  0
SPLINE
  5
24f
100
AcDbEntity
  8
Layer_1
 62
7
100
AcDbSpline
 70
8
 71
3
 72
8
 73
4
 74
0
 40
0
 40
0
 40
0
 40
0
 40
1
 40
1
 40
1
 40
1
 10
32.472421
 20
37.973150
 30
0.0
 10
32.205306
 20
37.506630
 30
0.0
 10
31.258135
 20
36.967770
 30
0.0
 10
30.705247
 20
36.967770
 30
0.0
  0
SPLINE
  5
250
100
AcDbEntity
  8
Layer_1
 62
7
100
AcDbSpline
 70
8
 71
3
 72
8
 73
4
 74
0
 40
0
 40
0
 40
0
 40
0
 40
1
 40
1
 40
1
 40
1
 10
30.705247
 20
36.967770
 30
0.0
 10
30.358148
 20
36.967770
 30
0.0
 10
30.339593
 20
36.998370
 30
0.0
 10
30.339593
 20
37.571880
 30
0.0
  0
LWPOLYLINE
  5
251
100
AcDbEntity
  8
Layer_1
 62
7
100
AcDbPolyline
 90
3
 70
0
 10
30.339593
 20
44.740140
 30
0.0
 10
30.339593
 20
45.409630
 30
0.0
 10
30.885616
 20
45.336230
 30
0.0
  0
LWPOLYLINE
  5
252
100
AcDbEntity
  8
Layer_1
 62
7
100
AcDbPolyline
 90
1
 70
1
 10
30.339593
 20
37.571880
 30
0.0
  0
LWPOLYLINE
  5
253
100
AcDbEntity
  8
Layer_1
 62
7
100
AcDbPolyline
 90
8
 70
1
 10
7.651074
 20
37.756010
 30
0.0
 10
7.651074
 20
38.412830
 30
0.0
 10
10.405164
 20
38.412830
 30
0.0
 10
13.159264
 20
38.412830
 30
0.0
 10
13.159264
 20
37.756010
 30
0.0
 10
13.159264
 20
37.099200
 30
0.0
 10
10.405164
 20
37.099200
 30
0.0
 10
7.651074
 20
37.099200
 30
0.0
  0
SPLINE
  5
254
100
AcDbEntity
  8
Layer_1
 62
7
100
AcDbSpline
 70
8
 71
3
 72
8
 73
4
 74
0
 40
0
 40
0
 40
0
 40
0
 40
1
 40
1
 40
1
 40
1
 10
7.913364
 20
38.942900
 30
0.0
 10
7.913364
 20
39.128800
 30
0.0
 10
8.284454
 20
39.713660
 30
0.0
 10
8.691354
 20
40.169040
 30
0.0
  0
SPLINE
  5
255
100
AcDbEntity
  8
Layer_1
 62
7
100
AcDbSpline
 70
8
 71
3
 72
8
 73
4
 74
0
 40
0
 40
0
 40
0
 40
0
 40
1
 40
1
 40
1
 40
1
 10
8.691354
 20
40.169040
 30
0.0
 10
8.876574
 20
40.376330
 30
0.0
 10
9.511704
 20
40.860550
 30
0.0
 10
10.102744
 20
41.245090
 30
0.0
  0
SPLINE
  5
256
100
AcDbEntity
  8
Layer_1
 62
7
100
AcDbSpline
 70
8
 71
3
 72
8
 73
4
 74
0
 40
0
 40
0
 40
0
 40
0
 40
1
 40
1
 40
1
 40
1
 10
10.102744
 20
41.245090
 30
0.0
 10
11.490914
 20
42.148230
 30
0.0
 10
11.848534
 20
42.814010
 30
0.0
 10
11.434444
 20
43.724320
 30
0.0
  0
SPLINE
  5
257
100
AcDbEntity
  8
Layer_1
 62
7
100
AcDbSpline
 70
8
 71
3
 72
8
 73
4
 74
0
 40
0
 40
0
 40
0
 40
0
 40
1
 40
1
 40
1
 40
1
 10
11.434444
 20
43.724320
 30
0.0
 10
11.254794
 20
44.119260
 30
0.0
 10
10.934944
 20
44.243660
 30
0.0
 10
10.401134
 20
44.126230
 30
0.0
  0
SPLINE
  5
258
100
AcDbEntity
  8
Layer_1
 62
7
100
AcDbSpline
 70
8
 71
3
 72
8
 73
4
 74
0
 40
0
 40
0
 40
0
 40
0
 40
1
 40
1
 40
1
 40
1
 10
10.401134
 20
44.126230
 30
0.0
 10
9.951094
 20
44.027230
 30
0.0
 10
9.749434
 20
43.725290
 30
0.0
 10
9.749434
 20
43.150530
 30
0.0
  0
LWPOLYLINE
  5
259
100
AcDbEntity
  8
Layer_1
 62
7
100
AcDbPolyline
 90
8
 70
1
 10
21.028114
 20
37.756010
 30
0.0
 10
21.028114
 20
38.412830
 30
0.0
 10
23.716644
 20
38.412830
 30
0.0
 10
26.405167
 20
38.412830
 30
0.0
 10
26.405167
 20
37.756010
 30
0.0
 10
26.405167
 20
37.099200
 30
0.0
 10
23.716644
 20
37.099200
 30
0.0
 10
21.028114
 20
37.099200
 30
0.0
  0
SPLINE
  5
25a
100
AcDbEntity
  8
Layer_1
 62
7
100
AcDbSpline
 70
8
 71
3
 72
8
 73
4
 74
0
 40
0
 40
0
 40
0
 40
0
 40
1
 40
1
 40
1
 40
1
 10
7.913364
 20
43.179740
 30
0.0
 10
7.913364
 20
43.417300
 30
0.0
 10
8.046154
 20
43.875430
 30
0.0
 10
8.208444
 20
44.197800
 30
0.0
  0
SPLINE
  5
25b
100
AcDbEntity
  8
Layer_1
 62
7
100
AcDbSpline
 70
8
 71
3
 72
8
 73
4
 74
0
 40
0
 40
0
 40
0
 40
0
 40
1
 40
1
 40
1
 40
1
 10
8.208444
 20
44.197800
 30
0.0
 10
8.628534
 20
45.032230
 30
0.0
 10
9.437534
 20
45.419870
 30
0.0
 10
10.741324
 20
45.411450
 30
0.0
  0
SPLINE
  5
25c
100
AcDbEntity
  8
Layer_1
 62
7
100
AcDbSpline
 70
8
 71
3
 72
8
 73
4
 74
0
 40
0
 40
0
 40
0
 40
0
 40
1
 40
1
 40
1
 40
1
 10
10.741324
 20
45.411450
 30
0.0
 10
12.502284
 20
45.400050
 30
0.0
 10
13.290414
 20
44.741710
 30
0.0
 10
13.290414
 20
43.282020
 30
0.0
  0
SPLINE
  5
25d
100
AcDbEntity
  8
Layer_1
 62
7
100
AcDbSpline
 70
8
 71
3
 72
8
 73
4
 74
0
 40
0
 40
0
 40
0
 40
0
 40
1
 40
1
 40
1
 40
1
 10
13.290414
 20
43.282020
 30
0.0
 10
13.290414
 20
42.113720
 30
0.0
 10
12.714734
 20
41.162400
 30
0.0
 10
11.687504
 20
40.633160
 30
0.0
  0
SPLINE
  5
25e
100
AcDbEntity
  8
Layer_1
 62
7
100
AcDbSpline
 70
8
 71
3
 72
8
 73
4
 74
0
 40
0
 40
0
 40
0
 40
0
 40
1
 40
1
 40
1
 40
1
 10
11.687504
 20
40.633160
 30
0.0
 10
10.996174
 20
40.276980
 30
0.0
 10
10.334004
 20
39.663180
 30
0.0
 10
10.143124
 20
39.201610
 30
0.0
  0
SPLINE
  5
25f
100
AcDbEntity
  8
Layer_1
 62
7
100
AcDbSpline
 70
8
 71
3
 72
8
 73
4
 74
0
 40
0
 40
0
 40
0
 40
0
 40
1
 40
1
 40
1
 40
1
 10
10.143124
 20
39.201610
 30
0.0
 10
9.981244
 20
38.810160
 30
0.0
 10
9.971414
 20
38.806920
 30
0.0
 10
8.946634
 20
38.806920
 30
0.0
  0
SPLINE
  5
260
100
AcDbEntity
  8
Layer_1
 62
7
100
AcDbSpline
 70
8
 71
3
 72
8
 73
4
 74
0
 40
0
 40
0
 40
0
 40
0
 40
1
 40
1
 40
1
 40
1
 10
8.946634
 20
38.806920
 30
0.0
 10
8.321804
 20
38.806920
 30
0.0
 10
7.913364
 20
38.860720
 30
0.0
 10
7.913364
 20
38.942900
 30
0.0
  0
LWPOLYLINE
  5
261
100
AcDbEntity
  8
Layer_1
 62
7
100
AcDbPolyline
 90
5
 70
0
 10
9.749434
 20
43.150530
 30
0.0
 10
9.749434
 20
42.747800
 30
0.0
 10
8.831394
 20
42.747800
 30
0.0
 10
7.913364
 20
42.747800
 30
0.0
 10
7.913364
 20
43.179740
 30
0.0
  0
SPLINE
  5
262
100
AcDbEntity
  8
Layer_1
 62
7
100
AcDbSpline
 70
8
 71
3
 72
8
 73
4
 74
0
 40
0
 40
0
 40
0
 40
0
 40
1
 40
1
 40
1
 40
1
 10
21.159264
 20
38.877800
 30
0.0
 10
21.159264
 20
38.916800
 30
0.0
 10
21.273024
 20
39.172070
 30
0.0
 10
21.412064
 20
39.445050
 30
0.0
  0
SPLINE
  5
263
100
AcDbEntity
  8
Layer_1
 62
7
100
AcDbSpline
 70
8
 71
3
 72
8
 73
4
 74
0
 40
0
 40
0
 40
0
 40
0
 40
1
 40
1
 40
1
 40
1
 10
21.412064
 20
39.445050
 30
0.0
 10
21.698774
 20
40.007980
 30
0.0
 10
22.507134
 20
40.785360
 30
0.0
 10
23.151434
 20
41.117780
 30
0.0
  0
SPLINE
  5
264
100
AcDbEntity
  8
Layer_1
 62
7
100
AcDbSpline
 70
8
 71
3
 72
8
 73
4
 74
0
 40
0
 40
0
 40
0
 40
0
 40
1
 40
1
 40
1
 40
1
 10
23.151434
 20
41.117780
 30
0.0
 10
24.578493
 20
41.854040
 30
0.0
 10
25.115021
 20
42.768720
 30
0.0
 10
24.680346
 20
43.724290
 30
0.0
  0
SPLINE
  5
265
100
AcDbEntity
  8
Layer_1
 62
7
100
AcDbSpline
 70
8
 71
3
 72
8
 73
4
 74
0
 40
0
 40
0
 40
0
 40
0
 40
1
 40
1
 40
1
 40
1
 10
24.680346
 20
43.724290
 30
0.0
 10
24.291170
 20
44.579840
 30
0.0
 10
22.995334
 20
44.175230
 30
0.0
 10
22.995334
 20
43.198160
 30
0.0
  0
LWPOLYLINE
  5
266
100
AcDbEntity
  8
Layer_1
 62
7
100
AcDbPolyline
 90
1
 70
1
 10
7.913364
 20
38.942900
 30
0.0
  0
SPLINE
  5
267
100
AcDbEntity
  8
Layer_1
 62
7
100
AcDbSpline
 70
8
 71
3
 72
8
 73
4
 74
0
 40
0
 40
0
 40
0
 40
0
 40
1
 40
1
 40
1
 40
1
 10
21.159264
 20
43.179710
 30
0.0
 10
21.159264
 20
43.417270
 30
0.0
 10
21.292054
 20
43.875400
 30
0.0
 10
21.454344
 20
44.197770
 30
0.0
  0
SPLINE
  5
268
100
AcDbEntity
  8
Layer_1
 62
7
100
AcDbSpline
 70
8
 71
3
 72
8
 73
4
 74
0
 40
0
 40
0
 40
0
 40
0
 40
1
 40
1
 40
1
 40
1
 10
21.454344
 20
44.197770
 30
0.0
 10
21.872724
 20
45.028800
 30
0.0
 10
22.684424
 20
45.419830
 30
0.0
 10
23.973802
 20
45.411510
 30
0.0
  0
SPLINE
  5
269
100
AcDbEntity
  8
Layer_1
 62
7
100
AcDbSpline
 70
8
 71
3
 72
8
 73
4
 74
0
 40
0
 40
0
 40
0
 40
0
 40
1
 40
1
 40
1
 40
1
 10
23.973802
 20
45.411510
 30
0.0
 10
25.764704
 20
45.399910
 30
0.0
 10
26.536315
 20
44.758720
 30
0.0
 10
26.536315
 20
43.281990
 30
0.0
  0
SPLINE
  5
26a
100
AcDbEntity
  8
Layer_1
 62
7
100
AcDbSpline
 70
8
 71
3
 72
8
 73
4
 74
0
 40
0
 40
0
 40
0
 40
0
 40
1
 40
1
 40
1
 40
1
 10
26.536315
 20
43.281990
 30
0.0
 10
26.536315
 20
42.113690
 30
0.0
 10
25.960640
 20
41.162370
 30
0.0
 10
24.933403
 20
40.633130
 30
0.0
  0
SPLINE
  5
26b
100
AcDbEntity
  8
Layer_1
 62
7
100
AcDbSpline
 70
8
 71
3
 72
8
 73
4
 74
0
 40
0
 40
0
 40
0
 40
0
 40
1
 40
1
 40
1
 40
1
 10
24.933403
 20
40.633130
 30
0.0
 10
24.242079
 20
40.276950
 30
0.0
 10
23.579904
 20
39.663150
 30
0.0
 10
23.389024
 20
39.201580
 30
0.0
  0
SPLINE
  5
26c
100
AcDbEntity
  8
Layer_1
 62
7
100
AcDbSpline
 70
8
 71
3
 72
8
 73
4
 74
0
 40
0
 40
0
 40
0
 40
0
 40
1
 40
1
 40
1
 40
1
 10
23.389024
 20
39.201580
 30
0.0
 10
23.227144
 20
38.810130
 30
0.0
 10
23.217314
 20
38.806890
 30
0.0
 10
22.192534
 20
38.806890
 30
0.0
  0
SPLINE
  5
26d
100
AcDbEntity
  8
Layer_1
 62
7
100
AcDbSpline
 70
8
 71
3
 72
8
 73
4
 74
0
 40
0
 40
0
 40
0
 40
0
 40
1
 40
1
 40
1
 40
1
 10
22.192534
 20
38.806890
 30
0.0
 10
21.624234
 20
38.806890
 30
0.0
 10
21.159264
 20
38.838790
 30
0.0
 10
21.159264
 20
38.877790
 30
0.0
  0
LWPOLYLINE
  5
26e
100
AcDbEntity
  8
Layer_1
 62
7
100
AcDbPolyline
 90
5
 70
0
 10
22.995334
 20
43.198160
 30
0.0
 10
22.995334
 20
42.747770
 30
0.0
 10
22.077294
 20
42.747770
 30
0.0
 10
21.159264
 20
42.747770
 30
0.0
 10
21.159264
 20
43.179710
 30
0.0
  0
SPLINE
  5
26f
100
AcDbEntity
  8
Layer_1
 62
7
100
AcDbSpline
 70
8
 71
3
 72
8
 73
4
 74
0
 40
0
 40
0
 40
0
 40
0
 40
1
 40
1
 40
1
 40
1
 10
27.508822
 20
43.430350
 30
0.0
 10
27.688181
 20
44.553840
 30
0.0
 10
28.333909
 20
45.227180
 30
0.0
 10
29.341004
 20
45.340880
 30
0.0
  0
LWPOLYLINE
  5
270
100
AcDbEntity
  8
Layer_1
 62
7
100
AcDbPolyline
 90
1
 70
1
 10
21.159264
 20
38.877790
 30
0.0
  0
SPLINE
  5
271
100
AcDbEntity
  8
Layer_1
 62
7
100
AcDbSpline
 70
8
 71
3
 72
8
 73
4
 74
0
 40
0
 40
0
 40
0
 40
0
 40
1
 40
1
 40
1
 40
1
 10
29.946151
 20
44.766430
 30
0.0
 10
29.946151
 20
44.225870
 30
0.0
 10
29.899231
 20
44.103070
 30
0.0
 10
29.651069
 20
43.994010
 30
0.0
  0
SPLINE
  5
272
100
AcDbEntity
  8
Layer_1
 62
7
100
AcDbSpline
 70
8
 71
3
 72
8
 73
4
 74
0
 40
0
 40
0
 40
0
 40
0
 40
1
 40
1
 40
1
 40
1
 10
29.651069
 20
43.994010
 30
0.0
 10
29.450501
 20
43.905910
 30
0.0
 10
29.334983
 20
43.717070
 30
0.0
 10
29.290413
 20
43.404570
 30
0.0
  0
LWPOLYLINE
  5
273
100
AcDbEntity
  8
Layer_1
 62
7
100
AcDbPolyline
 90
3
 70
0
 10
29.341004
 20
45.340880
 30
0.0
 10
29.946151
 20
45.409180
 30
0.0
 10
29.946151
 20
44.766430
 30
0.0
  0
LWPOLYLINE
  5
274
100
AcDbEntity
  8
Layer_1
 62
7
100
AcDbPolyline
 90
5
 70
0
 10
29.290413
 20
43.404570
 30
0.0
 10
29.224843
 20
42.944800
 30
0.0
 10
28.321812
 20
42.905500
 30
0.0
 10
27.418782
 20
42.866300
 30
0.0
 10
27.508822
 20
43.430350
 30
0.0
  0
SPLINE
  5
275
100
AcDbEntity
  8
Layer_1
 62
7
100
AcDbSpline
 70
8
 71
3
 72
8
 73
4
 74
0
 40
0
 40
0
 40
0
 40
0
 40
1
 40
1
 40
1
 40
1
 10
19.585494
 20
55.230280
 30
0.0
 10
19.585494
 20
53.147720
 30
0.0
 10
19.587494
 20
53.129870
 30
0.0
 10
19.906934
 20
52.920530
 30
0.0
  0
SPLINE
  5
276
100
AcDbEntity
  8
Layer_1
 62
7
100
AcDbSpline
 70
8
 71
3
 72
8
 73
4
 74
0
 40
0
 40
0
 40
0
 40
0
 40
1
 40
1
 40
1
 40
1
 10
19.906934
 20
52.920530
 30
0.0
 10
20.096174
 20
52.796330
 30
0.0
 10
20.338904
 20
52.744700
 30
0.0
 10
20.497104
 20
52.794990
 30
0.0
  0
SPLINE
  5
277
100
AcDbEntity
  8
Layer_1
 62
7
100
AcDbSpline
 70
8
 71
3
 72
8
 73
4
 74
0
 40
0
 40
0
 40
0
 40
0
 40
1
 40
1
 40
1
 40
1
 10
20.497104
 20
52.794990
 30
0.0
 10
20.733334
 20
52.870090
 30
0.0
 10
20.765814
 20
52.824390
 30
0.0
 10
20.765814
 20
52.416420
 30
0.0
  0
SPLINE
  5
278
100
AcDbEntity
  8
Layer_1
 62
7
100
AcDbSpline
 70
8
 71
3
 72
8
 73
4
 74
0
 40
0
 40
0
 40
0
 40
0
 40
1
 40
1
 40
1
 40
1
 10
20.765814
 20
52.416420
 30
0.0
 10
20.765814
 20
51.834310
 30
0.0
 10
20.507594
 20
51.680450
 30
0.0
 10
19.530604
 20
51.680450
 30
0.0
  0
SPLINE
  5
279
100
AcDbEntity
  8
Layer_1
 62
7
100
AcDbSpline
 70
8
 71
3
 72
8
 73
4
 74
0
 40
0
 40
0
 40
0
 40
0
 40
1
 40
1
 40
1
 40
1
 10
19.530604
 20
51.680450
 30
0.0
 10
18.911894
 20
51.680450
 30
0.0
 10
18.738514
 20
51.737850
 30
0.0
 10
18.374444
 20
52.063480
 30
0.0
  0
LWPOLYLINE
  5
27a
100
AcDbEntity
  8
Layer_1
 62
7
100
AcDbPolyline
 90
7
 70
0
 10
18.374454
 20
52.063480
 30
0.0
 10
17.946154
 20
52.446500
 30
0.0
 10
17.905254
 20
54.887780
 30
0.0
 10
17.864354
 20
57.329050
 30
0.0
 10
18.724924
 20
57.329050
 30
0.0
 10
19.585494
 20
57.329050
 30
0.0
 10
19.585494
 20
55.230280
 30
0.0
  0
SPLINE
  5
27b
100
AcDbEntity
  8
Layer_1
 62
7
100
AcDbSpline
 70
8
 71
3
 72
8
 73
4
 74
0
 40
0
 40
0
 40
0
 40
0
 40
1
 40
1
 40
1
 40
1
 10
34.801306
 20
51.827060
 30
0.0
 10
34.315285
 20
52.021290
 30
0.0
 10
34.038551
 20
52.317580
 30
0.0
 10
33.872522
 20
52.821480
 30
0.0
  0
SPLINE
  5
27c
100
AcDbEntity
  8
Layer_1
 62
7
100
AcDbSpline
 70
8
 71
3
 72
8
 73
4
 74
0
 40
0
 40
0
 40
0
 40
0
 40
1
 40
1
 40
1
 40
1
 10
33.872522
 20
52.821480
 30
0.0
 10
33.516720
 20
53.901340
 30
0.0
 10
34.132703
 20
54.788520
 30
0.0
 10
35.540708
 20
55.224130
 30
0.0
  0
SPLINE
  5
27d
100
AcDbEntity
  8
Layer_1
 62
7
100
AcDbSpline
 70
8
 71
3
 72
8
 73
4
 74
0
 40
0
 40
0
 40
0
 40
0
 40
1
 40
1
 40
1
 40
1
 10
35.540708
 20
55.224130
 30
0.0
 10
36.719950
 20
55.588960
 30
0.0
 10
36.765823
 20
55.580340
 30
0.0
 10
36.765823
 20
54.993960
 30
0.0
  0
SPLINE
  5
27e
100
AcDbEntity
  8
Layer_1
 62
7
100
AcDbSpline
 70
8
 71
3
 72
8
 73
4
 74
0
 40
0
 40
0
 40
0
 40
0
 40
1
 40
1
 40
1
 40
1
 10
36.765823
 20
54.993960
 30
0.0
 10
36.765823
 20
54.538680
 30
0.0
 10
36.720063
 20
54.476660
 30
0.0
 10
36.208446
 20
54.238630
 30
0.0
  0
SPLINE
  5
27f
100
AcDbEntity
  8
Layer_1
 62
7
100
AcDbSpline
 70
8
 71
3
 72
8
 73
4
 74
0
 40
0
 40
0
 40
0
 40
0
 40
1
 40
1
 40
1
 40
1
 10
36.208446
 20
54.238630
 30
0.0
 10
35.772737
 20
54.035910
 30
0.0
 10
35.641844
 20
53.898710
 30
0.0
 10
35.608805
 20
53.610110
 30
0.0
  0
SPLINE
  5
280
100
AcDbEntity
  8
Layer_1
 62
7
100
AcDbSpline
 70
8
 71
3
 72
8
 73
4
 74
0
 40
0
 40
0
 40
0
 40
0
 40
1
 40
1
 40
1
 40
1
 10
35.608805
 20
53.610110
 30
0.0
 10
35.547655
 20
53.075950
 30
0.0
 10
35.809411
 20
52.822100
 30
0.0
 10
36.333509
 20
52.907290
 30
0.0
  0
SPLINE
  5
281
100
AcDbEntity
  8
Layer_1
 62
7
100
AcDbSpline
 70
8
 71
3
 72
8
 73
4
 74
0
 40
0
 40
0
 40
0
 40
0
 40
1
 40
1
 40
1
 40
1
 10
36.333509
 20
52.907290
 30
0.0
 10
36.761555
 20
52.976890
 30
0.0
 10
36.765823
 20
52.972390
 30
0.0
 10
36.765823
 20
52.457120
 30
0.0
  0
SPLINE
  5
282
100
AcDbEntity
  8
Layer_1
 62
7
100
AcDbSpline
 70
8
 71
3
 72
8
 73
4
 74
0
 40
0
 40
0
 40
0
 40
0
 40
1
 40
1
 40
1
 40
1
 10
36.765823
 20
52.457120
 30
0.0
 10
36.765823
 20
52.019330
 30
0.0
 10
36.712393
 20
51.916330
 30
0.0
 10
36.429416
 20
51.808560
 30
0.0
  0
SPLINE
  5
283
100
AcDbEntity
  8
Layer_1
 62
7
100
AcDbSpline
 70
8
 71
3
 72
8
 73
4
 74
0
 40
0
 40
0
 40
0
 40
0
 40
1
 40
1
 40
1
 40
1
 10
36.429416
 20
51.808560
 30
0.0
 10
36.007418
 20
51.647860
 30
0.0
 10
35.227543
 20
51.656710
 30
0.0
 10
34.801306
 20
51.827060
 30
0.0
  0
LWPOLYLINE
  5
284
100
AcDbEntity
  8
Layer_1
 62
7
100
AcDbPolyline
 90
1
 70
1
 10
18.374444
 20
52.063480
 30
0.0
  0
SPLINE
  5
285
100
AcDbEntity
  8
Layer_1
 62
7
100
AcDbSpline
 70
8
 71
3
 72
8
 73
4
 74
0
 40
0
 40
0
 40
0
 40
0
 40
1
 40
1
 40
1
 40
1
 10
44.488846
 20
51.869160
 30
0.0
 10
43.928930
 20
52.187580
 30
0.0
 10
43.782216
 20
52.748440
 30
0.0
 10
43.782216
 20
54.570470
 30
0.0
  0
SPLINE
  5
286
100
AcDbEntity
  8
Layer_1
 62
7
100
AcDbSpline
 70
8
 71
3
 72
8
 73
4
 74
0
 40
0
 40
0
 40
0
 40
0
 40
1
 40
1
 40
1
 40
1
 10
43.782216
 20
54.570470
 30
0.0
 10
43.782216
 20
56.899500
 30
0.0
 10
44.097957
 20
57.460460
 30
0.0
 10
45.408877
 20
57.460460
 30
0.0
  0
SPLINE
  5
287
100
AcDbEntity
  8
Layer_1
 62
7
100
AcDbSpline
 70
8
 71
3
 72
8
 73
4
 74
0
 40
0
 40
0
 40
0
 40
0
 40
1
 40
1
 40
1
 40
1
 10
45.408877
 20
57.460460
 30
0.0
 10
46.240810
 20
57.460460
 30
0.0
 10
46.601888
 20
57.235400
 30
0.0
 10
46.601888
 20
56.716880
 30
0.0
  0
SPLINE
  5
288
100
AcDbEntity
  8
Layer_1
 62
7
100
AcDbSpline
 70
8
 71
3
 72
8
 73
4
 74
0
 40
0
 40
0
 40
0
 40
0
 40
1
 40
1
 40
1
 40
1
 10
46.601888
 20
56.716880
 30
0.0
 10
46.601888
 20
56.302510
 30
0.0
 10
46.576258
 20
56.278190
 30
0.0
 10
46.139626
 20
56.278190
 30
0.0
  0
SPLINE
  5
289
100
AcDbEntity
  8
Layer_1
 62
7
100
AcDbSpline
 70
8
 71
3
 72
8
 73
4
 74
0
 40
0
 40
0
 40
0
 40
0
 40
1
 40
1
 40
1
 40
1
 10
46.139626
 20
56.278190
 30
0.0
 10
45.539498
 20
56.278190
 30
0.0
 10
45.421560
 20
55.978850
 30
0.0
 10
45.421560
 20
54.455670
 30
0.0
  0
SPLINE
  5
28a
100
AcDbEntity
  8
Layer_1
 62
7
100
AcDbSpline
 70
8
 71
3
 72
8
 73
4
 74
0
 40
0
 40
0
 40
0
 40
0
 40
1
 40
1
 40
1
 40
1
 10
45.421560
 20
54.455670
 30
0.0
 10
45.421560
 20
53.091460
 30
0.0
 10
45.565667
 20
52.796280
 30
0.0
 10
46.187077
 20
52.887640
 30
0.0
  0
SPLINE
  5
28b
100
AcDbEntity
  8
Layer_1
 62
7
100
AcDbSpline
 70
8
 71
3
 72
8
 73
4
 74
0
 40
0
 40
0
 40
0
 40
0
 40
1
 40
1
 40
1
 40
1
 10
46.187077
 20
52.887640
 30
0.0
 10
46.579092
 20
52.945240
 30
0.0
 10
46.601888
 20
52.925440
 30
0.0
 10
46.601888
 20
52.527680
 30
0.0
  0
SPLINE
  5
28c
100
AcDbEntity
  8
Layer_1
 62
7
100
AcDbSpline
 70
8
 71
3
 72
8
 73
4
 74
0
 40
0
 40
0
 40
0
 40
0
 40
1
 40
1
 40
1
 40
1
 10
46.601888
 20
52.527680
 30
0.0
 10
46.601888
 20
52.296170
 30
0.0
 10
46.517438
 20
52.036550
 30
0.0
 10
46.414225
 20
51.950750
 30
0.0
  0
SPLINE
  5
28d
100
AcDbEntity
  8
Layer_1
 62
7
100
AcDbSpline
 70
8
 71
3
 72
8
 73
4
 74
0
 40
0
 40
0
 40
0
 40
0
 40
1
 40
1
 40
1
 40
1
 10
46.414225
 20
51.950750
 30
0.0
 10
46.109504
 20
51.697430
 30
0.0
 10
44.882253
 20
51.645430
 30
0.0
 10
44.488846
 20
51.869150
 30
0.0
  0
LWPOLYLINE
  5
28e
100
AcDbEntity
  8
Layer_1
 62
7
100
AcDbPolyline
 90
1
 70
1
 10
34.801306
 20
51.827060
 30
0.0
  0
LWPOLYLINE
  5
28f
100
AcDbEntity
  8
Layer_1
 62
7
100
AcDbPolyline
 90
1
 70
1
 10
44.488846
 20
51.869150
 30
0.0
  0
LWPOLYLINE
  5
290
100
AcDbEntity
  8
Layer_1
 62
7
100
AcDbPolyline
 90
8
 70
1
 10
11.192054
 20
55.884100
 30
0.0
 10
11.192054
 20
59.956350
 30
0.0
 10
12.110084
 20
59.956350
 30
0.0
 10
13.028114
 20
59.956350
 30
0.0
 10
13.028114
 20
55.884100
 30
0.0
 10
13.028114
 20
51.811850
 30
0.0
 10
12.110084
 20
51.811850
 30
0.0
 10
11.192054
 20
51.811850
 30
0.0
  0
SPLINE
  5
291
100
AcDbEntity
  8
Layer_1
 62
7
100
AcDbSpline
 70
8
 71
3
 72
8
 73
4
 74
0
 40
0
 40
0
 40
0
 40
0
 40
1
 40
1
 40
1
 40
1
 10
13.946154
 20
53.125480
 30
0.0
 10
14.295874
 20
53.125480
 30
0.0
 10
14.558174
 20
53.213080
 30
0.0
 10
14.733034
 20
53.388210
 30
0.0
  0
SPLINE
  5
292
100
AcDbEntity
  8
Layer_1
 62
7
100
AcDbSpline
 70
8
 71
3
 72
8
 73
4
 74
0
 40
0
 40
0
 40
0
 40
0
 40
1
 40
1
 40
1
 40
1
 10
14.733034
 20
53.388210
 30
0.0
 10
14.907904
 20
53.563360
 30
0.0
 10
14.995334
 20
53.826080
 30
0.0
 10
14.995334
 20
54.176390
 30
0.0
  0
SPLINE
  5
293
100
AcDbEntity
  8
Layer_1
 62
7
100
AcDbSpline
 70
8
 71
3
 72
8
 73
4
 74
0
 40
0
 40
0
 40
0
 40
0
 40
1
 40
1
 40
1
 40
1
 10
14.995334
 20
54.176390
 30
0.0
 10
14.995334
 20
54.876990
 30
0.0
 10
14.645604
 20
55.227290
 30
0.0
 10
13.946154
 20
55.227290
 30
0.0
  0
LWPOLYLINE
  5
294
100
AcDbEntity
  8
Layer_1
 62
7
100
AcDbPolyline
 90
3
 70
0
 10
13.421564
 20
52.468670
 30
0.0
 10
13.421564
 20
53.125480
 30
0.0
 10
13.946154
 20
53.125480
 30
0.0
  0
SPLINE
  5
295
100
AcDbEntity
  8
Layer_1
 62
7
100
AcDbSpline
 70
8
 71
3
 72
8
 73
4
 74
0
 40
0
 40
0
 40
0
 40
0
 40
1
 40
1
 40
1
 40
1
 10
13.936784
 20
56.672280
 30
0.0
 10
14.576174
 20
56.672280
 30
0.0
 10
14.864184
 20
56.943050
 30
0.0
 10
14.864184
 20
57.544160
 30
0.0
  0
SPLINE
  5
296
100
AcDbEntity
  8
Layer_1
 62
7
100
AcDbSpline
 70
8
 71
3
 72
8
 73
4
 74
0
 40
0
 40
0
 40
0
 40
0
 40
1
 40
1
 40
1
 40
1
 10
14.864184
 20
57.544160
 30
0.0
 10
14.864184
 20
58.249900
 30
0.0
 10
14.682484
 20
58.469420
 30
0.0
 10
14.015374
 20
58.569630
 30
0.0
  0
LWPOLYLINE
  5
297
100
AcDbEntity
  8
Layer_1
 62
7
100
AcDbPolyline
 90
5
 70
0
 10
13.946154
 20
55.227290
 30
0.0
 10
13.421564
 20
55.227290
 30
0.0
 10
13.421564
 20
55.949780
 30
0.0
 10
13.421564
 20
56.672280
 30
0.0
 10
13.936784
 20
56.672280
 30
0.0
  0
SPLINE
  5
298
100
AcDbEntity
  8
Layer_1
 62
7
100
AcDbSpline
 70
8
 71
3
 72
8
 73
4
 74
0
 40
0
 40
0
 40
0
 40
0
 40
1
 40
1
 40
1
 40
1
 10
14.335814
 20
59.917670
 30
0.0
 10
15.895144
 20
59.786730
 30
0.0
 10
16.623014
 20
59.243790
 30
0.0
 10
16.780324
 20
58.094250
 30
0.0
  0
SPLINE
  5
299
100
AcDbEntity
  8
Layer_1
 62
7
100
AcDbSpline
 70
8
 71
3
 72
8
 73
4
 74
0
 40
0
 40
0
 40
0
 40
0
 40
1
 40
1
 40
1
 40
1
 10
16.780324
 20
58.094250
 30
0.0
 10
16.896124
 20
57.247960
 30
0.0
 10
16.638644
 20
56.448040
 30
0.0
 10
16.155744
 20
56.153890
 30
0.0
  0
SPLINE
  5
29a
100
AcDbEntity
  8
Layer_1
 62
7
100
AcDbSpline
 70
8
 71
3
 72
8
 73
4
 74
0
 40
0
 40
0
 40
0
 40
0
 40
1
 40
1
 40
1
 40
1
 10
16.155744
 20
56.153890
 30
0.0
 10
15.781204
 20
55.925740
 30
0.0
 10
15.773054
 20
55.904710
 30
0.0
 10
16.027854
 20
55.823710
 30
0.0
  0
SPLINE
  5
29b
100
AcDbEntity
  8
Layer_1
 62
7
100
AcDbSpline
 70
8
 71
3
 72
8
 73
4
 74
0
 40
0
 40
0
 40
0
 40
0
 40
1
 40
1
 40
1
 40
1
 10
16.027854
 20
55.823710
 30
0.0
 10
16.177534
 20
55.776110
 30
0.0
 10
16.434164
 20
55.548570
 30
0.0
 10
16.598154
 20
55.318030
 30
0.0
  0
SPLINE
  5
29c
100
AcDbEntity
  8
Layer_1
 62
7
100
AcDbSpline
 70
8
 71
3
 72
8
 73
4
 74
0
 40
0
 40
0
 40
0
 40
0
 40
1
 40
1
 40
1
 40
1
 10
16.598154
 20
55.318030
 30
0.0
 10
17.009844
 20
54.739280
 30
0.0
 10
17.025904
 20
53.323020
 30
0.0
 10
16.626954
 20
52.774320
 30
0.0
  0
SPLINE
  5
29d
100
AcDbEntity
  8
Layer_1
 62
7
100
AcDbSpline
 70
8
 71
3
 72
8
 73
4
 74
0
 40
0
 40
0
 40
0
 40
0
 40
1
 40
1
 40
1
 40
1
 10
16.626954
 20
52.774320
 30
0.0
 10
16.182594
 20
52.163110
 30
0.0
 10
15.337654
 20
51.811840
 30
0.0
 10
14.311764
 20
51.811840
 30
0.0
  0
LWPOLYLINE
  5
29e
100
AcDbEntity
  8
Layer_1
 62
7
100
AcDbPolyline
 90
5
 70
0
 10
14.015374
 20
58.569630
 30
0.0
 10
13.421564
 20
58.658830
 30
0.0
 10
13.421564
 20
59.326650
 30
0.0
 10
13.421564
 20
59.994470
 30
0.0
 10
14.335814
 20
59.917670
 30
0.0
  0
LWPOLYLINE
  5
29f
100
AcDbEntity
  8
Layer_1
 62
7
100
AcDbPolyline
 90
3
 70
0
 10
14.311764
 20
51.811840
 30
0.0
 10
13.421514
 20
51.811840
 30
0.0
 10
13.421564
 20
52.468670
 30
0.0
  0
LWPOLYLINE
  5
2a0
100
AcDbEntity
  8
Layer_1
 62
7
100
AcDbPolyline
 90
8
 70
1
 10
21.028114
 20
54.570470
 30
0.0
 10
21.028114
 20
57.329090
 30
0.0
 10
21.880574
 20
57.329090
 30
0.0
 10
22.733034
 20
57.329090
 30
0.0
 10
22.733034
 20
54.570470
 30
0.0
 10
22.733034
 20
51.811850
 30
0.0
 10
21.880574
 20
51.811850
 30
0.0
 10
21.028114
 20
51.811850
 30
0.0
  0
LWPOLYLINE
  5
2a1
100
AcDbEntity
  8
Layer_1
 62
7
100
AcDbPolyline
 90
8
 70
1
 10
23.519924
 20
52.402990
 30
0.0
 10
23.519924
 20
52.994120
 30
0.0
 10
25.749429
 20
52.994120
 30
0.0
 10
27.978938
 20
52.994120
 30
0.0
 10
27.978938
 20
52.402990
 30
0.0
 10
27.978938
 20
51.811850
 30
0.0
 10
25.749429
 20
51.811850
 30
0.0
 10
23.519924
 20
51.811850
 30
0.0
  0
SPLINE
  5
2a2
100
AcDbEntity
  8
Layer_1
 62
7
100
AcDbSpline
 70
8
 71
3
 72
8
 73
4
 74
0
 40
0
 40
0
 40
0
 40
0
 40
1
 40
1
 40
1
 40
1
 10
37.246698
 20
51.899430
 30
0.0
 10
37.198608
 20
51.947630
 30
0.0
 10
37.159268
 20
52.800890
 30
0.0
 10
37.159268
 20
53.795640
 30
0.0
  0
SPLINE
  5
2a3
100
AcDbEntity
  8
Layer_1
 62
7
100
AcDbSpline
 70
8
 71
3
 72
8
 73
4
 74
0
 40
0
 40
0
 40
0
 40
0
 40
1
 40
1
 40
1
 40
1
 10
37.159268
 20
53.795640
 30
0.0
 10
37.159268
 20
55.912520
 30
0.0
 10
37.066158
 20
56.278190
 30
0.0
 10
36.527103
 20
56.278190
 30
0.0
  0
SPLINE
  5
2a4
100
AcDbEntity
  8
Layer_1
 62
7
100
AcDbSpline
 70
8
 71
3
 72
8
 73
4
 74
0
 40
0
 40
0
 40
0
 40
0
 40
1
 40
1
 40
1
 40
1
 10
36.527103
 20
56.278190
 30
0.0
 10
36.317297
 20
56.278190
 30
0.0
 10
36.045692
 20
56.161920
 30
0.0
 10
35.913367
 20
56.015470
 30
0.0
  0
SPLINE
  5
2a5
100
AcDbEntity
  8
Layer_1
 62
7
100
AcDbSpline
 70
8
 71
3
 72
8
 73
4
 74
0
 40
0
 40
0
 40
0
 40
0
 40
1
 40
1
 40
1
 40
1
 10
35.913367
 20
56.015470
 30
0.0
 10
35.723005
 20
55.804770
 30
0.0
 10
35.509436
 20
55.752740
 30
0.0
 10
34.835022
 20
55.752740
 30
0.0
  0
SPLINE
  5
2a6
100
AcDbEntity
  8
Layer_1
 62
7
100
AcDbSpline
 70
8
 71
3
 72
8
 73
4
 74
0
 40
0
 40
0
 40
0
 40
0
 40
1
 40
1
 40
1
 40
1
 10
34.835022
 20
55.752740
 30
0.0
 10
34.025086
 20
55.752740
 30
0.0
 10
33.997196
 20
55.763640
 30
0.0
 10
34.079271
 20
56.048310
 30
0.0
  0
SPLINE
  5
2a7
100
AcDbEntity
  8
Layer_1
 62
7
100
AcDbSpline
 70
8
 71
3
 72
8
 73
4
 74
0
 40
0
 40
0
 40
0
 40
0
 40
1
 40
1
 40
1
 40
1
 10
34.079271
 20
56.048310
 30
0.0
 10
34.367797
 20
57.049000
 30
0.0
 10
35.008673
 20
57.394780
 30
0.0
 10
36.574872
 20
57.394780
 30
0.0
  0
SPLINE
  5
2a8
100
AcDbEntity
  8
Layer_1
 62
7
100
AcDbSpline
 70
8
 71
3
 72
8
 73
4
 74
0
 40
0
 40
0
 40
0
 40
0
 40
1
 40
1
 40
1
 40
1
 10
36.574872
 20
57.394780
 30
0.0
 10
38.623533
 20
57.394780
 30
0.0
 10
38.818661
 20
57.103500
 30
0.0
 10
38.884942
 20
53.946380
 30
0.0
  0
LWPOLYLINE
  5
2a9
100
AcDbEntity
  8
Layer_1
 62
7
100
AcDbPolyline
 90
8
 70
1
 10
28.634675
 20
52.402990
 30
0.0
 10
28.634675
 20
52.994120
 30
0.0
 10
30.864183
 20
52.994120
 30
0.0
 10
33.093692
 20
52.994120
 30
0.0
 10
33.093692
 20
52.402990
 30
0.0
 10
33.093692
 20
51.811850
 30
0.0
 10
30.864183
 20
51.811850
 30
0.0
 10
28.634675
 20
51.811850
 30
0.0
  0
SPLINE
  5
2aa
100
AcDbEntity
  8
Layer_1
 62
7
100
AcDbSpline
 70
8
 71
3
 72
8
 73
4
 74
0
 40
0
 40
0
 40
0
 40
0
 40
1
 40
1
 40
1
 40
1
 10
38.131948
 20
51.811730
 30
0.0
 10
37.693150
 20
51.811800
 30
0.0
 10
37.294789
 20
51.851230
 30
0.0
 10
37.246703
 20
51.899430
 30
0.0
  0
LWPOLYLINE
  5
2ab
100
AcDbEntity
  8
Layer_1
 62
7
100
AcDbPolyline
 90
3
 70
0
 10
38.884942
 20
53.946380
 30
0.0
 10
38.929762
 20
51.811610
 30
0.0
 10
38.131948
 20
51.811730
 30
0.0
  0
LWPOLYLINE
  5
2ac
100
AcDbEntity
  8
Layer_1
 62
7
100
AcDbPolyline
 90
1
 70
1
 10
37.246703
 20
51.899430
 30
0.0
  0
LWPOLYLINE
  5
2ad
100
AcDbEntity
  8
Layer_1
 62
7
100
AcDbPolyline
 90
8
 70
1
 10
39.913364
 20
54.570470
 30
0.0
 10
39.913364
 20
57.329090
 30
0.0
 10
40.765823
 20
57.329090
 30
0.0
 10
41.618282
 20
57.329090
 30
0.0
 10
41.618282
 20
54.570470
 30
0.0
 10
41.618282
 20
51.811850
 30
0.0
 10
40.765823
 20
51.811850
 30
0.0
 10
39.913364
 20
51.811850
 30
0.0
  0
SPLINE
  5
2ae
100
AcDbEntity
  8
Layer_1
 62
7
100
AcDbSpline
 70
8
 71
3
 72
8
 73
4
 74
0
 40
0
 40
0
 40
0
 40
0
 40
1
 40
1
 40
1
 40
1
 10
23.913364
 20
53.327730
 30
0.0
 10
23.913364
 20
53.366730
 30
0.0
 10
24.362429
 20
53.957840
 30
0.0
 10
24.911286
 20
54.641350
 30
0.0
  0
LWPOLYLINE
  5
2af
100
AcDbEntity
  8
Layer_1
 62
7
100
AcDbPolyline
 90
8
 70
1
 10
46.864183
 20
55.949780
 30
0.0
 10
46.864183
 20
60.087720
 30
0.0
 10
47.716642
 20
60.087720
 30
0.0
 10
48.569101
 20
60.087720
 30
0.0
 10
48.569101
 20
55.949780
 30
0.0
 10
48.569101
 20
51.811850
 30
0.0
 10
47.716642
 20
51.811850
 30
0.0
 10
46.864183
 20
51.811850
 30
0.0
  0
SPLINE
  5
2b0
100
AcDbEntity
  8
Layer_1
 62
7
100
AcDbSpline
 70
8
 71
3
 72
8
 73
4
 74
0
 40
0
 40
0
 40
0
 40
0
 40
1
 40
1
 40
1
 40
1
 10
26.758280
 20
55.884100
 30
0.0
 10
27.225271
 20
55.884100
 30
0.0
 10
27.587681
 20
55.831900
 30
0.0
 10
27.563637
 20
55.768220
 30
0.0
  0
SPLINE
  5
2b1
100
AcDbEntity
  8
Layer_1
 62
7
100
AcDbSpline
 70
8
 71
3
 72
8
 73
4
 74
0
 40
0
 40
0
 40
0
 40
0
 40
1
 40
1
 40
1
 40
1
 10
27.563637
 20
55.768220
 30
0.0
 10
27.539597
 20
55.704520
 30
0.0
 10
27.106806
 20
55.116720
 30
0.0
 10
26.601888
 20
54.462080
 30
0.0
  0
LWPOLYLINE
  5
2b2
100
AcDbEntity
  8
Layer_1
 62
7
100
AcDbPolyline
 90
3
 70
0
 10
24.911286
 20
54.641350
 30
0.0
 10
25.909209
 20
55.884100
 30
0.0
 10
26.758280
 20
55.884100
 30
0.0
  0
SPLINE
  5
2b3
100
AcDbEntity
  8
Layer_1
 62
7
100
AcDbSpline
 70
8
 71
3
 72
8
 73
4
 74
0
 40
0
 40
0
 40
0
 40
0
 40
1
 40
1
 40
1
 40
1
 10
24.798610
 20
53.264820
 30
0.0
 10
24.311724
 20
53.260820
 30
0.0
 10
23.913364
 20
53.289220
 30
0.0
 10
23.913364
 20
53.328220
 30
0.0
  0
LWPOLYLINE
  5
2b4
100
AcDbEntity
  8
Layer_1
 62
7
100
AcDbPolyline
 90
3
 70
0
 10
26.601888
 20
54.462080
 30
0.0
 10
25.683856
 20
53.271820
 30
0.0
 10
24.798610
 20
53.264820
 30
0.0
  0
LWPOLYLINE
  5
2b5
100
AcDbEntity
  8
Layer_1
 62
7
100
AcDbPolyline
 90
2
 70
0
 10
23.913364
 20
53.328220
 30
0.0
 10
23.913364
 20
53.327730
 30
0.0
  0
SPLINE
  5
2b6
100
AcDbEntity
  8
Layer_1
 62
7
100
AcDbSpline
 70
8
 71
3
 72
8
 73
4
 74
0
 40
0
 40
0
 40
0
 40
0
 40
1
 40
1
 40
1
 40
1
 10
31.861975
 20
55.884100
 30
0.0
 10
32.854733
 20
55.884100
 30
0.0
 10
32.873248
 20
55.996080
 30
0.0
 10
31.617619
 20
54.406270
 30
0.0
  0
LWPOLYLINE
  5
2b7
100
AcDbEntity
  8
Layer_1
 62
7
100
AcDbPolyline
 90
3
 70
0
 10
29.946151
 20
54.570470
 30
0.0
 10
31.008221
 20
55.884100
 30
0.0
 10
31.861975
 20
55.884100
 30
0.0
  0
SPLINE
  5
2b8
100
AcDbEntity
  8
Layer_1
 62
7
100
AcDbSpline
 70
8
 71
3
 72
8
 73
4
 74
0
 40
0
 40
0
 40
0
 40
0
 40
1
 40
1
 40
1
 40
1
 10
41.880577
 20
56.310150
 30
0.0
 10
41.880577
 20
57.020760
 30
0.0
 10
42.187050
 20
57.329090
 30
0.0
 10
42.893365
 20
57.329090
 30
0.0
  0
SPLINE
  5
2b9
100
AcDbEntity
  8
Layer_1
 62
7
100
AcDbSpline
 70
8
 71
3
 72
8
 73
4
 74
0
 40
0
 40
0
 40
0
 40
0
 40
1
 40
1
 40
1
 40
1
 10
42.893365
 20
57.329090
 30
0.0
 10
43.321735
 20
57.329090
 30
0.0
 10
43.323200
 20
57.327090
 30
0.0
 10
43.323200
 20
56.672280
 30
0.0
  0
LWPOLYLINE
  5
2ba
100
AcDbEntity
  8
Layer_1
 62
7
100
AcDbPolyline
 90
5
 70
0
 10
31.617619
 20
54.406270
 30
0.0
 10
30.709804
 20
53.256840
 30
0.0
 10
29.796943
 20
53.256840
 30
0.0
 10
28.884080
 20
53.256840
 30
0.0
 10
29.946151
 20
54.570470
 30
0.0
  0
SPLINE
  5
2bb
100
AcDbEntity
  8
Layer_1
 62
7
100
AcDbSpline
 70
8
 71
3
 72
8
 73
4
 74
0
 40
0
 40
0
 40
0
 40
0
 40
1
 40
1
 40
1
 40
1
 10
42.759265
 20
56.015470
 30
0.0
 10
42.449101
 20
56.015470
 30
0.0
 10
42.124511
 20
55.944570
 30
0.0
 10
42.037954
 20
55.857830
 30
0.0
  0
SPLINE
  5
2bc
100
AcDbEntity
  8
Layer_1
 62
7
100
AcDbSpline
 70
8
 71
3
 72
8
 73
4
 74
0
 40
0
 40
0
 40
0
 40
0
 40
1
 40
1
 40
1
 40
1
 10
42.037954
 20
55.857830
 30
0.0
 10
41.915550
 20
55.735230
 30
0.0
 10
41.880577
 20
55.835730
 30
0.0
 10
41.880577
 20
56.310150
 30
0.0
  0
LWPOLYLINE
  5
2bd
100
AcDbEntity
  8
Layer_1
 62
7
100
AcDbPolyline
 90
3
 70
0
 10
43.323200
 20
56.672280
 30
0.0
 10
43.323200
 20
56.015470
 30
0.0
 10
42.759265
 20
56.015470
 30
0.0
  0
LWPOLYLINE
  5
2be
100
AcDbEntity
  8
Layer_1
 62
7
100
AcDbPolyline
 90
1
 70
1
 10
41.880577
 20
56.310150
 30
0.0
  0
LWPOLYLINE
  5
2bf
100
AcDbEntity
  8
Layer_1
 62
7
100
AcDbPolyline
 90
8
 70
1
 10
23.782214
 20
56.737960
 30
0.0
 10
23.782214
 20
57.329090
 30
0.0
 10
25.880577
 20
57.329090
 30
0.0
 10
27.978938
 20
57.329090
 30
0.0
 10
27.978938
 20
56.737960
 30
0.0
 10
27.978938
 20
56.146830
 30
0.0
 10
25.880577
 20
56.146830
 30
0.0
 10
23.782214
 20
56.146830
 30
0.0
  0
SPLINE
  5
2c0
100
AcDbEntity
  8
Layer_1
 62
7
100
AcDbSpline
 70
8
 71
3
 72
8
 73
4
 74
0
 40
0
 40
0
 40
0
 40
0
 40
1
 40
1
 40
1
 40
1
 10
38.687199
 20
65.480030
 30
0.0
 10
37.133083
 20
65.741220
 30
0.0
 10
35.503760
 20
67.085310
 30
0.0
 10
34.918539
 20
68.588920
 30
0.0
  0
SPLINE
  5
2c1
100
AcDbEntity
  8
Layer_1
 62
7
100
AcDbSpline
 70
8
 71
3
 72
8
 73
4
 74
0
 40
0
 40
0
 40
0
 40
0
 40
1
 40
1
 40
1
 40
1
 10
34.918539
 20
68.588920
 30
0.0
 10
34.548720
 20
69.539100
 30
0.0
 10
34.515660
 20
71.151040
 30
0.0
 10
34.847719
 20
72.041740
 30
0.0
  0
SPLINE
  5
2c2
100
AcDbEntity
  8
Layer_1
 62
7
100
AcDbSpline
 70
8
 71
3
 72
8
 73
4
 74
0
 40
0
 40
0
 40
0
 40
0
 40
1
 40
1
 40
1
 40
1
 10
34.847719
 20
72.041740
 30
0.0
 10
35.371295
 20
73.446130
 30
0.0
 10
36.544060
 20
74.620820
 30
0.0
 10
37.946147
 20
75.145250
 30
0.0
  0
SPLINE
  5
2c3
100
AcDbEntity
  8
Layer_1
 62
7
100
AcDbSpline
 70
8
 71
3
 72
8
 73
4
 74
0
 40
0
 40
0
 40
0
 40
0
 40
1
 40
1
 40
1
 40
1
 10
37.946147
 20
75.145250
 30
0.0
 10
38.833213
 20
75.477050
 30
0.0
 10
40.444821
 20
75.444710
 30
0.0
 10
41.388332
 20
75.076150
 30
0.0
  0
SPLINE
  5
2c4
100
AcDbEntity
  8
Layer_1
 62
7
100
AcDbSpline
 70
8
 71
3
 72
8
 73
4
 74
0
 40
0
 40
0
 40
0
 40
0
 40
1
 40
1
 40
1
 40
1
 10
41.388332
 20
75.076150
 30
0.0
 10
42.260107
 20
74.735640
 30
0.0
 10
43.437134
 20
73.721360
 30
0.0
 10
43.921795
 20
72.892990
 30
0.0
  0
SPLINE
  5
2c5
100
AcDbEntity
  8
Layer_1
 62
7
100
AcDbSpline
 70
8
 71
3
 72
8
 73
4
 74
0
 40
0
 40
0
 40
0
 40
0
 40
1
 40
1
 40
1
 40
1
 10
43.921795
 20
72.892990
 30
0.0
 10
44.420852
 20
72.040020
 30
0.0
 10
44.656287
 20
70.716200
 30
0.0
 10
44.493715
 20
69.677170
 30
0.0
  0
SPLINE
  5
2c6
100
AcDbEntity
  8
Layer_1
 62
7
100
AcDbSpline
 70
8
 71
3
 72
8
 73
4
 74
0
 40
0
 40
0
 40
0
 40
0
 40
1
 40
1
 40
1
 40
1
 10
44.493715
 20
69.677170
 30
0.0
 10
44.323623
 20
68.590060
 30
0.0
 10
43.945252
 20
67.802990
 30
0.0
 10
43.216987
 20
67.021380
 30
0.0
  0
SPLINE
  5
2c7
100
AcDbEntity
  8
Layer_1
 62
7
100
AcDbSpline
 70
8
 71
3
 72
8
 73
4
 74
0
 40
0
 40
0
 40
0
 40
0
 40
1
 40
1
 40
1
 40
1
 10
43.216987
 20
67.021380
 30
0.0
 10
42.457323
 20
66.206070
 30
0.0
 10
41.677172
 20
65.762920
 30
0.0
 10
40.598377
 20
65.533920
 30
0.0
  0
SPLINE
  5
2c8
100
AcDbEntity
  8
Layer_1
 62
7
100
AcDbSpline
 70
8
 71
3
 72
8
 73
4
 74
0
 40
0
 40
0
 40
0
 40
0
 40
1
 40
1
 40
1
 40
1
 10
40.598377
 20
65.533920
 30
0.0
 10
39.626653
 20
65.327650
 30
0.0
 10
39.598322
 20
65.326850
 30
0.0
 10
38.687195
 20
65.480020
 30
0.0
  0
LWPOLYLINE
  5
2c9
100
AcDbEntity
  8
Layer_1
 62
7
100
AcDbPolyline
 90
8
 70
1
 10
28.765823
 20
56.737960
 30
0.0
 10
28.765823
 20
57.329090
 30
0.0
 10
30.929757
 20
57.329090
 30
0.0
 10
33.093692
 20
57.329090
 30
0.0
 10
33.093692
 20
56.737960
 30
0.0
 10
33.093692
 20
56.146830
 30
0.0
 10
30.929757
 20
56.146830
 30
0.0
 10
28.765823
 20
56.146830
 30
0.0
  0
SPLINE
  5
2ca
100
AcDbEntity
  8
Layer_1
 62
7
100
AcDbSpline
 70
8
 71
3
 72
8
 73
4
 74
0
 40
0
 40
0
 40
0
 40
0
 40
1
 40
1
 40
1
 40
1
 10
41.559585
 20
66.114350
 30
0.0
 10
42.615231
 20
66.609160
 30
0.0
 10
43.377407
 20
67.381210
 30
0.0
 10
43.886970
 20
68.471910
 30
0.0
  0
SPLINE
  5
2cb
100
AcDbEntity
  8
Layer_1
 62
7
100
AcDbSpline
 70
8
 71
3
 72
8
 73
4
 74
0
 40
0
 40
0
 40
0
 40
0
 40
1
 40
1
 40
1
 40
1
 10
43.886970
 20
68.471910
 30
0.0
 10
44.844144
 20
70.520710
 30
0.0
 10
44.126923
 20
73.084390
 30
0.0
 10
42.248088
 20
74.330050
 30
0.0
  0
SPLINE
  5
2cc
100
AcDbEntity
  8
Layer_1
 62
7
100
AcDbSpline
 70
8
 71
3
 72
8
 73
4
 74
0
 40
0
 40
0
 40
0
 40
0
 40
1
 40
1
 40
1
 40
1
 10
42.248088
 20
74.330050
 30
0.0
 10
39.452127
 20
76.183760
 30
0.0
 10
35.826821
 20
74.769970
 30
0.0
 10
34.971406
 20
71.492300
 30
0.0
  0
SPLINE
  5
2cd
100
AcDbEntity
  8
Layer_1
 62
7
100
AcDbSpline
 70
8
 71
3
 72
8
 73
4
 74
0
 40
0
 40
0
 40
0
 40
0
 40
1
 40
1
 40
1
 40
1
 10
34.971406
 20
71.492300
 30
0.0
 10
34.567040
 20
69.942910
 30
0.0
 10
35.055666
 20
68.224440
 30
0.0
 10
36.235623
 20
67.046150
 30
0.0
  0
SPLINE
  5
2ce
100
AcDbEntity
  8
Layer_1
 62
7
100
AcDbSpline
 70
8
 71
3
 72
8
 73
4
 74
0
 40
0
 40
0
 40
0
 40
0
 40
1
 40
1
 40
1
 40
1
 10
36.235623
 20
67.046150
 30
0.0
 10
37.666060
 20
65.617740
 30
0.0
 10
39.729587
 20
65.256580
 30
0.0
 10
41.559585
 20
66.114350
 30
0.0
  0
LWPOLYLINE
  5
2cf
100
AcDbEntity
  8
Layer_1
 62
7
100
AcDbPolyline
 90
1
 70
1
 10
38.687195
 20
65.480020
 30
0.0
  0
LWPOLYLINE
  5
2d0
100
AcDbEntity
  8
Layer_1
 62
7
100
AcDbPolyline
 90
1
 70
1
 10
41.559585
 20
66.114350
 30
0.0
  0
ENDSEC
  0
SECTION
  2
OBJECTS
  0
DICTIONARY
  5
C
330
0
100
AcDbDictionary
  3
ACAD_GROUP
350
D
  3
ACAD_MLINESTYLE
350
17
  0
DICTIONARY
  5
D
330
C
100
AcDbDictionary
  0
DICTIONARY
  5
1A
330
C
100
AcDbDictionary
  0
DICTIONARY
  5
17
330
C
100
AcDbDictionary
  3
STANDARD
350
18
  0
DICTIONARY
  5
19
330
C
100
AcDbDictionary
  0
ENDSEC
  0
EOF
