  0
SECTION
  2
HEADER
  9
$ACADVER
  1
AC1014
  9
$HANDSEED
  5
FFFF
  9
$INSUNITS
 70
     0
  9
$MEASUREMENT
 70
     1
  0
ENDSEC
  0
SECTION
  2
TABLES
  0
TABLE
  2
VPORT
  5
8
330
0
100
AcDbSymbolTable
 70
     4
  0
VPORT
  5
2E
330
8
100
AcDbSymbolTableRecord
100
AcDbViewportTableRecord
  2
*ACTIVE
 70
     0
 10
0.0
 20
0.0
 11
1.0
 21
1.0
 12
210.0
 22
148.5
 13
0.0
 23
0.0
 14
10.0
 24
10.0
 15
10.0
 25
10.0
 16
0.0
 26
0.0
 36
1.0
 17
0.0
 27
0.0
 37
0.0
 40
341.0
 41
1.24
 42
50.0
 43
0.0
 44
0.0
 50
0.0
 51
0.0
 71
     0
 72
   100
 73
     1
 74
     3
 75
     0
 76
     0
 77
     0
 78
     0
  0
ENDTAB
  0
TABLE
  2
LTYPE
  5
5
330
0
100
AcDbSymbolTable
 70
     1
  0
LTYPE
  5
14
330
5
100
AcDbSymbolTableRecord
100
AcDbLinetypeTableRecord
  2
BYBLOCK
 70
     0
  3

 72
    65
 73
     0
 40
0.0
  0
LTYPE
  5
15
330
5
100
AcDbSymbolTableRecord
100
AcDbLinetypeTableRecord
  2
BYLAYER
 70
     0
  3

 72
    65
 73
     0
 40
0.0
  0
LTYPE
  5
16
330
5
100
AcDbSymbolTableRecord
100
AcDbLinetypeTableRecord
  2
CONTINUOUS
 70
     0
  3
Solid line
 72
    65
 73
     0
 40
0.0
  0
ENDTAB
  0
TABLE
  2
LAYER
  5
2
100
AcDbSymbolTable
 70
1
  0
LAYER
  5
50
100
AcDbSymbolTableRecord
100
AcDbLayerTableRecord
  2
0
 70
0
  6
CONTINUOUS
  0
ENDTAB
  0
TABLE
  2
STYLE
  5
3
330
0
100
AcDbSymbolTable
 70
     1
  0
STYLE
  5
11
330
3
100
AcDbSymbolTableRecord
100
AcDbTextStyleTableRecord
  2
STANDARD
 70
     0
 40
0.0
 41
1.0
 50
0.0
 71
     0
 42
2.5
  3
txt
  4

  0
ENDTAB
  0
TABLE
  2
VIEW
  5
6
330
0
100
AcDbSymbolTable
 70
     0
  0
ENDTAB
  0
TABLE
  2
UCS
  5
7
330
0
100
AcDbSymbolTable
 70
     0
  0
ENDTAB
  0
TABLE
  2
APPID
  5
9
330
0
100
AcDbSymbolTable
 70
     2
  0
APPID
  5
12
330
9
100
AcDbSymbolTableRecord
100
AcDbRegAppTableRecord
  2
ACAD
 70
     0
  0
ENDTAB
  0
TABLE
  2
DIMSTYLE
  5
A
330
0
100
AcDbSymbolTable
 70
     1
  0
DIMSTYLE
105
27
330
A
100
AcDbSymbolTableRecord
100
AcDbDimStyleTableRecord
  2
ISO-25
 70
     0
  3

  4

  5

  6

  7

 40
1.0
 41
2.5
 42
0.625
 43
3.75
 44
1.25
 45
0.0
 46
0.0
 47
0.0
 48
0.0
140
2.5
141
2.5
142
0.0
143
0.03937007874016
144
1.0
145
0.0
146
1.0
147
0.625
 71
     0
 72
     0
 73
     0
 74
     0
 75
     0
 76
     0
 77
     1
 78
     8
170
     0
171
     3
172
     1
173
     0
174
     0
175
     0
176
     0
177
     0
178
     0
270
     2
271
     2
272
     2
273
     2
274
     3
340
11
275
     0
280
     0
281
     0
282
     0
283
     0
284
     8
285
     0
286
     0
287
     3
288
     0
  0
ENDTAB
  0
TABLE
  2
BLOCK_RECORD
  5
1
330
0
100
AcDbSymbolTable
 70
     1
  0
BLOCK_RECORD
  5
1F
330
1
100
AcDbSymbolTableRecord
100
AcDbBlockTableRecord
  2
*MODEL_SPACE
  0
BLOCK_RECORD
  5
1B
330
1
100
AcDbSymbolTableRecord
100
AcDbBlockTableRecord
  2
*PAPER_SPACE
  0
ENDTAB
  0
ENDSEC
  0
SECTION
  2
BLOCKS
  0
BLOCK
  5
20
330
1F
100
AcDbEntity
  8
0
100
AcDbBlockBegin
  2
*MODEL_SPACE
 70
     0
 10
0.0
 20
0.0
 30
0.0
  3
*MODEL_SPACE
  1

  0
ENDBLK
  5
21
330
1F
100
AcDbEntity
  8
0
100
AcDbBlockEnd
  0
BLOCK
  5
1C
330
1B
100
AcDbEntity
 67
     1
  8
0
100
AcDbBlockBegin
  2
*PAPER_SPACE
  1

  0
ENDBLK
  5
1D
330
1B
100
AcDbEntity
 67
     1
  8
0
100
AcDbBlockEnd
  0
ENDSEC
  0
SECTION
  2
ENTITIES
  0
SPLINE
  5
100
100
AcDbEntity
  8
0
 62
7
100
AcDbSpline
 70
8
 71
3
 72
8
 73
4
 74
0
 40
0
 40
0
 40
0
 40
0
 40
1
 40
1
 40
1
 40
1
 10
26.223390
 20
1.990860
 30
0.0
 10
19.533110
 20
-1.102910
 30
0.0
 10
11.558290
 20
-0.348710
 30
0.0
 10
5.112670
 20
2.898980
 30
0.0
  0
LWPOLYLINE
  5
101
100
AcDbEntity
  8
0
 62
7
100
AcDbPolyline
 90
11
 70
0
 10
94.563700
 20
116.952790
 30
0.0
 10
72.550750
 20
76.787690
 30
0.0
 10
111.079150
 20
5.692600
 30
0.0
 10
100.535260
 20
0.128440
 30
0.0
 10
65.684610
 20
63.858510
 30
0.0
 10
37.692460
 20
12.603560
 30
0.0
 10
37.218400
 20
11.225980
 30
0.0
 10
33.540650
 20
6.593030
 30
0.0
 10
31.277430
 20
4.761390
 30
0.0
 10
28.975970
 20
3.376120
 30
0.0
 10
26.223390
 20
1.990860
 30
0.0
  0
SPLINE
  5
102
100
AcDbEntity
  8
0
 62
7
100
AcDbSpline
 70
8
 71
3
 72
8
 73
4
 74
0
 40
0
 40
0
 40
0
 40
0
 40
1
 40
1
 40
1
 40
1
 10
11.535350
 20
163.605570
 30
0.0
 10
5.525560
 20
162.620490
 30
0.0
 10
-0.713600
 20
168.746460
 30
0.0
 10
0.066290
 20
174.672330
 30
0.0
  0
SPLINE
  5
103
100
AcDbEntity
  8
0
 62
7
100
AcDbSpline
 70
8
 71
3
 72
8
 73
4
 74
0
 40
0
 40
0
 40
0
 40
0
 40
1
 40
1
 40
1
 40
1
 10
0.066290
 20
174.672330
 30
0.0
 10
0.364490
 20
177.681440
 30
0.0
 10
1.763710
 20
180.652080
 30
0.0
 10
4.187500
 20
182.514490
 30
0.0
  0
LWPOLYLINE
  5
104
100
AcDbEntity
  8
0
 62
7
100
AcDbPolyline
 90
3
 70
0
 10
5.112670
 20
2.898980
 30
0.0
 10
51.914100
 20
89.262800
 30
0.0
 10
11.535350
 20
163.605570
 30
0.0
  0
SPLINE
  5
105
100
AcDbEntity
  8
0
 62
7
100
AcDbSpline
 70
8
 71
3
 72
8
 73
4
 74
0
 40
0
 40
0
 40
0
 40
0
 40
1
 40
1
 40
1
 40
1
 10
147.787790
 20
206.987580
 30
0.0
 10
151.847840
 20
204.463312
 30
0.0
 10
153.614080
 20
199.022280
 30
0.0
 10
154.210460
 20
194.543250
 30
0.0
  0
SPLINE
  5
106
100
AcDbEntity
  8
0
 62
7
100
AcDbSpline
 70
8
 71
3
 72
8
 73
4
 74
0
 40
0
 40
0
 40
0
 40
0
 40
1
 40
1
 40
1
 40
1
 10
154.210460
 20
194.543250
 30
0.0
 10
154.715100
 20
174.880120
 30
0.0
 10
159.432710
 20
149.568180
 30
0.0
 10
133.566160
 20
146.982340
 30
0.0
  0
LWPOLYLINE
  5
107
100
AcDbEntity
  8
0
 62
7
100
AcDbPolyline
 90
14
 70
0
 10
4.187500
 20
182.514490
 30
0.0
 10
76.220860
 20
237.017133
 30
0.0
 10
77.597140
 20
237.956038
 30
0.0
 10
80.793190
 20
239.787671
 30
0.0
 10
83.568700
 20
241.172940
 30
0.0
 10
86.764740
 20
242.104149
 30
0.0
 10
89.991370
 20
242.550513
 30
0.0
 10
93.669120
 20
243.035358
 30
0.0
 10
96.865160
 20
243.035358
 30
0.0
 10
100.091790
 20
242.550513
 30
0.0
 10
103.287840
 20
241.619305
 30
0.0
 10
109.702860
 20
238.856463
 30
0.0
 10
113.824080
 20
236.085925
 30
0.0
 10
147.787790
 20
206.987580
 30
0.0
  0
SPLINE
  5
108
100
AcDbEntity
  8
0
 62
7
100
AcDbSpline
 70
8
 71
3
 72
8
 73
4
 74
0
 40
0
 40
0
 40
0
 40
0
 40
1
 40
1
 40
1
 40
1
 10
238.163990
 20
128.973850
 30
0.0
 10
237.896370
 20
126.572710
 30
0.0
 10
238.286330
 20
124.348590
 30
0.0
 10
238.615100
 20
122.032110
 30
0.0
  0
SPLINE
  5
109
100
AcDbEntity
  8
0
 62
7
100
AcDbSpline
 70
8
 71
3
 72
8
 73
4
 74
0
 40
0
 40
0
 40
0
 40
0
 40
1
 40
1
 40
1
 40
1
 10
238.615100
 20
122.032110
 30
0.0
 10
255.757530
 20
90.825080
 30
0.0
 10
279.444970
 20
60.195240
 30
0.0
 10
289.537740
 20
25.532730
 30
0.0
  0
SPLINE
  5
10a
100
AcDbEntity
  8
0
 62
7
100
AcDbSpline
 70
8
 71
3
 72
8
 73
4
 74
0
 40
0
 40
0
 40
0
 40
0
 40
1
 40
1
 40
1
 40
1
 10
289.537740
 20
25.532730
 30
0.0
 10
291.594520
 20
15.882030
 30
0.0
 10
286.639880
 20
4.307330
 30
0.0
 10
277.617560
 20
0.128440
 30
0.0
  0
LWPOLYLINE
  5
10b
100
AcDbEntity
  8
0
 62
7
100
AcDbPolyline
 90
28
 70
0
 10
133.566160
 20
146.982340
 30
0.0
 10
133.566160
 20
192.226770
 30
0.0
 10
118.427000
 20
204.701886
 30
0.0
 10
118.427000
 20
134.961290
 30
0.0
 10
70.249300
 20
134.961290
 30
0.0
 10
70.249300
 20
206.087155
 30
0.0
 10
22.071600
 20
169.593010
 30
0.0
 10
58.780240
 20
101.707140
 30
0.0
 10
68.880650
 20
120.200480
 30
0.0
 10
69.324130
 20
120.646840
 30
0.0
 10
69.805820
 20
122.032110
 30
0.0
 10
70.249300
 20
122.963320
 30
0.0
 10
70.249300
 20
128.973850
 30
0.0
 10
118.427000
 20
128.973850
 30
0.0
 10
118.427000
 20
124.348590
 30
0.0
 10
118.878110
 20
122.963320
 30
0.0
 10
119.352170
 20
122.032110
 30
0.0
 10
119.352170
 20
120.646840
 30
0.0
 10
119.803290
 20
120.200480
 30
0.0
 10
154.210460
 20
56.916770
 30
0.0
 10
188.617650
 20
120.200480
 30
0.0
 10
189.061120
 20
120.646840
 30
0.0
 10
189.542820
 20
122.032110
 30
0.0
 10
189.986290
 20
122.963320
 30
0.0
 10
189.986290
 20
125.279800
 30
0.0
 10
190.467980
 20
126.180220
 30
0.0
 10
190.467980
 20
128.973850
 30
0.0
 10
238.163990
 20
128.973850
 30
0.0
  0
SPLINE
  5
10c
100
AcDbEntity
  8
0
 62
7
100
AcDbSpline
 70
8
 71
3
 72
8
 73
4
 74
0
 40
0
 40
0
 40
0
 40
0
 40
1
 40
1
 40
1
 40
1
 10
169.800740
 20
16.305300
 30
0.0
 10
167.201090
 20
8.062950
 30
0.0
 10
165.289580
 20
4.792180
 30
0.0
 10
157.880560
 20
0.128440
 30
0.0
  0
LWPOLYLINE
  5
10d
100
AcDbEntity
  8
0
 62
7
100
AcDbPolyline
 90
8
 70
0
 10
277.617560
 20
0.128440
 30
0.0
 10
214.300700
 20
116.952790
 30
0.0
 10
167.973340
 20
31.543260
 30
0.0
 10
169.349620
 20
27.364370
 30
0.0
 10
169.800740
 20
24.601520
 30
0.0
 10
170.274800
 20
21.838680
 30
0.0
 10
170.274800
 20
19.068140
 30
0.0
 10
169.800740
 20
16.305300
 30
0.0
  0
SPLINE
  5
10e
100
AcDbEntity
  8
0
 62
7
100
AcDbSpline
 70
8
 71
3
 72
8
 73
4
 74
0
 40
0
 40
0
 40
0
 40
0
 40
1
 40
1
 40
1
 40
1
 10
153.759350
 20
7.077870
 30
0.0
 10
145.937450
 20
-0.410280
 30
0.0
 10
134.736000
 20
-2.211130
 30
0.0
 10
125.293140
 20
2.898980
 30
0.0
  0
LWPOLYLINE
  5
10f
100
AcDbEntity
  8
0
 62
7
100
AcDbPolyline
 90
2
 70
0
 10
157.880560
 20
0.128440
 30
0.0
 10
153.759350
 20
7.077870
 30
0.0
  0
LWPOLYLINE
  5
110
100
AcDbEntity
  8
0
 62
7
100
AcDbPolyline
 90
4
 70
0
 10
125.293140
 20
2.898980
 30
0.0
 10
140.439950
 20
31.543260
 30
0.0
 10
94.563700
 20
116.952790
 30
0.0
 10
94.563700
 20
116.952790
 30
0.0
  0
SPLINE
  5
111
100
AcDbEntity
  8
0
 62
7
100
AcDbSpline
 70
8
 71
3
 72
8
 73
4
 74
0
 40
0
 40
0
 40
0
 40
0
 40
1
 40
1
 40
1
 40
1
 10
270.269710
 20
134.961290
 30
0.0
 10
276.218330
 20
138.809260
 30
0.0
 10
280.125450
 20
145.781780
 30
0.0
 10
279.919010
 20
152.969790
 30
0.0
  0
SPLINE
  5
112
100
AcDbEntity
  8
0
 62
7
100
AcDbSpline
 70
8
 71
3
 72
8
 73
4
 74
0
 40
0
 40
0
 40
0
 40
0
 40
1
 40
1
 40
1
 40
1
 10
279.919010
 20
152.969790
 30
0.0
 10
280.370130
 20
159.041880
 30
0.0
 10
278.244530
 20
159.757600
 30
0.0
 10
276.692390
 20
164.059630
 30
0.0
  0
LWPOLYLINE
  5
113
100
AcDbEntity
  8
0
 62
7
100
AcDbPolyline
 90
4
 70
0
 10
190.467980
 20
134.961290
 30
0.0
 10
238.163990
 20
134.961290
 30
0.0
 10
238.163990
 20
186.216240
 30
0.0
 10
270.269710
 20
134.961290
 30
0.0
  0
SPLINE
  5
114
100
AcDbEntity
  8
0
 62
7
100
AcDbSpline
 70
8
 71
3
 72
8
 73
4
 74
0
 40
0
 40
0
 40
0
 40
0
 40
1
 40
1
 40
1
 40
1
 10
227.620100
 20
238.856463
 30
0.0
 10
219.469420
 20
243.812647
 30
0.0
 10
209.254310
 20
244.628417
 30
0.0
 10
201.011870
 20
239.333611
 30
0.0
  0
SPLINE
  5
115
100
AcDbEntity
  8
0
 62
7
100
AcDbSpline
 70
8
 71
3
 72
8
 73
4
 74
0
 40
0
 40
0
 40
0
 40
0
 40
1
 40
1
 40
1
 40
1
 10
201.011870
 20
239.333611
 30
0.0
 10
196.500710
 20
236.032053
 30
0.0
 10
194.979150
 20
233.415434
 30
0.0
 10
192.287750
 20
228.690128
 30
0.0
  0
LWPOLYLINE
  5
116
100
AcDbEntity
  8
0
 62
7
100
AcDbPolyline
 90
6
 70
0
 10
276.692390
 20
164.059630
 30
0.0
 10
234.493890
 20
231.937814
 30
0.0
 10
233.568720
 20
232.869022
 30
0.0
 10
231.741310
 20
235.154716
 30
0.0
 10
229.890980
 20
237.017133
 30
0.0
 10
227.620100
 20
238.856463
 30
0.0
  0
SPLINE
  5
117
100
AcDbEntity
  8
0
 62
7
100
AcDbSpline
 70
8
 71
3
 72
8
 73
4
 74
0
 40
0
 40
0
 40
0
 40
0
 40
1
 40
1
 40
1
 40
1
 10
160.182020
 20
150.199250
 30
0.0
 10
169.349620
 20
141.810670
 30
0.0
 10
181.537420
 20
142.110820
 30
0.0
 10
190.467980
 20
150.684090
 30
0.0
  0
LWPOLYLINE
  5
118
100
AcDbEntity
  8
0
 62
7
100
AcDbPolyline
 90
5
 70
0
 10
192.287750
 20
228.690128
 30
0.0
 10
191.362580
 20
225.927286
 30
0.0
 10
190.467980
 20
223.164444
 30
0.0
 10
190.467980
 20
180.236500
 30
0.0
 10
160.182020
 20
150.199250
 30
0.0
  0
SPLINE
  5
119
100
AcDbEntity
  8
0
 62
7
100
AcDbSpline
 70
8
 71
3
 72
8
 73
4
 74
0
 40
0
 40
0
 40
0
 40
0
 40
1
 40
1
 40
1
 40
1
 10
106.506820
 20
275.804666
 30
0.0
 10
105.222280
 20
306.496070
 30
0.0
 10
62.664430
 20
308.927987
 30
0.0
 10
58.336760
 20
277.667083
 30
0.0
  0
SPLINE
  5
11a
100
AcDbEntity
  8
0
 62
7
100
AcDbSpline
 70
8
 71
3
 72
8
 73
4
 74
0
 40
0
 40
0
 40
0
 40
0
 40
1
 40
1
 40
1
 40
1
 10
58.336760
 20
277.667083
 30
0.0
 10
58.573790
 20
244.474498
 30
0.0
 10
104.243590
 20
243.181580
 30
0.0
 10
106.506820
 20
275.804666
 30
0.0
  0
LWPOLYLINE
  5
11b
100
AcDbEntity
  8
0
 62
7
100
AcDbPolyline
 90
3
 70
0
 10
190.467980
 20
150.684090
 30
0.0
 10
190.467980
 20
134.961290
 30
0.0
 10
190.467980
 20
134.961290
 30
0.0
  0
SPLINE
  5
11c
100
AcDbEntity
  8
0
 62
7
100
AcDbSpline
 70
8
 71
3
 72
8
 73
4
 74
0
 40
0
 40
0
 40
0
 40
0
 40
1
 40
1
 40
1
 40
1
 10
228.996390
 20
275.804666
 30
0.0
 10
228.277660
 20
306.342151
 30
0.0
 10
185.092820
 20
309.081905
 30
0.0
 10
181.269800
 20
277.667083
 30
0.0
  0
SPLINE
  5
11d
100
AcDbEntity
  8
0
 62
7
100
AcDbSpline
 70
8
 71
3
 72
8
 73
4
 74
0
 40
0
 40
0
 40
0
 40
0
 40
1
 40
1
 40
1
 40
1
 10
181.269800
 20
277.667083
 30
0.0
 10
180.726930
 20
244.689985
 30
0.0
 10
227.352480
 20
243.120013
 30
0.0
 10
228.996390
 20
275.804666
 30
0.0
  0
LWPOLYLINE
  5
11e
100
AcDbEntity
  8
0
 62
7
100
AcDbPolyline
 90
1
 70
1
 10
106.506820
 20
275.804666
 30
0.0
  0
ENDSEC
  0
SECTION
  2
OBJECTS
  0
DICTIONARY
  5
C
330
0
100
AcDbDictionary
  3
ACAD_GROUP
350
D
  3
ACAD_MLINESTYLE
350
17
  0
DICTIONARY
  5
D
330
C
100
AcDbDictionary
  0
DICTIONARY
  5
1A
330
C
100
AcDbDictionary
  0
DICTIONARY
  5
17
330
C
100
AcDbDictionary
  3
STANDARD
350
18
  0
DICTIONARY
  5
19
330
C
100
AcDbDictionary
  0
ENDSEC
  0
EOF
