solid 
 facet normal  0.000000e+00 -1.000000e+00  0.000000e+00
   outer loop
     vertex  6.400000e+00 -1.650000e+00  0.000000e+00
     vertex -6.400000e+00 -1.650000e+00  5.000000e+00
     vertex -6.400000e+00 -1.650000e+00  0.000000e+00
   endloop
 endfacet
 facet normal  0.000000e+00 -1.000000e+00  0.000000e+00
   outer loop
     vertex  6.400000e+00 -1.650000e+00  0.000000e+00
     vertex  6.400000e+00 -1.650000e+00  5.000000e+00
     vertex -6.400000e+00 -1.650000e+00  5.000000e+00
   endloop
 endfacet
 facet normal -1.000000e+00  0.000000e+00  0.000000e+00
   outer loop
     vertex -6.400000e+00 -1.650000e+00  0.000000e+00
     vertex -6.400000e+00  1.650000e+00  5.000000e+00
     vertex -6.400000e+00  1.650000e+00  0.000000e+00
   endloop
 endfacet
 facet normal -1.000000e+00  0.000000e+00  0.000000e+00
   outer loop
     vertex -6.400000e+00 -1.650000e+00  0.000000e+00
     vertex -6.400000e+00 -1.650000e+00  5.000000e+00
     vertex -6.400000e+00  1.650000e+00  5.000000e+00
   endloop
 endfacet
 facet normal  1.000000e+00  0.000000e+00  0.000000e+00
   outer loop
     vertex  6.400000e+00  1.650000e+00  0.000000e+00
     vertex  6.400000e+00 -1.650000e+00  5.000000e+00
     vertex  6.400000e+00 -1.650000e+00  0.000000e+00
   endloop
 endfacet
 facet normal  1.000000e+00  0.000000e+00 -0.000000e+00
   outer loop
     vertex  6.400000e+00  1.650000e+00  0.000000e+00
     vertex  6.400000e+00  1.650000e+00  5.000000e+00
     vertex  6.400000e+00 -1.650000e+00  5.000000e+00
   endloop
 endfacet
 facet normal -0.000000e+00  0.000000e+00 -1.000000e+00
   outer loop
     vertex -4.150000e+00 -1.400000e+00  0.000000e+00
     vertex -6.400000e+00 -1.650000e+00  0.000000e+00
     vertex -5.850000e+00 -1.400000e+00  0.000000e+00
   endloop
 endfacet
 facet normal -0.000000e+00  0.000000e+00 -1.000000e+00
   outer loop
     vertex -3.850000e+00 -1.400000e+00  0.000000e+00
     vertex -6.400000e+00 -1.650000e+00  0.000000e+00
     vertex -4.150000e+00 -1.400000e+00  0.000000e+00
   endloop
 endfacet
 facet normal -0.000000e+00  0.000000e+00 -1.000000e+00
   outer loop
     vertex -5.850000e+00  1.400000e+00  0.000000e+00
     vertex -6.400000e+00 -1.650000e+00  0.000000e+00
     vertex -6.400000e+00  1.650000e+00  0.000000e+00
   endloop
 endfacet
 facet normal  0.000000e+00 -0.000000e+00 -1.000000e+00
   outer loop
     vertex -5.850000e+00  1.400000e+00  0.000000e+00
     vertex -5.850000e+00 -1.400000e+00  0.000000e+00
     vertex -6.400000e+00 -1.650000e+00  0.000000e+00
   endloop
 endfacet
 facet normal -0.000000e+00  0.000000e+00 -1.000000e+00
   outer loop
     vertex -2.150000e+00 -1.400000e+00  0.000000e+00
     vertex -6.400000e+00 -1.650000e+00  0.000000e+00
     vertex -3.850000e+00 -1.400000e+00  0.000000e+00
   endloop
 endfacet
 facet normal -0.000000e+00  0.000000e+00 -1.000000e+00
   outer loop
     vertex -1.850000e+00 -1.400000e+00  0.000000e+00
     vertex -6.400000e+00 -1.650000e+00  0.000000e+00
     vertex -2.150000e+00 -1.400000e+00  0.000000e+00
   endloop
 endfacet
 facet normal  0.000000e+00  0.000000e+00 -1.000000e+00
   outer loop
     vertex -4.150000e+00  1.400000e+00  0.000000e+00
     vertex -5.850000e+00  1.400000e+00  0.000000e+00
     vertex -6.400000e+00  1.650000e+00  0.000000e+00
   endloop
 endfacet
 facet normal -0.000000e+00  0.000000e+00 -1.000000e+00
   outer loop
     vertex -3.850000e+00  1.400000e+00  0.000000e+00
     vertex -4.150000e+00 -1.400000e+00  0.000000e+00
     vertex -4.150000e+00  1.400000e+00  0.000000e+00
   endloop
 endfacet
 facet normal  0.000000e+00 -0.000000e+00 -1.000000e+00
   outer loop
     vertex -3.850000e+00  1.400000e+00  0.000000e+00
     vertex -3.850000e+00 -1.400000e+00  0.000000e+00
     vertex -4.150000e+00 -1.400000e+00  0.000000e+00
   endloop
 endfacet
 facet normal -0.000000e+00  0.000000e+00 -1.000000e+00
   outer loop
     vertex -1.500000e-01 -1.400000e+00  0.000000e+00
     vertex -6.400000e+00 -1.650000e+00  0.000000e+00
     vertex -1.850000e+00 -1.400000e+00  0.000000e+00
   endloop
 endfacet
 facet normal  0.000000e+00  0.000000e+00 -1.000000e+00
   outer loop
     vertex -2.150000e+00  1.400000e+00  0.000000e+00
     vertex -1.850000e+00 -1.400000e+00  0.000000e+00
     vertex -2.150000e+00 -1.400000e+00  0.000000e+00
   endloop
 endfacet
 facet normal -0.000000e+00 -0.000000e+00 -1.000000e+00
   outer loop
     vertex -1.850000e+00  1.400000e+00  0.000000e+00
     vertex -1.850000e+00 -1.400000e+00  0.000000e+00
     vertex -2.150000e+00  1.400000e+00  0.000000e+00
   endloop
 endfacet
 facet normal  0.000000e+00  0.000000e+00 -1.000000e+00
   outer loop
     vertex -1.500000e-01  1.400000e+00  0.000000e+00
     vertex  1.500000e-01 -1.400000e+00  0.000000e+00
     vertex -1.500000e-01 -1.400000e+00  0.000000e+00
   endloop
 endfacet
 facet normal -0.000000e+00 -0.000000e+00 -1.000000e+00
   outer loop
     vertex  1.500000e-01  1.400000e+00  0.000000e+00
     vertex  1.500000e-01 -1.400000e+00  0.000000e+00
     vertex -1.500000e-01  1.400000e+00  0.000000e+00
   endloop
 endfacet
 facet normal -0.000000e+00  0.000000e+00 -1.000000e+00
   outer loop
     vertex  2.150000e+00  1.400000e+00  0.000000e+00
     vertex  1.850000e+00 -1.400000e+00  0.000000e+00
     vertex  1.850000e+00  1.400000e+00  0.000000e+00
   endloop
 endfacet
 facet normal  0.000000e+00 -0.000000e+00 -1.000000e+00
   outer loop
     vertex  2.150000e+00  1.400000e+00  0.000000e+00
     vertex  2.150000e+00 -1.400000e+00  0.000000e+00
     vertex  1.850000e+00 -1.400000e+00  0.000000e+00
   endloop
 endfacet
 facet normal  0.000000e+00  0.000000e+00 -1.000000e+00
   outer loop
     vertex  6.400000e+00 -1.650000e+00  0.000000e+00
     vertex  1.500000e-01 -1.400000e+00  0.000000e+00
     vertex  1.850000e+00 -1.400000e+00  0.000000e+00
   endloop
 endfacet
 facet normal  0.000000e+00  0.000000e+00 -1.000000e+00
   outer loop
     vertex  6.400000e+00 -1.650000e+00  0.000000e+00
     vertex  2.150000e+00 -1.400000e+00  0.000000e+00
     vertex  3.850000e+00 -1.400000e+00  0.000000e+00
   endloop
 endfacet
 facet normal  0.000000e+00  0.000000e+00 -1.000000e+00
   outer loop
     vertex  6.400000e+00 -1.650000e+00  0.000000e+00
     vertex  4.150000e+00 -1.400000e+00  0.000000e+00
     vertex  5.850000e+00 -1.400000e+00  0.000000e+00
   endloop
 endfacet
 facet normal  0.000000e+00  0.000000e+00 -1.000000e+00
   outer loop
     vertex  6.400000e+00 -1.650000e+00  0.000000e+00
     vertex  1.850000e+00 -1.400000e+00  0.000000e+00
     vertex  2.150000e+00 -1.400000e+00  0.000000e+00
   endloop
 endfacet
 facet normal  0.000000e+00  0.000000e+00 -1.000000e+00
   outer loop
     vertex  6.400000e+00 -1.650000e+00  0.000000e+00
     vertex  3.850000e+00 -1.400000e+00  0.000000e+00
     vertex  4.150000e+00 -1.400000e+00  0.000000e+00
   endloop
 endfacet
 facet normal -0.000000e+00  0.000000e+00 -1.000000e+00
   outer loop
     vertex  4.150000e+00  1.400000e+00  0.000000e+00
     vertex  3.850000e+00 -1.400000e+00  0.000000e+00
     vertex  3.850000e+00  1.400000e+00  0.000000e+00
   endloop
 endfacet
 facet normal  0.000000e+00 -0.000000e+00 -1.000000e+00
   outer loop
     vertex  4.150000e+00  1.400000e+00  0.000000e+00
     vertex  4.150000e+00 -1.400000e+00  0.000000e+00
     vertex  3.850000e+00 -1.400000e+00  0.000000e+00
   endloop
 endfacet
 facet normal  0.000000e+00  0.000000e+00 -1.000000e+00
   outer loop
     vertex  6.400000e+00  1.650000e+00  0.000000e+00
     vertex  5.850000e+00  1.400000e+00  0.000000e+00
     vertex  4.150000e+00  1.400000e+00  0.000000e+00
   endloop
 endfacet
 facet normal  0.000000e+00  0.000000e+00 -1.000000e+00
   outer loop
     vertex  6.400000e+00  1.650000e+00  0.000000e+00
     vertex  5.850000e+00 -1.400000e+00  0.000000e+00
     vertex  5.850000e+00  1.400000e+00  0.000000e+00
   endloop
 endfacet
 facet normal  0.000000e+00 -0.000000e+00 -1.000000e+00
   outer loop
     vertex  6.400000e+00  1.650000e+00  0.000000e+00
     vertex  6.400000e+00 -1.650000e+00  0.000000e+00
     vertex  5.850000e+00 -1.400000e+00  0.000000e+00
   endloop
 endfacet
 facet normal  0.000000e+00  0.000000e+00 -1.000000e+00
   outer loop
     vertex -6.400000e+00 -1.650000e+00  0.000000e+00
     vertex  1.500000e-01 -1.400000e+00  0.000000e+00
     vertex  6.400000e+00 -1.650000e+00  0.000000e+00
   endloop
 endfacet
 facet normal  0.000000e+00  0.000000e+00 -1.000000e+00
   outer loop
     vertex -6.400000e+00 -1.650000e+00  0.000000e+00
     vertex -1.500000e-01 -1.400000e+00  0.000000e+00
     vertex  1.500000e-01 -1.400000e+00  0.000000e+00
   endloop
 endfacet
 facet normal -0.000000e+00  0.000000e+00 -1.000000e+00
   outer loop
     vertex  6.400000e+00  1.650000e+00  0.000000e+00
     vertex -4.150000e+00  1.400000e+00  0.000000e+00
     vertex -6.400000e+00  1.650000e+00  0.000000e+00
   endloop
 endfacet
 facet normal  0.000000e+00  0.000000e+00 -1.000000e+00
   outer loop
     vertex  6.400000e+00  1.650000e+00  0.000000e+00
     vertex -3.850000e+00  1.400000e+00  0.000000e+00
     vertex -4.150000e+00  1.400000e+00  0.000000e+00
   endloop
 endfacet
 facet normal  0.000000e+00  0.000000e+00 -1.000000e+00
   outer loop
     vertex  6.400000e+00  1.650000e+00  0.000000e+00
     vertex -2.150000e+00  1.400000e+00  0.000000e+00
     vertex -3.850000e+00  1.400000e+00  0.000000e+00
   endloop
 endfacet
 facet normal  0.000000e+00  0.000000e+00 -1.000000e+00
   outer loop
     vertex  6.400000e+00  1.650000e+00  0.000000e+00
     vertex -1.850000e+00  1.400000e+00  0.000000e+00
     vertex -2.150000e+00  1.400000e+00  0.000000e+00
   endloop
 endfacet
 facet normal  0.000000e+00  0.000000e+00 -1.000000e+00
   outer loop
     vertex  6.400000e+00  1.650000e+00  0.000000e+00
     vertex -1.500000e-01  1.400000e+00  0.000000e+00
     vertex -1.850000e+00  1.400000e+00  0.000000e+00
   endloop
 endfacet
 facet normal  0.000000e+00  0.000000e+00 -1.000000e+00
   outer loop
     vertex  6.400000e+00  1.650000e+00  0.000000e+00
     vertex  1.500000e-01  1.400000e+00  0.000000e+00
     vertex -1.500000e-01  1.400000e+00  0.000000e+00
   endloop
 endfacet
 facet normal  0.000000e+00  0.000000e+00 -1.000000e+00
   outer loop
     vertex  6.400000e+00  1.650000e+00  0.000000e+00
     vertex  1.850000e+00  1.400000e+00  0.000000e+00
     vertex  1.500000e-01  1.400000e+00  0.000000e+00
   endloop
 endfacet
 facet normal  0.000000e+00  0.000000e+00 -1.000000e+00
   outer loop
     vertex  6.400000e+00  1.650000e+00  0.000000e+00
     vertex  2.150000e+00  1.400000e+00  0.000000e+00
     vertex  1.850000e+00  1.400000e+00  0.000000e+00
   endloop
 endfacet
 facet normal  0.000000e+00  0.000000e+00 -1.000000e+00
   outer loop
     vertex  6.400000e+00  1.650000e+00  0.000000e+00
     vertex  3.850000e+00  1.400000e+00  0.000000e+00
     vertex  2.150000e+00  1.400000e+00  0.000000e+00
   endloop
 endfacet
 facet normal  0.000000e+00  0.000000e+00 -1.000000e+00
   outer loop
     vertex  6.400000e+00  1.650000e+00  0.000000e+00
     vertex  4.150000e+00  1.400000e+00  0.000000e+00
     vertex  3.850000e+00  1.400000e+00  0.000000e+00
   endloop
 endfacet
 facet normal  0.000000e+00  0.000000e+00  1.000000e+00
   outer loop
     vertex -4.150000e+00 -1.400000e+00  5.000000e+00
     vertex -5.850000e+00 -1.400000e+00  5.000000e+00
     vertex -6.400000e+00 -1.650000e+00  5.000000e+00
   endloop
 endfacet
 facet normal  0.000000e+00  0.000000e+00  1.000000e+00
   outer loop
     vertex -3.850000e+00 -1.400000e+00  5.000000e+00
     vertex -4.150000e+00 -1.400000e+00  5.000000e+00
     vertex -6.400000e+00 -1.650000e+00  5.000000e+00
   endloop
 endfacet
 facet normal  0.000000e+00  0.000000e+00  1.000000e+00
   outer loop
     vertex -5.850000e+00  1.400000e+00  5.000000e+00
     vertex -6.400000e+00  1.650000e+00  5.000000e+00
     vertex -6.400000e+00 -1.650000e+00  5.000000e+00
   endloop
 endfacet
 facet normal  0.000000e+00  0.000000e+00  1.000000e+00
   outer loop
     vertex -5.850000e+00  1.400000e+00  5.000000e+00
     vertex -6.400000e+00 -1.650000e+00  5.000000e+00
     vertex -5.850000e+00 -1.400000e+00  5.000000e+00
   endloop
 endfacet
 facet normal  0.000000e+00  0.000000e+00  1.000000e+00
   outer loop
     vertex -2.150000e+00 -1.400000e+00  5.000000e+00
     vertex -3.850000e+00 -1.400000e+00  5.000000e+00
     vertex -6.400000e+00 -1.650000e+00  5.000000e+00
   endloop
 endfacet
 facet normal  0.000000e+00  0.000000e+00  1.000000e+00
   outer loop
     vertex -1.850000e+00 -1.400000e+00  5.000000e+00
     vertex -2.150000e+00 -1.400000e+00  5.000000e+00
     vertex -6.400000e+00 -1.650000e+00  5.000000e+00
   endloop
 endfacet
 facet normal  0.000000e+00  0.000000e+00  1.000000e+00
   outer loop
     vertex -4.150000e+00  1.400000e+00  5.000000e+00
     vertex -6.400000e+00  1.650000e+00  5.000000e+00
     vertex -5.850000e+00  1.400000e+00  5.000000e+00
   endloop
 endfacet
 facet normal  0.000000e+00  0.000000e+00  1.000000e+00
   outer loop
     vertex -3.850000e+00  1.400000e+00  5.000000e+00
     vertex -4.150000e+00  1.400000e+00  5.000000e+00
     vertex -4.150000e+00 -1.400000e+00  5.000000e+00
   endloop
 endfacet
 facet normal  0.000000e+00  0.000000e+00  1.000000e+00
   outer loop
     vertex -3.850000e+00  1.400000e+00  5.000000e+00
     vertex -4.150000e+00 -1.400000e+00  5.000000e+00
     vertex -3.850000e+00 -1.400000e+00  5.000000e+00
   endloop
 endfacet
 facet normal  0.000000e+00  0.000000e+00  1.000000e+00
   outer loop
     vertex -1.500000e-01 -1.400000e+00  5.000000e+00
     vertex -1.850000e+00 -1.400000e+00  5.000000e+00
     vertex -6.400000e+00 -1.650000e+00  5.000000e+00
   endloop
 endfacet
 facet normal  0.000000e+00  0.000000e+00  1.000000e+00
   outer loop
     vertex -2.150000e+00  1.400000e+00  5.000000e+00
     vertex -2.150000e+00 -1.400000e+00  5.000000e+00
     vertex -1.850000e+00 -1.400000e+00  5.000000e+00
   endloop
 endfacet
 facet normal  0.000000e+00  0.000000e+00  1.000000e+00
   outer loop
     vertex -1.850000e+00  1.400000e+00  5.000000e+00
     vertex -2.150000e+00  1.400000e+00  5.000000e+00
     vertex -1.850000e+00 -1.400000e+00  5.000000e+00
   endloop
 endfacet
 facet normal  0.000000e+00  0.000000e+00  1.000000e+00
   outer loop
     vertex -1.500000e-01  1.400000e+00  5.000000e+00
     vertex -1.500000e-01 -1.400000e+00  5.000000e+00
     vertex  1.500000e-01 -1.400000e+00  5.000000e+00
   endloop
 endfacet
 facet normal  0.000000e+00  0.000000e+00  1.000000e+00
   outer loop
     vertex  1.500000e-01  1.400000e+00  5.000000e+00
     vertex -1.500000e-01  1.400000e+00  5.000000e+00
     vertex  1.500000e-01 -1.400000e+00  5.000000e+00
   endloop
 endfacet
 facet normal  0.000000e+00  0.000000e+00  1.000000e+00
   outer loop
     vertex  2.150000e+00  1.400000e+00  5.000000e+00
     vertex  1.850000e+00  1.400000e+00  5.000000e+00
     vertex  1.850000e+00 -1.400000e+00  5.000000e+00
   endloop
 endfacet
 facet normal  0.000000e+00  0.000000e+00  1.000000e+00
   outer loop
     vertex  2.150000e+00  1.400000e+00  5.000000e+00
     vertex  1.850000e+00 -1.400000e+00  5.000000e+00
     vertex  2.150000e+00 -1.400000e+00  5.000000e+00
   endloop
 endfacet
 facet normal  0.000000e+00  0.000000e+00  1.000000e+00
   outer loop
     vertex  6.400000e+00 -1.650000e+00  5.000000e+00
     vertex  1.850000e+00 -1.400000e+00  5.000000e+00
     vertex  1.500000e-01 -1.400000e+00  5.000000e+00
   endloop
 endfacet
 facet normal  0.000000e+00  0.000000e+00  1.000000e+00
   outer loop
     vertex  6.400000e+00 -1.650000e+00  5.000000e+00
     vertex  3.850000e+00 -1.400000e+00  5.000000e+00
     vertex  2.150000e+00 -1.400000e+00  5.000000e+00
   endloop
 endfacet
 facet normal  0.000000e+00  0.000000e+00  1.000000e+00
   outer loop
     vertex  6.400000e+00 -1.650000e+00  5.000000e+00
     vertex  5.850000e+00 -1.400000e+00  5.000000e+00
     vertex  4.150000e+00 -1.400000e+00  5.000000e+00
   endloop
 endfacet
 facet normal  0.000000e+00  0.000000e+00  1.000000e+00
   outer loop
     vertex  6.400000e+00 -1.650000e+00  5.000000e+00
     vertex  2.150000e+00 -1.400000e+00  5.000000e+00
     vertex  1.850000e+00 -1.400000e+00  5.000000e+00
   endloop
 endfacet
 facet normal  0.000000e+00  0.000000e+00  1.000000e+00
   outer loop
     vertex  6.400000e+00 -1.650000e+00  5.000000e+00
     vertex  4.150000e+00 -1.400000e+00  5.000000e+00
     vertex  3.850000e+00 -1.400000e+00  5.000000e+00
   endloop
 endfacet
 facet normal  0.000000e+00  0.000000e+00  1.000000e+00
   outer loop
     vertex  4.150000e+00  1.400000e+00  5.000000e+00
     vertex  3.850000e+00  1.400000e+00  5.000000e+00
     vertex  3.850000e+00 -1.400000e+00  5.000000e+00
   endloop
 endfacet
 facet normal  0.000000e+00  0.000000e+00  1.000000e+00
   outer loop
     vertex  4.150000e+00  1.400000e+00  5.000000e+00
     vertex  3.850000e+00 -1.400000e+00  5.000000e+00
     vertex  4.150000e+00 -1.400000e+00  5.000000e+00
   endloop
 endfacet
 facet normal  0.000000e+00  0.000000e+00  1.000000e+00
   outer loop
     vertex  6.400000e+00  1.650000e+00  5.000000e+00
     vertex  5.850000e+00  1.400000e+00  5.000000e+00
     vertex  5.850000e+00 -1.400000e+00  5.000000e+00
   endloop
 endfacet
 facet normal  0.000000e+00  0.000000e+00  1.000000e+00
   outer loop
     vertex  6.400000e+00  1.650000e+00  5.000000e+00
     vertex  4.150000e+00  1.400000e+00  5.000000e+00
     vertex  5.850000e+00  1.400000e+00  5.000000e+00
   endloop
 endfacet
 facet normal  0.000000e+00  0.000000e+00  1.000000e+00
   outer loop
     vertex  6.400000e+00  1.650000e+00  5.000000e+00
     vertex  5.850000e+00 -1.400000e+00  5.000000e+00
     vertex  6.400000e+00 -1.650000e+00  5.000000e+00
   endloop
 endfacet
 facet normal  0.000000e+00  0.000000e+00  1.000000e+00
   outer loop
     vertex -6.400000e+00 -1.650000e+00  5.000000e+00
     vertex  6.400000e+00 -1.650000e+00  5.000000e+00
     vertex -1.500000e-01 -1.400000e+00  5.000000e+00
   endloop
 endfacet
 facet normal -0.000000e+00  0.000000e+00  1.000000e+00
   outer loop
     vertex -1.500000e-01 -1.400000e+00  5.000000e+00
     vertex  6.400000e+00 -1.650000e+00  5.000000e+00
     vertex  1.500000e-01 -1.400000e+00  5.000000e+00
   endloop
 endfacet
 facet normal  0.000000e+00  0.000000e+00  1.000000e+00
   outer loop
     vertex  6.400000e+00  1.650000e+00  5.000000e+00
     vertex -6.400000e+00  1.650000e+00  5.000000e+00
     vertex -4.150000e+00  1.400000e+00  5.000000e+00
   endloop
 endfacet
 facet normal  0.000000e+00  0.000000e+00  1.000000e+00
   outer loop
     vertex  6.400000e+00  1.650000e+00  5.000000e+00
     vertex -4.150000e+00  1.400000e+00  5.000000e+00
     vertex -3.850000e+00  1.400000e+00  5.000000e+00
   endloop
 endfacet
 facet normal  0.000000e+00  0.000000e+00  1.000000e+00
   outer loop
     vertex  6.400000e+00  1.650000e+00  5.000000e+00
     vertex -3.850000e+00  1.400000e+00  5.000000e+00
     vertex -2.150000e+00  1.400000e+00  5.000000e+00
   endloop
 endfacet
 facet normal  0.000000e+00  0.000000e+00  1.000000e+00
   outer loop
     vertex  6.400000e+00  1.650000e+00  5.000000e+00
     vertex -2.150000e+00  1.400000e+00  5.000000e+00
     vertex -1.850000e+00  1.400000e+00  5.000000e+00
   endloop
 endfacet
 facet normal  0.000000e+00  0.000000e+00  1.000000e+00
   outer loop
     vertex  6.400000e+00  1.650000e+00  5.000000e+00
     vertex -1.850000e+00  1.400000e+00  5.000000e+00
     vertex -1.500000e-01  1.400000e+00  5.000000e+00
   endloop
 endfacet
 facet normal  0.000000e+00  0.000000e+00  1.000000e+00
   outer loop
     vertex  6.400000e+00  1.650000e+00  5.000000e+00
     vertex -1.500000e-01  1.400000e+00  5.000000e+00
     vertex  1.500000e-01  1.400000e+00  5.000000e+00
   endloop
 endfacet
 facet normal  0.000000e+00  0.000000e+00  1.000000e+00
   outer loop
     vertex  6.400000e+00  1.650000e+00  5.000000e+00
     vertex  1.500000e-01  1.400000e+00  5.000000e+00
     vertex  1.850000e+00  1.400000e+00  5.000000e+00
   endloop
 endfacet
 facet normal  0.000000e+00  0.000000e+00  1.000000e+00
   outer loop
     vertex  6.400000e+00  1.650000e+00  5.000000e+00
     vertex  1.850000e+00  1.400000e+00  5.000000e+00
     vertex  2.150000e+00  1.400000e+00  5.000000e+00
   endloop
 endfacet
 facet normal  0.000000e+00  0.000000e+00  1.000000e+00
   outer loop
     vertex  6.400000e+00  1.650000e+00  5.000000e+00
     vertex  2.150000e+00  1.400000e+00  5.000000e+00
     vertex  3.850000e+00  1.400000e+00  5.000000e+00
   endloop
 endfacet
 facet normal  0.000000e+00  0.000000e+00  1.000000e+00
   outer loop
     vertex  6.400000e+00  1.650000e+00  5.000000e+00
     vertex  3.850000e+00  1.400000e+00  5.000000e+00
     vertex  4.150000e+00  1.400000e+00  5.000000e+00
   endloop
 endfacet
 facet normal  0.000000e+00  1.000000e+00  0.000000e+00
   outer loop
     vertex -6.400000e+00  1.650000e+00  0.000000e+00
     vertex  6.400000e+00  1.650000e+00  5.000000e+00
     vertex  6.400000e+00  1.650000e+00  0.000000e+00
   endloop
 endfacet
 facet normal  0.000000e+00  1.000000e+00  0.000000e+00
   outer loop
     vertex -6.400000e+00  1.650000e+00  0.000000e+00
     vertex -6.400000e+00  1.650000e+00  5.000000e+00
     vertex  6.400000e+00  1.650000e+00  5.000000e+00
   endloop
 endfacet
 facet normal  0.000000e+00  1.000000e+00  0.000000e+00
   outer loop
     vertex -4.150000e+00 -1.400000e+00  0.000000e+00
     vertex -5.850000e+00 -1.400000e+00  0.000000e+00
     vertex -5.850000e+00 -1.400000e+00  5.000000e+00
   endloop
 endfacet
 facet normal  0.000000e+00  1.000000e+00 -0.000000e+00
   outer loop
     vertex -4.150000e+00 -1.400000e+00  0.000000e+00
     vertex -5.850000e+00 -1.400000e+00  5.000000e+00
     vertex -4.150000e+00 -1.400000e+00  5.000000e+00
   endloop
 endfacet
 facet normal  1.000000e+00  0.000000e+00  0.000000e+00
   outer loop
     vertex -5.850000e+00 -1.400000e+00  0.000000e+00
     vertex -5.850000e+00  1.400000e+00  0.000000e+00
     vertex -5.850000e+00  1.400000e+00  5.000000e+00
   endloop
 endfacet
 facet normal  1.000000e+00  0.000000e+00  0.000000e+00
   outer loop
     vertex -5.850000e+00 -1.400000e+00  0.000000e+00
     vertex -5.850000e+00  1.400000e+00  5.000000e+00
     vertex -5.850000e+00 -1.400000e+00  5.000000e+00
   endloop
 endfacet
 facet normal -1.000000e+00  0.000000e+00  0.000000e+00
   outer loop
     vertex -4.150000e+00  1.400000e+00  0.000000e+00
     vertex -4.150000e+00 -1.400000e+00  0.000000e+00
     vertex -4.150000e+00 -1.400000e+00  5.000000e+00
   endloop
 endfacet
 facet normal -1.000000e+00  0.000000e+00  0.000000e+00
   outer loop
     vertex -4.150000e+00  1.400000e+00  0.000000e+00
     vertex -4.150000e+00 -1.400000e+00  5.000000e+00
     vertex -4.150000e+00  1.400000e+00  5.000000e+00
   endloop
 endfacet
 facet normal  0.000000e+00 -1.000000e+00  0.000000e+00
   outer loop
     vertex -5.850000e+00  1.400000e+00  0.000000e+00
     vertex -4.150000e+00  1.400000e+00  0.000000e+00
     vertex -4.150000e+00  1.400000e+00  5.000000e+00
   endloop
 endfacet
 facet normal  0.000000e+00 -1.000000e+00  0.000000e+00
   outer loop
     vertex -5.850000e+00  1.400000e+00  0.000000e+00
     vertex -4.150000e+00  1.400000e+00  5.000000e+00
     vertex -5.850000e+00  1.400000e+00  5.000000e+00
   endloop
 endfacet
 facet normal  0.000000e+00  1.000000e+00  0.000000e+00
   outer loop
     vertex -2.150000e+00 -1.400000e+00  0.000000e+00
     vertex -3.850000e+00 -1.400000e+00  0.000000e+00
     vertex -3.850000e+00 -1.400000e+00  5.000000e+00
   endloop
 endfacet
 facet normal  0.000000e+00  1.000000e+00 -0.000000e+00
   outer loop
     vertex -2.150000e+00 -1.400000e+00  0.000000e+00
     vertex -3.850000e+00 -1.400000e+00  5.000000e+00
     vertex -2.150000e+00 -1.400000e+00  5.000000e+00
   endloop
 endfacet
 facet normal  1.000000e+00  0.000000e+00  0.000000e+00
   outer loop
     vertex -3.850000e+00 -1.400000e+00  0.000000e+00
     vertex -3.850000e+00  1.400000e+00  0.000000e+00
     vertex -3.850000e+00  1.400000e+00  5.000000e+00
   endloop
 endfacet
 facet normal  1.000000e+00  0.000000e+00  0.000000e+00
   outer loop
     vertex -3.850000e+00 -1.400000e+00  0.000000e+00
     vertex -3.850000e+00  1.400000e+00  5.000000e+00
     vertex -3.850000e+00 -1.400000e+00  5.000000e+00
   endloop
 endfacet
 facet normal -1.000000e+00  0.000000e+00  0.000000e+00
   outer loop
     vertex -2.150000e+00  1.400000e+00  0.000000e+00
     vertex -2.150000e+00 -1.400000e+00  0.000000e+00
     vertex -2.150000e+00 -1.400000e+00  5.000000e+00
   endloop
 endfacet
 facet normal -1.000000e+00  0.000000e+00  0.000000e+00
   outer loop
     vertex -2.150000e+00  1.400000e+00  0.000000e+00
     vertex -2.150000e+00 -1.400000e+00  5.000000e+00
     vertex -2.150000e+00  1.400000e+00  5.000000e+00
   endloop
 endfacet
 facet normal  0.000000e+00 -1.000000e+00  0.000000e+00
   outer loop
     vertex -3.850000e+00  1.400000e+00  0.000000e+00
     vertex -2.150000e+00  1.400000e+00  0.000000e+00
     vertex -2.150000e+00  1.400000e+00  5.000000e+00
   endloop
 endfacet
 facet normal  0.000000e+00 -1.000000e+00  0.000000e+00
   outer loop
     vertex -3.850000e+00  1.400000e+00  0.000000e+00
     vertex -2.150000e+00  1.400000e+00  5.000000e+00
     vertex -3.850000e+00  1.400000e+00  5.000000e+00
   endloop
 endfacet
 facet normal  0.000000e+00  1.000000e+00  0.000000e+00
   outer loop
     vertex -1.500000e-01 -1.400000e+00  0.000000e+00
     vertex -1.850000e+00 -1.400000e+00  0.000000e+00
     vertex -1.850000e+00 -1.400000e+00  5.000000e+00
   endloop
 endfacet
 facet normal  0.000000e+00  1.000000e+00 -0.000000e+00
   outer loop
     vertex -1.500000e-01 -1.400000e+00  0.000000e+00
     vertex -1.850000e+00 -1.400000e+00  5.000000e+00
     vertex -1.500000e-01 -1.400000e+00  5.000000e+00
   endloop
 endfacet
 facet normal  1.000000e+00  0.000000e+00  0.000000e+00
   outer loop
     vertex -1.850000e+00 -1.400000e+00  0.000000e+00
     vertex -1.850000e+00  1.400000e+00  0.000000e+00
     vertex -1.850000e+00  1.400000e+00  5.000000e+00
   endloop
 endfacet
 facet normal  1.000000e+00  0.000000e+00  0.000000e+00
   outer loop
     vertex -1.850000e+00 -1.400000e+00  0.000000e+00
     vertex -1.850000e+00  1.400000e+00  5.000000e+00
     vertex -1.850000e+00 -1.400000e+00  5.000000e+00
   endloop
 endfacet
 facet normal -1.000000e+00  0.000000e+00  0.000000e+00
   outer loop
     vertex -1.500000e-01  1.400000e+00  0.000000e+00
     vertex -1.500000e-01 -1.400000e+00  0.000000e+00
     vertex -1.500000e-01 -1.400000e+00  5.000000e+00
   endloop
 endfacet
 facet normal -1.000000e+00  0.000000e+00  0.000000e+00
   outer loop
     vertex -1.500000e-01  1.400000e+00  0.000000e+00
     vertex -1.500000e-01 -1.400000e+00  5.000000e+00
     vertex -1.500000e-01  1.400000e+00  5.000000e+00
   endloop
 endfacet
 facet normal  0.000000e+00 -1.000000e+00  0.000000e+00
   outer loop
     vertex -1.850000e+00  1.400000e+00  0.000000e+00
     vertex -1.500000e-01  1.400000e+00  0.000000e+00
     vertex -1.500000e-01  1.400000e+00  5.000000e+00
   endloop
 endfacet
 facet normal  0.000000e+00 -1.000000e+00  0.000000e+00
   outer loop
     vertex -1.850000e+00  1.400000e+00  0.000000e+00
     vertex -1.500000e-01  1.400000e+00  5.000000e+00
     vertex -1.850000e+00  1.400000e+00  5.000000e+00
   endloop
 endfacet
 facet normal  0.000000e+00  1.000000e+00  0.000000e+00
   outer loop
     vertex  1.850000e+00 -1.400000e+00  0.000000e+00
     vertex  1.500000e-01 -1.400000e+00  0.000000e+00
     vertex  1.500000e-01 -1.400000e+00  5.000000e+00
   endloop
 endfacet
 facet normal  0.000000e+00  1.000000e+00 -0.000000e+00
   outer loop
     vertex  1.850000e+00 -1.400000e+00  0.000000e+00
     vertex  1.500000e-01 -1.400000e+00  5.000000e+00
     vertex  1.850000e+00 -1.400000e+00  5.000000e+00
   endloop
 endfacet
 facet normal  1.000000e+00  0.000000e+00  0.000000e+00
   outer loop
     vertex  1.500000e-01 -1.400000e+00  0.000000e+00
     vertex  1.500000e-01  1.400000e+00  0.000000e+00
     vertex  1.500000e-01  1.400000e+00  5.000000e+00
   endloop
 endfacet
 facet normal  1.000000e+00  0.000000e+00  0.000000e+00
   outer loop
     vertex  1.500000e-01 -1.400000e+00  0.000000e+00
     vertex  1.500000e-01  1.400000e+00  5.000000e+00
     vertex  1.500000e-01 -1.400000e+00  5.000000e+00
   endloop
 endfacet
 facet normal -1.000000e+00  0.000000e+00  0.000000e+00
   outer loop
     vertex  1.850000e+00  1.400000e+00  0.000000e+00
     vertex  1.850000e+00 -1.400000e+00  0.000000e+00
     vertex  1.850000e+00 -1.400000e+00  5.000000e+00
   endloop
 endfacet
 facet normal -1.000000e+00  0.000000e+00  0.000000e+00
   outer loop
     vertex  1.850000e+00  1.400000e+00  0.000000e+00
     vertex  1.850000e+00 -1.400000e+00  5.000000e+00
     vertex  1.850000e+00  1.400000e+00  5.000000e+00
   endloop
 endfacet
 facet normal  0.000000e+00 -1.000000e+00  0.000000e+00
   outer loop
     vertex  1.500000e-01  1.400000e+00  0.000000e+00
     vertex  1.850000e+00  1.400000e+00  0.000000e+00
     vertex  1.850000e+00  1.400000e+00  5.000000e+00
   endloop
 endfacet
 facet normal  0.000000e+00 -1.000000e+00  0.000000e+00
   outer loop
     vertex  1.500000e-01  1.400000e+00  0.000000e+00
     vertex  1.850000e+00  1.400000e+00  5.000000e+00
     vertex  1.500000e-01  1.400000e+00  5.000000e+00
   endloop
 endfacet
 facet normal  0.000000e+00  1.000000e+00  0.000000e+00
   outer loop
     vertex  3.850000e+00 -1.400000e+00  0.000000e+00
     vertex  2.150000e+00 -1.400000e+00  0.000000e+00
     vertex  2.150000e+00 -1.400000e+00  5.000000e+00
   endloop
 endfacet
 facet normal  0.000000e+00  1.000000e+00 -0.000000e+00
   outer loop
     vertex  3.850000e+00 -1.400000e+00  0.000000e+00
     vertex  2.150000e+00 -1.400000e+00  5.000000e+00
     vertex  3.850000e+00 -1.400000e+00  5.000000e+00
   endloop
 endfacet
 facet normal  1.000000e+00  0.000000e+00  0.000000e+00
   outer loop
     vertex  2.150000e+00 -1.400000e+00  0.000000e+00
     vertex  2.150000e+00  1.400000e+00  0.000000e+00
     vertex  2.150000e+00  1.400000e+00  5.000000e+00
   endloop
 endfacet
 facet normal  1.000000e+00  0.000000e+00  0.000000e+00
   outer loop
     vertex  2.150000e+00 -1.400000e+00  0.000000e+00
     vertex  2.150000e+00  1.400000e+00  5.000000e+00
     vertex  2.150000e+00 -1.400000e+00  5.000000e+00
   endloop
 endfacet
 facet normal -1.000000e+00  0.000000e+00  0.000000e+00
   outer loop
     vertex  3.850000e+00  1.400000e+00  0.000000e+00
     vertex  3.850000e+00 -1.400000e+00  0.000000e+00
     vertex  3.850000e+00 -1.400000e+00  5.000000e+00
   endloop
 endfacet
 facet normal -1.000000e+00  0.000000e+00  0.000000e+00
   outer loop
     vertex  3.850000e+00  1.400000e+00  0.000000e+00
     vertex  3.850000e+00 -1.400000e+00  5.000000e+00
     vertex  3.850000e+00  1.400000e+00  5.000000e+00
   endloop
 endfacet
 facet normal  0.000000e+00 -1.000000e+00  0.000000e+00
   outer loop
     vertex  2.150000e+00  1.400000e+00  0.000000e+00
     vertex  3.850000e+00  1.400000e+00  0.000000e+00
     vertex  3.850000e+00  1.400000e+00  5.000000e+00
   endloop
 endfacet
 facet normal  0.000000e+00 -1.000000e+00  0.000000e+00
   outer loop
     vertex  2.150000e+00  1.400000e+00  0.000000e+00
     vertex  3.850000e+00  1.400000e+00  5.000000e+00
     vertex  2.150000e+00  1.400000e+00  5.000000e+00
   endloop
 endfacet
 facet normal  0.000000e+00  1.000000e+00  0.000000e+00
   outer loop
     vertex  5.850000e+00 -1.400000e+00  0.000000e+00
     vertex  4.150000e+00 -1.400000e+00  0.000000e+00
     vertex  4.150000e+00 -1.400000e+00  5.000000e+00
   endloop
 endfacet
 facet normal  0.000000e+00  1.000000e+00 -0.000000e+00
   outer loop
     vertex  5.850000e+00 -1.400000e+00  0.000000e+00
     vertex  4.150000e+00 -1.400000e+00  5.000000e+00
     vertex  5.850000e+00 -1.400000e+00  5.000000e+00
   endloop
 endfacet
 facet normal -1.000000e+00  0.000000e+00  0.000000e+00
   outer loop
     vertex  5.850000e+00  1.400000e+00  0.000000e+00
     vertex  5.850000e+00 -1.400000e+00  0.000000e+00
     vertex  5.850000e+00 -1.400000e+00  5.000000e+00
   endloop
 endfacet
 facet normal -1.000000e+00  0.000000e+00  0.000000e+00
   outer loop
     vertex  5.850000e+00  1.400000e+00  0.000000e+00
     vertex  5.850000e+00 -1.400000e+00  5.000000e+00
     vertex  5.850000e+00  1.400000e+00  5.000000e+00
   endloop
 endfacet
 facet normal  0.000000e+00 -1.000000e+00  0.000000e+00
   outer loop
     vertex  4.150000e+00  1.400000e+00  0.000000e+00
     vertex  5.850000e+00  1.400000e+00  0.000000e+00
     vertex  5.850000e+00  1.400000e+00  5.000000e+00
   endloop
 endfacet
 facet normal  0.000000e+00 -1.000000e+00  0.000000e+00
   outer loop
     vertex  4.150000e+00  1.400000e+00  0.000000e+00
     vertex  5.850000e+00  1.400000e+00  5.000000e+00
     vertex  4.150000e+00  1.400000e+00  5.000000e+00
   endloop
 endfacet
 facet normal  1.000000e+00  0.000000e+00  0.000000e+00
   outer loop
     vertex  4.150000e+00 -1.400000e+00  0.000000e+00
     vertex  4.150000e+00  1.400000e+00  0.000000e+00
     vertex  4.150000e+00  1.400000e+00  5.000000e+00
   endloop
 endfacet
 facet normal  1.000000e+00  0.000000e+00  0.000000e+00
   outer loop
     vertex  4.150000e+00 -1.400000e+00  0.000000e+00
     vertex  4.150000e+00  1.400000e+00  5.000000e+00
     vertex  4.150000e+00 -1.400000e+00  5.000000e+00
   endloop
 endfacet
endsolid
