999
"DXF R12 Output" (www.mydxf.blogspot.com)
 0 
SECTION
 2 
HEADER
 9 
$ACADVER
 1 
AC1009
 9 
$EXTMIN
 10 
 0 
 20 
 0 
 9 
$EXTMAX
 10 
 8.5 
 20 
 11 
 0 
ENDSEC
 0 
SECTION
 2 
ENTITIES
0
LINE
8
Layer 1
10
0.846666
20
317.647000
11
-0.846666
21
315.953000
0
LINE
8
Layer 1
10
0.000000
20
318.211000
11
0.000000
21
315.389000
0
LINE
8
Layer 1
10
2.257780
20
315.671000
11
1.128890
21
314.542110
0
LINE
8
Layer 1
10
1.693330
20
316.236000
11
0.564440
21
315.107110
0
LINE
8
Layer 1
10
1.128890
20
316.800000
11
0.000000
21
315.671110
0
LINE
8
Layer_1
10
8.536850
20
1.077740
11
9.814250
21
4.358400
0
LINE
8
Layer_1
10
9.814250
20
4.358400
11
10.723732
21
6.849520
0
LINE
8
Layer_1
10
10.723700
20
6.849520
11
9.992497
21
6.175125
0
LINE
8
Layer_1
10
9.992497
20
6.175125
11
8.428870
21
4.384680
0
LINE
8
Layer_1
10
8.428910
20
4.384680
11
6.984697
21
2.769298
0
LINE
8
Layer_1
10
6.984697
20
2.769298
11
5.734888
21
1.594418
0
LINE
8
Layer_1
10
5.734888
20
1.594418
11
4.779832
21
0.943153
0
LINE
8
Layer_1
10
4.779832
20
0.943153
11
4.444196
21
0.839850
0
LINE
8
Layer_1
10
4.444196
20
0.839850
11
4.219880
21
0.898620
0
LINE
8
Layer_1
10
4.219870
20
0.898614
11
4.518282
21
1.670909
0
LINE
8
Layer_1
10
4.518282
20
1.670909
11
5.451398
21
3.314154
0
LINE
8
Layer_1
10
5.451398
20
3.314154
11
7.704540
21
6.691334
0
LINE
8
Layer_1
10
7.704540
20
6.691330
11
8.306969
21
7.535922
0
LINE
8
Layer_1
10
8.306969
20
7.535922
11
8.335384
21
7.690262
0
LINE
8
Layer_1
10
8.335384
20
7.690262
11
8.183512
21
7.666695
0
LINE
8
Layer_1
10
8.183512
20
7.666695
11
5.796820
21
5.804334
0
LINE
8
Layer_1
10
5.796820
20
5.804340
11
4.142657
21
4.482943
0
LINE
8
Layer_1
10
4.142657
20
4.482943
11
2.715803
21
3.542495
0
LINE
8
Layer_1
10
2.715803
20
3.542495
11
1.634019
21
3.050247
0
LINE
8
Layer_1
10
1.634019
20
3.050247
11
1.015070
21
3.073450
0
LINE
8
Layer_1
10
1.015070
20
3.073450
11
1.457797
21
3.703112
0
LINE
8
Layer_1
10
1.457797
20
3.703112
11
2.760320
21
5.009580
0
LINE
8
Layer_1
10
2.760330
20
5.009570
11
5.926916
21
8.100485
0
LINE
8
Layer_1
10
5.926916
20
8.100485
11
6.695604
21
8.989055
0
LINE
8
Layer_1
10
6.695604
20
8.989055
11
6.947460
21
9.467630
0
LINE
8
Layer_1
10
6.947450
20
9.467640
11
6.720940
21
9.565634
0
LINE
8
Layer_1
10
6.720940
20
9.565634
11
6.150865
21
9.303500
0
LINE
8
Layer_1
10
6.150860
20
9.303500
11
3.711446
21
8.060185
0
LINE
8
Layer_1
10
3.711446
20
8.060185
11
2.625148
21
7.698952
0
LINE
8
Layer_1
10
2.625148
20
7.698952
11
1.773100
21
7.568940
0
LINE
8
Layer_1
10
1.773100
20
7.568930
11
1.356697
21
7.613218
0
LINE
8
Layer_1
10
1.356697
20
7.613218
11
1.388777
21
7.792231
0
LINE
8
Layer_1
10
1.388777
20
7.792231
11
3.086640
21
8.831340
0
LINE
8
Layer_1
10
3.086640
20
8.831340
11
4.982144
21
10.041571
0
LINE
8
Layer_1
10
4.982144
20
10.041571
11
7.060645
21
11.575925
0
LINE
8
Layer_1
10
7.060645
20
11.575925
11
8.736913
21
12.976892
0
LINE
8
Layer_1
10
8.736913
20
12.976892
11
9.425720
21
13.786960
0
LINE
8
Layer_1
10
9.425720
20
13.787000
11
8.953379
21
13.762732
0
LINE
8
Layer_1
10
8.953379
20
13.762732
11
7.817750
21
13.391014
0
LINE
8
Layer_1
10
7.817750
20
13.391000
11
6.259715
21
12.893337
0
LINE
8
Layer_1
10
6.259715
20
12.893337
11
5.636232
21
12.887511
0
LINE
8
Layer_1
10
5.636232
20
12.887511
11
6.004732
21
13.285258
0
LINE
8
Layer_1
10
6.004732
20
13.285258
11
7.422645
21
13.998314
0
LINE
8
Layer_1
10
7.422650
20
13.998300
11
8.781130
21
14.711958
0
LINE
8
Layer_1
10
8.781130
20
14.711958
11
10.414721
21
15.760136
0
LINE
8
Layer_1
10
10.414721
20
15.760136
11
13.791655
21
18.279146
0
LINE
8
Layer_1
10
13.791655
20
18.279146
11
16.122286
21
20.393519
0
LINE
8
Layer_1
10
16.122286
20
20.393519
11
16.447999
21
20.935899
0
LINE
8
Layer_1
10
16.447999
20
20.935899
11
16.322688
21
21.014851
0
LINE
8
Layer_1
10
16.322688
20
21.014851
11
15.975450
21
20.941440
0
LINE
8
Layer_1
10
15.975400
20
20.941400
11
15.411722
21
20.860730
0
LINE
8
Layer_1
10
15.411722
20
20.860730
11
15.710027
21
21.260564
0
LINE
8
Layer_1
10
15.710027
20
21.260564
11
18.636410
21
23.276870
0
LINE
8
Layer_1
10
18.636500
20
23.276900
11
20.882812
21
24.755128
0
LINE
8
Layer_1
10
20.882812
20
24.755128
11
21.817120
21
25.522430
0
LINE
8
Layer_1
10
21.817100
20
25.522400
11
21.993918
21
25.765880
0
LINE
8
Layer_1
10
21.993918
20
25.765880
11
22.419032
21
25.984680
0
LINE
8
Layer_1
10
22.419000
20
25.984700
11
25.024834
21
27.543577
0
LINE
8
Layer_1
10
25.024834
20
27.543577
11
29.682200
21
30.697198
0
LINE
8
Layer_1
10
29.682200
20
30.697198
11
34.451916
21
34.097420
0
LINE
8
Layer_1
10
34.451916
20
34.097420
11
37.394800
21
36.396100
0
LINE
8
Layer_1
10
37.434000
20
37.824900
11
36.640284
21
38.205059
0
LINE
8
Layer_1
10
36.640284
20
38.205059
11
35.929330
21
38.240492
0
LINE
8
Layer_1
10
35.929300
20
38.240500
11
35.426541
21
38.223235
0
LINE
8
Layer_1
10
35.426541
20
38.223235
11
35.270568
21
38.572232
0
LINE
8
Layer_1
10
35.270600
20
38.572200
11
35.456543
21
39.378015
0
LINE
8
Layer_1
10
35.456543
20
39.378015
11
35.913348
21
40.231583
0
LINE
8
Layer_1
10
35.913348
20
40.231583
11
36.489473
21
40.908377
0
LINE
8
Layer_1
10
36.489473
20
40.908377
11
37.033380
21
41.183870
0
LINE
8
Layer_1
10
37.033300
20
41.183900
11
37.743581
21
41.370535
0
LINE
8
Layer_1
10
37.743581
20
41.370535
11
38.580630
21
41.819258
0
LINE
8
Layer_1
10
38.580700
20
41.819300
11
39.599581
21
42.319498
0
LINE
8
Layer_1
10
39.599581
20
42.319498
11
40.747020
21
42.629813
0
LINE
8
Layer_1
10
40.747000
20
42.629800
11
41.740418
21
42.877768
0
LINE
8
Layer_1
10
41.740418
20
42.877768
11
42.389020
21
43.228015
0
LINE
8
Layer_1
10
42.389000
20
43.228000
11
43.073894
21
43.651048
0
LINE
8
Layer_1
10
43.073900
20
43.651000
11
43.740673
21
44.001078
0
LINE
8
Layer_1
10
43.740673
20
44.001078
11
44.811981
21
44.795539
0
LINE
8
Layer_1
10
44.811981
20
44.795539
11
45.807214
21
45.650725
0
LINE
8
Layer_1
10
45.807214
20
45.650725
11
46.245760
21
46.182980
0
LINE
8
Layer_1
10
46.245800
20
46.183000
11
47.436250
21
48.676650
0
LINE
8
Layer_1
10
47.436200
20
48.676700
11
48.893890
21
51.669280
0
LINE
8
Layer_1
10
48.893900
20
51.669300
11
49.954790
21
53.982270
0
LINE
8
Layer_1
10
49.954800
20
53.982200
11
51.706340
21
57.991340
0
LINE
8
Layer_1
10
51.706300
20
57.991400
11
52.995360
21
60.994040
0
LINE
8
Layer_1
10
52.995400
20
60.994000
11
53.326540
21
61.935518
0
LINE
8
Layer_1
10
53.326500
20
61.935500
11
53.763627
21
63.060058
0
LINE
8
Layer_1
10
53.763627
20
63.060058
11
54.820450
21
64.983468
0
LINE
8
Layer_1
10
54.820450
20
64.983468
11
56.115136
21
67.056749
0
LINE
8
Layer_1
10
56.115136
20
67.056749
11
57.265850
21
68.630920
0
LINE
8
Layer_1
10
57.265900
20
68.630900
11
60.048904
21
72.217441
0
LINE
8
Layer_1
10
60.048904
20
72.217441
11
62.213360
21
76.000940
0
LINE
8
Layer_1
10
62.213400
20
76.001000
11
65.003379
21
81.380571
0
LINE
8
Layer_1
10
65.003379
20
81.380571
11
65.459139
21
81.911487
0
LINE
8
Layer_1
10
65.459139
20
81.911487
11
65.626180
21
81.552000
0
LINE
8
Layer_1
10
65.626100
20
81.552000
11
65.506017
21
80.501679
0
LINE
8
Layer_1
10
65.506017
20
80.501679
11
65.036637
21
79.103220
0
LINE
8
Layer_1
10
65.036700
20
79.103200
11
64.436755
21
77.354000
0
LINE
8
Layer_1
10
64.436700
20
77.354000
11
64.736557
21
77.471251
0
LINE
8
Layer_1
10
64.736557
20
77.471251
11
65.357710
21
78.306193
0
LINE
8
Layer_1
10
65.357710
20
78.306193
11
68.165910
21
83.048340
0
LINE
8
Layer_1
10
68.165900
20
83.048300
11
70.257721
21
86.587601
0
LINE
8
Layer_1
10
70.257721
20
86.587601
11
71.255660
21
88.059700
0
LINE
8
Layer_1
10
71.255700
20
88.059700
11
71.383784
21
87.936625
0
LINE
8
Layer_1
10
71.383784
20
87.936625
11
71.415799
21
87.597985
0
LINE
8
Layer_1
10
71.415799
20
87.597985
11
71.235146
21
86.457538
0
LINE
8
Layer_1
10
71.235146
20
86.457538
11
70.800796
21
85.005401
0
LINE
8
Layer_1
10
70.800796
20
85.005401
11
70.199800
21
83.608620
0
LINE
8
Layer_1
10
70.199800
20
83.608700
11
69.591698
21
82.234509
0
LINE
8
Layer_1
10
69.591698
20
82.234509
11
69.613456
21
82.017900
0
LINE
8
Layer_1
10
69.613456
20
82.017900
11
69.842188
21
82.107478
0
LINE
8
Layer_1
10
69.842188
20
82.107478
11
70.889881
21
83.182775
0
LINE
8
Layer_1
10
70.889881
20
83.182775
11
72.673390
21
85.415570
0
LINE
8
Layer_1
10
72.673400
20
85.415500
11
75.559174
21
88.983296
0
LINE
8
Layer_1
10
75.559174
20
88.983296
11
75.812177
21
89.145239
0
LINE
8
Layer_1
10
75.812177
20
89.145239
11
75.930636
21
89.062110
0
LINE
8
Layer_1
10
75.930636
20
89.062110
11
75.869590
21
88.254500
0
LINE
8
Layer_1
10
75.869600
20
88.254500
11
75.276374
21
86.765920
0
LINE
8
Layer_1
10
75.276374
20
86.765920
11
74.141800
21
84.862210
0
LINE
8
Layer_1
10
74.141800
20
84.862300
11
72.587296
21
82.540766
0
LINE
8
Layer_1
10
72.587296
20
82.540766
11
72.499206
21
82.244820
0
LINE
8
Layer_1
10
72.499206
20
82.244820
11
72.693720
21
82.200350
0
LINE
8
Layer_1
10
72.693700
20
82.200300
11
73.790762
21
83.080261
0
LINE
8
Layer_1
10
73.790762
20
83.080261
11
75.995710
21
85.195900
0
LINE
8
Layer_1
10
75.995700
20
85.195900
11
78.276115
21
87.324075
0
LINE
8
Layer_1
10
78.276115
20
87.324075
11
78.868036
21
87.722737
0
LINE
8
Layer_1
10
78.868036
20
87.722737
11
79.101890
21
87.683750
0
LINE
8
Layer_1
10
79.101900
20
87.683700
11
79.023604
21
87.010698
0
LINE
8
Layer_1
10
79.023604
20
87.010698
11
78.508760
21
86.052599
0
LINE
8
Layer_1
10
78.508760
20
86.052599
11
75.964840
21
82.973960
0
LINE
8
Layer_1
10
75.964800
20
82.974000
11
74.479699
21
81.265159
0
LINE
8
Layer_1
10
74.479699
20
81.265159
11
73.943790
21
80.483160
0
LINE
8
Layer_1
10
73.943800
20
80.483200
11
76.185030
21
81.931450
0
LINE
8
Layer_1
10
76.185000
20
81.931400
11
79.594803
21
84.337682
0
LINE
8
Layer_1
10
79.594803
20
84.337682
11
81.343490
21
85.284210
0
LINE
8
Layer_1
10
81.343500
20
85.284200
11
81.425872
21
85.211345
0
LINE
8
Layer_1
10
81.425872
20
85.211345
11
81.375405
21
85.008329
0
LINE
8
Layer_1
10
81.375405
20
85.008329
11
80.943486
21
84.305099
0
LINE
8
Layer_1
10
80.943486
20
84.305099
11
79.228460
21
82.362870
0
LINE
8
Layer_1
10
79.228500
20
82.362900
11
78.161200
21
81.070600
0
LINE
8
Layer_1
10
78.161200
20
81.070600
11
78.199411
21
80.807647
0
LINE
8
Layer_1
10
78.199411
20
80.807647
11
78.640307
21
80.855150
0
LINE
8
Layer_1
10
78.640300
20
80.855100
11
79.022496
21
80.799013
0
LINE
8
Layer_1
10
79.022496
20
80.799013
11
79.172688
21
80.386837
0
LINE
8
Layer_1
10
79.172688
20
80.386837
11
79.083269
21
79.749742
0
LINE
8
Layer_1
10
79.083269
20
79.749742
11
78.746633
21
79.018900
0
LINE
8
Layer_1
10
78.746600
20
79.019000
11
78.417031
21
78.090296
0
LINE
8
Layer_1
10
78.417031
20
78.090296
11
78.221004
21
76.803440
0
LINE
8
Layer_1
10
78.221000
20
76.803400
11
78.026162
21
73.812020
0
LINE
8
Layer_1
10
78.026200
20
73.812000
11
77.829803
21
72.675156
0
LINE
8
Layer_1
10
77.829803
20
72.675156
11
77.489688
21
71.977070
0
LINE
8
Layer_1
10
77.489700
20
71.977100
11
77.177148
21
71.446672
0
LINE
8
Layer_1
10
77.177148
20
71.446672
11
77.047151
21
70.712690
0
LINE
8
Layer_1
10
77.047100
20
70.712700
11
76.891839
21
69.830521
0
LINE
8
Layer_1
10
76.891839
20
69.830521
11
76.518543
21
68.943590
0
LINE
8
Layer_1
10
76.518600
20
68.943600
11
76.208018
21
68.172452
0
LINE
8
Layer_1
10
76.208018
20
68.172452
11
76.203502
21
67.568780
0
LINE
8
Layer_1
10
76.203500
20
67.568700
11
76.174040
21
66.986948
0
LINE
8
Layer_1
10
76.174040
20
66.986948
11
75.803515
21
66.268630
0
LINE
8
Layer_1
10
75.803500
20
66.268700
11
75.337111
21
65.208553
0
LINE
8
Layer_1
10
75.337111
20
65.208553
11
75.077236
21
63.804800
0
LINE
8
Layer_1
10
75.077200
20
63.804800
11
74.838218
21
62.442509
0
LINE
8
Layer_1
10
74.838218
20
62.442509
11
74.422151
21
61.482050
0
LINE
8
Layer_1
10
74.422200
20
61.482000
11
74.091137
21
60.795263
0
LINE
8
Layer_1
10
74.091137
20
60.795263
11
74.086934
21
60.089380
0
LINE
8
Layer_1
10
74.086900
20
60.089400
11
74.115349
21
59.447689
0
LINE
8
Layer_1
10
74.115349
20
59.447689
11
73.836067
21
58.928400
0
LINE
8
Layer_1
10
73.836067
20
58.928400
11
73.295580
21
58.580741
0
LINE
8
Layer_1
10
73.295580
20
58.580741
11
72.540410
21
58.453920
0
LINE
8
Layer_1
10
72.540400
20
58.453900
11
71.908748
21
58.349107
0
LINE
8
Layer_1
10
71.908748
20
58.349107
11
71.875660
21
57.991332
0
LINE
8
Layer_1
10
71.875700
20
57.991400
11
72.299470
21
57.079913
0
LINE
8
Layer_1
10
72.299500
20
57.079900
11
72.187223
21
56.531214
0
LINE
8
Layer_1
10
72.187223
20
56.531214
11
71.591394
21
55.832300
0
LINE
8
Layer_1
10
71.591400
20
55.832300
11
70.943837
21
55.091926
0
LINE
8
Layer_1
10
70.943837
20
55.091926
11
70.674489
21
54.433420
0
LINE
8
Layer_1
10
70.674400
20
54.433400
11
70.466401
21
53.896423
0
LINE
8
Layer_1
10
70.466401
20
53.896423
11
69.966299
21
53.448061
0
LINE
8
Layer_1
10
69.966300
20
53.448100
11
69.435938
21
52.910035
0
LINE
8
Layer_1
10
69.435938
20
52.910035
11
69.258236
21
52.068560
0
LINE
8
Layer_1
10
69.258300
20
52.068500
11
69.084250
21
51.233857
0
LINE
8
Layer_1
10
69.084250
20
51.233857
11
68.539670
21
50.739180
0
LINE
8
Layer_1
10
68.539700
20
50.739200
11
68.017001
21
50.285541
0
LINE
8
Layer_1
10
68.017001
20
50.285541
11
67.920141
21
49.574100
0
LINE
8
Layer_1
10
67.920100
20
49.574100
11
67.819213
21
48.860935
0
LINE
8
Layer_1
10
67.819213
20
48.860935
11
67.222563
21
48.437410
0
LINE
8
Layer_1
10
67.222600
20
48.437400
11
66.615061
21
47.994404
0
LINE
8
Layer_1
10
66.615061
20
47.994404
11
66.426014
21
47.249790
0
LINE
8
Layer_1
10
66.426000
20
47.249800
11
66.259348
21
46.538212
0
LINE
8
Layer_1
10
66.259348
20
46.538212
11
65.717913
21
46.207570
0
LINE
8
Layer_1
10
65.717900
20
46.207600
11
65.191202
21
45.897633
0
LINE
8
Layer_1
10
65.191202
20
45.897633
11
65.009836
21
45.304622
0
LINE
8
Layer_1
10
65.009800
20
45.304600
11
64.787351
21
44.661106
0
LINE
8
Layer_1
10
64.787351
20
44.661106
11
64.124707
21
44.211730
0
LINE
8
Layer_1
10
64.124700
20
44.211700
11
63.574595
21
43.816585
0
LINE
8
Layer_1
10
63.574595
20
43.816585
11
63.258733
21
43.256595
0
LINE
8
Layer_1
10
63.258733
20
43.256595
11
63.227726
21
42.695311
0
LINE
8
Layer_1
10
63.227726
20
42.695311
11
63.532186
21
42.296320
0
LINE
8
Layer_1
10
63.532200
20
42.296300
11
64.697948
21
42.432090
0
LINE
8
Layer_1
10
64.697948
20
42.432090
11
67.240620
21
43.012834
0
LINE
8
Layer_1
10
67.240620
20
43.012834
11
73.860800
21
44.863860
0
LINE
8
Layer_1
10
73.860800
20
44.863900
11
77.135660
21
45.808305
0
LINE
8
Layer_1
10
77.135600
20
45.808300
11
77.323134
21
45.615197
0
LINE
8
Layer_1
10
77.323134
20
45.615197
11
77.401114
21
45.149859
0
LINE
8
Layer_1
10
77.401200
20
45.149900
11
77.579091
21
44.570585
0
LINE
8
Layer_1
10
77.579091
20
44.570585
11
78.006778
21
44.104360
0
LINE
8
Layer_1
10
78.006700
20
44.104300
11
78.423374
21
43.641302
0
LINE
8
Layer_1
10
78.423374
20
43.641302
11
78.190796
21
42.912600
0
LINE
8
Layer_1
10
78.190800
20
42.912600
11
77.965116
21
42.180744
0
LINE
8
Layer_1
10
77.965116
20
42.180744
11
78.470338
21
41.725280
0
LINE
8
Layer_1
10
78.470400
20
41.725300
11
78.970196
21
41.366829
0
LINE
8
Layer_1
10
78.970196
20
41.366829
11
79.134835
21
40.996956
0
LINE
8
Layer_1
10
79.134835
20
40.996956
11
78.964039
21
40.584975
0
LINE
8
Layer_1
10
78.964039
20
40.584975
11
78.457531
21
40.100180
0
LINE
8
Layer_1
10
37.394800
20
36.396100
11
38.279899
21
37.227139
0
LINE
8
Layer_1
10
38.279899
20
37.227139
11
37.433964
21
37.824894
0
LINE
8
Layer_1
10
78.287800
20
37.176400
11
77.742952
21
36.649416
0
LINE
8
Layer_1
10
77.742952
20
36.649416
11
77.502499
21
36.271112
0
LINE
8
Layer_1
10
77.502499
20
36.271112
11
77.528075
21
35.909331
0
LINE
8
Layer_1
10
77.528075
20
35.909331
11
77.781319
21
35.431920
0
LINE
8
Layer_1
10
77.781300
20
35.431900
11
78.069101
21
34.779045
0
LINE
8
Layer_1
10
78.069101
20
34.779045
11
77.896015
21
34.492479
0
LINE
8
Layer_1
10
77.896000
20
34.492500
11
76.296030
21
33.594842
0
LINE
8
Layer_1
10
76.296030
20
33.594842
11
75.644812
21
33.082798
0
LINE
8
Layer_1
10
75.644812
20
33.082798
11
75.510341
21
32.918833
0
LINE
8
Layer_1
10
75.510341
20
32.918833
11
75.561940
21
32.857330
0
LINE
8
Layer_1
10
75.562000
20
32.857300
11
75.963303
21
32.663379
0
LINE
8
Layer_1
10
75.963303
20
32.663379
11
75.963172
21
32.206404
0
LINE
8
Layer_1
10
75.963172
20
32.206404
11
75.625482
21
31.673557
0
LINE
8
Layer_1
10
75.625482
20
31.673557
11
75.014105
21
31.252020
0
LINE
8
Layer_1
10
75.014100
20
31.252000
11
74.241506
21
30.716847
0
LINE
8
Layer_1
10
74.241506
20
30.716847
11
73.861190
21
29.924540
0
LINE
8
Layer_1
10
73.861200
20
29.924600
11
73.537229
21
29.193363
0
LINE
8
Layer_1
10
73.537229
20
29.193363
11
72.885279
21
28.903830
0
LINE
8
Layer_1
10
72.885200
20
28.903800
11
72.235164
21
28.620918
0
LINE
8
Layer_1
10
72.235164
20
28.620918
11
71.865050
21
27.978648
0
LINE
8
Layer_1
10
71.865100
20
27.978700
11
71.568947
21
27.194765
0
LINE
8
Layer_1
10
71.568947
20
27.194765
11
71.165165
21
26.700295
0
LINE
8
Layer_1
10
71.165165
20
26.700295
11
70.608155
21
26.460442
0
LINE
8
Layer_1
10
70.608155
20
26.460442
11
69.852320
21
26.440360
0
LINE
8
Layer_1
10
69.852300
20
26.440300
11
69.277884
21
26.448262
0
LINE
8
Layer_1
10
69.277884
20
26.448262
11
68.857405
21
26.308587
0
LINE
8
Layer_1
10
68.857405
20
26.308587
11
68.085550
21
25.341550
0
LINE
8
Layer_1
10
68.085500
20
25.341600
11
67.648833
21
24.660307
0
LINE
8
Layer_1
10
67.648833
20
24.660307
11
67.249629
21
24.324687
0
LINE
8
Layer_1
10
67.249629
20
24.324687
11
66.671857
21
24.242332
0
LINE
8
Layer_1
10
66.671857
20
24.242332
11
65.699490
21
24.320830
0
LINE
8
Layer_1
10
65.699500
20
24.320800
11
64.332425
21
24.372337
0
LINE
8
Layer_1
10
64.332425
20
24.372337
11
64.155342
21
24.228705
0
LINE
8
Layer_1
10
64.155342
20
24.228705
11
64.190850
21
23.940534
0
LINE
8
Layer_1
10
64.190900
20
23.940500
11
64.053074
21
23.289996
0
LINE
8
Layer_1
10
64.053074
20
23.289996
11
63.462132
21
22.494140
0
LINE
8
Layer_1
10
63.462100
20
22.494200
11
62.930219
21
21.990516
0
LINE
8
Layer_1
10
62.930219
20
21.990516
11
62.543447
21
21.783593
0
LINE
8
Layer_1
10
62.543447
20
21.783593
11
62.122274
21
21.839984
0
LINE
8
Layer_1
10
62.122274
20
21.839984
11
61.487190
21
22.126239
0
LINE
8
Layer_1
10
61.487200
20
22.126200
11
60.647509
21
22.446748
0
LINE
8
Layer_1
10
60.647509
20
22.446748
11
60.463467
21
22.414315
0
LINE
8
Layer_1
10
60.463467
20
22.414315
11
60.407050
21
22.257010
0
LINE
8
Layer_1
10
60.407100
20
22.257000
11
60.142988
21
21.684802
0
LINE
8
Layer_1
10
60.142988
20
21.684802
11
59.480370
21
21.129877
0
LINE
8
Layer_1
10
59.480370
20
21.129877
11
58.613827
21
20.715541
0
LINE
8
Layer_1
10
58.613827
20
20.715541
11
57.737940
21
20.565110
0
LINE
8
Layer_1
10
57.737900
20
20.565100
11
55.941890
21
20.378664
0
LINE
8
Layer_1
10
55.941900
20
20.378700
11
55.364224
21
20.321945
0
LINE
8
Layer_1
10
55.364224
20
20.321945
11
54.928361
21
20.863505
0
LINE
8
Layer_1
10
54.928361
20
20.863505
11
54.438660
21
22.454090
0
LINE
8
Layer_1
10
54.438660
20
22.454090
11
53.699470
21
25.544410
0
LINE
8
Layer_1
10
53.699500
20
25.544400
11
52.513490
21
29.967190
0
LINE
8
Layer_1
10
52.513500
20
29.967200
11
51.582117
21
29.934829
0
LINE
8
Layer_1
10
51.582100
20
29.934500
11
51.043629
21
29.614742
0
LINE
8
Layer_1
10
51.043629
20
29.614742
11
51.068188
21
28.962245
0
LINE
8
Layer_1
10
51.068200
20
28.962300
11
51.093635
21
28.313793
0
LINE
8
Layer_1
10
51.093635
20
28.313793
11
50.537826
21
28.022134
0
LINE
8
Layer_1
10
50.537800
20
28.022100
11
49.976907
21
27.713081
0
LINE
8
Layer_1
10
49.976907
20
27.713081
11
49.785918
21
27.137278
0
LINE
8
Layer_1
10
49.785900
20
27.137300
11
49.599095
21
26.567949
0
LINE
8
Layer_1
10
49.599095
20
26.567949
11
48.989309
21
26.325178
0
LINE
8
Layer_1
10
48.989300
20
26.325200
11
48.373852
21
26.076040
0
LINE
8
Layer_1
10
48.373852
20
26.076040
11
48.083153
21
25.556540
0
LINE
8
Layer_1
10
48.083200
20
25.556500
11
47.726361
21
24.980369
0
LINE
8
Layer_1
10
47.726361
20
24.980369
11
46.932570
21
24.570247
0
LINE
8
Layer_1
10
46.932500
20
24.570300
11
46.153158
21
24.176597
0
LINE
8
Layer_1
10
46.153158
20
24.176597
11
45.891430
21
23.629287
0
LINE
8
Layer_1
10
45.891500
20
23.629300
11
45.608889
21
23.047376
0
LINE
8
Layer_1
10
45.608889
20
23.047376
11
44.854480
21
22.537270
0
LINE
8
Layer_1
10
44.854400
20
22.537200
11
44.057663
21
22.030724
0
LINE
8
Layer_1
10
44.057663
20
22.030724
11
43.598350
21
21.468960
0
LINE
8
Layer_1
10
43.598400
20
21.469000
11
43.089829
21
20.942712
0
LINE
8
Layer_1
10
43.089829
20
20.942712
11
42.174620
21
20.521496
0
LINE
8
Layer_1
10
42.174600
20
20.521500
11
41.216424
21
20.113781
0
LINE
8
Layer_1
10
41.216424
20
20.113781
11
41.179069
21
19.846139
0
LINE
8
Layer_1
10
41.179069
20
19.846139
11
41.358465
21
19.432210
0
LINE
8
Layer_1
10
41.358500
20
19.432200
11
41.536087
21
18.767551
0
LINE
8
Layer_1
10
41.536087
20
18.767551
11
41.317509
21
18.243034
0
LINE
8
Layer_1
10
41.317509
20
18.243034
11
40.719294
21
17.876680
0
LINE
8
Layer_1
10
40.719294
20
17.876680
11
39.757970
21
17.686520
0
LINE
8
Layer_1
10
39.757900
20
17.686500
11
38.861482
21
17.478097
0
LINE
8
Layer_1
10
38.861482
20
17.478097
11
38.731872
21
17.247489
0
LINE
8
Layer_1
10
38.731872
20
17.247489
11
38.747960
21
16.879317
0
LINE
8
Layer_1
10
38.748000
20
16.879300
11
38.713986
21
16.245849
0
LINE
8
Layer_1
10
38.713986
20
16.245849
11
38.421301
21
15.738209
0
LINE
8
Layer_1
10
38.421301
20
15.738209
11
37.912223
21
15.400945
0
LINE
8
Layer_1
10
37.912223
20
15.400945
11
37.229030
21
15.278620
0
LINE
8
Layer_1
10
37.229000
20
15.278600
11
36.487413
21
15.099713
0
LINE
8
Layer_1
10
36.487413
20
15.099713
11
35.809410
21
14.669621
0
LINE
8
Layer_1
10
35.809400
20
14.669700
11
34.832701
21
13.983575
0
LINE
8
Layer_1
10
34.832701
20
13.983575
11
33.551285
21
13.386135
0
LINE
8
Layer_1
10
33.551285
20
13.386135
11
32.292944
21
13.003821
0
LINE
8
Layer_1
10
32.292944
20
13.003821
11
31.385470
21
12.963080
0
LINE
8
Layer_1
10
31.385500
20
12.963000
11
30.878610
21
13.013458
0
LINE
8
Layer_1
10
30.878610
20
13.013458
11
30.667784
21
12.855784
0
LINE
8
Layer_1
10
30.667800
20
12.855800
11
30.364888
21
12.239542
0
LINE
8
Layer_1
10
30.364888
20
12.239542
11
29.640709
21
11.512418
0
LINE
8
Layer_1
10
29.640709
20
11.512418
11
28.772100
21
10.906188
0
LINE
8
Layer_1
10
28.772100
20
10.906188
11
28.035900
21
10.652610
0
LINE
8
Layer_1
10
28.035900
20
10.652600
11
27.283548
21
10.471438
0
LINE
8
Layer_1
10
27.283548
20
10.471438
11
26.596350
21
10.035832
0
LINE
8
Layer_1
10
26.596300
20
10.035900
11
25.919309
21
9.600287
0
LINE
8
Layer_1
10
25.919309
20
9.600287
11
25.191510
21
9.419076
0
LINE
8
Layer_1
10
25.191600
20
9.419040
11
24.353122
21
9.147296
0
LINE
8
Layer_1
10
24.353122
20
9.147296
11
23.410040
21
8.493916
0
LINE
8
Layer_1
10
23.410000
20
8.493910
11
22.465103
21
7.840467
0
LINE
8
Layer_1
10
22.465103
20
7.840467
11
21.622250
21
7.568702
0
LINE
8
Layer_1
10
21.622200
20
7.568710
11
20.685673
21
7.296937
0
LINE
8
Layer_1
10
20.685673
20
7.296937
11
19.515520
21
6.643530
0
LINE
8
Layer_1
10
19.515600
20
6.643530
11
18.346405
21
5.990137
0
LINE
8
Layer_1
10
18.346405
20
5.990137
11
17.412150
21
5.718378
0
LINE
8
Layer_1
10
17.412100
20
5.718370
11
16.517627
21
5.401311
0
LINE
8
Layer_1
10
16.517627
20
5.401311
11
15.444120
21
4.639010
0
LINE
8
Layer_1
10
15.444100
20
4.639020
11
14.543219
21
3.926200
0
LINE
8
Layer_1
10
14.543219
20
3.926200
11
13.876234
21
3.608739
0
LINE
8
Layer_1
10
13.876234
20
3.608739
11
13.462124
21
3.690757
0
LINE
8
Layer_1
10
13.462124
20
3.690757
11
13.319870
21
4.176373
0
LINE
8
Layer_1
10
13.319900
20
4.176370
11
13.235681
21
4.656768
0
LINE
8
Layer_1
10
13.235681
20
4.656768
11
12.993263
21
4.749436
0
LINE
8
Layer_1
10
12.993263
20
4.749436
11
12.608006
21
4.459199
0
LINE
8
Layer_1
10
12.608006
20
4.459199
11
12.095270
21
3.790883
0
LINE
8
Layer_1
10
12.095300
20
3.790880
11
10.166820
21
1.446927
0
LINE
8
Layer_1
10
10.166820
20
1.446927
11
9.222295
21
0.533864
0
LINE
8
Layer_1
10
9.222295
20
0.533864
11
8.646640
21
0.167210
0
LINE
8
Layer_1
10
8.646610
20
0.167208
11
8.471048
21
0.429495
0
LINE
8
Layer_1
10
8.471048
20
0.429495
11
8.536580
21
1.077459
0
LINE
8
Layer_1
10
78.457500
20
40.100200
11
77.743913
21
39.537599
0
LINE
8
Layer_1
10
77.743913
20
39.537599
11
78.521452
21
38.816711
0
LINE
8
Layer_1
10
78.521452
20
38.816711
11
79.298985
21
38.095750
0
LINE
8
Layer_1
10
79.298985
20
38.095750
11
78.287795
21
37.176403
0
LINE
8
Layer_1
10
8.536580
20
1.077460
11
8.536857
21
1.077742
 0 
ENDSEC
 0 
EOF